%TF.GenerationSoftware,KiCad,Pcbnew,(6.0.0)*%
%TF.CreationDate,2023-08-19T11:13:56+07:00*%
%TF.ProjectId,pacman,7061636d-616e-42e6-9b69-6361645f7063,rev?*%
%TF.SameCoordinates,Original*%
%TF.FileFunction,Paste,Bot*%
%TF.FilePolarity,Positive*%
%FSLAX46Y46*%
G04 Gerber Fmt 4.6, Leading zero omitted, Abs format (unit mm)*
G04 Created by KiCad (PCBNEW (6.0.0)) date 2023-08-19 11:13:56*
%MOMM*%
%LPD*%
G01*
G04 APERTURE LIST*
G04 Aperture macros list*
%AMRoundRect*
0 Rectangle with rounded corners*
0 $1 Rounding radius*
0 $2 $3 $4 $5 $6 $7 $8 $9 X,Y pos of 4 corners*
0 Add a 4 corners polygon primitive as box body*
4,1,4,$2,$3,$4,$5,$6,$7,$8,$9,$2,$3,0*
0 Add four circle primitives for the rounded corners*
1,1,$1+$1,$2,$3*
1,1,$1+$1,$4,$5*
1,1,$1+$1,$6,$7*
1,1,$1+$1,$8,$9*
0 Add four rect primitives between the rounded corners*
20,1,$1+$1,$2,$3,$4,$5,0*
20,1,$1+$1,$4,$5,$6,$7,0*
20,1,$1+$1,$6,$7,$8,$9,0*
20,1,$1+$1,$8,$9,$2,$3,0*%
%AMRotRect*
0 Rectangle, with rotation*
0 The origin of the aperture is its center*
0 $1 length*
0 $2 width*
0 $3 Rotation angle, in degrees counterclockwise*
0 Add horizontal line*
21,1,$1,$2,0,0,$3*%
G04 Aperture macros list end*
%ADD10R,2.550000X2.500000*%
%ADD11R,0.450000X0.600000*%
%ADD12RoundRect,0.140000X-0.140000X-0.170000X0.140000X-0.170000X0.140000X0.170000X-0.140000X0.170000X0*%
%ADD13RoundRect,0.250000X-0.292217X0.292217X-0.292217X-0.292217X0.292217X-0.292217X0.292217X0.292217X0*%
%ADD14RoundRect,0.050000X-0.050000X0.387500X-0.050000X-0.387500X0.050000X-0.387500X0.050000X0.387500X0*%
%ADD15RoundRect,0.050000X-0.387500X0.050000X-0.387500X-0.050000X0.387500X-0.050000X0.387500X0.050000X0*%
%ADD16RoundRect,0.135000X-0.185000X0.135000X-0.185000X-0.135000X0.185000X-0.135000X0.185000X0.135000X0*%
%ADD17RoundRect,0.140000X0.170000X-0.140000X0.170000X0.140000X-0.170000X0.140000X-0.170000X-0.140000X0*%
%ADD18R,1.500000X1.000000*%
%ADD19RoundRect,0.135000X0.185000X-0.135000X0.185000X0.135000X-0.185000X0.135000X-0.185000X-0.135000X0*%
%ADD20RotRect,2.100000X1.800000X45.000000*%
%ADD21RoundRect,0.140000X-0.170000X0.140000X-0.170000X-0.140000X0.170000X-0.140000X0.170000X0.140000X0*%
%ADD22R,0.600000X0.450000*%
%ADD23RoundRect,0.140000X0.021213X-0.219203X0.219203X-0.021213X-0.021213X0.219203X-0.219203X0.021213X0*%
%ADD24RoundRect,0.140000X-0.021213X0.219203X-0.219203X0.021213X0.021213X-0.219203X0.219203X-0.021213X0*%
%ADD25RoundRect,0.150000X0.650000X0.150000X-0.650000X0.150000X-0.650000X-0.150000X0.650000X-0.150000X0*%
%ADD26RoundRect,0.050000X-0.300000X-0.725000X0.300000X-0.725000X0.300000X0.725000X-0.300000X0.725000X0*%
%ADD27RoundRect,0.050000X-0.150000X-0.725000X0.150000X-0.725000X0.150000X0.725000X-0.150000X0.725000X0*%
%ADD28RoundRect,0.140000X0.140000X0.170000X-0.140000X0.170000X-0.140000X-0.170000X0.140000X-0.170000X0*%
%ADD29R,2.000000X1.500000*%
%ADD30R,2.000000X3.800000*%
%ADD31RoundRect,0.135000X-0.035355X0.226274X-0.226274X0.035355X0.035355X-0.226274X0.226274X-0.035355X0*%
%ADD32R,1.700000X1.000000*%
%ADD33RoundRect,0.135000X0.135000X0.185000X-0.135000X0.185000X-0.135000X-0.185000X0.135000X-0.185000X0*%
G04 APERTURE END LIST*
D10*
%TO.C,SW1*%
X20289398Y-24844398D03*
X33216398Y-22304398D03*
%TD*%
%TO.C,SW12*%
X229839574Y-24844398D03*
X242766574Y-22304398D03*
%TD*%
%TO.C,SW20*%
X153649510Y-43894414D03*
X166576510Y-41354414D03*
%TD*%
%TO.C,SW16*%
X77449446Y-43894414D03*
X90376446Y-41354414D03*
%TD*%
%TO.C,SW3*%
X59652430Y-32464398D03*
X72579430Y-29924398D03*
%TD*%
%TO.C,SW6*%
X115549478Y-24844398D03*
X128476478Y-22304398D03*
%TD*%
%TO.C,SW4*%
X77449446Y-24844398D03*
X90376446Y-22304398D03*
%TD*%
%TO.C,SW23*%
X210799558Y-43894414D03*
X223726558Y-41354414D03*
%TD*%
%TO.C,SW35*%
X210789558Y-62944430D03*
X223716558Y-60404430D03*
%TD*%
%TO.C,SW46*%
X191749542Y-81994446D03*
X204676542Y-79454446D03*
%TD*%
%TO.C,SW10*%
X191749542Y-24844398D03*
X204676542Y-22304398D03*
%TD*%
%TO.C,SW27*%
X58399430Y-62944430D03*
X71326430Y-60404430D03*
%TD*%
%TO.C,SW40*%
X77439446Y-81994446D03*
X90366446Y-79454446D03*
%TD*%
%TO.C,SW2*%
X40602414Y-32464398D03*
X53529414Y-29924398D03*
%TD*%
%TO.C,SW14*%
X39349414Y-43894414D03*
X52276414Y-41354414D03*
%TD*%
%TO.C,SW8*%
X153649510Y-24844398D03*
X166576510Y-22304398D03*
%TD*%
%TO.C,SW26*%
X39349414Y-62944430D03*
X52276414Y-60404430D03*
%TD*%
%TO.C,SW32*%
X153649510Y-62944430D03*
X166576510Y-60404430D03*
%TD*%
%TO.C,SW47*%
X210799558Y-81994446D03*
X223726558Y-79454446D03*
%TD*%
%TO.C,SW21*%
X172699526Y-43894414D03*
X185626526Y-41354414D03*
%TD*%
%TO.C,SW25*%
X20299398Y-62944430D03*
X33226398Y-60404430D03*
%TD*%
%TO.C,SW13*%
X20299398Y-43894414D03*
X33226398Y-41354414D03*
%TD*%
%TO.C,SW36*%
X229849574Y-62944430D03*
X242776574Y-60404430D03*
%TD*%
%TO.C,SW15*%
X58399430Y-43894414D03*
X71326430Y-41354414D03*
%TD*%
%TO.C,SW33*%
X172689526Y-62944430D03*
X185616526Y-60404430D03*
%TD*%
%TO.C,SW39*%
X58399430Y-81994446D03*
X71326430Y-79454446D03*
%TD*%
%TO.C,SW38*%
X39349414Y-81994446D03*
X52276414Y-79454446D03*
%TD*%
%TO.C,SW17*%
X96499462Y-43894414D03*
X109426462Y-41354414D03*
%TD*%
%TO.C,SW41*%
X96499462Y-81994446D03*
X109426462Y-79454446D03*
%TD*%
%TO.C,SW44*%
X153639510Y-81994446D03*
X166566510Y-79454446D03*
%TD*%
%TO.C,SW19*%
X134589494Y-43894414D03*
X147516494Y-41354414D03*
%TD*%
%TO.C,SW7*%
X134589494Y-24844398D03*
X147516494Y-22304398D03*
%TD*%
%TO.C,SW5*%
X96499462Y-24844398D03*
X109426462Y-22304398D03*
%TD*%
%TO.C,SW45*%
X172699526Y-81994446D03*
X185626526Y-79454446D03*
%TD*%
%TO.C,SW34*%
X191749542Y-62944430D03*
X204676542Y-60404430D03*
%TD*%
%TO.C,SW28*%
X77439446Y-62944430D03*
X90366446Y-60404430D03*
%TD*%
%TO.C,SW9*%
X172699526Y-24844398D03*
X185626526Y-22304398D03*
%TD*%
%TO.C,SW24*%
X229849574Y-43894414D03*
X242776574Y-41354414D03*
%TD*%
%TO.C,SW48*%
X229849574Y-81994446D03*
X242776574Y-79454446D03*
%TD*%
%TO.C,SW29*%
X96499462Y-62944430D03*
X109426462Y-60404430D03*
%TD*%
%TO.C,SW18*%
X115549478Y-43894414D03*
X128476478Y-41354414D03*
%TD*%
%TO.C,SW22*%
X191749542Y-43894414D03*
X204676542Y-41354414D03*
%TD*%
%TO.C,SW37*%
X20299398Y-81994446D03*
X33226398Y-79454446D03*
%TD*%
%TO.C,SW11*%
X210799558Y-24844398D03*
X223726558Y-22304398D03*
%TD*%
%TO.C,SW30*%
X115549478Y-62944430D03*
X128476478Y-60404430D03*
%TD*%
%TO.C,SW31*%
X134589494Y-62944430D03*
X147516494Y-60404430D03*
%TD*%
%TO.C,SW42_2*%
X125074486Y-81994446D03*
X138001486Y-79454446D03*
%TD*%
D11*
%TO.C,D35*%
X226218940Y-71535888D03*
X226218940Y-69435888D03*
%TD*%
%TO.C,D40*%
X92868828Y-90942263D03*
X92868828Y-88842263D03*
%TD*%
%TO.C,D21*%
X188118908Y-52842231D03*
X188118908Y-50742231D03*
%TD*%
D12*
%TO.C,C15*%
X31570000Y-38850000D03*
X32530000Y-38850000D03*
%TD*%
D13*
%TO.C,U2*%
X56596922Y-52940670D03*
X56596922Y-54215670D03*
X55321922Y-52940670D03*
X55321922Y-54215670D03*
D14*
X53359422Y-50140670D03*
X53759422Y-50140670D03*
X54159422Y-50140670D03*
X54559422Y-50140670D03*
X54959422Y-50140670D03*
X55359422Y-50140670D03*
X55759422Y-50140670D03*
X56159422Y-50140670D03*
X56559422Y-50140670D03*
X56959422Y-50140670D03*
X57359422Y-50140670D03*
X57759422Y-50140670D03*
X58159422Y-50140670D03*
X58559422Y-50140670D03*
D15*
X59396922Y-50978170D03*
X59396922Y-51378170D03*
X59396922Y-51778170D03*
X59396922Y-52178170D03*
X59396922Y-52578170D03*
X59396922Y-52978170D03*
X59396922Y-53378170D03*
X59396922Y-53778170D03*
X59396922Y-54178170D03*
X59396922Y-54578170D03*
X59396922Y-54978170D03*
X59396922Y-55378170D03*
X59396922Y-55778170D03*
X59396922Y-56178170D03*
D14*
X58559422Y-57015670D03*
X58159422Y-57015670D03*
X57759422Y-57015670D03*
X57359422Y-57015670D03*
X56959422Y-57015670D03*
X56559422Y-57015670D03*
X56159422Y-57015670D03*
X55759422Y-57015670D03*
X55359422Y-57015670D03*
X54959422Y-57015670D03*
X54559422Y-57015670D03*
X54159422Y-57015670D03*
X53759422Y-57015670D03*
X53359422Y-57015670D03*
D15*
X52521922Y-56178170D03*
X52521922Y-55778170D03*
X52521922Y-55378170D03*
X52521922Y-54978170D03*
X52521922Y-54578170D03*
X52521922Y-54178170D03*
X52521922Y-53778170D03*
X52521922Y-53378170D03*
X52521922Y-52978170D03*
X52521922Y-52578170D03*
X52521922Y-52178170D03*
X52521922Y-51778170D03*
X52521922Y-51378170D03*
X52521922Y-50978170D03*
%TD*%
D16*
%TO.C,R5*%
X64293804Y-20921268D03*
X64293804Y-21941268D03*
%TD*%
D11*
%TO.C,D32*%
X169068892Y-71892247D03*
X169068892Y-69792247D03*
%TD*%
D17*
%TO.C,C9*%
X57150048Y-47509727D03*
X57150048Y-46549727D03*
%TD*%
D18*
%TO.C,RGB10*%
X115559470Y-73409438D03*
X115559470Y-76609438D03*
X110659470Y-76609438D03*
X110659470Y-73409438D03*
%TD*%
D19*
%TO.C,R3*%
X74414125Y-33252215D03*
X74414125Y-32232215D03*
%TD*%
D11*
%TO.C,D30*%
X130968860Y-71892247D03*
X130968860Y-69792247D03*
%TD*%
D20*
%TO.C,Y1*%
X69003769Y-52599676D03*
X71054379Y-50549066D03*
X72680725Y-52175412D03*
X70630115Y-54226022D03*
%TD*%
D11*
%TO.C,D34*%
X207168924Y-71892247D03*
X207168924Y-69792247D03*
%TD*%
%TO.C,D1*%
X35123467Y-27839085D03*
X35123467Y-25739085D03*
%TD*%
D18*
%TO.C,RGB6*%
X223551848Y-35309406D03*
X223551848Y-38509406D03*
X218651848Y-38509406D03*
X218651848Y-35309406D03*
%TD*%
D21*
%TO.C,C7*%
X57150048Y-59646613D03*
X57150048Y-60606613D03*
%TD*%
D11*
%TO.C,D4*%
X92868828Y-30815650D03*
X92868828Y-28715650D03*
%TD*%
D22*
%TO.C,D3*%
X70745592Y-33099792D03*
X72845592Y-33099792D03*
%TD*%
D23*
%TO.C,C13*%
X73479401Y-53917581D03*
X74158223Y-53238759D03*
%TD*%
D11*
%TO.C,D9*%
X188118908Y-33435408D03*
X188118908Y-31335408D03*
%TD*%
%TO.C,D17*%
X111918844Y-52842231D03*
X111918844Y-50742231D03*
%TD*%
%TO.C,D11*%
X226218940Y-33435408D03*
X226218940Y-31335408D03*
%TD*%
D24*
%TO.C,C12*%
X69395719Y-49666881D03*
X68716897Y-50345703D03*
%TD*%
D11*
%TO.C,D6*%
X130968860Y-33792215D03*
X130968860Y-31692215D03*
%TD*%
%TO.C,D14*%
X55364109Y-42721910D03*
X55364109Y-40621910D03*
%TD*%
D25*
%TO.C,U3*%
X32651616Y-51673170D03*
X32651616Y-52943170D03*
X32651616Y-54213170D03*
X32651616Y-55483170D03*
X25451616Y-55483170D03*
X25451616Y-54213170D03*
X25451616Y-52943170D03*
X25451616Y-51673170D03*
%TD*%
D11*
%TO.C,D44*%
X169068892Y-90942263D03*
X169068892Y-88842263D03*
%TD*%
D18*
%TO.C,RGB7*%
X223670912Y-73409438D03*
X223670912Y-76609438D03*
X218770912Y-76609438D03*
X218770912Y-73409438D03*
%TD*%
D11*
%TO.C,D7*%
X150018876Y-33435408D03*
X150018876Y-31335408D03*
%TD*%
D18*
%TO.C,RGB9*%
X153659502Y-73409438D03*
X153659502Y-76609438D03*
X148759502Y-76609438D03*
X148759502Y-73409438D03*
%TD*%
D11*
%TO.C,D45*%
X188118908Y-90942263D03*
X188118908Y-88842263D03*
%TD*%
%TO.C,D13*%
X35123467Y-46293788D03*
X35123467Y-44193788D03*
%TD*%
D26*
%TO.C,USB1*%
X52734422Y-22582516D03*
X53509422Y-22582516D03*
D27*
X54209422Y-22582516D03*
X54709422Y-22582516D03*
X55209422Y-22582516D03*
X55709422Y-22582516D03*
X56209422Y-22582516D03*
X56709422Y-22582516D03*
X57209422Y-22582516D03*
X57709422Y-22582516D03*
D26*
X58409422Y-22582516D03*
X59184422Y-22582516D03*
%TD*%
D11*
%TO.C,D27*%
X73818812Y-71297760D03*
X73818812Y-69197760D03*
%TD*%
%TO.C,D24*%
X228600192Y-52604712D03*
X228600192Y-50504712D03*
%TD*%
D12*
%TO.C,C8*%
X62623178Y-52982857D03*
X63583178Y-52982857D03*
%TD*%
D11*
%TO.C,D46*%
X207168924Y-90942263D03*
X207168924Y-88842263D03*
%TD*%
D18*
%TO.C,RGB4*%
X153659502Y-35309406D03*
X153659502Y-38509406D03*
X148759502Y-38509406D03*
X148759502Y-35309406D03*
%TD*%
D21*
%TO.C,C14*%
X21431268Y-32262215D03*
X21431268Y-33222215D03*
%TD*%
D11*
%TO.C,D42*%
X140493868Y-90942263D03*
X140493868Y-88842263D03*
%TD*%
%TO.C,D8*%
X169068892Y-33792215D03*
X169068892Y-31692215D03*
%TD*%
D18*
%TO.C,RGB3*%
X115559470Y-35309406D03*
X115559470Y-38509406D03*
X110659470Y-38509406D03*
X110659470Y-35309406D03*
%TD*%
%TO.C,RGB12*%
X45551168Y-73529384D03*
X45551168Y-76729384D03*
X40651168Y-76729384D03*
X40651168Y-73529384D03*
%TD*%
D28*
%TO.C,C1*%
X48700353Y-55364109D03*
X47740353Y-55364109D03*
%TD*%
D11*
%TO.C,D2*%
X54768796Y-35578154D03*
X54768796Y-33478154D03*
%TD*%
%TO.C,D12*%
X228600192Y-33435408D03*
X228600192Y-31335408D03*
%TD*%
D21*
%TO.C,C16*%
X23812800Y-51193776D03*
X23812800Y-52153776D03*
%TD*%
D11*
%TO.C,D15*%
X72628186Y-45698475D03*
X72628186Y-43598475D03*
%TD*%
D28*
%TO.C,C11*%
X48700353Y-56554735D03*
X47740353Y-56554735D03*
%TD*%
%TO.C,C6*%
X48700353Y-57745361D03*
X47740353Y-57745361D03*
%TD*%
D11*
%TO.C,D37*%
X35718780Y-90942263D03*
X35718780Y-88842263D03*
%TD*%
D28*
%TO.C,C2*%
X48700353Y-51792231D03*
X47740353Y-51792231D03*
%TD*%
D18*
%TO.C,RGB2*%
X71149928Y-35309406D03*
X71149928Y-38509406D03*
X66249928Y-38509406D03*
X66249928Y-35309406D03*
%TD*%
D16*
%TO.C,R4*%
X47625040Y-20921268D03*
X47625040Y-21941268D03*
%TD*%
D11*
%TO.C,D36*%
X228600192Y-71535888D03*
X228600192Y-69435888D03*
%TD*%
%TO.C,D26*%
X54768796Y-71892247D03*
X54768796Y-69792247D03*
%TD*%
%TO.C,D28*%
X92868828Y-71892247D03*
X92868828Y-69792247D03*
%TD*%
D12*
%TO.C,C10*%
X62623178Y-54173483D03*
X63583178Y-54173483D03*
%TD*%
D11*
%TO.C,D20*%
X169068892Y-52842231D03*
X169068892Y-50742231D03*
%TD*%
%TO.C,D22*%
X207168924Y-52842231D03*
X207168924Y-50742231D03*
%TD*%
%TO.C,D23*%
X226218940Y-52604712D03*
X226218940Y-50504712D03*
%TD*%
D18*
%TO.C,RGB11*%
X71268992Y-73409438D03*
X71268992Y-76609438D03*
X66368992Y-76609438D03*
X66368992Y-73409438D03*
%TD*%
D29*
%TO.C,U1*%
X25425024Y-36828154D03*
D30*
X31725024Y-34528154D03*
D29*
X25425024Y-34528154D03*
X25425024Y-32228154D03*
%TD*%
D31*
%TO.C,R2*%
X72628186Y-54768796D03*
X71906938Y-55490044D03*
%TD*%
D32*
%TO.C,J2*%
X81384446Y-33223467D03*
X87684446Y-33223467D03*
X81384446Y-37023467D03*
X87684446Y-37023467D03*
%TD*%
D28*
%TO.C,C3*%
X48700353Y-52982857D03*
X47740353Y-52982857D03*
%TD*%
D11*
%TO.C,D33*%
X188118908Y-70940568D03*
X188118908Y-68840568D03*
%TD*%
D18*
%TO.C,RGB1*%
X45551168Y-35309406D03*
X45551168Y-38509406D03*
X40651168Y-38509406D03*
X40651168Y-35309406D03*
%TD*%
D11*
%TO.C,D48*%
X228600192Y-90942263D03*
X228600192Y-88842263D03*
%TD*%
%TO.C,D16*%
X92868828Y-52842231D03*
X92868828Y-50742231D03*
%TD*%
%TO.C,D25*%
X35718780Y-71535888D03*
X35718780Y-69435888D03*
%TD*%
%TO.C,D19*%
X150018876Y-52842231D03*
X150018876Y-50742231D03*
%TD*%
D28*
%TO.C,C5*%
X51280000Y-57700000D03*
X50320000Y-57700000D03*
%TD*%
D11*
%TO.C,D47*%
X226218940Y-90942263D03*
X226218940Y-88842263D03*
%TD*%
D18*
%TO.C,RGB8*%
X197953088Y-73409438D03*
X197953088Y-76609438D03*
X193053088Y-76609438D03*
X193053088Y-73409438D03*
%TD*%
D11*
%TO.C,D18*%
X130968860Y-52604712D03*
X130968860Y-50504712D03*
%TD*%
%TO.C,D38*%
X54768796Y-90942263D03*
X54768796Y-88842263D03*
%TD*%
D19*
%TO.C,R1*%
X75604751Y-33252215D03*
X75604751Y-32232215D03*
%TD*%
D32*
%TO.C,J1*%
X90909454Y-33223467D03*
X97209454Y-33223467D03*
X90909454Y-37023467D03*
X97209454Y-37023467D03*
%TD*%
D11*
%TO.C,D5*%
X111918844Y-33435408D03*
X111918844Y-31335408D03*
%TD*%
D18*
%TO.C,RGB5*%
X197953088Y-35309406D03*
X197953088Y-38509406D03*
X193053088Y-38509406D03*
X193053088Y-35309406D03*
%TD*%
D11*
%TO.C,D10*%
X207168924Y-33792215D03*
X207168924Y-31692215D03*
%TD*%
%TO.C,D29*%
X111918844Y-71535888D03*
X111918844Y-69435888D03*
%TD*%
%TO.C,D39*%
X73818812Y-90942263D03*
X73818812Y-88842263D03*
%TD*%
D33*
%TO.C,R6*%
X35752944Y-50959392D03*
X34732944Y-50959392D03*
%TD*%
D17*
%TO.C,C4*%
X52982857Y-47509727D03*
X52982857Y-46549727D03*
%TD*%
D11*
%TO.C,D41*%
X111918844Y-90942263D03*
X111918844Y-88842263D03*
%TD*%
%TO.C,D31*%
X150018876Y-71535888D03*
X150018876Y-69435888D03*
%TD*%
M02*
