%TF.GenerationSoftware,KiCad,Pcbnew,(6.0.0)*%
%TF.CreationDate,2023-08-19T11:13:56+07:00*%
%TF.ProjectId,pacman,7061636d-616e-42e6-9b69-6361645f7063,rev?*%
%TF.SameCoordinates,Original*%
%TF.FileFunction,Soldermask,Top*%
%TF.FilePolarity,Negative*%
%FSLAX46Y46*%
G04 Gerber Fmt 4.6, Leading zero omitted, Abs format (unit mm)*
G04 Created by KiCad (PCBNEW (6.0.0)) date 2023-08-19 11:13:56*
%MOMM*%
%LPD*%
G01*
G04 APERTURE LIST*
%ADD10C,0.010000*%
%ADD11C,3.987800*%
%ADD12C,1.750000*%
%ADD13C,3.000000*%
%ADD14C,5.000000*%
%ADD15C,3.048000*%
%ADD16C,0.750000*%
%ADD17O,1.100000X1.700000*%
%ADD18O,1.100000X2.200000*%
G04 APERTURE END LIST*
D10*
%TO.C,Ref\u002A\u002A*%
X150369248Y-84614946D02*
X150466435Y-84684049D01*
X150466435Y-84684049D02*
X150550502Y-84775472D01*
X150550502Y-84775472D02*
X150610471Y-84875965D01*
X150610471Y-84875965D02*
X150628613Y-84927913D01*
X150628613Y-84927913D02*
X150633150Y-84963519D01*
X150633150Y-84963519D02*
X150637169Y-85032848D01*
X150637169Y-85032848D02*
X150640681Y-85136842D01*
X150640681Y-85136842D02*
X150643697Y-85276444D01*
X150643697Y-85276444D02*
X150646227Y-85452597D01*
X150646227Y-85452597D02*
X150648283Y-85666245D01*
X150648283Y-85666245D02*
X150649875Y-85918331D01*
X150649875Y-85918331D02*
X150651015Y-86209798D01*
X150651015Y-86209798D02*
X150651712Y-86541589D01*
X150651712Y-86541589D02*
X150651977Y-86914648D01*
X150651977Y-86914648D02*
X150651981Y-86965415D01*
X150651981Y-86965415D02*
X150652032Y-87309962D01*
X150652032Y-87309962D02*
X150652057Y-87614780D01*
X150652057Y-87614780D02*
X150651859Y-87882475D01*
X150651859Y-87882475D02*
X150651243Y-88115653D01*
X150651243Y-88115653D02*
X150650015Y-88316918D01*
X150650015Y-88316918D02*
X150647979Y-88488875D01*
X150647979Y-88488875D02*
X150644940Y-88634129D01*
X150644940Y-88634129D02*
X150640703Y-88755286D01*
X150640703Y-88755286D02*
X150635072Y-88854950D01*
X150635072Y-88854950D02*
X150627853Y-88935727D01*
X150627853Y-88935727D02*
X150618850Y-89000221D01*
X150618850Y-89000221D02*
X150607868Y-89051038D01*
X150607868Y-89051038D02*
X150594711Y-89090783D01*
X150594711Y-89090783D02*
X150579186Y-89122060D01*
X150579186Y-89122060D02*
X150561096Y-89147475D01*
X150561096Y-89147475D02*
X150540246Y-89169633D01*
X150540246Y-89169633D02*
X150516441Y-89191139D01*
X150516441Y-89191139D02*
X150489486Y-89214597D01*
X150489486Y-89214597D02*
X150483026Y-89220358D01*
X150483026Y-89220358D02*
X150384661Y-89293908D01*
X150384661Y-89293908D02*
X150290269Y-89336631D01*
X150290269Y-89336631D02*
X150283477Y-89338445D01*
X150283477Y-89338445D02*
X150247019Y-89342278D01*
X150247019Y-89342278D02*
X150171982Y-89345751D01*
X150171982Y-89345751D02*
X150062048Y-89348864D01*
X150062048Y-89348864D02*
X149920897Y-89351619D01*
X149920897Y-89351619D02*
X149752209Y-89354016D01*
X149752209Y-89354016D02*
X149559667Y-89356056D01*
X149559667Y-89356056D02*
X149346950Y-89357741D01*
X149346950Y-89357741D02*
X149117739Y-89359072D01*
X149117739Y-89359072D02*
X148875715Y-89360049D01*
X148875715Y-89360049D02*
X148624560Y-89360674D01*
X148624560Y-89360674D02*
X148367953Y-89360948D01*
X148367953Y-89360948D02*
X148109575Y-89360871D01*
X148109575Y-89360871D02*
X147853109Y-89360446D01*
X147853109Y-89360446D02*
X147602233Y-89359672D01*
X147602233Y-89359672D02*
X147360629Y-89358551D01*
X147360629Y-89358551D02*
X147131978Y-89357084D01*
X147131978Y-89357084D02*
X146919961Y-89355272D01*
X146919961Y-89355272D02*
X146728258Y-89353116D01*
X146728258Y-89353116D02*
X146560551Y-89350617D01*
X146560551Y-89350617D02*
X146420520Y-89347776D01*
X146420520Y-89347776D02*
X146311845Y-89344594D01*
X146311845Y-89344594D02*
X146238208Y-89341073D01*
X146238208Y-89341073D02*
X146203559Y-89337286D01*
X146203559Y-89337286D02*
X146117955Y-89298405D01*
X146117955Y-89298405D02*
X146029261Y-89231751D01*
X146029261Y-89231751D02*
X145950614Y-89148650D01*
X145950614Y-89148650D02*
X145904626Y-89079568D01*
X145904626Y-89079568D02*
X145857731Y-88991884D01*
X145857731Y-88991884D02*
X145857731Y-86959884D01*
X145857731Y-86959884D02*
X145857759Y-86620705D01*
X145857759Y-86620705D02*
X145857875Y-86321276D01*
X145857875Y-86321276D02*
X145858129Y-86059014D01*
X145858129Y-86059014D02*
X145858567Y-85831334D01*
X145858567Y-85831334D02*
X145859239Y-85635654D01*
X145859239Y-85635654D02*
X145860193Y-85469390D01*
X145860193Y-85469390D02*
X145861478Y-85329958D01*
X145861478Y-85329958D02*
X145863141Y-85214776D01*
X145863141Y-85214776D02*
X145863639Y-85192468D01*
X145863639Y-85192468D02*
X146714981Y-85192468D01*
X146714981Y-85192468D02*
X146714981Y-87287968D01*
X146714981Y-87287968D02*
X147053648Y-87287968D01*
X147053648Y-87287968D02*
X147053648Y-86377801D01*
X147053648Y-86377801D02*
X148006148Y-86377801D01*
X148006148Y-86377801D02*
X148006148Y-87287968D01*
X148006148Y-87287968D02*
X148344814Y-87287968D01*
X148344814Y-87287968D02*
X148344814Y-85192468D01*
X148344814Y-85192468D02*
X148006148Y-85192468D01*
X148006148Y-85192468D02*
X148006148Y-86123801D01*
X148006148Y-86123801D02*
X147053648Y-86123801D01*
X147053648Y-86123801D02*
X147053648Y-85192468D01*
X147053648Y-85192468D02*
X146714981Y-85192468D01*
X146714981Y-85192468D02*
X145863639Y-85192468D01*
X145863639Y-85192468D02*
X145865232Y-85121259D01*
X145865232Y-85121259D02*
X145867798Y-85046825D01*
X145867798Y-85046825D02*
X145870888Y-84988889D01*
X145870888Y-84988889D02*
X145874551Y-84944869D01*
X145874551Y-84944869D02*
X145878834Y-84912181D01*
X145878834Y-84912181D02*
X145883787Y-84888241D01*
X145883787Y-84888241D02*
X145889457Y-84870466D01*
X145889457Y-84870466D02*
X145895893Y-84856273D01*
X145895893Y-84856273D02*
X145897189Y-84853801D01*
X145897189Y-84853801D02*
X145987627Y-84726422D01*
X145987627Y-84726422D02*
X146105577Y-84629499D01*
X146105577Y-84629499D02*
X146132898Y-84613737D01*
X146132898Y-84613737D02*
X146217564Y-84568051D01*
X146217564Y-84568051D02*
X150281564Y-84568051D01*
X150281564Y-84568051D02*
X150369248Y-84614946D01*
X150369248Y-84614946D02*
X150369248Y-84614946D01*
G36*
X150369248Y-84614946D02*
G01*
X150466435Y-84684049D01*
X150550502Y-84775472D01*
X150610471Y-84875965D01*
X150628613Y-84927913D01*
X150633150Y-84963519D01*
X150637169Y-85032848D01*
X150640681Y-85136842D01*
X150643697Y-85276444D01*
X150646227Y-85452597D01*
X150648283Y-85666245D01*
X150649875Y-85918331D01*
X150651015Y-86209798D01*
X150651712Y-86541589D01*
X150651977Y-86914648D01*
X150651981Y-86965415D01*
X150652032Y-87309962D01*
X150652057Y-87614780D01*
X150651859Y-87882475D01*
X150651243Y-88115653D01*
X150650015Y-88316918D01*
X150647979Y-88488875D01*
X150644940Y-88634129D01*
X150640703Y-88755286D01*
X150635072Y-88854950D01*
X150627853Y-88935727D01*
X150618850Y-89000221D01*
X150607868Y-89051038D01*
X150594711Y-89090783D01*
X150579186Y-89122060D01*
X150561096Y-89147475D01*
X150540246Y-89169633D01*
X150516441Y-89191139D01*
X150489486Y-89214597D01*
X150483026Y-89220358D01*
X150384661Y-89293908D01*
X150290269Y-89336631D01*
X150283477Y-89338445D01*
X150247019Y-89342278D01*
X150171982Y-89345751D01*
X150062048Y-89348864D01*
X149920897Y-89351619D01*
X149752209Y-89354016D01*
X149559667Y-89356056D01*
X149346950Y-89357741D01*
X149117739Y-89359072D01*
X148875715Y-89360049D01*
X148624560Y-89360674D01*
X148367953Y-89360948D01*
X148109575Y-89360871D01*
X147853109Y-89360446D01*
X147602233Y-89359672D01*
X147360629Y-89358551D01*
X147131978Y-89357084D01*
X146919961Y-89355272D01*
X146728258Y-89353116D01*
X146560551Y-89350617D01*
X146420520Y-89347776D01*
X146311845Y-89344594D01*
X146238208Y-89341073D01*
X146203559Y-89337286D01*
X146117955Y-89298405D01*
X146029261Y-89231751D01*
X145950614Y-89148650D01*
X145904626Y-89079568D01*
X145857731Y-88991884D01*
X145857731Y-87287968D01*
X146714981Y-87287968D01*
X147053648Y-87287968D01*
X147053648Y-86377801D01*
X148006148Y-86377801D01*
X148006148Y-87287968D01*
X148344814Y-87287968D01*
X148344814Y-85192468D01*
X148006148Y-85192468D01*
X148006148Y-86123801D01*
X147053648Y-86123801D01*
X147053648Y-85192468D01*
X146714981Y-85192468D01*
X146714981Y-87287968D01*
X145857731Y-87287968D01*
X145857731Y-86959884D01*
X145857759Y-86620705D01*
X145857875Y-86321276D01*
X145858129Y-86059014D01*
X145858567Y-85831334D01*
X145859239Y-85635654D01*
X145860193Y-85469390D01*
X145861478Y-85329958D01*
X145863141Y-85214776D01*
X145863639Y-85192468D01*
X145865232Y-85121259D01*
X145867798Y-85046825D01*
X145870888Y-84988889D01*
X145874551Y-84944869D01*
X145878834Y-84912181D01*
X145883787Y-84888241D01*
X145889457Y-84870466D01*
X145895893Y-84856273D01*
X145897189Y-84853801D01*
X145987627Y-84726422D01*
X146105577Y-84629499D01*
X146132898Y-84613737D01*
X146217564Y-84568051D01*
X150281564Y-84568051D01*
X150369248Y-84614946D01*
G37*
X150369248Y-84614946D02*
X150466435Y-84684049D01*
X150550502Y-84775472D01*
X150610471Y-84875965D01*
X150628613Y-84927913D01*
X150633150Y-84963519D01*
X150637169Y-85032848D01*
X150640681Y-85136842D01*
X150643697Y-85276444D01*
X150646227Y-85452597D01*
X150648283Y-85666245D01*
X150649875Y-85918331D01*
X150651015Y-86209798D01*
X150651712Y-86541589D01*
X150651977Y-86914648D01*
X150651981Y-86965415D01*
X150652032Y-87309962D01*
X150652057Y-87614780D01*
X150651859Y-87882475D01*
X150651243Y-88115653D01*
X150650015Y-88316918D01*
X150647979Y-88488875D01*
X150644940Y-88634129D01*
X150640703Y-88755286D01*
X150635072Y-88854950D01*
X150627853Y-88935727D01*
X150618850Y-89000221D01*
X150607868Y-89051038D01*
X150594711Y-89090783D01*
X150579186Y-89122060D01*
X150561096Y-89147475D01*
X150540246Y-89169633D01*
X150516441Y-89191139D01*
X150489486Y-89214597D01*
X150483026Y-89220358D01*
X150384661Y-89293908D01*
X150290269Y-89336631D01*
X150283477Y-89338445D01*
X150247019Y-89342278D01*
X150171982Y-89345751D01*
X150062048Y-89348864D01*
X149920897Y-89351619D01*
X149752209Y-89354016D01*
X149559667Y-89356056D01*
X149346950Y-89357741D01*
X149117739Y-89359072D01*
X148875715Y-89360049D01*
X148624560Y-89360674D01*
X148367953Y-89360948D01*
X148109575Y-89360871D01*
X147853109Y-89360446D01*
X147602233Y-89359672D01*
X147360629Y-89358551D01*
X147131978Y-89357084D01*
X146919961Y-89355272D01*
X146728258Y-89353116D01*
X146560551Y-89350617D01*
X146420520Y-89347776D01*
X146311845Y-89344594D01*
X146238208Y-89341073D01*
X146203559Y-89337286D01*
X146117955Y-89298405D01*
X146029261Y-89231751D01*
X145950614Y-89148650D01*
X145904626Y-89079568D01*
X145857731Y-88991884D01*
X145857731Y-87287968D01*
X146714981Y-87287968D01*
X147053648Y-87287968D01*
X147053648Y-86377801D01*
X148006148Y-86377801D01*
X148006148Y-87287968D01*
X148344814Y-87287968D01*
X148344814Y-85192468D01*
X148006148Y-85192468D01*
X148006148Y-86123801D01*
X147053648Y-86123801D01*
X147053648Y-85192468D01*
X146714981Y-85192468D01*
X146714981Y-87287968D01*
X145857731Y-87287968D01*
X145857731Y-86959884D01*
X145857759Y-86620705D01*
X145857875Y-86321276D01*
X145858129Y-86059014D01*
X145858567Y-85831334D01*
X145859239Y-85635654D01*
X145860193Y-85469390D01*
X145861478Y-85329958D01*
X145863141Y-85214776D01*
X145863639Y-85192468D01*
X145865232Y-85121259D01*
X145867798Y-85046825D01*
X145870888Y-84988889D01*
X145874551Y-84944869D01*
X145878834Y-84912181D01*
X145883787Y-84888241D01*
X145889457Y-84870466D01*
X145895893Y-84856273D01*
X145897189Y-84853801D01*
X145987627Y-84726422D01*
X146105577Y-84629499D01*
X146132898Y-84613737D01*
X146217564Y-84568051D01*
X150281564Y-84568051D01*
X150369248Y-84614946D01*
X149111612Y-79389158D02*
X149232706Y-79471818D01*
X149232706Y-79471818D02*
X149326242Y-79585671D01*
X149326242Y-79585671D02*
X149358730Y-79646801D01*
X149358730Y-79646801D02*
X149364435Y-79662564D01*
X149364435Y-79662564D02*
X149369469Y-79685036D01*
X149369469Y-79685036D02*
X149373874Y-79716766D01*
X149373874Y-79716766D02*
X149377689Y-79760300D01*
X149377689Y-79760300D02*
X149380957Y-79818183D01*
X149380957Y-79818183D02*
X149383718Y-79892963D01*
X149383718Y-79892963D02*
X149386015Y-79987187D01*
X149386015Y-79987187D02*
X149387886Y-80103401D01*
X149387886Y-80103401D02*
X149389375Y-80244151D01*
X149389375Y-80244151D02*
X149390522Y-80411984D01*
X149390522Y-80411984D02*
X149391368Y-80609448D01*
X149391368Y-80609448D02*
X149391954Y-80839087D01*
X149391954Y-80839087D02*
X149392321Y-81103450D01*
X149392321Y-81103450D02*
X149392511Y-81405083D01*
X149392511Y-81405083D02*
X149392564Y-81742301D01*
X149392564Y-81742301D02*
X149392564Y-83763718D01*
X149392564Y-83763718D02*
X149346472Y-83849828D01*
X149346472Y-83849828D02*
X149283347Y-83941112D01*
X149283347Y-83941112D02*
X149200990Y-84023327D01*
X149200990Y-84023327D02*
X149112024Y-84085330D01*
X149112024Y-84085330D02*
X149050104Y-84111441D01*
X149050104Y-84111441D02*
X149013186Y-84115877D01*
X149013186Y-84115877D02*
X148936014Y-84119816D01*
X148936014Y-84119816D02*
X148818349Y-84123262D01*
X148818349Y-84123262D02*
X148659950Y-84126217D01*
X148659950Y-84126217D02*
X148460579Y-84128683D01*
X148460579Y-84128683D02*
X148219996Y-84130663D01*
X148219996Y-84130663D02*
X147937962Y-84132160D01*
X147937962Y-84132160D02*
X147614236Y-84133177D01*
X147614236Y-84133177D02*
X147248580Y-84133715D01*
X147248580Y-84133715D02*
X146979564Y-84133809D01*
X146979564Y-84133809D02*
X144989898Y-84133721D01*
X144989898Y-84133721D02*
X144884064Y-84083812D01*
X144884064Y-84083812D02*
X144782169Y-84024967D01*
X144782169Y-84024967D02*
X144708657Y-83953027D01*
X144708657Y-83953027D02*
X144650097Y-83854317D01*
X144650097Y-83854317D02*
X144642426Y-83837801D01*
X144642426Y-83837801D02*
X144635162Y-83821000D01*
X144635162Y-83821000D02*
X144628762Y-83802864D01*
X144628762Y-83802864D02*
X144623169Y-83780751D01*
X144623169Y-83780751D02*
X144618328Y-83752019D01*
X144618328Y-83752019D02*
X144614185Y-83714027D01*
X144614185Y-83714027D02*
X144610683Y-83664133D01*
X144610683Y-83664133D02*
X144607768Y-83599695D01*
X144607768Y-83599695D02*
X144605385Y-83518071D01*
X144605385Y-83518071D02*
X144603478Y-83416620D01*
X144603478Y-83416620D02*
X144601992Y-83292700D01*
X144601992Y-83292700D02*
X144600872Y-83143669D01*
X144600872Y-83143669D02*
X144600062Y-82966884D01*
X144600062Y-82966884D02*
X144599508Y-82759705D01*
X144599508Y-82759705D02*
X144599153Y-82519490D01*
X144599153Y-82519490D02*
X144598944Y-82243597D01*
X144598944Y-82243597D02*
X144598824Y-81929384D01*
X144598824Y-81929384D02*
X144598779Y-81750254D01*
X144598779Y-81750254D02*
X144598672Y-81405174D01*
X144598672Y-81405174D02*
X144598623Y-81099834D01*
X144598623Y-81099834D02*
X144598786Y-80831641D01*
X144598786Y-80831641D02*
X144599313Y-80598002D01*
X144599313Y-80598002D02*
X144600357Y-80396323D01*
X144600357Y-80396323D02*
X144602073Y-80224011D01*
X144602073Y-80224011D02*
X144604612Y-80078473D01*
X144604612Y-80078473D02*
X144608129Y-79957116D01*
X144608129Y-79957116D02*
X144610951Y-79896507D01*
X144610951Y-79896507D02*
X145406175Y-79896507D01*
X145406175Y-79896507D02*
X145417443Y-79918541D01*
X145417443Y-79918541D02*
X145446280Y-79973541D01*
X145446280Y-79973541D02*
X145490357Y-80057107D01*
X145490357Y-80057107D02*
X145547348Y-80164839D01*
X145547348Y-80164839D02*
X145614926Y-80292336D01*
X145614926Y-80292336D02*
X145690763Y-80435199D01*
X145690763Y-80435199D02*
X145757189Y-80560177D01*
X145757189Y-80560177D02*
X146101148Y-81206975D01*
X146101148Y-81206975D02*
X146101148Y-81975134D01*
X146101148Y-81975134D02*
X146439814Y-81975134D01*
X146439814Y-81975134D02*
X146439814Y-81230464D01*
X146439814Y-81230464D02*
X146791684Y-80570924D01*
X146791684Y-80570924D02*
X146873646Y-80417333D01*
X146873646Y-80417333D02*
X146949359Y-80275527D01*
X146949359Y-80275527D02*
X147016499Y-80149851D01*
X147016499Y-80149851D02*
X147072744Y-80044648D01*
X147072744Y-80044648D02*
X147115772Y-79964262D01*
X147115772Y-79964262D02*
X147143261Y-79913038D01*
X147143261Y-79913038D02*
X147152766Y-79895509D01*
X147152766Y-79895509D02*
X147137558Y-79888392D01*
X147137558Y-79888392D02*
X147089063Y-79882926D01*
X147089063Y-79882926D02*
X147016322Y-79879944D01*
X147016322Y-79879944D02*
X146980898Y-79879634D01*
X146980898Y-79879634D02*
X146799817Y-79879634D01*
X146799817Y-79879634D02*
X146545648Y-80387634D01*
X146545648Y-80387634D02*
X146477836Y-80522028D01*
X146477836Y-80522028D02*
X146415674Y-80643055D01*
X146415674Y-80643055D02*
X146361774Y-80745806D01*
X146361774Y-80745806D02*
X146318744Y-80825372D01*
X146318744Y-80825372D02*
X146289195Y-80876846D01*
X146289195Y-80876846D02*
X146275737Y-80895318D01*
X146275737Y-80895318D02*
X146275688Y-80895319D01*
X146275688Y-80895319D02*
X146262611Y-80876975D01*
X146262611Y-80876975D02*
X146233785Y-80825422D01*
X146233785Y-80825422D02*
X146191777Y-80745616D01*
X146191777Y-80745616D02*
X146139151Y-80642517D01*
X146139151Y-80642517D02*
X146078472Y-80521080D01*
X146078472Y-80521080D02*
X146012820Y-80387319D01*
X146012820Y-80387319D02*
X145765742Y-79879634D01*
X145765742Y-79879634D02*
X145582431Y-79879634D01*
X145582431Y-79879634D02*
X145501351Y-79881420D01*
X145501351Y-79881420D02*
X145440351Y-79886193D01*
X145440351Y-79886193D02*
X145408569Y-79893079D01*
X145408569Y-79893079D02*
X145406175Y-79896507D01*
X145406175Y-79896507D02*
X144610951Y-79896507D01*
X144610951Y-79896507D02*
X144612775Y-79857347D01*
X144612775Y-79857347D02*
X144618705Y-79776572D01*
X144618705Y-79776572D02*
X144626071Y-79712198D01*
X144626071Y-79712198D02*
X144635026Y-79661631D01*
X144635026Y-79661631D02*
X144645724Y-79622280D01*
X144645724Y-79622280D02*
X144658317Y-79591550D01*
X144658317Y-79591550D02*
X144672959Y-79566848D01*
X144672959Y-79566848D02*
X144689803Y-79545582D01*
X144689803Y-79545582D02*
X144709001Y-79525157D01*
X144709001Y-79525157D02*
X144730708Y-79502981D01*
X144730708Y-79502981D02*
X144731506Y-79502150D01*
X144731506Y-79502150D02*
X144795826Y-79445328D01*
X144795826Y-79445328D02*
X144869032Y-79394255D01*
X144869032Y-79394255D02*
X144884064Y-79385654D01*
X144884064Y-79385654D02*
X144968731Y-79339884D01*
X144968731Y-79339884D02*
X149011564Y-79339884D01*
X149011564Y-79339884D02*
X149111612Y-79389158D01*
X149111612Y-79389158D02*
X149111612Y-79389158D01*
G36*
X144618705Y-79776572D02*
G01*
X144626071Y-79712198D01*
X144635026Y-79661631D01*
X144645724Y-79622280D01*
X144658317Y-79591550D01*
X144672959Y-79566848D01*
X144689803Y-79545582D01*
X144709001Y-79525157D01*
X144730708Y-79502981D01*
X144731506Y-79502150D01*
X144795826Y-79445328D01*
X144869032Y-79394255D01*
X144884064Y-79385654D01*
X144968731Y-79339884D01*
X149011564Y-79339884D01*
X149111612Y-79389158D01*
X149232706Y-79471818D01*
X149326242Y-79585671D01*
X149358730Y-79646801D01*
X149364435Y-79662564D01*
X149369469Y-79685036D01*
X149373874Y-79716766D01*
X149377689Y-79760300D01*
X149380957Y-79818183D01*
X149383718Y-79892963D01*
X149386015Y-79987187D01*
X149387886Y-80103401D01*
X149389375Y-80244151D01*
X149390522Y-80411984D01*
X149391368Y-80609448D01*
X149391954Y-80839087D01*
X149392321Y-81103450D01*
X149392511Y-81405083D01*
X149392564Y-81742301D01*
X149392564Y-83763718D01*
X149346472Y-83849828D01*
X149283347Y-83941112D01*
X149200990Y-84023327D01*
X149112024Y-84085330D01*
X149050104Y-84111441D01*
X149013186Y-84115877D01*
X148936014Y-84119816D01*
X148818349Y-84123262D01*
X148659950Y-84126217D01*
X148460579Y-84128683D01*
X148219996Y-84130663D01*
X147937962Y-84132160D01*
X147614236Y-84133177D01*
X147248580Y-84133715D01*
X146979564Y-84133809D01*
X144989898Y-84133721D01*
X144884064Y-84083812D01*
X144782169Y-84024967D01*
X144708657Y-83953027D01*
X144650097Y-83854317D01*
X144642426Y-83837801D01*
X144635162Y-83821000D01*
X144628762Y-83802864D01*
X144623169Y-83780751D01*
X144618328Y-83752019D01*
X144614185Y-83714027D01*
X144610683Y-83664133D01*
X144607768Y-83599695D01*
X144605385Y-83518071D01*
X144603478Y-83416620D01*
X144601992Y-83292700D01*
X144600872Y-83143669D01*
X144600062Y-82966884D01*
X144599508Y-82759705D01*
X144599153Y-82519490D01*
X144598944Y-82243597D01*
X144598824Y-81929384D01*
X144598779Y-81750254D01*
X144598672Y-81405174D01*
X144598623Y-81099834D01*
X144598786Y-80831641D01*
X144599313Y-80598002D01*
X144600357Y-80396323D01*
X144602073Y-80224011D01*
X144604612Y-80078473D01*
X144608129Y-79957116D01*
X144610951Y-79896507D01*
X145406175Y-79896507D01*
X145417443Y-79918541D01*
X145446280Y-79973541D01*
X145490357Y-80057107D01*
X145547348Y-80164839D01*
X145614926Y-80292336D01*
X145690763Y-80435199D01*
X145757189Y-80560177D01*
X146101148Y-81206975D01*
X146101148Y-81975134D01*
X146439814Y-81975134D01*
X146439814Y-81230464D01*
X146791684Y-80570924D01*
X146873646Y-80417333D01*
X146949359Y-80275527D01*
X147016499Y-80149851D01*
X147072744Y-80044648D01*
X147115772Y-79964262D01*
X147143261Y-79913038D01*
X147152766Y-79895509D01*
X147137558Y-79888392D01*
X147089063Y-79882926D01*
X147016322Y-79879944D01*
X146980898Y-79879634D01*
X146799817Y-79879634D01*
X146545648Y-80387634D01*
X146477836Y-80522028D01*
X146415674Y-80643055D01*
X146361774Y-80745806D01*
X146318744Y-80825372D01*
X146289195Y-80876846D01*
X146275737Y-80895318D01*
X146275688Y-80895319D01*
X146262611Y-80876975D01*
X146233785Y-80825422D01*
X146191777Y-80745616D01*
X146139151Y-80642517D01*
X146078472Y-80521080D01*
X146012820Y-80387319D01*
X145765742Y-79879634D01*
X145582431Y-79879634D01*
X145501351Y-79881420D01*
X145440351Y-79886193D01*
X145408569Y-79893079D01*
X145406175Y-79896507D01*
X144610951Y-79896507D01*
X144612775Y-79857347D01*
X144618705Y-79776572D01*
G37*
X144618705Y-79776572D02*
X144626071Y-79712198D01*
X144635026Y-79661631D01*
X144645724Y-79622280D01*
X144658317Y-79591550D01*
X144672959Y-79566848D01*
X144689803Y-79545582D01*
X144709001Y-79525157D01*
X144730708Y-79502981D01*
X144731506Y-79502150D01*
X144795826Y-79445328D01*
X144869032Y-79394255D01*
X144884064Y-79385654D01*
X144968731Y-79339884D01*
X149011564Y-79339884D01*
X149111612Y-79389158D01*
X149232706Y-79471818D01*
X149326242Y-79585671D01*
X149358730Y-79646801D01*
X149364435Y-79662564D01*
X149369469Y-79685036D01*
X149373874Y-79716766D01*
X149377689Y-79760300D01*
X149380957Y-79818183D01*
X149383718Y-79892963D01*
X149386015Y-79987187D01*
X149387886Y-80103401D01*
X149389375Y-80244151D01*
X149390522Y-80411984D01*
X149391368Y-80609448D01*
X149391954Y-80839087D01*
X149392321Y-81103450D01*
X149392511Y-81405083D01*
X149392564Y-81742301D01*
X149392564Y-83763718D01*
X149346472Y-83849828D01*
X149283347Y-83941112D01*
X149200990Y-84023327D01*
X149112024Y-84085330D01*
X149050104Y-84111441D01*
X149013186Y-84115877D01*
X148936014Y-84119816D01*
X148818349Y-84123262D01*
X148659950Y-84126217D01*
X148460579Y-84128683D01*
X148219996Y-84130663D01*
X147937962Y-84132160D01*
X147614236Y-84133177D01*
X147248580Y-84133715D01*
X146979564Y-84133809D01*
X144989898Y-84133721D01*
X144884064Y-84083812D01*
X144782169Y-84024967D01*
X144708657Y-83953027D01*
X144650097Y-83854317D01*
X144642426Y-83837801D01*
X144635162Y-83821000D01*
X144628762Y-83802864D01*
X144623169Y-83780751D01*
X144618328Y-83752019D01*
X144614185Y-83714027D01*
X144610683Y-83664133D01*
X144607768Y-83599695D01*
X144605385Y-83518071D01*
X144603478Y-83416620D01*
X144601992Y-83292700D01*
X144600872Y-83143669D01*
X144600062Y-82966884D01*
X144599508Y-82759705D01*
X144599153Y-82519490D01*
X144598944Y-82243597D01*
X144598824Y-81929384D01*
X144598779Y-81750254D01*
X144598672Y-81405174D01*
X144598623Y-81099834D01*
X144598786Y-80831641D01*
X144599313Y-80598002D01*
X144600357Y-80396323D01*
X144602073Y-80224011D01*
X144604612Y-80078473D01*
X144608129Y-79957116D01*
X144610951Y-79896507D01*
X145406175Y-79896507D01*
X145417443Y-79918541D01*
X145446280Y-79973541D01*
X145490357Y-80057107D01*
X145547348Y-80164839D01*
X145614926Y-80292336D01*
X145690763Y-80435199D01*
X145757189Y-80560177D01*
X146101148Y-81206975D01*
X146101148Y-81975134D01*
X146439814Y-81975134D01*
X146439814Y-81230464D01*
X146791684Y-80570924D01*
X146873646Y-80417333D01*
X146949359Y-80275527D01*
X147016499Y-80149851D01*
X147072744Y-80044648D01*
X147115772Y-79964262D01*
X147143261Y-79913038D01*
X147152766Y-79895509D01*
X147137558Y-79888392D01*
X147089063Y-79882926D01*
X147016322Y-79879944D01*
X146980898Y-79879634D01*
X146799817Y-79879634D01*
X146545648Y-80387634D01*
X146477836Y-80522028D01*
X146415674Y-80643055D01*
X146361774Y-80745806D01*
X146318744Y-80825372D01*
X146289195Y-80876846D01*
X146275737Y-80895318D01*
X146275688Y-80895319D01*
X146262611Y-80876975D01*
X146233785Y-80825422D01*
X146191777Y-80745616D01*
X146139151Y-80642517D01*
X146078472Y-80521080D01*
X146012820Y-80387319D01*
X145765742Y-79879634D01*
X145582431Y-79879634D01*
X145501351Y-79881420D01*
X145440351Y-79886193D01*
X145408569Y-79893079D01*
X145406175Y-79896507D01*
X144610951Y-79896507D01*
X144612775Y-79857347D01*
X144618705Y-79776572D01*
%TD*%
D11*
%TO.C,SW1*%
X27374398Y-27384398D03*
D12*
X22294398Y-27384398D03*
D13*
X23564398Y-24844398D03*
X29914398Y-22304398D03*
D12*
X32454398Y-27384398D03*
%TD*%
%TO.C,SW12*%
X242004574Y-27384398D03*
D13*
X239464574Y-22304398D03*
D12*
X231844574Y-27384398D03*
D13*
X233114574Y-24844398D03*
D11*
X236924574Y-27384398D03*
%TD*%
D12*
%TO.C,SW20*%
X165814510Y-46434414D03*
D13*
X156924510Y-43894414D03*
D11*
X160734510Y-46434414D03*
D13*
X163274510Y-41354414D03*
D12*
X155654510Y-46434414D03*
%TD*%
D13*
%TO.C,SW16*%
X80724446Y-43894414D03*
D12*
X79454446Y-46434414D03*
X89614446Y-46434414D03*
D13*
X87074446Y-41354414D03*
D11*
X84534446Y-46434414D03*
%TD*%
D14*
%TO.C,*%
X36909840Y-75129384D03*
%TD*%
D11*
%TO.C,SW3*%
X65494430Y-27384398D03*
D13*
X69304430Y-29924398D03*
D12*
X70574430Y-27384398D03*
D13*
X62954430Y-32464398D03*
D12*
X60414430Y-27384398D03*
%TD*%
D14*
%TO.C,*%
X227412240Y-55960080D03*
%TD*%
D12*
%TO.C,SW6*%
X127714478Y-27384398D03*
D13*
X125174478Y-22304398D03*
X118824478Y-24844398D03*
D11*
X122634478Y-27384398D03*
D12*
X117554478Y-27384398D03*
%TD*%
%TO.C,SW4*%
X89614446Y-27384398D03*
D13*
X80724446Y-24844398D03*
D11*
X84534446Y-27384398D03*
D13*
X87074446Y-22304398D03*
D12*
X79454446Y-27384398D03*
%TD*%
%TO.C,SW23*%
X212804558Y-46434414D03*
D13*
X214074558Y-43894414D03*
X220424558Y-41354414D03*
D11*
X217884558Y-46434414D03*
D12*
X222964558Y-46434414D03*
%TD*%
D11*
%TO.C,SW35*%
X217874558Y-65484430D03*
D13*
X214064558Y-62944430D03*
D12*
X222954558Y-65484430D03*
X212794558Y-65484430D03*
D13*
X220414558Y-60404430D03*
%TD*%
D12*
%TO.C,SW46*%
X203914542Y-84534446D03*
D13*
X195024542Y-81994446D03*
X201374542Y-79454446D03*
D12*
X193754542Y-84534446D03*
D11*
X198834542Y-84534446D03*
%TD*%
D13*
%TO.C,SW10*%
X195024542Y-24844398D03*
X201374542Y-22304398D03*
D11*
X198834542Y-27384398D03*
D12*
X203914542Y-27384398D03*
X193754542Y-27384398D03*
%TD*%
%TO.C,SW27*%
X60404430Y-65484430D03*
X70564430Y-65484430D03*
D11*
X65484430Y-65484430D03*
D13*
X68024430Y-60404430D03*
X61674430Y-62944430D03*
%TD*%
D11*
%TO.C,SW40*%
X84524446Y-84534446D03*
D12*
X89604446Y-84534446D03*
X79444446Y-84534446D03*
D13*
X80714446Y-81994446D03*
X87064446Y-79454446D03*
%TD*%
D14*
%TO.C,*%
X132141190Y-55960048D03*
%TD*%
D11*
%TO.C,SW2*%
X46444414Y-27384398D03*
D13*
X50254414Y-29924398D03*
X43904414Y-32464398D03*
D12*
X41364414Y-27384398D03*
X51524414Y-27384398D03*
%TD*%
D14*
%TO.C,*%
X75010320Y-36909840D03*
%TD*%
D13*
%TO.C,SW14*%
X42624414Y-43894414D03*
D11*
X46434414Y-46434414D03*
D12*
X51514414Y-46434414D03*
X41354414Y-46434414D03*
D13*
X48974414Y-41354414D03*
%TD*%
D11*
%TO.C,SW8*%
X160734510Y-27384398D03*
D13*
X156924510Y-24844398D03*
X163274510Y-22304398D03*
D12*
X165814510Y-27384398D03*
X155654510Y-27384398D03*
%TD*%
D13*
%TO.C,SW26*%
X42624414Y-62944430D03*
D12*
X51514414Y-65484430D03*
X41354414Y-65484430D03*
D11*
X46434414Y-65484430D03*
D13*
X48974414Y-60404430D03*
%TD*%
D12*
%TO.C,SW32*%
X165814510Y-65484430D03*
X155654510Y-65484430D03*
D11*
X160734510Y-65484430D03*
D13*
X156924510Y-62944430D03*
X163274510Y-60404430D03*
%TD*%
D12*
%TO.C,SW47*%
X222964558Y-84534446D03*
D13*
X214074558Y-81994446D03*
D12*
X212804558Y-84534446D03*
D13*
X220424558Y-79454446D03*
D11*
X217884558Y-84534446D03*
%TD*%
D14*
%TO.C,*%
X75010320Y-75010320D03*
%TD*%
D11*
%TO.C,SW21*%
X179784526Y-46434414D03*
D13*
X175974526Y-43894414D03*
D12*
X184864526Y-46434414D03*
D13*
X182324526Y-41354414D03*
D12*
X174704526Y-46434414D03*
%TD*%
%TO.C,SW25*%
X32464398Y-65484430D03*
D13*
X29924398Y-60404430D03*
X23574398Y-62944430D03*
D12*
X22304398Y-65484430D03*
D11*
X27384398Y-65484430D03*
%TD*%
D14*
%TO.C,*%
X189311760Y-75010320D03*
%TD*%
D11*
%TO.C,SW13*%
X27384398Y-46434414D03*
D12*
X32464398Y-46434414D03*
D13*
X23574398Y-43894414D03*
X29924398Y-41354414D03*
D12*
X22304398Y-46434414D03*
%TD*%
D13*
%TO.C,SW36*%
X239474574Y-60404430D03*
X233124574Y-62944430D03*
D11*
X236934574Y-65484430D03*
D12*
X231854574Y-65484430D03*
X242014574Y-65484430D03*
%TD*%
%TO.C,SW15*%
X60404430Y-46434414D03*
D13*
X61674430Y-43894414D03*
D11*
X65484430Y-46434414D03*
D13*
X68024430Y-41354414D03*
D12*
X70564430Y-46434414D03*
%TD*%
D11*
%TO.C,SW33*%
X179774526Y-65484430D03*
D13*
X175964526Y-62944430D03*
D12*
X174694526Y-65484430D03*
X184854526Y-65484430D03*
D13*
X182314526Y-60404430D03*
%TD*%
D12*
%TO.C,SW39*%
X70564430Y-84534446D03*
X60404430Y-84534446D03*
D11*
X65484430Y-84534446D03*
D13*
X61674430Y-81994446D03*
X68024430Y-79454446D03*
%TD*%
%TO.C,SW38*%
X42624414Y-81994446D03*
D12*
X51514414Y-84534446D03*
X41354414Y-84534446D03*
D13*
X48974414Y-79454446D03*
D11*
X46434414Y-84534446D03*
%TD*%
D12*
%TO.C,SW17*%
X108664462Y-46434414D03*
X98504462Y-46434414D03*
D13*
X99774462Y-43894414D03*
D11*
X103584462Y-46434414D03*
D13*
X106124462Y-41354414D03*
%TD*%
D11*
%TO.C,SW41*%
X103584462Y-84534446D03*
D12*
X98504462Y-84534446D03*
X108664462Y-84534446D03*
D13*
X106124462Y-79454446D03*
X99774462Y-81994446D03*
%TD*%
%TO.C,SW44*%
X163264510Y-79454446D03*
D12*
X165804510Y-84534446D03*
X155644510Y-84534446D03*
D11*
X160724510Y-84534446D03*
D13*
X156914510Y-81994446D03*
%TD*%
D14*
%TO.C,*%
X189311760Y-36909840D03*
%TD*%
D13*
%TO.C,SW19*%
X144214494Y-41354414D03*
D12*
X146754494Y-46434414D03*
D11*
X141674494Y-46434414D03*
D13*
X137864494Y-43894414D03*
D12*
X136594494Y-46434414D03*
%TD*%
D14*
%TO.C,REF\u002A\u002A*%
X36909840Y-36790776D03*
%TD*%
D13*
%TO.C,SW7*%
X144214494Y-22304398D03*
D11*
X141674494Y-27384398D03*
D12*
X136594494Y-27384398D03*
D13*
X137864494Y-24844398D03*
D12*
X146754494Y-27384398D03*
%TD*%
D13*
%TO.C,SW5*%
X106124462Y-22304398D03*
D12*
X98504462Y-27384398D03*
D11*
X103584462Y-27384398D03*
D12*
X108664462Y-27384398D03*
D13*
X99774462Y-24844398D03*
%TD*%
D12*
%TO.C,SW45*%
X184864526Y-84534446D03*
X174704526Y-84534446D03*
D11*
X179784526Y-84534446D03*
D13*
X175974526Y-81994446D03*
X182324526Y-79454446D03*
%TD*%
D11*
%TO.C,SW34*%
X198834542Y-65484430D03*
D13*
X201374542Y-60404430D03*
D12*
X203914542Y-65484430D03*
D13*
X195024542Y-62944430D03*
D12*
X193754542Y-65484430D03*
%TD*%
%TO.C,SW28*%
X79444446Y-65484430D03*
D11*
X84524446Y-65484430D03*
D13*
X87064446Y-60404430D03*
X80714446Y-62944430D03*
D12*
X89604446Y-65484430D03*
%TD*%
D13*
%TO.C,SW9*%
X175974526Y-24844398D03*
D12*
X184864526Y-27384398D03*
D11*
X179784526Y-27384398D03*
D12*
X174704526Y-27384398D03*
D13*
X182324526Y-22304398D03*
%TD*%
D12*
%TO.C,SW24*%
X231854574Y-46434414D03*
D11*
X236934574Y-46434414D03*
D13*
X239474574Y-41354414D03*
X233124574Y-43894414D03*
D12*
X242014574Y-46434414D03*
%TD*%
%TO.C,SW48*%
X242014574Y-84534446D03*
X231854574Y-84534446D03*
D13*
X239474574Y-79454446D03*
D11*
X236934574Y-84534446D03*
D13*
X233124574Y-81994446D03*
%TD*%
D12*
%TO.C,SW29*%
X108664462Y-65484430D03*
D13*
X99774462Y-62944430D03*
D11*
X103584462Y-65484430D03*
D12*
X98504462Y-65484430D03*
D13*
X106124462Y-60404430D03*
%TD*%
%TO.C,SW18*%
X125174478Y-41354414D03*
D12*
X127714478Y-46434414D03*
X117554478Y-46434414D03*
D13*
X118824478Y-43894414D03*
D11*
X122634478Y-46434414D03*
%TD*%
D14*
%TO.C,*%
X36909840Y-55960080D03*
%TD*%
%TO.C,*%
X227412240Y-36909840D03*
%TD*%
%TO.C,*%
X227412240Y-75010320D03*
%TD*%
D12*
%TO.C,SW22*%
X193754542Y-46434414D03*
D13*
X201374542Y-41354414D03*
D12*
X203914542Y-46434414D03*
D13*
X195024542Y-43894414D03*
D11*
X198834542Y-46434414D03*
%TD*%
D12*
%TO.C,SW37*%
X22304398Y-84534446D03*
X32464398Y-84534446D03*
D13*
X23574398Y-81994446D03*
X29924398Y-79454446D03*
D11*
X27384398Y-84534446D03*
%TD*%
D12*
%TO.C,SW11*%
X222964558Y-27384398D03*
D11*
X217884558Y-27384398D03*
D13*
X220424558Y-22304398D03*
X214074558Y-24844398D03*
D12*
X212804558Y-27384398D03*
%TD*%
D11*
%TO.C,SW30*%
X122634478Y-65484430D03*
D13*
X125174478Y-60404430D03*
D12*
X117554478Y-65484430D03*
D13*
X118824478Y-62944430D03*
D12*
X127714478Y-65484430D03*
%TD*%
%TO.C,SW31*%
X136594494Y-65484430D03*
D13*
X144214494Y-60404430D03*
X137864494Y-62944430D03*
D11*
X141674494Y-65484430D03*
D12*
X146754494Y-65484430D03*
%TD*%
D11*
%TO.C,SW42_2*%
X120221486Y-76279446D03*
X144097486Y-76279446D03*
D12*
X137239486Y-84534446D03*
D11*
X132159486Y-84534446D03*
D15*
X120221486Y-91519446D03*
D13*
X128349486Y-81994446D03*
D15*
X144097486Y-91519446D03*
D12*
X127079486Y-84534446D03*
D13*
X134699486Y-79454446D03*
%TD*%
D16*
%TO.C,USB1*%
X53069422Y-21137516D03*
X58849422Y-21137516D03*
D17*
X60279422Y-17487516D03*
X51639422Y-17487516D03*
D18*
X51639422Y-21667516D03*
X60279422Y-21667516D03*
%TD*%
M02*
