%TF.GenerationSoftware,KiCad,Pcbnew,(6.0.0)*%
%TF.CreationDate,2023-08-19T11:13:56+07:00*%
%TF.ProjectId,pacman,7061636d-616e-42e6-9b69-6361645f7063,rev?*%
%TF.SameCoordinates,Original*%
%TF.FileFunction,Soldermask,Bot*%
%TF.FilePolarity,Negative*%
%FSLAX46Y46*%
G04 Gerber Fmt 4.6, Leading zero omitted, Abs format (unit mm)*
G04 Created by KiCad (PCBNEW (6.0.0)) date 2023-08-19 11:13:56*
%MOMM*%
%LPD*%
G01*
G04 APERTURE LIST*
G04 Aperture macros list*
%AMRoundRect*
0 Rectangle with rounded corners*
0 $1 Rounding radius*
0 $2 $3 $4 $5 $6 $7 $8 $9 X,Y pos of 4 corners*
0 Add a 4 corners polygon primitive as box body*
4,1,4,$2,$3,$4,$5,$6,$7,$8,$9,$2,$3,0*
0 Add four circle primitives for the rounded corners*
1,1,$1+$1,$2,$3*
1,1,$1+$1,$4,$5*
1,1,$1+$1,$6,$7*
1,1,$1+$1,$8,$9*
0 Add four rect primitives between the rounded corners*
20,1,$1+$1,$2,$3,$4,$5,0*
20,1,$1+$1,$4,$5,$6,$7,0*
20,1,$1+$1,$6,$7,$8,$9,0*
20,1,$1+$1,$8,$9,$2,$3,0*%
%AMRotRect*
0 Rectangle, with rotation*
0 The origin of the aperture is its center*
0 $1 length*
0 $2 width*
0 $3 Rotation angle, in degrees counterclockwise*
0 Add horizontal line*
21,1,$1,$2,0,0,$3*%
G04 Aperture macros list end*
%ADD10C,0.010000*%
%ADD11C,3.987800*%
%ADD12C,1.750000*%
%ADD13C,3.000000*%
%ADD14R,2.550000X2.500000*%
%ADD15C,5.000000*%
%ADD16C,3.048000*%
%ADD17R,0.450000X0.600000*%
%ADD18RoundRect,0.140000X-0.140000X-0.170000X0.140000X-0.170000X0.140000X0.170000X-0.140000X0.170000X0*%
%ADD19RoundRect,0.050000X-0.050000X0.387500X-0.050000X-0.387500X0.050000X-0.387500X0.050000X0.387500X0*%
%ADD20RoundRect,0.050000X-0.387500X0.050000X-0.387500X-0.050000X0.387500X-0.050000X0.387500X0.050000X0*%
%ADD21RoundRect,0.144000X-1.456000X1.456000X-1.456000X-1.456000X1.456000X-1.456000X1.456000X1.456000X0*%
%ADD22RoundRect,0.135000X-0.185000X0.135000X-0.185000X-0.135000X0.185000X-0.135000X0.185000X0.135000X0*%
%ADD23RoundRect,0.140000X0.170000X-0.140000X0.170000X0.140000X-0.170000X0.140000X-0.170000X-0.140000X0*%
%ADD24R,1.500000X1.000000*%
%ADD25RoundRect,0.135000X0.185000X-0.135000X0.185000X0.135000X-0.185000X0.135000X-0.185000X-0.135000X0*%
%ADD26RotRect,2.100000X1.800000X45.000000*%
%ADD27RoundRect,0.140000X-0.170000X0.140000X-0.170000X-0.140000X0.170000X-0.140000X0.170000X0.140000X0*%
%ADD28R,0.600000X0.450000*%
%ADD29RoundRect,0.140000X0.021213X-0.219203X0.219203X-0.021213X-0.021213X0.219203X-0.219203X0.021213X0*%
%ADD30RoundRect,0.140000X-0.021213X0.219203X-0.219203X0.021213X0.021213X-0.219203X0.219203X-0.021213X0*%
%ADD31RoundRect,0.150000X0.650000X0.150000X-0.650000X0.150000X-0.650000X-0.150000X0.650000X-0.150000X0*%
%ADD32C,0.750000*%
%ADD33RoundRect,0.050000X-0.300000X-0.725000X0.300000X-0.725000X0.300000X0.725000X-0.300000X0.725000X0*%
%ADD34RoundRect,0.050000X-0.150000X-0.725000X0.150000X-0.725000X0.150000X0.725000X-0.150000X0.725000X0*%
%ADD35O,1.100000X1.700000*%
%ADD36O,1.100000X2.200000*%
%ADD37RoundRect,0.140000X0.140000X0.170000X-0.140000X0.170000X-0.140000X-0.170000X0.140000X-0.170000X0*%
%ADD38R,2.000000X1.500000*%
%ADD39R,2.000000X3.800000*%
%ADD40RoundRect,0.135000X-0.035355X0.226274X-0.226274X0.035355X0.035355X-0.226274X0.226274X-0.035355X0*%
%ADD41R,1.700000X1.000000*%
%ADD42RoundRect,0.135000X0.135000X0.185000X-0.135000X0.185000X-0.135000X-0.185000X0.135000X-0.185000X0*%
G04 APERTURE END LIST*
D10*
%TO.C,Ref\u002A\u002A*%
X146164389Y-79389158D02*
X146043295Y-79471818D01*
X146043295Y-79471818D02*
X145949759Y-79585671D01*
X145949759Y-79585671D02*
X145917271Y-79646801D01*
X145917271Y-79646801D02*
X145911566Y-79662564D01*
X145911566Y-79662564D02*
X145906532Y-79685036D01*
X145906532Y-79685036D02*
X145902127Y-79716766D01*
X145902127Y-79716766D02*
X145898312Y-79760300D01*
X145898312Y-79760300D02*
X145895044Y-79818183D01*
X145895044Y-79818183D02*
X145892283Y-79892963D01*
X145892283Y-79892963D02*
X145889986Y-79987187D01*
X145889986Y-79987187D02*
X145888115Y-80103401D01*
X145888115Y-80103401D02*
X145886626Y-80244151D01*
X145886626Y-80244151D02*
X145885479Y-80411984D01*
X145885479Y-80411984D02*
X145884633Y-80609448D01*
X145884633Y-80609448D02*
X145884047Y-80839087D01*
X145884047Y-80839087D02*
X145883680Y-81103450D01*
X145883680Y-81103450D02*
X145883490Y-81405083D01*
X145883490Y-81405083D02*
X145883437Y-81742301D01*
X145883437Y-81742301D02*
X145883437Y-83763718D01*
X145883437Y-83763718D02*
X145929529Y-83849828D01*
X145929529Y-83849828D02*
X145992654Y-83941112D01*
X145992654Y-83941112D02*
X146075011Y-84023327D01*
X146075011Y-84023327D02*
X146163977Y-84085330D01*
X146163977Y-84085330D02*
X146225897Y-84111441D01*
X146225897Y-84111441D02*
X146262815Y-84115877D01*
X146262815Y-84115877D02*
X146339987Y-84119816D01*
X146339987Y-84119816D02*
X146457652Y-84123262D01*
X146457652Y-84123262D02*
X146616051Y-84126217D01*
X146616051Y-84126217D02*
X146815422Y-84128683D01*
X146815422Y-84128683D02*
X147056005Y-84130663D01*
X147056005Y-84130663D02*
X147338039Y-84132160D01*
X147338039Y-84132160D02*
X147661765Y-84133177D01*
X147661765Y-84133177D02*
X148027421Y-84133715D01*
X148027421Y-84133715D02*
X148296437Y-84133809D01*
X148296437Y-84133809D02*
X150286103Y-84133721D01*
X150286103Y-84133721D02*
X150391937Y-84083812D01*
X150391937Y-84083812D02*
X150493832Y-84024967D01*
X150493832Y-84024967D02*
X150567344Y-83953027D01*
X150567344Y-83953027D02*
X150625904Y-83854317D01*
X150625904Y-83854317D02*
X150633575Y-83837801D01*
X150633575Y-83837801D02*
X150640839Y-83821000D01*
X150640839Y-83821000D02*
X150647239Y-83802864D01*
X150647239Y-83802864D02*
X150652832Y-83780751D01*
X150652832Y-83780751D02*
X150657673Y-83752019D01*
X150657673Y-83752019D02*
X150661816Y-83714027D01*
X150661816Y-83714027D02*
X150665318Y-83664133D01*
X150665318Y-83664133D02*
X150668233Y-83599695D01*
X150668233Y-83599695D02*
X150670616Y-83518071D01*
X150670616Y-83518071D02*
X150672523Y-83416620D01*
X150672523Y-83416620D02*
X150674009Y-83292700D01*
X150674009Y-83292700D02*
X150675129Y-83143669D01*
X150675129Y-83143669D02*
X150675939Y-82966884D01*
X150675939Y-82966884D02*
X150676493Y-82759705D01*
X150676493Y-82759705D02*
X150676848Y-82519490D01*
X150676848Y-82519490D02*
X150677057Y-82243597D01*
X150677057Y-82243597D02*
X150677177Y-81929384D01*
X150677177Y-81929384D02*
X150677222Y-81750254D01*
X150677222Y-81750254D02*
X150677329Y-81405174D01*
X150677329Y-81405174D02*
X150677378Y-81099834D01*
X150677378Y-81099834D02*
X150677215Y-80831641D01*
X150677215Y-80831641D02*
X150676688Y-80598002D01*
X150676688Y-80598002D02*
X150675644Y-80396323D01*
X150675644Y-80396323D02*
X150673928Y-80224011D01*
X150673928Y-80224011D02*
X150671389Y-80078473D01*
X150671389Y-80078473D02*
X150667872Y-79957116D01*
X150667872Y-79957116D02*
X150665050Y-79896507D01*
X150665050Y-79896507D02*
X149869826Y-79896507D01*
X149869826Y-79896507D02*
X149858558Y-79918541D01*
X149858558Y-79918541D02*
X149829721Y-79973541D01*
X149829721Y-79973541D02*
X149785644Y-80057107D01*
X149785644Y-80057107D02*
X149728653Y-80164839D01*
X149728653Y-80164839D02*
X149661075Y-80292336D01*
X149661075Y-80292336D02*
X149585238Y-80435199D01*
X149585238Y-80435199D02*
X149518812Y-80560177D01*
X149518812Y-80560177D02*
X149174853Y-81206975D01*
X149174853Y-81206975D02*
X149174853Y-81975134D01*
X149174853Y-81975134D02*
X148836187Y-81975134D01*
X148836187Y-81975134D02*
X148836187Y-81230464D01*
X148836187Y-81230464D02*
X148484317Y-80570924D01*
X148484317Y-80570924D02*
X148402355Y-80417333D01*
X148402355Y-80417333D02*
X148326642Y-80275527D01*
X148326642Y-80275527D02*
X148259502Y-80149851D01*
X148259502Y-80149851D02*
X148203257Y-80044648D01*
X148203257Y-80044648D02*
X148160229Y-79964262D01*
X148160229Y-79964262D02*
X148132740Y-79913038D01*
X148132740Y-79913038D02*
X148123235Y-79895509D01*
X148123235Y-79895509D02*
X148138443Y-79888392D01*
X148138443Y-79888392D02*
X148186938Y-79882926D01*
X148186938Y-79882926D02*
X148259679Y-79879944D01*
X148259679Y-79879944D02*
X148295103Y-79879634D01*
X148295103Y-79879634D02*
X148476184Y-79879634D01*
X148476184Y-79879634D02*
X148730353Y-80387634D01*
X148730353Y-80387634D02*
X148798165Y-80522028D01*
X148798165Y-80522028D02*
X148860327Y-80643055D01*
X148860327Y-80643055D02*
X148914227Y-80745806D01*
X148914227Y-80745806D02*
X148957257Y-80825372D01*
X148957257Y-80825372D02*
X148986806Y-80876846D01*
X148986806Y-80876846D02*
X149000264Y-80895318D01*
X149000264Y-80895318D02*
X149000313Y-80895319D01*
X149000313Y-80895319D02*
X149013390Y-80876975D01*
X149013390Y-80876975D02*
X149042216Y-80825422D01*
X149042216Y-80825422D02*
X149084224Y-80745616D01*
X149084224Y-80745616D02*
X149136850Y-80642517D01*
X149136850Y-80642517D02*
X149197529Y-80521080D01*
X149197529Y-80521080D02*
X149263181Y-80387319D01*
X149263181Y-80387319D02*
X149510259Y-79879634D01*
X149510259Y-79879634D02*
X149693570Y-79879634D01*
X149693570Y-79879634D02*
X149774650Y-79881420D01*
X149774650Y-79881420D02*
X149835650Y-79886193D01*
X149835650Y-79886193D02*
X149867432Y-79893079D01*
X149867432Y-79893079D02*
X149869826Y-79896507D01*
X149869826Y-79896507D02*
X150665050Y-79896507D01*
X150665050Y-79896507D02*
X150663226Y-79857347D01*
X150663226Y-79857347D02*
X150657296Y-79776572D01*
X150657296Y-79776572D02*
X150649930Y-79712198D01*
X150649930Y-79712198D02*
X150640975Y-79661631D01*
X150640975Y-79661631D02*
X150630277Y-79622280D01*
X150630277Y-79622280D02*
X150617684Y-79591550D01*
X150617684Y-79591550D02*
X150603042Y-79566848D01*
X150603042Y-79566848D02*
X150586198Y-79545582D01*
X150586198Y-79545582D02*
X150567000Y-79525157D01*
X150567000Y-79525157D02*
X150545293Y-79502981D01*
X150545293Y-79502981D02*
X150544495Y-79502150D01*
X150544495Y-79502150D02*
X150480175Y-79445328D01*
X150480175Y-79445328D02*
X150406969Y-79394255D01*
X150406969Y-79394255D02*
X150391937Y-79385654D01*
X150391937Y-79385654D02*
X150307270Y-79339884D01*
X150307270Y-79339884D02*
X146264437Y-79339884D01*
X146264437Y-79339884D02*
X146164389Y-79389158D01*
X146164389Y-79389158D02*
X146164389Y-79389158D01*
G36*
X150671389Y-80078473D02*
G01*
X150673928Y-80224011D01*
X150675644Y-80396323D01*
X150676688Y-80598002D01*
X150677215Y-80831641D01*
X150677378Y-81099834D01*
X150677329Y-81405174D01*
X150677222Y-81750254D01*
X150677177Y-81929384D01*
X150677057Y-82243597D01*
X150676848Y-82519490D01*
X150676493Y-82759705D01*
X150675939Y-82966884D01*
X150675129Y-83143669D01*
X150674009Y-83292700D01*
X150672523Y-83416620D01*
X150670616Y-83518071D01*
X150668233Y-83599695D01*
X150665318Y-83664133D01*
X150661816Y-83714027D01*
X150657673Y-83752019D01*
X150652832Y-83780751D01*
X150647239Y-83802864D01*
X150640839Y-83821000D01*
X150633575Y-83837801D01*
X150625904Y-83854317D01*
X150567344Y-83953027D01*
X150493832Y-84024967D01*
X150391937Y-84083812D01*
X150286103Y-84133721D01*
X148296437Y-84133809D01*
X148027421Y-84133715D01*
X147661765Y-84133177D01*
X147338039Y-84132160D01*
X147056005Y-84130663D01*
X146815422Y-84128683D01*
X146616051Y-84126217D01*
X146457652Y-84123262D01*
X146339987Y-84119816D01*
X146262815Y-84115877D01*
X146225897Y-84111441D01*
X146163977Y-84085330D01*
X146075011Y-84023327D01*
X145992654Y-83941112D01*
X145929529Y-83849828D01*
X145883437Y-83763718D01*
X145883437Y-81742301D01*
X145883490Y-81405083D01*
X145883680Y-81103450D01*
X145884047Y-80839087D01*
X145884633Y-80609448D01*
X145885479Y-80411984D01*
X145886626Y-80244151D01*
X145888115Y-80103401D01*
X145889986Y-79987187D01*
X145892221Y-79895509D01*
X148123235Y-79895509D01*
X148132740Y-79913038D01*
X148160229Y-79964262D01*
X148203257Y-80044648D01*
X148259502Y-80149851D01*
X148326642Y-80275527D01*
X148402355Y-80417333D01*
X148484317Y-80570924D01*
X148836187Y-81230464D01*
X148836187Y-81975134D01*
X149174853Y-81975134D01*
X149174853Y-81206975D01*
X149518812Y-80560177D01*
X149585238Y-80435199D01*
X149661075Y-80292336D01*
X149728653Y-80164839D01*
X149785644Y-80057107D01*
X149829721Y-79973541D01*
X149858558Y-79918541D01*
X149869826Y-79896507D01*
X149867432Y-79893079D01*
X149835650Y-79886193D01*
X149774650Y-79881420D01*
X149693570Y-79879634D01*
X149510259Y-79879634D01*
X149263181Y-80387319D01*
X149197529Y-80521080D01*
X149136850Y-80642517D01*
X149084224Y-80745616D01*
X149042216Y-80825422D01*
X149013390Y-80876975D01*
X149000313Y-80895319D01*
X149000264Y-80895318D01*
X148986806Y-80876846D01*
X148957257Y-80825372D01*
X148914227Y-80745806D01*
X148860327Y-80643055D01*
X148798165Y-80522028D01*
X148730353Y-80387634D01*
X148476184Y-79879634D01*
X148295103Y-79879634D01*
X148259679Y-79879944D01*
X148186938Y-79882926D01*
X148138443Y-79888392D01*
X148123235Y-79895509D01*
X145892221Y-79895509D01*
X145892283Y-79892963D01*
X145895044Y-79818183D01*
X145898312Y-79760300D01*
X145902127Y-79716766D01*
X145906532Y-79685036D01*
X145911566Y-79662564D01*
X145917271Y-79646801D01*
X145949759Y-79585671D01*
X146043295Y-79471818D01*
X146164389Y-79389158D01*
X146264437Y-79339884D01*
X150307270Y-79339884D01*
X150391937Y-79385654D01*
X150406969Y-79394255D01*
X150480175Y-79445328D01*
X150544495Y-79502150D01*
X150545293Y-79502981D01*
X150567000Y-79525157D01*
X150586198Y-79545582D01*
X150603042Y-79566848D01*
X150617684Y-79591550D01*
X150630277Y-79622280D01*
X150640975Y-79661631D01*
X150649930Y-79712198D01*
X150657296Y-79776572D01*
X150663226Y-79857347D01*
X150665050Y-79896507D01*
X150667872Y-79957116D01*
X150671389Y-80078473D01*
G37*
X150671389Y-80078473D02*
X150673928Y-80224011D01*
X150675644Y-80396323D01*
X150676688Y-80598002D01*
X150677215Y-80831641D01*
X150677378Y-81099834D01*
X150677329Y-81405174D01*
X150677222Y-81750254D01*
X150677177Y-81929384D01*
X150677057Y-82243597D01*
X150676848Y-82519490D01*
X150676493Y-82759705D01*
X150675939Y-82966884D01*
X150675129Y-83143669D01*
X150674009Y-83292700D01*
X150672523Y-83416620D01*
X150670616Y-83518071D01*
X150668233Y-83599695D01*
X150665318Y-83664133D01*
X150661816Y-83714027D01*
X150657673Y-83752019D01*
X150652832Y-83780751D01*
X150647239Y-83802864D01*
X150640839Y-83821000D01*
X150633575Y-83837801D01*
X150625904Y-83854317D01*
X150567344Y-83953027D01*
X150493832Y-84024967D01*
X150391937Y-84083812D01*
X150286103Y-84133721D01*
X148296437Y-84133809D01*
X148027421Y-84133715D01*
X147661765Y-84133177D01*
X147338039Y-84132160D01*
X147056005Y-84130663D01*
X146815422Y-84128683D01*
X146616051Y-84126217D01*
X146457652Y-84123262D01*
X146339987Y-84119816D01*
X146262815Y-84115877D01*
X146225897Y-84111441D01*
X146163977Y-84085330D01*
X146075011Y-84023327D01*
X145992654Y-83941112D01*
X145929529Y-83849828D01*
X145883437Y-83763718D01*
X145883437Y-81742301D01*
X145883490Y-81405083D01*
X145883680Y-81103450D01*
X145884047Y-80839087D01*
X145884633Y-80609448D01*
X145885479Y-80411984D01*
X145886626Y-80244151D01*
X145888115Y-80103401D01*
X145889986Y-79987187D01*
X145892221Y-79895509D01*
X148123235Y-79895509D01*
X148132740Y-79913038D01*
X148160229Y-79964262D01*
X148203257Y-80044648D01*
X148259502Y-80149851D01*
X148326642Y-80275527D01*
X148402355Y-80417333D01*
X148484317Y-80570924D01*
X148836187Y-81230464D01*
X148836187Y-81975134D01*
X149174853Y-81975134D01*
X149174853Y-81206975D01*
X149518812Y-80560177D01*
X149585238Y-80435199D01*
X149661075Y-80292336D01*
X149728653Y-80164839D01*
X149785644Y-80057107D01*
X149829721Y-79973541D01*
X149858558Y-79918541D01*
X149869826Y-79896507D01*
X149867432Y-79893079D01*
X149835650Y-79886193D01*
X149774650Y-79881420D01*
X149693570Y-79879634D01*
X149510259Y-79879634D01*
X149263181Y-80387319D01*
X149197529Y-80521080D01*
X149136850Y-80642517D01*
X149084224Y-80745616D01*
X149042216Y-80825422D01*
X149013390Y-80876975D01*
X149000313Y-80895319D01*
X149000264Y-80895318D01*
X148986806Y-80876846D01*
X148957257Y-80825372D01*
X148914227Y-80745806D01*
X148860327Y-80643055D01*
X148798165Y-80522028D01*
X148730353Y-80387634D01*
X148476184Y-79879634D01*
X148295103Y-79879634D01*
X148259679Y-79879944D01*
X148186938Y-79882926D01*
X148138443Y-79888392D01*
X148123235Y-79895509D01*
X145892221Y-79895509D01*
X145892283Y-79892963D01*
X145895044Y-79818183D01*
X145898312Y-79760300D01*
X145902127Y-79716766D01*
X145906532Y-79685036D01*
X145911566Y-79662564D01*
X145917271Y-79646801D01*
X145949759Y-79585671D01*
X146043295Y-79471818D01*
X146164389Y-79389158D01*
X146264437Y-79339884D01*
X150307270Y-79339884D01*
X150391937Y-79385654D01*
X150406969Y-79394255D01*
X150480175Y-79445328D01*
X150544495Y-79502150D01*
X150545293Y-79502981D01*
X150567000Y-79525157D01*
X150586198Y-79545582D01*
X150603042Y-79566848D01*
X150617684Y-79591550D01*
X150630277Y-79622280D01*
X150640975Y-79661631D01*
X150649930Y-79712198D01*
X150657296Y-79776572D01*
X150663226Y-79857347D01*
X150665050Y-79896507D01*
X150667872Y-79957116D01*
X150671389Y-80078473D01*
X144906753Y-84614946D02*
X144809566Y-84684049D01*
X144809566Y-84684049D02*
X144725499Y-84775472D01*
X144725499Y-84775472D02*
X144665530Y-84875965D01*
X144665530Y-84875965D02*
X144647388Y-84927913D01*
X144647388Y-84927913D02*
X144642851Y-84963519D01*
X144642851Y-84963519D02*
X144638832Y-85032848D01*
X144638832Y-85032848D02*
X144635320Y-85136842D01*
X144635320Y-85136842D02*
X144632304Y-85276444D01*
X144632304Y-85276444D02*
X144629774Y-85452597D01*
X144629774Y-85452597D02*
X144627718Y-85666245D01*
X144627718Y-85666245D02*
X144626126Y-85918331D01*
X144626126Y-85918331D02*
X144624986Y-86209798D01*
X144624986Y-86209798D02*
X144624289Y-86541589D01*
X144624289Y-86541589D02*
X144624024Y-86914648D01*
X144624024Y-86914648D02*
X144624020Y-86965415D01*
X144624020Y-86965415D02*
X144623969Y-87309962D01*
X144623969Y-87309962D02*
X144623944Y-87614780D01*
X144623944Y-87614780D02*
X144624142Y-87882475D01*
X144624142Y-87882475D02*
X144624758Y-88115653D01*
X144624758Y-88115653D02*
X144625986Y-88316918D01*
X144625986Y-88316918D02*
X144628022Y-88488875D01*
X144628022Y-88488875D02*
X144631061Y-88634129D01*
X144631061Y-88634129D02*
X144635298Y-88755286D01*
X144635298Y-88755286D02*
X144640929Y-88854950D01*
X144640929Y-88854950D02*
X144648148Y-88935727D01*
X144648148Y-88935727D02*
X144657151Y-89000221D01*
X144657151Y-89000221D02*
X144668133Y-89051038D01*
X144668133Y-89051038D02*
X144681290Y-89090783D01*
X144681290Y-89090783D02*
X144696815Y-89122060D01*
X144696815Y-89122060D02*
X144714905Y-89147475D01*
X144714905Y-89147475D02*
X144735755Y-89169633D01*
X144735755Y-89169633D02*
X144759560Y-89191139D01*
X144759560Y-89191139D02*
X144786515Y-89214597D01*
X144786515Y-89214597D02*
X144792975Y-89220358D01*
X144792975Y-89220358D02*
X144891340Y-89293908D01*
X144891340Y-89293908D02*
X144985732Y-89336631D01*
X144985732Y-89336631D02*
X144992524Y-89338445D01*
X144992524Y-89338445D02*
X145028982Y-89342278D01*
X145028982Y-89342278D02*
X145104019Y-89345751D01*
X145104019Y-89345751D02*
X145213953Y-89348864D01*
X145213953Y-89348864D02*
X145355104Y-89351619D01*
X145355104Y-89351619D02*
X145523792Y-89354016D01*
X145523792Y-89354016D02*
X145716334Y-89356056D01*
X145716334Y-89356056D02*
X145929051Y-89357741D01*
X145929051Y-89357741D02*
X146158262Y-89359072D01*
X146158262Y-89359072D02*
X146400286Y-89360049D01*
X146400286Y-89360049D02*
X146651441Y-89360674D01*
X146651441Y-89360674D02*
X146908048Y-89360948D01*
X146908048Y-89360948D02*
X147166426Y-89360871D01*
X147166426Y-89360871D02*
X147422892Y-89360446D01*
X147422892Y-89360446D02*
X147673768Y-89359672D01*
X147673768Y-89359672D02*
X147915372Y-89358551D01*
X147915372Y-89358551D02*
X148144023Y-89357084D01*
X148144023Y-89357084D02*
X148356040Y-89355272D01*
X148356040Y-89355272D02*
X148547743Y-89353116D01*
X148547743Y-89353116D02*
X148715450Y-89350617D01*
X148715450Y-89350617D02*
X148855481Y-89347776D01*
X148855481Y-89347776D02*
X148964156Y-89344594D01*
X148964156Y-89344594D02*
X149037793Y-89341073D01*
X149037793Y-89341073D02*
X149072442Y-89337286D01*
X149072442Y-89337286D02*
X149158046Y-89298405D01*
X149158046Y-89298405D02*
X149246740Y-89231751D01*
X149246740Y-89231751D02*
X149325387Y-89148650D01*
X149325387Y-89148650D02*
X149371375Y-89079568D01*
X149371375Y-89079568D02*
X149418270Y-88991884D01*
X149418270Y-88991884D02*
X149418270Y-86959884D01*
X149418270Y-86959884D02*
X149418242Y-86620705D01*
X149418242Y-86620705D02*
X149418126Y-86321276D01*
X149418126Y-86321276D02*
X149417872Y-86059014D01*
X149417872Y-86059014D02*
X149417434Y-85831334D01*
X149417434Y-85831334D02*
X149416762Y-85635654D01*
X149416762Y-85635654D02*
X149415808Y-85469390D01*
X149415808Y-85469390D02*
X149414523Y-85329958D01*
X149414523Y-85329958D02*
X149412860Y-85214776D01*
X149412860Y-85214776D02*
X149412362Y-85192468D01*
X149412362Y-85192468D02*
X148561020Y-85192468D01*
X148561020Y-85192468D02*
X148561020Y-87287968D01*
X148561020Y-87287968D02*
X148222353Y-87287968D01*
X148222353Y-87287968D02*
X148222353Y-86377801D01*
X148222353Y-86377801D02*
X147269853Y-86377801D01*
X147269853Y-86377801D02*
X147269853Y-87287968D01*
X147269853Y-87287968D02*
X146931187Y-87287968D01*
X146931187Y-87287968D02*
X146931187Y-85192468D01*
X146931187Y-85192468D02*
X147269853Y-85192468D01*
X147269853Y-85192468D02*
X147269853Y-86123801D01*
X147269853Y-86123801D02*
X148222353Y-86123801D01*
X148222353Y-86123801D02*
X148222353Y-85192468D01*
X148222353Y-85192468D02*
X148561020Y-85192468D01*
X148561020Y-85192468D02*
X149412362Y-85192468D01*
X149412362Y-85192468D02*
X149410769Y-85121259D01*
X149410769Y-85121259D02*
X149408203Y-85046825D01*
X149408203Y-85046825D02*
X149405113Y-84988889D01*
X149405113Y-84988889D02*
X149401450Y-84944869D01*
X149401450Y-84944869D02*
X149397167Y-84912181D01*
X149397167Y-84912181D02*
X149392214Y-84888241D01*
X149392214Y-84888241D02*
X149386544Y-84870466D01*
X149386544Y-84870466D02*
X149380108Y-84856273D01*
X149380108Y-84856273D02*
X149378812Y-84853801D01*
X149378812Y-84853801D02*
X149288374Y-84726422D01*
X149288374Y-84726422D02*
X149170424Y-84629499D01*
X149170424Y-84629499D02*
X149143103Y-84613737D01*
X149143103Y-84613737D02*
X149058437Y-84568051D01*
X149058437Y-84568051D02*
X144994437Y-84568051D01*
X144994437Y-84568051D02*
X144906753Y-84614946D01*
X144906753Y-84614946D02*
X144906753Y-84614946D01*
G36*
X149414523Y-85329958D02*
G01*
X149415808Y-85469390D01*
X149416762Y-85635654D01*
X149417434Y-85831334D01*
X149417872Y-86059014D01*
X149418126Y-86321276D01*
X149418242Y-86620705D01*
X149418270Y-86959884D01*
X149418270Y-88991884D01*
X149371375Y-89079568D01*
X149325387Y-89148650D01*
X149246740Y-89231751D01*
X149158046Y-89298405D01*
X149072442Y-89337286D01*
X149037793Y-89341073D01*
X148964156Y-89344594D01*
X148855481Y-89347776D01*
X148715450Y-89350617D01*
X148547743Y-89353116D01*
X148356040Y-89355272D01*
X148144023Y-89357084D01*
X147915372Y-89358551D01*
X147673768Y-89359672D01*
X147422892Y-89360446D01*
X147166426Y-89360871D01*
X146908048Y-89360948D01*
X146651441Y-89360674D01*
X146400286Y-89360049D01*
X146158262Y-89359072D01*
X145929051Y-89357741D01*
X145716334Y-89356056D01*
X145523792Y-89354016D01*
X145355104Y-89351619D01*
X145213953Y-89348864D01*
X145104019Y-89345751D01*
X145028982Y-89342278D01*
X144992524Y-89338445D01*
X144985732Y-89336631D01*
X144891340Y-89293908D01*
X144792975Y-89220358D01*
X144786515Y-89214597D01*
X144759560Y-89191139D01*
X144735755Y-89169633D01*
X144714905Y-89147475D01*
X144696815Y-89122060D01*
X144681290Y-89090783D01*
X144668133Y-89051038D01*
X144657151Y-89000221D01*
X144648148Y-88935727D01*
X144640929Y-88854950D01*
X144635298Y-88755286D01*
X144631061Y-88634129D01*
X144628022Y-88488875D01*
X144625986Y-88316918D01*
X144624758Y-88115653D01*
X144624142Y-87882475D01*
X144623944Y-87614780D01*
X144623969Y-87309962D01*
X144623972Y-87287968D01*
X146931187Y-87287968D01*
X147269853Y-87287968D01*
X147269853Y-86377801D01*
X148222353Y-86377801D01*
X148222353Y-87287968D01*
X148561020Y-87287968D01*
X148561020Y-85192468D01*
X148222353Y-85192468D01*
X148222353Y-86123801D01*
X147269853Y-86123801D01*
X147269853Y-85192468D01*
X146931187Y-85192468D01*
X146931187Y-87287968D01*
X144623972Y-87287968D01*
X144624020Y-86965415D01*
X144624024Y-86914648D01*
X144624289Y-86541589D01*
X144624986Y-86209798D01*
X144626126Y-85918331D01*
X144627718Y-85666245D01*
X144629774Y-85452597D01*
X144632304Y-85276444D01*
X144635320Y-85136842D01*
X144638832Y-85032848D01*
X144642851Y-84963519D01*
X144647388Y-84927913D01*
X144665530Y-84875965D01*
X144725499Y-84775472D01*
X144809566Y-84684049D01*
X144906753Y-84614946D01*
X144994437Y-84568051D01*
X149058437Y-84568051D01*
X149143103Y-84613737D01*
X149170424Y-84629499D01*
X149288374Y-84726422D01*
X149378812Y-84853801D01*
X149380108Y-84856273D01*
X149386544Y-84870466D01*
X149392214Y-84888241D01*
X149397167Y-84912181D01*
X149401450Y-84944869D01*
X149405113Y-84988889D01*
X149408203Y-85046825D01*
X149410769Y-85121259D01*
X149412362Y-85192468D01*
X149412860Y-85214776D01*
X149414523Y-85329958D01*
G37*
X149414523Y-85329958D02*
X149415808Y-85469390D01*
X149416762Y-85635654D01*
X149417434Y-85831334D01*
X149417872Y-86059014D01*
X149418126Y-86321276D01*
X149418242Y-86620705D01*
X149418270Y-86959884D01*
X149418270Y-88991884D01*
X149371375Y-89079568D01*
X149325387Y-89148650D01*
X149246740Y-89231751D01*
X149158046Y-89298405D01*
X149072442Y-89337286D01*
X149037793Y-89341073D01*
X148964156Y-89344594D01*
X148855481Y-89347776D01*
X148715450Y-89350617D01*
X148547743Y-89353116D01*
X148356040Y-89355272D01*
X148144023Y-89357084D01*
X147915372Y-89358551D01*
X147673768Y-89359672D01*
X147422892Y-89360446D01*
X147166426Y-89360871D01*
X146908048Y-89360948D01*
X146651441Y-89360674D01*
X146400286Y-89360049D01*
X146158262Y-89359072D01*
X145929051Y-89357741D01*
X145716334Y-89356056D01*
X145523792Y-89354016D01*
X145355104Y-89351619D01*
X145213953Y-89348864D01*
X145104019Y-89345751D01*
X145028982Y-89342278D01*
X144992524Y-89338445D01*
X144985732Y-89336631D01*
X144891340Y-89293908D01*
X144792975Y-89220358D01*
X144786515Y-89214597D01*
X144759560Y-89191139D01*
X144735755Y-89169633D01*
X144714905Y-89147475D01*
X144696815Y-89122060D01*
X144681290Y-89090783D01*
X144668133Y-89051038D01*
X144657151Y-89000221D01*
X144648148Y-88935727D01*
X144640929Y-88854950D01*
X144635298Y-88755286D01*
X144631061Y-88634129D01*
X144628022Y-88488875D01*
X144625986Y-88316918D01*
X144624758Y-88115653D01*
X144624142Y-87882475D01*
X144623944Y-87614780D01*
X144623969Y-87309962D01*
X144623972Y-87287968D01*
X146931187Y-87287968D01*
X147269853Y-87287968D01*
X147269853Y-86377801D01*
X148222353Y-86377801D01*
X148222353Y-87287968D01*
X148561020Y-87287968D01*
X148561020Y-85192468D01*
X148222353Y-85192468D01*
X148222353Y-86123801D01*
X147269853Y-86123801D01*
X147269853Y-85192468D01*
X146931187Y-85192468D01*
X146931187Y-87287968D01*
X144623972Y-87287968D01*
X144624020Y-86965415D01*
X144624024Y-86914648D01*
X144624289Y-86541589D01*
X144624986Y-86209798D01*
X144626126Y-85918331D01*
X144627718Y-85666245D01*
X144629774Y-85452597D01*
X144632304Y-85276444D01*
X144635320Y-85136842D01*
X144638832Y-85032848D01*
X144642851Y-84963519D01*
X144647388Y-84927913D01*
X144665530Y-84875965D01*
X144725499Y-84775472D01*
X144809566Y-84684049D01*
X144906753Y-84614946D01*
X144994437Y-84568051D01*
X149058437Y-84568051D01*
X149143103Y-84613737D01*
X149170424Y-84629499D01*
X149288374Y-84726422D01*
X149378812Y-84853801D01*
X149380108Y-84856273D01*
X149386544Y-84870466D01*
X149392214Y-84888241D01*
X149397167Y-84912181D01*
X149401450Y-84944869D01*
X149405113Y-84988889D01*
X149408203Y-85046825D01*
X149410769Y-85121259D01*
X149412362Y-85192468D01*
X149412860Y-85214776D01*
X149414523Y-85329958D01*
%TD*%
D11*
%TO.C,SW1*%
X27374398Y-27384398D03*
D12*
X22294398Y-27384398D03*
D13*
X23564398Y-24844398D03*
X29914398Y-22304398D03*
D12*
X32454398Y-27384398D03*
D14*
X20289398Y-24844398D03*
X33216398Y-22304398D03*
%TD*%
D12*
%TO.C,SW12*%
X242004574Y-27384398D03*
D13*
X239464574Y-22304398D03*
D12*
X231844574Y-27384398D03*
D13*
X233114574Y-24844398D03*
D11*
X236924574Y-27384398D03*
D14*
X229839574Y-24844398D03*
X242766574Y-22304398D03*
%TD*%
D12*
%TO.C,SW20*%
X165814510Y-46434414D03*
D13*
X156924510Y-43894414D03*
D11*
X160734510Y-46434414D03*
D13*
X163274510Y-41354414D03*
D12*
X155654510Y-46434414D03*
D14*
X153649510Y-43894414D03*
X166576510Y-41354414D03*
%TD*%
D13*
%TO.C,SW16*%
X80724446Y-43894414D03*
D12*
X79454446Y-46434414D03*
X89614446Y-46434414D03*
D13*
X87074446Y-41354414D03*
D11*
X84534446Y-46434414D03*
D14*
X77449446Y-43894414D03*
X90376446Y-41354414D03*
%TD*%
D15*
%TO.C,*%
X36909840Y-75129384D03*
%TD*%
D11*
%TO.C,SW3*%
X65494430Y-27384398D03*
D13*
X69304430Y-29924398D03*
D12*
X70574430Y-27384398D03*
D13*
X62954430Y-32464398D03*
D12*
X60414430Y-27384398D03*
D14*
X59652430Y-32464398D03*
X72579430Y-29924398D03*
%TD*%
D15*
%TO.C,*%
X227412240Y-55960080D03*
%TD*%
D12*
%TO.C,SW6*%
X127714478Y-27384398D03*
D13*
X125174478Y-22304398D03*
X118824478Y-24844398D03*
D11*
X122634478Y-27384398D03*
D12*
X117554478Y-27384398D03*
D14*
X115549478Y-24844398D03*
X128476478Y-22304398D03*
%TD*%
D12*
%TO.C,SW4*%
X89614446Y-27384398D03*
D13*
X80724446Y-24844398D03*
D11*
X84534446Y-27384398D03*
D13*
X87074446Y-22304398D03*
D12*
X79454446Y-27384398D03*
D14*
X77449446Y-24844398D03*
X90376446Y-22304398D03*
%TD*%
D12*
%TO.C,SW23*%
X212804558Y-46434414D03*
D13*
X214074558Y-43894414D03*
X220424558Y-41354414D03*
D11*
X217884558Y-46434414D03*
D12*
X222964558Y-46434414D03*
D14*
X210799558Y-43894414D03*
X223726558Y-41354414D03*
%TD*%
D11*
%TO.C,SW35*%
X217874558Y-65484430D03*
D13*
X214064558Y-62944430D03*
D12*
X222954558Y-65484430D03*
X212794558Y-65484430D03*
D13*
X220414558Y-60404430D03*
D14*
X210789558Y-62944430D03*
X223716558Y-60404430D03*
%TD*%
D12*
%TO.C,SW46*%
X203914542Y-84534446D03*
D13*
X195024542Y-81994446D03*
X201374542Y-79454446D03*
D12*
X193754542Y-84534446D03*
D11*
X198834542Y-84534446D03*
D14*
X191749542Y-81994446D03*
X204676542Y-79454446D03*
%TD*%
D13*
%TO.C,SW10*%
X195024542Y-24844398D03*
X201374542Y-22304398D03*
D11*
X198834542Y-27384398D03*
D12*
X203914542Y-27384398D03*
X193754542Y-27384398D03*
D14*
X191749542Y-24844398D03*
X204676542Y-22304398D03*
%TD*%
D12*
%TO.C,SW27*%
X60404430Y-65484430D03*
X70564430Y-65484430D03*
D11*
X65484430Y-65484430D03*
D13*
X68024430Y-60404430D03*
X61674430Y-62944430D03*
D14*
X58399430Y-62944430D03*
X71326430Y-60404430D03*
%TD*%
D11*
%TO.C,SW40*%
X84524446Y-84534446D03*
D12*
X89604446Y-84534446D03*
X79444446Y-84534446D03*
D13*
X80714446Y-81994446D03*
X87064446Y-79454446D03*
D14*
X77439446Y-81994446D03*
X90366446Y-79454446D03*
%TD*%
D15*
%TO.C,*%
X132141190Y-55960048D03*
%TD*%
D11*
%TO.C,SW2*%
X46444414Y-27384398D03*
D13*
X50254414Y-29924398D03*
X43904414Y-32464398D03*
D12*
X41364414Y-27384398D03*
X51524414Y-27384398D03*
D14*
X40602414Y-32464398D03*
X53529414Y-29924398D03*
%TD*%
D15*
%TO.C,*%
X75010320Y-36909840D03*
%TD*%
D13*
%TO.C,SW14*%
X42624414Y-43894414D03*
D11*
X46434414Y-46434414D03*
D12*
X51514414Y-46434414D03*
X41354414Y-46434414D03*
D13*
X48974414Y-41354414D03*
D14*
X39349414Y-43894414D03*
X52276414Y-41354414D03*
%TD*%
D11*
%TO.C,SW8*%
X160734510Y-27384398D03*
D13*
X156924510Y-24844398D03*
X163274510Y-22304398D03*
D12*
X165814510Y-27384398D03*
X155654510Y-27384398D03*
D14*
X153649510Y-24844398D03*
X166576510Y-22304398D03*
%TD*%
D13*
%TO.C,SW26*%
X42624414Y-62944430D03*
D12*
X51514414Y-65484430D03*
X41354414Y-65484430D03*
D11*
X46434414Y-65484430D03*
D13*
X48974414Y-60404430D03*
D14*
X39349414Y-62944430D03*
X52276414Y-60404430D03*
%TD*%
D12*
%TO.C,SW32*%
X165814510Y-65484430D03*
X155654510Y-65484430D03*
D11*
X160734510Y-65484430D03*
D13*
X156924510Y-62944430D03*
X163274510Y-60404430D03*
D14*
X153649510Y-62944430D03*
X166576510Y-60404430D03*
%TD*%
D12*
%TO.C,SW47*%
X222964558Y-84534446D03*
D13*
X214074558Y-81994446D03*
D12*
X212804558Y-84534446D03*
D13*
X220424558Y-79454446D03*
D11*
X217884558Y-84534446D03*
D14*
X210799558Y-81994446D03*
X223726558Y-79454446D03*
%TD*%
D15*
%TO.C,*%
X75010320Y-75010320D03*
%TD*%
D11*
%TO.C,SW21*%
X179784526Y-46434414D03*
D13*
X175974526Y-43894414D03*
D12*
X184864526Y-46434414D03*
D13*
X182324526Y-41354414D03*
D12*
X174704526Y-46434414D03*
D14*
X172699526Y-43894414D03*
X185626526Y-41354414D03*
%TD*%
D12*
%TO.C,SW25*%
X32464398Y-65484430D03*
D13*
X29924398Y-60404430D03*
X23574398Y-62944430D03*
D12*
X22304398Y-65484430D03*
D11*
X27384398Y-65484430D03*
D14*
X20299398Y-62944430D03*
X33226398Y-60404430D03*
%TD*%
D15*
%TO.C,*%
X189311760Y-75010320D03*
%TD*%
D11*
%TO.C,SW13*%
X27384398Y-46434414D03*
D12*
X32464398Y-46434414D03*
D13*
X23574398Y-43894414D03*
X29924398Y-41354414D03*
D12*
X22304398Y-46434414D03*
D14*
X20299398Y-43894414D03*
X33226398Y-41354414D03*
%TD*%
D13*
%TO.C,SW36*%
X239474574Y-60404430D03*
X233124574Y-62944430D03*
D11*
X236934574Y-65484430D03*
D12*
X231854574Y-65484430D03*
X242014574Y-65484430D03*
D14*
X229849574Y-62944430D03*
X242776574Y-60404430D03*
%TD*%
D12*
%TO.C,SW15*%
X60404430Y-46434414D03*
D13*
X61674430Y-43894414D03*
D11*
X65484430Y-46434414D03*
D13*
X68024430Y-41354414D03*
D12*
X70564430Y-46434414D03*
D14*
X58399430Y-43894414D03*
X71326430Y-41354414D03*
%TD*%
D11*
%TO.C,SW33*%
X179774526Y-65484430D03*
D13*
X175964526Y-62944430D03*
D12*
X174694526Y-65484430D03*
X184854526Y-65484430D03*
D13*
X182314526Y-60404430D03*
D14*
X172689526Y-62944430D03*
X185616526Y-60404430D03*
%TD*%
D12*
%TO.C,SW39*%
X70564430Y-84534446D03*
X60404430Y-84534446D03*
D11*
X65484430Y-84534446D03*
D13*
X61674430Y-81994446D03*
X68024430Y-79454446D03*
D14*
X58399430Y-81994446D03*
X71326430Y-79454446D03*
%TD*%
D13*
%TO.C,SW38*%
X42624414Y-81994446D03*
D12*
X51514414Y-84534446D03*
X41354414Y-84534446D03*
D13*
X48974414Y-79454446D03*
D11*
X46434414Y-84534446D03*
D14*
X39349414Y-81994446D03*
X52276414Y-79454446D03*
%TD*%
D12*
%TO.C,SW17*%
X108664462Y-46434414D03*
X98504462Y-46434414D03*
D13*
X99774462Y-43894414D03*
D11*
X103584462Y-46434414D03*
D13*
X106124462Y-41354414D03*
D14*
X96499462Y-43894414D03*
X109426462Y-41354414D03*
%TD*%
D11*
%TO.C,SW41*%
X103584462Y-84534446D03*
D12*
X98504462Y-84534446D03*
X108664462Y-84534446D03*
D13*
X106124462Y-79454446D03*
X99774462Y-81994446D03*
D14*
X96499462Y-81994446D03*
X109426462Y-79454446D03*
%TD*%
D13*
%TO.C,SW44*%
X163264510Y-79454446D03*
D12*
X165804510Y-84534446D03*
X155644510Y-84534446D03*
D11*
X160724510Y-84534446D03*
D13*
X156914510Y-81994446D03*
D14*
X153639510Y-81994446D03*
X166566510Y-79454446D03*
%TD*%
D15*
%TO.C,*%
X189311760Y-36909840D03*
%TD*%
D13*
%TO.C,SW19*%
X144214494Y-41354414D03*
D12*
X146754494Y-46434414D03*
D11*
X141674494Y-46434414D03*
D13*
X137864494Y-43894414D03*
D12*
X136594494Y-46434414D03*
D14*
X134589494Y-43894414D03*
X147516494Y-41354414D03*
%TD*%
D15*
%TO.C,REF\u002A\u002A*%
X36909840Y-36790776D03*
%TD*%
D13*
%TO.C,SW7*%
X144214494Y-22304398D03*
D11*
X141674494Y-27384398D03*
D12*
X136594494Y-27384398D03*
D13*
X137864494Y-24844398D03*
D12*
X146754494Y-27384398D03*
D14*
X134589494Y-24844398D03*
X147516494Y-22304398D03*
%TD*%
D13*
%TO.C,SW5*%
X106124462Y-22304398D03*
D12*
X98504462Y-27384398D03*
D11*
X103584462Y-27384398D03*
D12*
X108664462Y-27384398D03*
D13*
X99774462Y-24844398D03*
D14*
X96499462Y-24844398D03*
X109426462Y-22304398D03*
%TD*%
D12*
%TO.C,SW45*%
X184864526Y-84534446D03*
X174704526Y-84534446D03*
D11*
X179784526Y-84534446D03*
D13*
X175974526Y-81994446D03*
X182324526Y-79454446D03*
D14*
X172699526Y-81994446D03*
X185626526Y-79454446D03*
%TD*%
D11*
%TO.C,SW34*%
X198834542Y-65484430D03*
D13*
X201374542Y-60404430D03*
D12*
X203914542Y-65484430D03*
D13*
X195024542Y-62944430D03*
D12*
X193754542Y-65484430D03*
D14*
X191749542Y-62944430D03*
X204676542Y-60404430D03*
%TD*%
D12*
%TO.C,SW28*%
X79444446Y-65484430D03*
D11*
X84524446Y-65484430D03*
D13*
X87064446Y-60404430D03*
X80714446Y-62944430D03*
D12*
X89604446Y-65484430D03*
D14*
X77439446Y-62944430D03*
X90366446Y-60404430D03*
%TD*%
D13*
%TO.C,SW9*%
X175974526Y-24844398D03*
D12*
X184864526Y-27384398D03*
D11*
X179784526Y-27384398D03*
D12*
X174704526Y-27384398D03*
D13*
X182324526Y-22304398D03*
D14*
X172699526Y-24844398D03*
X185626526Y-22304398D03*
%TD*%
D12*
%TO.C,SW24*%
X231854574Y-46434414D03*
D11*
X236934574Y-46434414D03*
D13*
X239474574Y-41354414D03*
X233124574Y-43894414D03*
D12*
X242014574Y-46434414D03*
D14*
X229849574Y-43894414D03*
X242776574Y-41354414D03*
%TD*%
D12*
%TO.C,SW48*%
X242014574Y-84534446D03*
X231854574Y-84534446D03*
D13*
X239474574Y-79454446D03*
D11*
X236934574Y-84534446D03*
D13*
X233124574Y-81994446D03*
D14*
X229849574Y-81994446D03*
X242776574Y-79454446D03*
%TD*%
D12*
%TO.C,SW29*%
X108664462Y-65484430D03*
D13*
X99774462Y-62944430D03*
D11*
X103584462Y-65484430D03*
D12*
X98504462Y-65484430D03*
D13*
X106124462Y-60404430D03*
D14*
X96499462Y-62944430D03*
X109426462Y-60404430D03*
%TD*%
D13*
%TO.C,SW18*%
X125174478Y-41354414D03*
D12*
X127714478Y-46434414D03*
X117554478Y-46434414D03*
D13*
X118824478Y-43894414D03*
D11*
X122634478Y-46434414D03*
D14*
X115549478Y-43894414D03*
X128476478Y-41354414D03*
%TD*%
D15*
%TO.C,*%
X36909840Y-55960080D03*
%TD*%
%TO.C,*%
X227412240Y-36909840D03*
%TD*%
%TO.C,*%
X227412240Y-75010320D03*
%TD*%
D12*
%TO.C,SW22*%
X193754542Y-46434414D03*
D13*
X201374542Y-41354414D03*
D12*
X203914542Y-46434414D03*
D13*
X195024542Y-43894414D03*
D11*
X198834542Y-46434414D03*
D14*
X191749542Y-43894414D03*
X204676542Y-41354414D03*
%TD*%
D12*
%TO.C,SW37*%
X22304398Y-84534446D03*
X32464398Y-84534446D03*
D13*
X23574398Y-81994446D03*
X29924398Y-79454446D03*
D11*
X27384398Y-84534446D03*
D14*
X20299398Y-81994446D03*
X33226398Y-79454446D03*
%TD*%
D12*
%TO.C,SW11*%
X222964558Y-27384398D03*
D11*
X217884558Y-27384398D03*
D13*
X220424558Y-22304398D03*
X214074558Y-24844398D03*
D12*
X212804558Y-27384398D03*
D14*
X210799558Y-24844398D03*
X223726558Y-22304398D03*
%TD*%
D11*
%TO.C,SW30*%
X122634478Y-65484430D03*
D13*
X125174478Y-60404430D03*
D12*
X117554478Y-65484430D03*
D13*
X118824478Y-62944430D03*
D12*
X127714478Y-65484430D03*
D14*
X115549478Y-62944430D03*
X128476478Y-60404430D03*
%TD*%
D12*
%TO.C,SW31*%
X136594494Y-65484430D03*
D13*
X144214494Y-60404430D03*
X137864494Y-62944430D03*
D11*
X141674494Y-65484430D03*
D12*
X146754494Y-65484430D03*
D14*
X134589494Y-62944430D03*
X147516494Y-60404430D03*
%TD*%
D11*
%TO.C,SW42_2*%
X120221486Y-76279446D03*
X144097486Y-76279446D03*
D12*
X137239486Y-84534446D03*
D11*
X132159486Y-84534446D03*
D16*
X120221486Y-91519446D03*
D13*
X128349486Y-81994446D03*
D16*
X144097486Y-91519446D03*
D12*
X127079486Y-84534446D03*
D13*
X134699486Y-79454446D03*
D14*
X125074486Y-81994446D03*
X138001486Y-79454446D03*
%TD*%
D17*
%TO.C,D35*%
X226218940Y-71535888D03*
X226218940Y-69435888D03*
%TD*%
%TO.C,D40*%
X92868828Y-90942263D03*
X92868828Y-88842263D03*
%TD*%
%TO.C,D21*%
X188118908Y-52842231D03*
X188118908Y-50742231D03*
%TD*%
D18*
%TO.C,C15*%
X31570000Y-38850000D03*
X32530000Y-38850000D03*
%TD*%
D19*
%TO.C,U2*%
X53359422Y-50140670D03*
X53759422Y-50140670D03*
X54159422Y-50140670D03*
X54559422Y-50140670D03*
X54959422Y-50140670D03*
X55359422Y-50140670D03*
X55759422Y-50140670D03*
X56159422Y-50140670D03*
X56559422Y-50140670D03*
X56959422Y-50140670D03*
X57359422Y-50140670D03*
X57759422Y-50140670D03*
X58159422Y-50140670D03*
X58559422Y-50140670D03*
D20*
X59396922Y-50978170D03*
X59396922Y-51378170D03*
X59396922Y-51778170D03*
X59396922Y-52178170D03*
X59396922Y-52578170D03*
X59396922Y-52978170D03*
X59396922Y-53378170D03*
X59396922Y-53778170D03*
X59396922Y-54178170D03*
X59396922Y-54578170D03*
X59396922Y-54978170D03*
X59396922Y-55378170D03*
X59396922Y-55778170D03*
X59396922Y-56178170D03*
D19*
X58559422Y-57015670D03*
X58159422Y-57015670D03*
X57759422Y-57015670D03*
X57359422Y-57015670D03*
X56959422Y-57015670D03*
X56559422Y-57015670D03*
X56159422Y-57015670D03*
X55759422Y-57015670D03*
X55359422Y-57015670D03*
X54959422Y-57015670D03*
X54559422Y-57015670D03*
X54159422Y-57015670D03*
X53759422Y-57015670D03*
X53359422Y-57015670D03*
D20*
X52521922Y-56178170D03*
X52521922Y-55778170D03*
X52521922Y-55378170D03*
X52521922Y-54978170D03*
X52521922Y-54578170D03*
X52521922Y-54178170D03*
X52521922Y-53778170D03*
X52521922Y-53378170D03*
X52521922Y-52978170D03*
X52521922Y-52578170D03*
X52521922Y-52178170D03*
X52521922Y-51778170D03*
X52521922Y-51378170D03*
X52521922Y-50978170D03*
D21*
X55959422Y-53578170D03*
%TD*%
D22*
%TO.C,R5*%
X64293804Y-20921268D03*
X64293804Y-21941268D03*
%TD*%
D17*
%TO.C,D32*%
X169068892Y-71892247D03*
X169068892Y-69792247D03*
%TD*%
D23*
%TO.C,C9*%
X57150048Y-47509727D03*
X57150048Y-46549727D03*
%TD*%
D24*
%TO.C,RGB10*%
X115559470Y-73409438D03*
X115559470Y-76609438D03*
X110659470Y-76609438D03*
X110659470Y-73409438D03*
%TD*%
D25*
%TO.C,R3*%
X74414125Y-33252215D03*
X74414125Y-32232215D03*
%TD*%
D17*
%TO.C,D30*%
X130968860Y-71892247D03*
X130968860Y-69792247D03*
%TD*%
D26*
%TO.C,Y1*%
X69003769Y-52599676D03*
X71054379Y-50549066D03*
X72680725Y-52175412D03*
X70630115Y-54226022D03*
%TD*%
D17*
%TO.C,D34*%
X207168924Y-71892247D03*
X207168924Y-69792247D03*
%TD*%
%TO.C,D1*%
X35123467Y-27839085D03*
X35123467Y-25739085D03*
%TD*%
D24*
%TO.C,RGB6*%
X223551848Y-35309406D03*
X223551848Y-38509406D03*
X218651848Y-38509406D03*
X218651848Y-35309406D03*
%TD*%
D27*
%TO.C,C7*%
X57150048Y-59646613D03*
X57150048Y-60606613D03*
%TD*%
D17*
%TO.C,D4*%
X92868828Y-30815650D03*
X92868828Y-28715650D03*
%TD*%
D28*
%TO.C,D3*%
X70745592Y-33099792D03*
X72845592Y-33099792D03*
%TD*%
D29*
%TO.C,C13*%
X73479401Y-53917581D03*
X74158223Y-53238759D03*
%TD*%
D17*
%TO.C,D9*%
X188118908Y-33435408D03*
X188118908Y-31335408D03*
%TD*%
%TO.C,D17*%
X111918844Y-52842231D03*
X111918844Y-50742231D03*
%TD*%
%TO.C,D11*%
X226218940Y-33435408D03*
X226218940Y-31335408D03*
%TD*%
D30*
%TO.C,C12*%
X69395719Y-49666881D03*
X68716897Y-50345703D03*
%TD*%
D17*
%TO.C,D6*%
X130968860Y-33792215D03*
X130968860Y-31692215D03*
%TD*%
%TO.C,D14*%
X55364109Y-42721910D03*
X55364109Y-40621910D03*
%TD*%
D31*
%TO.C,U3*%
X32651616Y-51673170D03*
X32651616Y-52943170D03*
X32651616Y-54213170D03*
X32651616Y-55483170D03*
X25451616Y-55483170D03*
X25451616Y-54213170D03*
X25451616Y-52943170D03*
X25451616Y-51673170D03*
%TD*%
D17*
%TO.C,D44*%
X169068892Y-90942263D03*
X169068892Y-88842263D03*
%TD*%
D24*
%TO.C,RGB7*%
X223670912Y-73409438D03*
X223670912Y-76609438D03*
X218770912Y-76609438D03*
X218770912Y-73409438D03*
%TD*%
D17*
%TO.C,D7*%
X150018876Y-33435408D03*
X150018876Y-31335408D03*
%TD*%
D24*
%TO.C,RGB9*%
X153659502Y-73409438D03*
X153659502Y-76609438D03*
X148759502Y-76609438D03*
X148759502Y-73409438D03*
%TD*%
D17*
%TO.C,D45*%
X188118908Y-90942263D03*
X188118908Y-88842263D03*
%TD*%
%TO.C,D13*%
X35123467Y-46293788D03*
X35123467Y-44193788D03*
%TD*%
D32*
%TO.C,USB1*%
X53069422Y-21137516D03*
X58849422Y-21137516D03*
D33*
X52734422Y-22582516D03*
X53509422Y-22582516D03*
D34*
X54209422Y-22582516D03*
X54709422Y-22582516D03*
X55209422Y-22582516D03*
X55709422Y-22582516D03*
X56209422Y-22582516D03*
X56709422Y-22582516D03*
X57209422Y-22582516D03*
X57709422Y-22582516D03*
D33*
X58409422Y-22582516D03*
X59184422Y-22582516D03*
D35*
X60279422Y-17487516D03*
X51639422Y-17487516D03*
D36*
X51639422Y-21667516D03*
X60279422Y-21667516D03*
%TD*%
D17*
%TO.C,D27*%
X73818812Y-71297760D03*
X73818812Y-69197760D03*
%TD*%
%TO.C,D24*%
X228600192Y-52604712D03*
X228600192Y-50504712D03*
%TD*%
D18*
%TO.C,C8*%
X62623178Y-52982857D03*
X63583178Y-52982857D03*
%TD*%
D17*
%TO.C,D46*%
X207168924Y-90942263D03*
X207168924Y-88842263D03*
%TD*%
D24*
%TO.C,RGB4*%
X153659502Y-35309406D03*
X153659502Y-38509406D03*
X148759502Y-38509406D03*
X148759502Y-35309406D03*
%TD*%
D27*
%TO.C,C14*%
X21431268Y-32262215D03*
X21431268Y-33222215D03*
%TD*%
D17*
%TO.C,D42*%
X140493868Y-90942263D03*
X140493868Y-88842263D03*
%TD*%
%TO.C,D8*%
X169068892Y-33792215D03*
X169068892Y-31692215D03*
%TD*%
D24*
%TO.C,RGB3*%
X115559470Y-35309406D03*
X115559470Y-38509406D03*
X110659470Y-38509406D03*
X110659470Y-35309406D03*
%TD*%
%TO.C,RGB12*%
X45551168Y-73529384D03*
X45551168Y-76729384D03*
X40651168Y-76729384D03*
X40651168Y-73529384D03*
%TD*%
D37*
%TO.C,C1*%
X48700353Y-55364109D03*
X47740353Y-55364109D03*
%TD*%
D17*
%TO.C,D2*%
X54768796Y-35578154D03*
X54768796Y-33478154D03*
%TD*%
%TO.C,D12*%
X228600192Y-33435408D03*
X228600192Y-31335408D03*
%TD*%
D27*
%TO.C,C16*%
X23812800Y-51193776D03*
X23812800Y-52153776D03*
%TD*%
D17*
%TO.C,D15*%
X72628186Y-45698475D03*
X72628186Y-43598475D03*
%TD*%
D37*
%TO.C,C11*%
X48700353Y-56554735D03*
X47740353Y-56554735D03*
%TD*%
%TO.C,C6*%
X48700353Y-57745361D03*
X47740353Y-57745361D03*
%TD*%
D17*
%TO.C,D37*%
X35718780Y-90942263D03*
X35718780Y-88842263D03*
%TD*%
D37*
%TO.C,C2*%
X48700353Y-51792231D03*
X47740353Y-51792231D03*
%TD*%
D24*
%TO.C,RGB2*%
X71149928Y-35309406D03*
X71149928Y-38509406D03*
X66249928Y-38509406D03*
X66249928Y-35309406D03*
%TD*%
D22*
%TO.C,R4*%
X47625040Y-20921268D03*
X47625040Y-21941268D03*
%TD*%
D17*
%TO.C,D36*%
X228600192Y-71535888D03*
X228600192Y-69435888D03*
%TD*%
%TO.C,D26*%
X54768796Y-71892247D03*
X54768796Y-69792247D03*
%TD*%
%TO.C,D28*%
X92868828Y-71892247D03*
X92868828Y-69792247D03*
%TD*%
D18*
%TO.C,C10*%
X62623178Y-54173483D03*
X63583178Y-54173483D03*
%TD*%
D17*
%TO.C,D20*%
X169068892Y-52842231D03*
X169068892Y-50742231D03*
%TD*%
%TO.C,D22*%
X207168924Y-52842231D03*
X207168924Y-50742231D03*
%TD*%
%TO.C,D23*%
X226218940Y-52604712D03*
X226218940Y-50504712D03*
%TD*%
D24*
%TO.C,RGB11*%
X71268992Y-73409438D03*
X71268992Y-76609438D03*
X66368992Y-76609438D03*
X66368992Y-73409438D03*
%TD*%
D38*
%TO.C,U1*%
X25425024Y-36828154D03*
D39*
X31725024Y-34528154D03*
D38*
X25425024Y-34528154D03*
X25425024Y-32228154D03*
%TD*%
D40*
%TO.C,R2*%
X72628186Y-54768796D03*
X71906938Y-55490044D03*
%TD*%
D41*
%TO.C,J2*%
X81384446Y-33223467D03*
X87684446Y-33223467D03*
X81384446Y-37023467D03*
X87684446Y-37023467D03*
%TD*%
D37*
%TO.C,C3*%
X48700353Y-52982857D03*
X47740353Y-52982857D03*
%TD*%
D17*
%TO.C,D33*%
X188118908Y-70940568D03*
X188118908Y-68840568D03*
%TD*%
D24*
%TO.C,RGB1*%
X45551168Y-35309406D03*
X45551168Y-38509406D03*
X40651168Y-38509406D03*
X40651168Y-35309406D03*
%TD*%
D17*
%TO.C,D48*%
X228600192Y-90942263D03*
X228600192Y-88842263D03*
%TD*%
%TO.C,D16*%
X92868828Y-52842231D03*
X92868828Y-50742231D03*
%TD*%
%TO.C,D25*%
X35718780Y-71535888D03*
X35718780Y-69435888D03*
%TD*%
%TO.C,D19*%
X150018876Y-52842231D03*
X150018876Y-50742231D03*
%TD*%
D37*
%TO.C,C5*%
X51280000Y-57700000D03*
X50320000Y-57700000D03*
%TD*%
D17*
%TO.C,D47*%
X226218940Y-90942263D03*
X226218940Y-88842263D03*
%TD*%
D24*
%TO.C,RGB8*%
X197953088Y-73409438D03*
X197953088Y-76609438D03*
X193053088Y-76609438D03*
X193053088Y-73409438D03*
%TD*%
D17*
%TO.C,D18*%
X130968860Y-52604712D03*
X130968860Y-50504712D03*
%TD*%
%TO.C,D38*%
X54768796Y-90942263D03*
X54768796Y-88842263D03*
%TD*%
D25*
%TO.C,R1*%
X75604751Y-33252215D03*
X75604751Y-32232215D03*
%TD*%
D41*
%TO.C,J1*%
X90909454Y-33223467D03*
X97209454Y-33223467D03*
X90909454Y-37023467D03*
X97209454Y-37023467D03*
%TD*%
D17*
%TO.C,D5*%
X111918844Y-33435408D03*
X111918844Y-31335408D03*
%TD*%
D24*
%TO.C,RGB5*%
X197953088Y-35309406D03*
X197953088Y-38509406D03*
X193053088Y-38509406D03*
X193053088Y-35309406D03*
%TD*%
D17*
%TO.C,D10*%
X207168924Y-33792215D03*
X207168924Y-31692215D03*
%TD*%
%TO.C,D29*%
X111918844Y-71535888D03*
X111918844Y-69435888D03*
%TD*%
%TO.C,D39*%
X73818812Y-90942263D03*
X73818812Y-88842263D03*
%TD*%
D42*
%TO.C,R6*%
X35752944Y-50959392D03*
X34732944Y-50959392D03*
%TD*%
D23*
%TO.C,C4*%
X52982857Y-47509727D03*
X52982857Y-46549727D03*
%TD*%
D17*
%TO.C,D41*%
X111918844Y-90942263D03*
X111918844Y-88842263D03*
%TD*%
%TO.C,D31*%
X150018876Y-71535888D03*
X150018876Y-69435888D03*
%TD*%
M02*
