M48
; DRILL file {KiCad (6.0.0)} date Sat Aug 19 11:13:41 2023
; FORMAT={-:-/ absolute / inch / decimal}
; #@! TF.CreationDate,2023-08-19T11:13:41+07:00
; #@! TF.GenerationSoftware,Kicad,Pcbnew,(6.0.0)
; #@! TF.FileFunction,NonPlated,1,2,NPTH
FMAT,2
INCH
; #@! TA.AperFunction,NonPlated,NPTH,ComponentDrill
T1C0.0256
; #@! TA.AperFunction,NonPlated,NPTH,ComponentDrill
T2C0.0689
; #@! TA.AperFunction,NonPlated,NPTH,ComponentDrill
T3C0.1181
; #@! TA.AperFunction,NonPlated,NPTH,ComponentDrill
T4C0.1200
; #@! TA.AperFunction,NonPlated,NPTH,ComponentDrill
T5C0.1570
%
G90
G05
T1
X2.0893Y-0.8322
X2.3169Y-0.8322
T2
X0.8777Y-1.0781
X0.8781Y-1.8281
X0.8781Y-2.5781
X0.8781Y-3.3281
X1.2777Y-1.0781
X1.2781Y-1.8281
X1.2781Y-2.5781
X1.2781Y-3.3281
X1.6281Y-1.8281
X1.6281Y-2.5781
X1.6281Y-3.3281
X1.6285Y-1.0781
X2.0281Y-1.8281
X2.0281Y-2.5781
X2.0281Y-3.3281
X2.0285Y-1.0781
X2.3781Y-1.8281
X2.3781Y-2.5781
X2.3781Y-3.3281
X2.3785Y-1.0781
X2.7781Y-1.8281
X2.7781Y-2.5781
X2.7781Y-3.3281
X2.7785Y-1.0781
X3.1277Y-2.5781
X3.1277Y-3.3281
X3.1281Y-1.0781
X3.1281Y-1.8281
X3.5277Y-2.5781
X3.5277Y-3.3281
X3.5281Y-1.0781
X3.5281Y-1.8281
X3.8781Y-1.0781
X3.8781Y-1.8281
X3.8781Y-2.5781
X3.8781Y-3.3281
X4.2781Y-1.0781
X4.2781Y-1.8281
X4.2781Y-2.5781
X4.2781Y-3.3281
X4.6281Y-1.0781
X4.6281Y-1.8281
X4.6281Y-2.5781
X5.0031Y-3.3281
X5.0281Y-1.0781
X5.0281Y-1.8281
X5.0281Y-2.5781
X5.3777Y-1.0781
X5.3777Y-1.8281
X5.3777Y-2.5781
X5.4031Y-3.3281
X5.7777Y-1.0781
X5.7777Y-1.8281
X5.7777Y-2.5781
X6.1277Y-3.3281
X6.1281Y-1.0781
X6.1281Y-1.8281
X6.1281Y-2.5781
X6.5277Y-3.3281
X6.5281Y-1.0781
X6.5281Y-1.8281
X6.5281Y-2.5781
X6.8777Y-2.5781
X6.8781Y-1.0781
X6.8781Y-1.8281
X6.8781Y-3.3281
X7.2777Y-2.5781
X7.2781Y-1.0781
X7.2781Y-1.8281
X7.2781Y-3.3281
X7.6281Y-1.0781
X7.6281Y-1.8281
X7.6281Y-2.5781
X7.6281Y-3.3281
X8.0281Y-1.0781
X8.0281Y-1.8281
X8.0281Y-2.5781
X8.0281Y-3.3281
X8.3777Y-2.5781
X8.3781Y-1.0781
X8.3781Y-1.8281
X8.3781Y-3.3281
X8.7777Y-2.5781
X8.7781Y-1.0781
X8.7781Y-1.8281
X8.7781Y-3.3281
X9.1277Y-1.0781
X9.1281Y-1.8281
X9.1281Y-2.5781
X9.1281Y-3.3281
X9.5277Y-1.0781
X9.5281Y-1.8281
X9.5281Y-2.5781
X9.5281Y-3.3281
T3
X0.9277Y-0.9781
X0.9281Y-1.7281
X0.9281Y-2.4781
X0.9281Y-3.2281
X1.1777Y-0.8781
X1.1781Y-1.6281
X1.1781Y-2.3781
X1.1781Y-3.1281
X1.6781Y-1.7281
X1.6781Y-2.4781
X1.6781Y-3.2281
X1.7285Y-1.2781
X1.9281Y-1.6281
X1.9281Y-2.3781
X1.9281Y-3.1281
X1.9785Y-1.1781
X2.4281Y-1.7281
X2.4281Y-2.4781
X2.4281Y-3.2281
X2.4785Y-1.2781
X2.6781Y-1.6281
X2.6781Y-2.3781
X2.6781Y-3.1281
X2.7285Y-1.1781
X3.1777Y-2.4781
X3.1777Y-3.2281
X3.1781Y-0.9781
X3.1781Y-1.7281
X3.4277Y-2.3781
X3.4277Y-3.1281
X3.4281Y-0.8781
X3.4281Y-1.6281
X3.9281Y-0.9781
X3.9281Y-1.7281
X3.9281Y-2.4781
X3.9281Y-3.2281
X4.1781Y-0.8781
X4.1781Y-1.6281
X4.1781Y-2.3781
X4.1781Y-3.1281
X4.6781Y-0.9781
X4.6781Y-1.7281
X4.6781Y-2.4781
X4.9281Y-0.8781
X4.9281Y-1.6281
X4.9281Y-2.3781
X5.0531Y-3.2281
X5.3031Y-3.1281
X5.4277Y-0.9781
X5.4277Y-1.7281
X5.4277Y-2.4781
X5.6777Y-0.8781
X5.6777Y-1.6281
X5.6777Y-2.3781
X6.1777Y-3.2281
X6.1781Y-0.9781
X6.1781Y-1.7281
X6.1781Y-2.4781
X6.4277Y-3.1281
X6.4281Y-0.8781
X6.4281Y-1.6281
X6.4281Y-2.3781
X6.9277Y-2.4781
X6.9281Y-0.9781
X6.9281Y-1.7281
X6.9281Y-3.2281
X7.1777Y-2.3781
X7.1781Y-0.8781
X7.1781Y-1.6281
X7.1781Y-3.1281
X7.6781Y-0.9781
X7.6781Y-1.7281
X7.6781Y-2.4781
X7.6781Y-3.2281
X7.9281Y-0.8781
X7.9281Y-1.6281
X7.9281Y-2.3781
X7.9281Y-3.1281
X8.4277Y-2.4781
X8.4281Y-0.9781
X8.4281Y-1.7281
X8.4281Y-3.2281
X8.6777Y-2.3781
X8.6781Y-0.8781
X8.6781Y-1.6281
X8.6781Y-3.1281
X9.1777Y-0.9781
X9.1781Y-1.7281
X9.1781Y-2.4781
X9.1781Y-3.2281
X9.4277Y-0.8781
X9.4281Y-1.6281
X9.4281Y-2.3781
X9.4281Y-3.1281
T4
X4.7331Y-3.6031
X5.6731Y-3.6031
T5
X1.0777Y-1.0781
X1.0781Y-1.8281
X1.0781Y-2.5781
X1.0781Y-3.3281
X1.8281Y-1.8281
X1.8281Y-2.5781
X1.8281Y-3.3281
X1.8285Y-1.0781
X2.5781Y-1.8281
X2.5781Y-2.5781
X2.5781Y-3.3281
X2.5785Y-1.0781
X3.3277Y-2.5781
X3.3277Y-3.3281
X3.3281Y-1.0781
X3.3281Y-1.8281
X4.0781Y-1.0781
X4.0781Y-1.8281
X4.0781Y-2.5781
X4.0781Y-3.3281
X4.7331Y-3.0031
X4.8281Y-1.0781
X4.8281Y-1.8281
X4.8281Y-2.5781
X5.2031Y-3.3281
X5.5777Y-1.0781
X5.5777Y-1.8281
X5.5777Y-2.5781
X5.6731Y-3.0031
X6.3277Y-3.3281
X6.3281Y-1.0781
X6.3281Y-1.8281
X6.3281Y-2.5781
X7.0777Y-2.5781
X7.0781Y-1.0781
X7.0781Y-1.8281
X7.0781Y-3.3281
X7.8281Y-1.0781
X7.8281Y-1.8281
X7.8281Y-2.5781
X7.8281Y-3.3281
X8.5777Y-2.5781
X8.5781Y-1.0781
X8.5781Y-1.8281
X8.5781Y-3.3281
X9.3277Y-1.0781
X9.3281Y-1.8281
X9.3281Y-2.5781
X9.3281Y-3.3281
T0
M30
