%TF.GenerationSoftware,KiCad,Pcbnew,(6.0.0)*%
%TF.CreationDate,2023-08-19T11:13:56+07:00*%
%TF.ProjectId,pacman,7061636d-616e-42e6-9b69-6361645f7063,rev?*%
%TF.SameCoordinates,Original*%
%TF.FileFunction,Legend,Bot*%
%TF.FilePolarity,Positive*%
%FSLAX46Y46*%
G04 Gerber Fmt 4.6, Leading zero omitted, Abs format (unit mm)*
G04 Created by KiCad (PCBNEW (6.0.0)) date 2023-08-19 11:13:56*
%MOMM*%
%LPD*%
G01*
G04 APERTURE LIST*
%ADD10C,0.150000*%
%ADD11C,0.120000*%
G04 APERTURE END LIST*
D10*
%TO.C,SW1*%
X28707731Y-30837159D02*
X28564874Y-30884778D01*
X28326778Y-30884778D01*
X28231540Y-30837159D01*
X28183921Y-30789540D01*
X28136302Y-30694302D01*
X28136302Y-30599064D01*
X28183921Y-30503826D01*
X28231540Y-30456207D01*
X28326778Y-30408588D01*
X28517255Y-30360969D01*
X28612493Y-30313350D01*
X28660112Y-30265731D01*
X28707731Y-30170493D01*
X28707731Y-30075255D01*
X28660112Y-29980017D01*
X28612493Y-29932398D01*
X28517255Y-29884778D01*
X28279159Y-29884778D01*
X28136302Y-29932398D01*
X27802969Y-29884778D02*
X27564874Y-30884778D01*
X27374398Y-30170493D01*
X27183921Y-30884778D01*
X26945826Y-29884778D01*
X26041064Y-30884778D02*
X26612493Y-30884778D01*
X26326778Y-30884778D02*
X26326778Y-29884778D01*
X26422017Y-30027636D01*
X26517255Y-30122874D01*
X26612493Y-30170493D01*
%TO.C,SW12*%
X238734097Y-30837159D02*
X238591240Y-30884778D01*
X238353145Y-30884778D01*
X238257907Y-30837159D01*
X238210288Y-30789540D01*
X238162669Y-30694302D01*
X238162669Y-30599064D01*
X238210288Y-30503826D01*
X238257907Y-30456207D01*
X238353145Y-30408588D01*
X238543621Y-30360969D01*
X238638859Y-30313350D01*
X238686478Y-30265731D01*
X238734097Y-30170493D01*
X238734097Y-30075255D01*
X238686478Y-29980017D01*
X238638859Y-29932398D01*
X238543621Y-29884778D01*
X238305526Y-29884778D01*
X238162669Y-29932398D01*
X237829335Y-29884778D02*
X237591240Y-30884778D01*
X237400764Y-30170493D01*
X237210288Y-30884778D01*
X236972193Y-29884778D01*
X236067431Y-30884778D02*
X236638859Y-30884778D01*
X236353145Y-30884778D02*
X236353145Y-29884778D01*
X236448383Y-30027636D01*
X236543621Y-30122874D01*
X236638859Y-30170493D01*
X235686478Y-29980017D02*
X235638859Y-29932398D01*
X235543621Y-29884778D01*
X235305526Y-29884778D01*
X235210288Y-29932398D01*
X235162669Y-29980017D01*
X235115050Y-30075255D01*
X235115050Y-30170493D01*
X235162669Y-30313350D01*
X235734097Y-30884778D01*
X235115050Y-30884778D01*
%TO.C,SW20*%
X162544033Y-49887175D02*
X162401176Y-49934794D01*
X162163081Y-49934794D01*
X162067843Y-49887175D01*
X162020224Y-49839556D01*
X161972605Y-49744318D01*
X161972605Y-49649080D01*
X162020224Y-49553842D01*
X162067843Y-49506223D01*
X162163081Y-49458604D01*
X162353557Y-49410985D01*
X162448795Y-49363366D01*
X162496414Y-49315747D01*
X162544033Y-49220509D01*
X162544033Y-49125271D01*
X162496414Y-49030033D01*
X162448795Y-48982414D01*
X162353557Y-48934794D01*
X162115462Y-48934794D01*
X161972605Y-48982414D01*
X161639271Y-48934794D02*
X161401176Y-49934794D01*
X161210700Y-49220509D01*
X161020224Y-49934794D01*
X160782129Y-48934794D01*
X160448795Y-49030033D02*
X160401176Y-48982414D01*
X160305938Y-48934794D01*
X160067843Y-48934794D01*
X159972605Y-48982414D01*
X159924986Y-49030033D01*
X159877367Y-49125271D01*
X159877367Y-49220509D01*
X159924986Y-49363366D01*
X160496414Y-49934794D01*
X159877367Y-49934794D01*
X159258319Y-48934794D02*
X159163081Y-48934794D01*
X159067843Y-48982414D01*
X159020224Y-49030033D01*
X158972605Y-49125271D01*
X158924986Y-49315747D01*
X158924986Y-49553842D01*
X158972605Y-49744318D01*
X159020224Y-49839556D01*
X159067843Y-49887175D01*
X159163081Y-49934794D01*
X159258319Y-49934794D01*
X159353557Y-49887175D01*
X159401176Y-49839556D01*
X159448795Y-49744318D01*
X159496414Y-49553842D01*
X159496414Y-49315747D01*
X159448795Y-49125271D01*
X159401176Y-49030033D01*
X159353557Y-48982414D01*
X159258319Y-48934794D01*
%TO.C,SW16*%
X86343969Y-49887175D02*
X86201112Y-49934794D01*
X85963017Y-49934794D01*
X85867779Y-49887175D01*
X85820160Y-49839556D01*
X85772541Y-49744318D01*
X85772541Y-49649080D01*
X85820160Y-49553842D01*
X85867779Y-49506223D01*
X85963017Y-49458604D01*
X86153493Y-49410985D01*
X86248731Y-49363366D01*
X86296350Y-49315747D01*
X86343969Y-49220509D01*
X86343969Y-49125271D01*
X86296350Y-49030033D01*
X86248731Y-48982414D01*
X86153493Y-48934794D01*
X85915398Y-48934794D01*
X85772541Y-48982414D01*
X85439207Y-48934794D02*
X85201112Y-49934794D01*
X85010636Y-49220509D01*
X84820160Y-49934794D01*
X84582065Y-48934794D01*
X83677303Y-49934794D02*
X84248731Y-49934794D01*
X83963017Y-49934794D02*
X83963017Y-48934794D01*
X84058255Y-49077652D01*
X84153493Y-49172890D01*
X84248731Y-49220509D01*
X82820160Y-48934794D02*
X83010636Y-48934794D01*
X83105874Y-48982414D01*
X83153493Y-49030033D01*
X83248731Y-49172890D01*
X83296350Y-49363366D01*
X83296350Y-49744318D01*
X83248731Y-49839556D01*
X83201112Y-49887175D01*
X83105874Y-49934794D01*
X82915398Y-49934794D01*
X82820160Y-49887175D01*
X82772541Y-49839556D01*
X82724922Y-49744318D01*
X82724922Y-49506223D01*
X82772541Y-49410985D01*
X82820160Y-49363366D01*
X82915398Y-49315747D01*
X83105874Y-49315747D01*
X83201112Y-49363366D01*
X83248731Y-49410985D01*
X83296350Y-49506223D01*
%TO.C,SW3*%
X66827763Y-24741159D02*
X66684906Y-24788778D01*
X66446810Y-24788778D01*
X66351572Y-24741159D01*
X66303953Y-24693540D01*
X66256334Y-24598302D01*
X66256334Y-24503064D01*
X66303953Y-24407826D01*
X66351572Y-24360207D01*
X66446810Y-24312588D01*
X66637287Y-24264969D01*
X66732525Y-24217350D01*
X66780144Y-24169731D01*
X66827763Y-24074493D01*
X66827763Y-23979255D01*
X66780144Y-23884017D01*
X66732525Y-23836398D01*
X66637287Y-23788778D01*
X66399191Y-23788778D01*
X66256334Y-23836398D01*
X65923001Y-23788778D02*
X65684906Y-24788778D01*
X65494430Y-24074493D01*
X65303953Y-24788778D01*
X65065858Y-23788778D01*
X64780144Y-23788778D02*
X64161096Y-23788778D01*
X64494430Y-24169731D01*
X64351572Y-24169731D01*
X64256334Y-24217350D01*
X64208715Y-24264969D01*
X64161096Y-24360207D01*
X64161096Y-24598302D01*
X64208715Y-24693540D01*
X64256334Y-24741159D01*
X64351572Y-24788778D01*
X64637287Y-24788778D01*
X64732525Y-24741159D01*
X64780144Y-24693540D01*
%TO.C,SW6*%
X123967811Y-30837159D02*
X123824954Y-30884778D01*
X123586858Y-30884778D01*
X123491620Y-30837159D01*
X123444001Y-30789540D01*
X123396382Y-30694302D01*
X123396382Y-30599064D01*
X123444001Y-30503826D01*
X123491620Y-30456207D01*
X123586858Y-30408588D01*
X123777335Y-30360969D01*
X123872573Y-30313350D01*
X123920192Y-30265731D01*
X123967811Y-30170493D01*
X123967811Y-30075255D01*
X123920192Y-29980017D01*
X123872573Y-29932398D01*
X123777335Y-29884778D01*
X123539239Y-29884778D01*
X123396382Y-29932398D01*
X123063049Y-29884778D02*
X122824954Y-30884778D01*
X122634478Y-30170493D01*
X122444001Y-30884778D01*
X122205906Y-29884778D01*
X121396382Y-29884778D02*
X121586858Y-29884778D01*
X121682097Y-29932398D01*
X121729716Y-29980017D01*
X121824954Y-30122874D01*
X121872573Y-30313350D01*
X121872573Y-30694302D01*
X121824954Y-30789540D01*
X121777335Y-30837159D01*
X121682097Y-30884778D01*
X121491620Y-30884778D01*
X121396382Y-30837159D01*
X121348763Y-30789540D01*
X121301144Y-30694302D01*
X121301144Y-30456207D01*
X121348763Y-30360969D01*
X121396382Y-30313350D01*
X121491620Y-30265731D01*
X121682097Y-30265731D01*
X121777335Y-30313350D01*
X121824954Y-30360969D01*
X121872573Y-30456207D01*
%TO.C,SW4*%
X85867779Y-30837159D02*
X85724922Y-30884778D01*
X85486826Y-30884778D01*
X85391588Y-30837159D01*
X85343969Y-30789540D01*
X85296350Y-30694302D01*
X85296350Y-30599064D01*
X85343969Y-30503826D01*
X85391588Y-30456207D01*
X85486826Y-30408588D01*
X85677303Y-30360969D01*
X85772541Y-30313350D01*
X85820160Y-30265731D01*
X85867779Y-30170493D01*
X85867779Y-30075255D01*
X85820160Y-29980017D01*
X85772541Y-29932398D01*
X85677303Y-29884778D01*
X85439207Y-29884778D01*
X85296350Y-29932398D01*
X84963017Y-29884778D02*
X84724922Y-30884778D01*
X84534446Y-30170493D01*
X84343969Y-30884778D01*
X84105874Y-29884778D01*
X83296350Y-30218112D02*
X83296350Y-30884778D01*
X83534446Y-29837159D02*
X83772541Y-30551445D01*
X83153493Y-30551445D01*
%TO.C,SW23*%
X219694081Y-49887175D02*
X219551224Y-49934794D01*
X219313129Y-49934794D01*
X219217891Y-49887175D01*
X219170272Y-49839556D01*
X219122653Y-49744318D01*
X219122653Y-49649080D01*
X219170272Y-49553842D01*
X219217891Y-49506223D01*
X219313129Y-49458604D01*
X219503605Y-49410985D01*
X219598843Y-49363366D01*
X219646462Y-49315747D01*
X219694081Y-49220509D01*
X219694081Y-49125271D01*
X219646462Y-49030033D01*
X219598843Y-48982414D01*
X219503605Y-48934794D01*
X219265510Y-48934794D01*
X219122653Y-48982414D01*
X218789319Y-48934794D02*
X218551224Y-49934794D01*
X218360748Y-49220509D01*
X218170272Y-49934794D01*
X217932177Y-48934794D01*
X217598843Y-49030033D02*
X217551224Y-48982414D01*
X217455986Y-48934794D01*
X217217891Y-48934794D01*
X217122653Y-48982414D01*
X217075034Y-49030033D01*
X217027415Y-49125271D01*
X217027415Y-49220509D01*
X217075034Y-49363366D01*
X217646462Y-49934794D01*
X217027415Y-49934794D01*
X216694081Y-48934794D02*
X216075034Y-48934794D01*
X216408367Y-49315747D01*
X216265510Y-49315747D01*
X216170272Y-49363366D01*
X216122653Y-49410985D01*
X216075034Y-49506223D01*
X216075034Y-49744318D01*
X216122653Y-49839556D01*
X216170272Y-49887175D01*
X216265510Y-49934794D01*
X216551224Y-49934794D01*
X216646462Y-49887175D01*
X216694081Y-49839556D01*
%TO.C,SW35*%
X219684081Y-68937191D02*
X219541224Y-68984810D01*
X219303129Y-68984810D01*
X219207891Y-68937191D01*
X219160272Y-68889572D01*
X219112653Y-68794334D01*
X219112653Y-68699096D01*
X219160272Y-68603858D01*
X219207891Y-68556239D01*
X219303129Y-68508620D01*
X219493605Y-68461001D01*
X219588843Y-68413382D01*
X219636462Y-68365763D01*
X219684081Y-68270525D01*
X219684081Y-68175287D01*
X219636462Y-68080049D01*
X219588843Y-68032430D01*
X219493605Y-67984810D01*
X219255510Y-67984810D01*
X219112653Y-68032430D01*
X218779319Y-67984810D02*
X218541224Y-68984810D01*
X218350748Y-68270525D01*
X218160272Y-68984810D01*
X217922177Y-67984810D01*
X217636462Y-67984810D02*
X217017415Y-67984810D01*
X217350748Y-68365763D01*
X217207891Y-68365763D01*
X217112653Y-68413382D01*
X217065034Y-68461001D01*
X217017415Y-68556239D01*
X217017415Y-68794334D01*
X217065034Y-68889572D01*
X217112653Y-68937191D01*
X217207891Y-68984810D01*
X217493605Y-68984810D01*
X217588843Y-68937191D01*
X217636462Y-68889572D01*
X216112653Y-67984810D02*
X216588843Y-67984810D01*
X216636462Y-68461001D01*
X216588843Y-68413382D01*
X216493605Y-68365763D01*
X216255510Y-68365763D01*
X216160272Y-68413382D01*
X216112653Y-68461001D01*
X216065034Y-68556239D01*
X216065034Y-68794334D01*
X216112653Y-68889572D01*
X216160272Y-68937191D01*
X216255510Y-68984810D01*
X216493605Y-68984810D01*
X216588843Y-68937191D01*
X216636462Y-68889572D01*
%TO.C,SW46*%
X200644065Y-87987207D02*
X200501208Y-88034826D01*
X200263113Y-88034826D01*
X200167875Y-87987207D01*
X200120256Y-87939588D01*
X200072637Y-87844350D01*
X200072637Y-87749112D01*
X200120256Y-87653874D01*
X200167875Y-87606255D01*
X200263113Y-87558636D01*
X200453589Y-87511017D01*
X200548827Y-87463398D01*
X200596446Y-87415779D01*
X200644065Y-87320541D01*
X200644065Y-87225303D01*
X200596446Y-87130065D01*
X200548827Y-87082446D01*
X200453589Y-87034826D01*
X200215494Y-87034826D01*
X200072637Y-87082446D01*
X199739303Y-87034826D02*
X199501208Y-88034826D01*
X199310732Y-87320541D01*
X199120256Y-88034826D01*
X198882161Y-87034826D01*
X198072637Y-87368160D02*
X198072637Y-88034826D01*
X198310732Y-86987207D02*
X198548827Y-87701493D01*
X197929780Y-87701493D01*
X197120256Y-87034826D02*
X197310732Y-87034826D01*
X197405970Y-87082446D01*
X197453589Y-87130065D01*
X197548827Y-87272922D01*
X197596446Y-87463398D01*
X197596446Y-87844350D01*
X197548827Y-87939588D01*
X197501208Y-87987207D01*
X197405970Y-88034826D01*
X197215494Y-88034826D01*
X197120256Y-87987207D01*
X197072637Y-87939588D01*
X197025018Y-87844350D01*
X197025018Y-87606255D01*
X197072637Y-87511017D01*
X197120256Y-87463398D01*
X197215494Y-87415779D01*
X197405970Y-87415779D01*
X197501208Y-87463398D01*
X197548827Y-87511017D01*
X197596446Y-87606255D01*
%TO.C,SW10*%
X200644065Y-30837159D02*
X200501208Y-30884778D01*
X200263113Y-30884778D01*
X200167875Y-30837159D01*
X200120256Y-30789540D01*
X200072637Y-30694302D01*
X200072637Y-30599064D01*
X200120256Y-30503826D01*
X200167875Y-30456207D01*
X200263113Y-30408588D01*
X200453589Y-30360969D01*
X200548827Y-30313350D01*
X200596446Y-30265731D01*
X200644065Y-30170493D01*
X200644065Y-30075255D01*
X200596446Y-29980017D01*
X200548827Y-29932398D01*
X200453589Y-29884778D01*
X200215494Y-29884778D01*
X200072637Y-29932398D01*
X199739303Y-29884778D02*
X199501208Y-30884778D01*
X199310732Y-30170493D01*
X199120256Y-30884778D01*
X198882161Y-29884778D01*
X197977399Y-30884778D02*
X198548827Y-30884778D01*
X198263113Y-30884778D02*
X198263113Y-29884778D01*
X198358351Y-30027636D01*
X198453589Y-30122874D01*
X198548827Y-30170493D01*
X197358351Y-29884778D02*
X197263113Y-29884778D01*
X197167875Y-29932398D01*
X197120256Y-29980017D01*
X197072637Y-30075255D01*
X197025018Y-30265731D01*
X197025018Y-30503826D01*
X197072637Y-30694302D01*
X197120256Y-30789540D01*
X197167875Y-30837159D01*
X197263113Y-30884778D01*
X197358351Y-30884778D01*
X197453589Y-30837159D01*
X197501208Y-30789540D01*
X197548827Y-30694302D01*
X197596446Y-30503826D01*
X197596446Y-30265731D01*
X197548827Y-30075255D01*
X197501208Y-29980017D01*
X197453589Y-29932398D01*
X197358351Y-29884778D01*
%TO.C,SW27*%
X67293953Y-68937191D02*
X67151096Y-68984810D01*
X66913001Y-68984810D01*
X66817763Y-68937191D01*
X66770144Y-68889572D01*
X66722525Y-68794334D01*
X66722525Y-68699096D01*
X66770144Y-68603858D01*
X66817763Y-68556239D01*
X66913001Y-68508620D01*
X67103477Y-68461001D01*
X67198715Y-68413382D01*
X67246334Y-68365763D01*
X67293953Y-68270525D01*
X67293953Y-68175287D01*
X67246334Y-68080049D01*
X67198715Y-68032430D01*
X67103477Y-67984810D01*
X66865382Y-67984810D01*
X66722525Y-68032430D01*
X66389191Y-67984810D02*
X66151096Y-68984810D01*
X65960620Y-68270525D01*
X65770144Y-68984810D01*
X65532049Y-67984810D01*
X65198715Y-68080049D02*
X65151096Y-68032430D01*
X65055858Y-67984810D01*
X64817763Y-67984810D01*
X64722525Y-68032430D01*
X64674906Y-68080049D01*
X64627287Y-68175287D01*
X64627287Y-68270525D01*
X64674906Y-68413382D01*
X65246334Y-68984810D01*
X64627287Y-68984810D01*
X64293953Y-67984810D02*
X63627287Y-67984810D01*
X64055858Y-68984810D01*
%TO.C,SW40*%
X86333969Y-87987207D02*
X86191112Y-88034826D01*
X85953017Y-88034826D01*
X85857779Y-87987207D01*
X85810160Y-87939588D01*
X85762541Y-87844350D01*
X85762541Y-87749112D01*
X85810160Y-87653874D01*
X85857779Y-87606255D01*
X85953017Y-87558636D01*
X86143493Y-87511017D01*
X86238731Y-87463398D01*
X86286350Y-87415779D01*
X86333969Y-87320541D01*
X86333969Y-87225303D01*
X86286350Y-87130065D01*
X86238731Y-87082446D01*
X86143493Y-87034826D01*
X85905398Y-87034826D01*
X85762541Y-87082446D01*
X85429207Y-87034826D02*
X85191112Y-88034826D01*
X85000636Y-87320541D01*
X84810160Y-88034826D01*
X84572065Y-87034826D01*
X83762541Y-87368160D02*
X83762541Y-88034826D01*
X84000636Y-86987207D02*
X84238731Y-87701493D01*
X83619684Y-87701493D01*
X83048255Y-87034826D02*
X82953017Y-87034826D01*
X82857779Y-87082446D01*
X82810160Y-87130065D01*
X82762541Y-87225303D01*
X82714922Y-87415779D01*
X82714922Y-87653874D01*
X82762541Y-87844350D01*
X82810160Y-87939588D01*
X82857779Y-87987207D01*
X82953017Y-88034826D01*
X83048255Y-88034826D01*
X83143493Y-87987207D01*
X83191112Y-87939588D01*
X83238731Y-87844350D01*
X83286350Y-87653874D01*
X83286350Y-87415779D01*
X83238731Y-87225303D01*
X83191112Y-87130065D01*
X83143493Y-87082446D01*
X83048255Y-87034826D01*
%TO.C,SW2*%
X47777747Y-24741159D02*
X47634890Y-24788778D01*
X47396794Y-24788778D01*
X47301556Y-24741159D01*
X47253937Y-24693540D01*
X47206318Y-24598302D01*
X47206318Y-24503064D01*
X47253937Y-24407826D01*
X47301556Y-24360207D01*
X47396794Y-24312588D01*
X47587271Y-24264969D01*
X47682509Y-24217350D01*
X47730128Y-24169731D01*
X47777747Y-24074493D01*
X47777747Y-23979255D01*
X47730128Y-23884017D01*
X47682509Y-23836398D01*
X47587271Y-23788778D01*
X47349175Y-23788778D01*
X47206318Y-23836398D01*
X46872985Y-23788778D02*
X46634890Y-24788778D01*
X46444414Y-24074493D01*
X46253937Y-24788778D01*
X46015842Y-23788778D01*
X45682509Y-23884017D02*
X45634890Y-23836398D01*
X45539652Y-23788778D01*
X45301556Y-23788778D01*
X45206318Y-23836398D01*
X45158699Y-23884017D01*
X45111080Y-23979255D01*
X45111080Y-24074493D01*
X45158699Y-24217350D01*
X45730128Y-24788778D01*
X45111080Y-24788778D01*
%TO.C,SW14*%
X48243937Y-49887175D02*
X48101080Y-49934794D01*
X47862985Y-49934794D01*
X47767747Y-49887175D01*
X47720128Y-49839556D01*
X47672509Y-49744318D01*
X47672509Y-49649080D01*
X47720128Y-49553842D01*
X47767747Y-49506223D01*
X47862985Y-49458604D01*
X48053461Y-49410985D01*
X48148699Y-49363366D01*
X48196318Y-49315747D01*
X48243937Y-49220509D01*
X48243937Y-49125271D01*
X48196318Y-49030033D01*
X48148699Y-48982414D01*
X48053461Y-48934794D01*
X47815366Y-48934794D01*
X47672509Y-48982414D01*
X47339175Y-48934794D02*
X47101080Y-49934794D01*
X46910604Y-49220509D01*
X46720128Y-49934794D01*
X46482033Y-48934794D01*
X45577271Y-49934794D02*
X46148699Y-49934794D01*
X45862985Y-49934794D02*
X45862985Y-48934794D01*
X45958223Y-49077652D01*
X46053461Y-49172890D01*
X46148699Y-49220509D01*
X44720128Y-49268128D02*
X44720128Y-49934794D01*
X44958223Y-48887175D02*
X45196318Y-49601461D01*
X44577271Y-49601461D01*
%TO.C,SW8*%
X162067843Y-30837159D02*
X161924986Y-30884778D01*
X161686890Y-30884778D01*
X161591652Y-30837159D01*
X161544033Y-30789540D01*
X161496414Y-30694302D01*
X161496414Y-30599064D01*
X161544033Y-30503826D01*
X161591652Y-30456207D01*
X161686890Y-30408588D01*
X161877367Y-30360969D01*
X161972605Y-30313350D01*
X162020224Y-30265731D01*
X162067843Y-30170493D01*
X162067843Y-30075255D01*
X162020224Y-29980017D01*
X161972605Y-29932398D01*
X161877367Y-29884778D01*
X161639271Y-29884778D01*
X161496414Y-29932398D01*
X161163081Y-29884778D02*
X160924986Y-30884778D01*
X160734510Y-30170493D01*
X160544033Y-30884778D01*
X160305938Y-29884778D01*
X159782129Y-30313350D02*
X159877367Y-30265731D01*
X159924986Y-30218112D01*
X159972605Y-30122874D01*
X159972605Y-30075255D01*
X159924986Y-29980017D01*
X159877367Y-29932398D01*
X159782129Y-29884778D01*
X159591652Y-29884778D01*
X159496414Y-29932398D01*
X159448795Y-29980017D01*
X159401176Y-30075255D01*
X159401176Y-30122874D01*
X159448795Y-30218112D01*
X159496414Y-30265731D01*
X159591652Y-30313350D01*
X159782129Y-30313350D01*
X159877367Y-30360969D01*
X159924986Y-30408588D01*
X159972605Y-30503826D01*
X159972605Y-30694302D01*
X159924986Y-30789540D01*
X159877367Y-30837159D01*
X159782129Y-30884778D01*
X159591652Y-30884778D01*
X159496414Y-30837159D01*
X159448795Y-30789540D01*
X159401176Y-30694302D01*
X159401176Y-30503826D01*
X159448795Y-30408588D01*
X159496414Y-30360969D01*
X159591652Y-30313350D01*
%TO.C,SW26*%
X48243937Y-68937191D02*
X48101080Y-68984810D01*
X47862985Y-68984810D01*
X47767747Y-68937191D01*
X47720128Y-68889572D01*
X47672509Y-68794334D01*
X47672509Y-68699096D01*
X47720128Y-68603858D01*
X47767747Y-68556239D01*
X47862985Y-68508620D01*
X48053461Y-68461001D01*
X48148699Y-68413382D01*
X48196318Y-68365763D01*
X48243937Y-68270525D01*
X48243937Y-68175287D01*
X48196318Y-68080049D01*
X48148699Y-68032430D01*
X48053461Y-67984810D01*
X47815366Y-67984810D01*
X47672509Y-68032430D01*
X47339175Y-67984810D02*
X47101080Y-68984810D01*
X46910604Y-68270525D01*
X46720128Y-68984810D01*
X46482033Y-67984810D01*
X46148699Y-68080049D02*
X46101080Y-68032430D01*
X46005842Y-67984810D01*
X45767747Y-67984810D01*
X45672509Y-68032430D01*
X45624890Y-68080049D01*
X45577271Y-68175287D01*
X45577271Y-68270525D01*
X45624890Y-68413382D01*
X46196318Y-68984810D01*
X45577271Y-68984810D01*
X44720128Y-67984810D02*
X44910604Y-67984810D01*
X45005842Y-68032430D01*
X45053461Y-68080049D01*
X45148699Y-68222906D01*
X45196318Y-68413382D01*
X45196318Y-68794334D01*
X45148699Y-68889572D01*
X45101080Y-68937191D01*
X45005842Y-68984810D01*
X44815366Y-68984810D01*
X44720128Y-68937191D01*
X44672509Y-68889572D01*
X44624890Y-68794334D01*
X44624890Y-68556239D01*
X44672509Y-68461001D01*
X44720128Y-68413382D01*
X44815366Y-68365763D01*
X45005842Y-68365763D01*
X45101080Y-68413382D01*
X45148699Y-68461001D01*
X45196318Y-68556239D01*
%TO.C,SW32*%
X162544033Y-68937191D02*
X162401176Y-68984810D01*
X162163081Y-68984810D01*
X162067843Y-68937191D01*
X162020224Y-68889572D01*
X161972605Y-68794334D01*
X161972605Y-68699096D01*
X162020224Y-68603858D01*
X162067843Y-68556239D01*
X162163081Y-68508620D01*
X162353557Y-68461001D01*
X162448795Y-68413382D01*
X162496414Y-68365763D01*
X162544033Y-68270525D01*
X162544033Y-68175287D01*
X162496414Y-68080049D01*
X162448795Y-68032430D01*
X162353557Y-67984810D01*
X162115462Y-67984810D01*
X161972605Y-68032430D01*
X161639271Y-67984810D02*
X161401176Y-68984810D01*
X161210700Y-68270525D01*
X161020224Y-68984810D01*
X160782129Y-67984810D01*
X160496414Y-67984810D02*
X159877367Y-67984810D01*
X160210700Y-68365763D01*
X160067843Y-68365763D01*
X159972605Y-68413382D01*
X159924986Y-68461001D01*
X159877367Y-68556239D01*
X159877367Y-68794334D01*
X159924986Y-68889572D01*
X159972605Y-68937191D01*
X160067843Y-68984810D01*
X160353557Y-68984810D01*
X160448795Y-68937191D01*
X160496414Y-68889572D01*
X159496414Y-68080049D02*
X159448795Y-68032430D01*
X159353557Y-67984810D01*
X159115462Y-67984810D01*
X159020224Y-68032430D01*
X158972605Y-68080049D01*
X158924986Y-68175287D01*
X158924986Y-68270525D01*
X158972605Y-68413382D01*
X159544033Y-68984810D01*
X158924986Y-68984810D01*
%TO.C,SW47*%
X219694081Y-87987207D02*
X219551224Y-88034826D01*
X219313129Y-88034826D01*
X219217891Y-87987207D01*
X219170272Y-87939588D01*
X219122653Y-87844350D01*
X219122653Y-87749112D01*
X219170272Y-87653874D01*
X219217891Y-87606255D01*
X219313129Y-87558636D01*
X219503605Y-87511017D01*
X219598843Y-87463398D01*
X219646462Y-87415779D01*
X219694081Y-87320541D01*
X219694081Y-87225303D01*
X219646462Y-87130065D01*
X219598843Y-87082446D01*
X219503605Y-87034826D01*
X219265510Y-87034826D01*
X219122653Y-87082446D01*
X218789319Y-87034826D02*
X218551224Y-88034826D01*
X218360748Y-87320541D01*
X218170272Y-88034826D01*
X217932177Y-87034826D01*
X217122653Y-87368160D02*
X217122653Y-88034826D01*
X217360748Y-86987207D02*
X217598843Y-87701493D01*
X216979796Y-87701493D01*
X216694081Y-87034826D02*
X216027415Y-87034826D01*
X216455986Y-88034826D01*
%TO.C,SW21*%
X181594049Y-49887175D02*
X181451192Y-49934794D01*
X181213097Y-49934794D01*
X181117859Y-49887175D01*
X181070240Y-49839556D01*
X181022621Y-49744318D01*
X181022621Y-49649080D01*
X181070240Y-49553842D01*
X181117859Y-49506223D01*
X181213097Y-49458604D01*
X181403573Y-49410985D01*
X181498811Y-49363366D01*
X181546430Y-49315747D01*
X181594049Y-49220509D01*
X181594049Y-49125271D01*
X181546430Y-49030033D01*
X181498811Y-48982414D01*
X181403573Y-48934794D01*
X181165478Y-48934794D01*
X181022621Y-48982414D01*
X180689287Y-48934794D02*
X180451192Y-49934794D01*
X180260716Y-49220509D01*
X180070240Y-49934794D01*
X179832145Y-48934794D01*
X179498811Y-49030033D02*
X179451192Y-48982414D01*
X179355954Y-48934794D01*
X179117859Y-48934794D01*
X179022621Y-48982414D01*
X178975002Y-49030033D01*
X178927383Y-49125271D01*
X178927383Y-49220509D01*
X178975002Y-49363366D01*
X179546430Y-49934794D01*
X178927383Y-49934794D01*
X177975002Y-49934794D02*
X178546430Y-49934794D01*
X178260716Y-49934794D02*
X178260716Y-48934794D01*
X178355954Y-49077652D01*
X178451192Y-49172890D01*
X178546430Y-49220509D01*
%TO.C,SW25*%
X29193921Y-68937191D02*
X29051064Y-68984810D01*
X28812969Y-68984810D01*
X28717731Y-68937191D01*
X28670112Y-68889572D01*
X28622493Y-68794334D01*
X28622493Y-68699096D01*
X28670112Y-68603858D01*
X28717731Y-68556239D01*
X28812969Y-68508620D01*
X29003445Y-68461001D01*
X29098683Y-68413382D01*
X29146302Y-68365763D01*
X29193921Y-68270525D01*
X29193921Y-68175287D01*
X29146302Y-68080049D01*
X29098683Y-68032430D01*
X29003445Y-67984810D01*
X28765350Y-67984810D01*
X28622493Y-68032430D01*
X28289159Y-67984810D02*
X28051064Y-68984810D01*
X27860588Y-68270525D01*
X27670112Y-68984810D01*
X27432017Y-67984810D01*
X27098683Y-68080049D02*
X27051064Y-68032430D01*
X26955826Y-67984810D01*
X26717731Y-67984810D01*
X26622493Y-68032430D01*
X26574874Y-68080049D01*
X26527255Y-68175287D01*
X26527255Y-68270525D01*
X26574874Y-68413382D01*
X27146302Y-68984810D01*
X26527255Y-68984810D01*
X25622493Y-67984810D02*
X26098683Y-67984810D01*
X26146302Y-68461001D01*
X26098683Y-68413382D01*
X26003445Y-68365763D01*
X25765350Y-68365763D01*
X25670112Y-68413382D01*
X25622493Y-68461001D01*
X25574874Y-68556239D01*
X25574874Y-68794334D01*
X25622493Y-68889572D01*
X25670112Y-68937191D01*
X25765350Y-68984810D01*
X26003445Y-68984810D01*
X26098683Y-68937191D01*
X26146302Y-68889572D01*
%TO.C,SW13*%
X29193921Y-49887175D02*
X29051064Y-49934794D01*
X28812969Y-49934794D01*
X28717731Y-49887175D01*
X28670112Y-49839556D01*
X28622493Y-49744318D01*
X28622493Y-49649080D01*
X28670112Y-49553842D01*
X28717731Y-49506223D01*
X28812969Y-49458604D01*
X29003445Y-49410985D01*
X29098683Y-49363366D01*
X29146302Y-49315747D01*
X29193921Y-49220509D01*
X29193921Y-49125271D01*
X29146302Y-49030033D01*
X29098683Y-48982414D01*
X29003445Y-48934794D01*
X28765350Y-48934794D01*
X28622493Y-48982414D01*
X28289159Y-48934794D02*
X28051064Y-49934794D01*
X27860588Y-49220509D01*
X27670112Y-49934794D01*
X27432017Y-48934794D01*
X26527255Y-49934794D02*
X27098683Y-49934794D01*
X26812969Y-49934794D02*
X26812969Y-48934794D01*
X26908207Y-49077652D01*
X27003445Y-49172890D01*
X27098683Y-49220509D01*
X26193921Y-48934794D02*
X25574874Y-48934794D01*
X25908207Y-49315747D01*
X25765350Y-49315747D01*
X25670112Y-49363366D01*
X25622493Y-49410985D01*
X25574874Y-49506223D01*
X25574874Y-49744318D01*
X25622493Y-49839556D01*
X25670112Y-49887175D01*
X25765350Y-49934794D01*
X26051064Y-49934794D01*
X26146302Y-49887175D01*
X26193921Y-49839556D01*
%TO.C,SW36*%
X238744097Y-68937191D02*
X238601240Y-68984810D01*
X238363145Y-68984810D01*
X238267907Y-68937191D01*
X238220288Y-68889572D01*
X238172669Y-68794334D01*
X238172669Y-68699096D01*
X238220288Y-68603858D01*
X238267907Y-68556239D01*
X238363145Y-68508620D01*
X238553621Y-68461001D01*
X238648859Y-68413382D01*
X238696478Y-68365763D01*
X238744097Y-68270525D01*
X238744097Y-68175287D01*
X238696478Y-68080049D01*
X238648859Y-68032430D01*
X238553621Y-67984810D01*
X238315526Y-67984810D01*
X238172669Y-68032430D01*
X237839335Y-67984810D02*
X237601240Y-68984810D01*
X237410764Y-68270525D01*
X237220288Y-68984810D01*
X236982193Y-67984810D01*
X236696478Y-67984810D02*
X236077431Y-67984810D01*
X236410764Y-68365763D01*
X236267907Y-68365763D01*
X236172669Y-68413382D01*
X236125050Y-68461001D01*
X236077431Y-68556239D01*
X236077431Y-68794334D01*
X236125050Y-68889572D01*
X236172669Y-68937191D01*
X236267907Y-68984810D01*
X236553621Y-68984810D01*
X236648859Y-68937191D01*
X236696478Y-68889572D01*
X235220288Y-67984810D02*
X235410764Y-67984810D01*
X235506002Y-68032430D01*
X235553621Y-68080049D01*
X235648859Y-68222906D01*
X235696478Y-68413382D01*
X235696478Y-68794334D01*
X235648859Y-68889572D01*
X235601240Y-68937191D01*
X235506002Y-68984810D01*
X235315526Y-68984810D01*
X235220288Y-68937191D01*
X235172669Y-68889572D01*
X235125050Y-68794334D01*
X235125050Y-68556239D01*
X235172669Y-68461001D01*
X235220288Y-68413382D01*
X235315526Y-68365763D01*
X235506002Y-68365763D01*
X235601240Y-68413382D01*
X235648859Y-68461001D01*
X235696478Y-68556239D01*
%TO.C,SW15*%
X67293953Y-49887175D02*
X67151096Y-49934794D01*
X66913001Y-49934794D01*
X66817763Y-49887175D01*
X66770144Y-49839556D01*
X66722525Y-49744318D01*
X66722525Y-49649080D01*
X66770144Y-49553842D01*
X66817763Y-49506223D01*
X66913001Y-49458604D01*
X67103477Y-49410985D01*
X67198715Y-49363366D01*
X67246334Y-49315747D01*
X67293953Y-49220509D01*
X67293953Y-49125271D01*
X67246334Y-49030033D01*
X67198715Y-48982414D01*
X67103477Y-48934794D01*
X66865382Y-48934794D01*
X66722525Y-48982414D01*
X66389191Y-48934794D02*
X66151096Y-49934794D01*
X65960620Y-49220509D01*
X65770144Y-49934794D01*
X65532049Y-48934794D01*
X64627287Y-49934794D02*
X65198715Y-49934794D01*
X64913001Y-49934794D02*
X64913001Y-48934794D01*
X65008239Y-49077652D01*
X65103477Y-49172890D01*
X65198715Y-49220509D01*
X63722525Y-48934794D02*
X64198715Y-48934794D01*
X64246334Y-49410985D01*
X64198715Y-49363366D01*
X64103477Y-49315747D01*
X63865382Y-49315747D01*
X63770144Y-49363366D01*
X63722525Y-49410985D01*
X63674906Y-49506223D01*
X63674906Y-49744318D01*
X63722525Y-49839556D01*
X63770144Y-49887175D01*
X63865382Y-49934794D01*
X64103477Y-49934794D01*
X64198715Y-49887175D01*
X64246334Y-49839556D01*
%TO.C,SW33*%
X181584049Y-68937191D02*
X181441192Y-68984810D01*
X181203097Y-68984810D01*
X181107859Y-68937191D01*
X181060240Y-68889572D01*
X181012621Y-68794334D01*
X181012621Y-68699096D01*
X181060240Y-68603858D01*
X181107859Y-68556239D01*
X181203097Y-68508620D01*
X181393573Y-68461001D01*
X181488811Y-68413382D01*
X181536430Y-68365763D01*
X181584049Y-68270525D01*
X181584049Y-68175287D01*
X181536430Y-68080049D01*
X181488811Y-68032430D01*
X181393573Y-67984810D01*
X181155478Y-67984810D01*
X181012621Y-68032430D01*
X180679287Y-67984810D02*
X180441192Y-68984810D01*
X180250716Y-68270525D01*
X180060240Y-68984810D01*
X179822145Y-67984810D01*
X179536430Y-67984810D02*
X178917383Y-67984810D01*
X179250716Y-68365763D01*
X179107859Y-68365763D01*
X179012621Y-68413382D01*
X178965002Y-68461001D01*
X178917383Y-68556239D01*
X178917383Y-68794334D01*
X178965002Y-68889572D01*
X179012621Y-68937191D01*
X179107859Y-68984810D01*
X179393573Y-68984810D01*
X179488811Y-68937191D01*
X179536430Y-68889572D01*
X178584049Y-67984810D02*
X177965002Y-67984810D01*
X178298335Y-68365763D01*
X178155478Y-68365763D01*
X178060240Y-68413382D01*
X178012621Y-68461001D01*
X177965002Y-68556239D01*
X177965002Y-68794334D01*
X178012621Y-68889572D01*
X178060240Y-68937191D01*
X178155478Y-68984810D01*
X178441192Y-68984810D01*
X178536430Y-68937191D01*
X178584049Y-68889572D01*
%TO.C,SW39*%
X67293953Y-87987207D02*
X67151096Y-88034826D01*
X66913001Y-88034826D01*
X66817763Y-87987207D01*
X66770144Y-87939588D01*
X66722525Y-87844350D01*
X66722525Y-87749112D01*
X66770144Y-87653874D01*
X66817763Y-87606255D01*
X66913001Y-87558636D01*
X67103477Y-87511017D01*
X67198715Y-87463398D01*
X67246334Y-87415779D01*
X67293953Y-87320541D01*
X67293953Y-87225303D01*
X67246334Y-87130065D01*
X67198715Y-87082446D01*
X67103477Y-87034826D01*
X66865382Y-87034826D01*
X66722525Y-87082446D01*
X66389191Y-87034826D02*
X66151096Y-88034826D01*
X65960620Y-87320541D01*
X65770144Y-88034826D01*
X65532049Y-87034826D01*
X65246334Y-87034826D02*
X64627287Y-87034826D01*
X64960620Y-87415779D01*
X64817763Y-87415779D01*
X64722525Y-87463398D01*
X64674906Y-87511017D01*
X64627287Y-87606255D01*
X64627287Y-87844350D01*
X64674906Y-87939588D01*
X64722525Y-87987207D01*
X64817763Y-88034826D01*
X65103477Y-88034826D01*
X65198715Y-87987207D01*
X65246334Y-87939588D01*
X64151096Y-88034826D02*
X63960620Y-88034826D01*
X63865382Y-87987207D01*
X63817763Y-87939588D01*
X63722525Y-87796731D01*
X63674906Y-87606255D01*
X63674906Y-87225303D01*
X63722525Y-87130065D01*
X63770144Y-87082446D01*
X63865382Y-87034826D01*
X64055858Y-87034826D01*
X64151096Y-87082446D01*
X64198715Y-87130065D01*
X64246334Y-87225303D01*
X64246334Y-87463398D01*
X64198715Y-87558636D01*
X64151096Y-87606255D01*
X64055858Y-87653874D01*
X63865382Y-87653874D01*
X63770144Y-87606255D01*
X63722525Y-87558636D01*
X63674906Y-87463398D01*
%TO.C,SW38*%
X48243937Y-87987207D02*
X48101080Y-88034826D01*
X47862985Y-88034826D01*
X47767747Y-87987207D01*
X47720128Y-87939588D01*
X47672509Y-87844350D01*
X47672509Y-87749112D01*
X47720128Y-87653874D01*
X47767747Y-87606255D01*
X47862985Y-87558636D01*
X48053461Y-87511017D01*
X48148699Y-87463398D01*
X48196318Y-87415779D01*
X48243937Y-87320541D01*
X48243937Y-87225303D01*
X48196318Y-87130065D01*
X48148699Y-87082446D01*
X48053461Y-87034826D01*
X47815366Y-87034826D01*
X47672509Y-87082446D01*
X47339175Y-87034826D02*
X47101080Y-88034826D01*
X46910604Y-87320541D01*
X46720128Y-88034826D01*
X46482033Y-87034826D01*
X46196318Y-87034826D02*
X45577271Y-87034826D01*
X45910604Y-87415779D01*
X45767747Y-87415779D01*
X45672509Y-87463398D01*
X45624890Y-87511017D01*
X45577271Y-87606255D01*
X45577271Y-87844350D01*
X45624890Y-87939588D01*
X45672509Y-87987207D01*
X45767747Y-88034826D01*
X46053461Y-88034826D01*
X46148699Y-87987207D01*
X46196318Y-87939588D01*
X45005842Y-87463398D02*
X45101080Y-87415779D01*
X45148699Y-87368160D01*
X45196318Y-87272922D01*
X45196318Y-87225303D01*
X45148699Y-87130065D01*
X45101080Y-87082446D01*
X45005842Y-87034826D01*
X44815366Y-87034826D01*
X44720128Y-87082446D01*
X44672509Y-87130065D01*
X44624890Y-87225303D01*
X44624890Y-87272922D01*
X44672509Y-87368160D01*
X44720128Y-87415779D01*
X44815366Y-87463398D01*
X45005842Y-87463398D01*
X45101080Y-87511017D01*
X45148699Y-87558636D01*
X45196318Y-87653874D01*
X45196318Y-87844350D01*
X45148699Y-87939588D01*
X45101080Y-87987207D01*
X45005842Y-88034826D01*
X44815366Y-88034826D01*
X44720128Y-87987207D01*
X44672509Y-87939588D01*
X44624890Y-87844350D01*
X44624890Y-87653874D01*
X44672509Y-87558636D01*
X44720128Y-87511017D01*
X44815366Y-87463398D01*
%TO.C,SW17*%
X105393985Y-49887175D02*
X105251128Y-49934794D01*
X105013033Y-49934794D01*
X104917795Y-49887175D01*
X104870176Y-49839556D01*
X104822557Y-49744318D01*
X104822557Y-49649080D01*
X104870176Y-49553842D01*
X104917795Y-49506223D01*
X105013033Y-49458604D01*
X105203509Y-49410985D01*
X105298747Y-49363366D01*
X105346366Y-49315747D01*
X105393985Y-49220509D01*
X105393985Y-49125271D01*
X105346366Y-49030033D01*
X105298747Y-48982414D01*
X105203509Y-48934794D01*
X104965414Y-48934794D01*
X104822557Y-48982414D01*
X104489223Y-48934794D02*
X104251128Y-49934794D01*
X104060652Y-49220509D01*
X103870176Y-49934794D01*
X103632081Y-48934794D01*
X102727319Y-49934794D02*
X103298747Y-49934794D01*
X103013033Y-49934794D02*
X103013033Y-48934794D01*
X103108271Y-49077652D01*
X103203509Y-49172890D01*
X103298747Y-49220509D01*
X102393985Y-48934794D02*
X101727319Y-48934794D01*
X102155890Y-49934794D01*
%TO.C,SW41*%
X105393985Y-87987207D02*
X105251128Y-88034826D01*
X105013033Y-88034826D01*
X104917795Y-87987207D01*
X104870176Y-87939588D01*
X104822557Y-87844350D01*
X104822557Y-87749112D01*
X104870176Y-87653874D01*
X104917795Y-87606255D01*
X105013033Y-87558636D01*
X105203509Y-87511017D01*
X105298747Y-87463398D01*
X105346366Y-87415779D01*
X105393985Y-87320541D01*
X105393985Y-87225303D01*
X105346366Y-87130065D01*
X105298747Y-87082446D01*
X105203509Y-87034826D01*
X104965414Y-87034826D01*
X104822557Y-87082446D01*
X104489223Y-87034826D02*
X104251128Y-88034826D01*
X104060652Y-87320541D01*
X103870176Y-88034826D01*
X103632081Y-87034826D01*
X102822557Y-87368160D02*
X102822557Y-88034826D01*
X103060652Y-86987207D02*
X103298747Y-87701493D01*
X102679700Y-87701493D01*
X101774938Y-88034826D02*
X102346366Y-88034826D01*
X102060652Y-88034826D02*
X102060652Y-87034826D01*
X102155890Y-87177684D01*
X102251128Y-87272922D01*
X102346366Y-87320541D01*
%TO.C,SW44*%
X162534033Y-87987207D02*
X162391176Y-88034826D01*
X162153081Y-88034826D01*
X162057843Y-87987207D01*
X162010224Y-87939588D01*
X161962605Y-87844350D01*
X161962605Y-87749112D01*
X162010224Y-87653874D01*
X162057843Y-87606255D01*
X162153081Y-87558636D01*
X162343557Y-87511017D01*
X162438795Y-87463398D01*
X162486414Y-87415779D01*
X162534033Y-87320541D01*
X162534033Y-87225303D01*
X162486414Y-87130065D01*
X162438795Y-87082446D01*
X162343557Y-87034826D01*
X162105462Y-87034826D01*
X161962605Y-87082446D01*
X161629271Y-87034826D02*
X161391176Y-88034826D01*
X161200700Y-87320541D01*
X161010224Y-88034826D01*
X160772129Y-87034826D01*
X159962605Y-87368160D02*
X159962605Y-88034826D01*
X160200700Y-86987207D02*
X160438795Y-87701493D01*
X159819748Y-87701493D01*
X159010224Y-87368160D02*
X159010224Y-88034826D01*
X159248319Y-86987207D02*
X159486414Y-87701493D01*
X158867367Y-87701493D01*
%TO.C,SW19*%
X143484017Y-49887175D02*
X143341160Y-49934794D01*
X143103065Y-49934794D01*
X143007827Y-49887175D01*
X142960208Y-49839556D01*
X142912589Y-49744318D01*
X142912589Y-49649080D01*
X142960208Y-49553842D01*
X143007827Y-49506223D01*
X143103065Y-49458604D01*
X143293541Y-49410985D01*
X143388779Y-49363366D01*
X143436398Y-49315747D01*
X143484017Y-49220509D01*
X143484017Y-49125271D01*
X143436398Y-49030033D01*
X143388779Y-48982414D01*
X143293541Y-48934794D01*
X143055446Y-48934794D01*
X142912589Y-48982414D01*
X142579255Y-48934794D02*
X142341160Y-49934794D01*
X142150684Y-49220509D01*
X141960208Y-49934794D01*
X141722113Y-48934794D01*
X140817351Y-49934794D02*
X141388779Y-49934794D01*
X141103065Y-49934794D02*
X141103065Y-48934794D01*
X141198303Y-49077652D01*
X141293541Y-49172890D01*
X141388779Y-49220509D01*
X140341160Y-49934794D02*
X140150684Y-49934794D01*
X140055446Y-49887175D01*
X140007827Y-49839556D01*
X139912589Y-49696699D01*
X139864970Y-49506223D01*
X139864970Y-49125271D01*
X139912589Y-49030033D01*
X139960208Y-48982414D01*
X140055446Y-48934794D01*
X140245922Y-48934794D01*
X140341160Y-48982414D01*
X140388779Y-49030033D01*
X140436398Y-49125271D01*
X140436398Y-49363366D01*
X140388779Y-49458604D01*
X140341160Y-49506223D01*
X140245922Y-49553842D01*
X140055446Y-49553842D01*
X139960208Y-49506223D01*
X139912589Y-49458604D01*
X139864970Y-49363366D01*
%TO.C,SW7*%
X143007827Y-30837159D02*
X142864970Y-30884778D01*
X142626874Y-30884778D01*
X142531636Y-30837159D01*
X142484017Y-30789540D01*
X142436398Y-30694302D01*
X142436398Y-30599064D01*
X142484017Y-30503826D01*
X142531636Y-30456207D01*
X142626874Y-30408588D01*
X142817351Y-30360969D01*
X142912589Y-30313350D01*
X142960208Y-30265731D01*
X143007827Y-30170493D01*
X143007827Y-30075255D01*
X142960208Y-29980017D01*
X142912589Y-29932398D01*
X142817351Y-29884778D01*
X142579255Y-29884778D01*
X142436398Y-29932398D01*
X142103065Y-29884778D02*
X141864970Y-30884778D01*
X141674494Y-30170493D01*
X141484017Y-30884778D01*
X141245922Y-29884778D01*
X140960208Y-29884778D02*
X140293541Y-29884778D01*
X140722113Y-30884778D01*
%TO.C,SW5*%
X104917795Y-30837159D02*
X104774938Y-30884778D01*
X104536842Y-30884778D01*
X104441604Y-30837159D01*
X104393985Y-30789540D01*
X104346366Y-30694302D01*
X104346366Y-30599064D01*
X104393985Y-30503826D01*
X104441604Y-30456207D01*
X104536842Y-30408588D01*
X104727319Y-30360969D01*
X104822557Y-30313350D01*
X104870176Y-30265731D01*
X104917795Y-30170493D01*
X104917795Y-30075255D01*
X104870176Y-29980017D01*
X104822557Y-29932398D01*
X104727319Y-29884778D01*
X104489223Y-29884778D01*
X104346366Y-29932398D01*
X104013033Y-29884778D02*
X103774938Y-30884778D01*
X103584462Y-30170493D01*
X103393985Y-30884778D01*
X103155890Y-29884778D01*
X102298747Y-29884778D02*
X102774938Y-29884778D01*
X102822557Y-30360969D01*
X102774938Y-30313350D01*
X102679700Y-30265731D01*
X102441604Y-30265731D01*
X102346366Y-30313350D01*
X102298747Y-30360969D01*
X102251128Y-30456207D01*
X102251128Y-30694302D01*
X102298747Y-30789540D01*
X102346366Y-30837159D01*
X102441604Y-30884778D01*
X102679700Y-30884778D01*
X102774938Y-30837159D01*
X102822557Y-30789540D01*
%TO.C,SW45*%
X181594049Y-87987207D02*
X181451192Y-88034826D01*
X181213097Y-88034826D01*
X181117859Y-87987207D01*
X181070240Y-87939588D01*
X181022621Y-87844350D01*
X181022621Y-87749112D01*
X181070240Y-87653874D01*
X181117859Y-87606255D01*
X181213097Y-87558636D01*
X181403573Y-87511017D01*
X181498811Y-87463398D01*
X181546430Y-87415779D01*
X181594049Y-87320541D01*
X181594049Y-87225303D01*
X181546430Y-87130065D01*
X181498811Y-87082446D01*
X181403573Y-87034826D01*
X181165478Y-87034826D01*
X181022621Y-87082446D01*
X180689287Y-87034826D02*
X180451192Y-88034826D01*
X180260716Y-87320541D01*
X180070240Y-88034826D01*
X179832145Y-87034826D01*
X179022621Y-87368160D02*
X179022621Y-88034826D01*
X179260716Y-86987207D02*
X179498811Y-87701493D01*
X178879764Y-87701493D01*
X178022621Y-87034826D02*
X178498811Y-87034826D01*
X178546430Y-87511017D01*
X178498811Y-87463398D01*
X178403573Y-87415779D01*
X178165478Y-87415779D01*
X178070240Y-87463398D01*
X178022621Y-87511017D01*
X177975002Y-87606255D01*
X177975002Y-87844350D01*
X178022621Y-87939588D01*
X178070240Y-87987207D01*
X178165478Y-88034826D01*
X178403573Y-88034826D01*
X178498811Y-87987207D01*
X178546430Y-87939588D01*
%TO.C,SW34*%
X200644065Y-68937191D02*
X200501208Y-68984810D01*
X200263113Y-68984810D01*
X200167875Y-68937191D01*
X200120256Y-68889572D01*
X200072637Y-68794334D01*
X200072637Y-68699096D01*
X200120256Y-68603858D01*
X200167875Y-68556239D01*
X200263113Y-68508620D01*
X200453589Y-68461001D01*
X200548827Y-68413382D01*
X200596446Y-68365763D01*
X200644065Y-68270525D01*
X200644065Y-68175287D01*
X200596446Y-68080049D01*
X200548827Y-68032430D01*
X200453589Y-67984810D01*
X200215494Y-67984810D01*
X200072637Y-68032430D01*
X199739303Y-67984810D02*
X199501208Y-68984810D01*
X199310732Y-68270525D01*
X199120256Y-68984810D01*
X198882161Y-67984810D01*
X198596446Y-67984810D02*
X197977399Y-67984810D01*
X198310732Y-68365763D01*
X198167875Y-68365763D01*
X198072637Y-68413382D01*
X198025018Y-68461001D01*
X197977399Y-68556239D01*
X197977399Y-68794334D01*
X198025018Y-68889572D01*
X198072637Y-68937191D01*
X198167875Y-68984810D01*
X198453589Y-68984810D01*
X198548827Y-68937191D01*
X198596446Y-68889572D01*
X197120256Y-68318144D02*
X197120256Y-68984810D01*
X197358351Y-67937191D02*
X197596446Y-68651477D01*
X196977399Y-68651477D01*
%TO.C,SW28*%
X86333969Y-68937191D02*
X86191112Y-68984810D01*
X85953017Y-68984810D01*
X85857779Y-68937191D01*
X85810160Y-68889572D01*
X85762541Y-68794334D01*
X85762541Y-68699096D01*
X85810160Y-68603858D01*
X85857779Y-68556239D01*
X85953017Y-68508620D01*
X86143493Y-68461001D01*
X86238731Y-68413382D01*
X86286350Y-68365763D01*
X86333969Y-68270525D01*
X86333969Y-68175287D01*
X86286350Y-68080049D01*
X86238731Y-68032430D01*
X86143493Y-67984810D01*
X85905398Y-67984810D01*
X85762541Y-68032430D01*
X85429207Y-67984810D02*
X85191112Y-68984810D01*
X85000636Y-68270525D01*
X84810160Y-68984810D01*
X84572065Y-67984810D01*
X84238731Y-68080049D02*
X84191112Y-68032430D01*
X84095874Y-67984810D01*
X83857779Y-67984810D01*
X83762541Y-68032430D01*
X83714922Y-68080049D01*
X83667303Y-68175287D01*
X83667303Y-68270525D01*
X83714922Y-68413382D01*
X84286350Y-68984810D01*
X83667303Y-68984810D01*
X83095874Y-68413382D02*
X83191112Y-68365763D01*
X83238731Y-68318144D01*
X83286350Y-68222906D01*
X83286350Y-68175287D01*
X83238731Y-68080049D01*
X83191112Y-68032430D01*
X83095874Y-67984810D01*
X82905398Y-67984810D01*
X82810160Y-68032430D01*
X82762541Y-68080049D01*
X82714922Y-68175287D01*
X82714922Y-68222906D01*
X82762541Y-68318144D01*
X82810160Y-68365763D01*
X82905398Y-68413382D01*
X83095874Y-68413382D01*
X83191112Y-68461001D01*
X83238731Y-68508620D01*
X83286350Y-68603858D01*
X83286350Y-68794334D01*
X83238731Y-68889572D01*
X83191112Y-68937191D01*
X83095874Y-68984810D01*
X82905398Y-68984810D01*
X82810160Y-68937191D01*
X82762541Y-68889572D01*
X82714922Y-68794334D01*
X82714922Y-68603858D01*
X82762541Y-68508620D01*
X82810160Y-68461001D01*
X82905398Y-68413382D01*
%TO.C,SW9*%
X181117859Y-30837159D02*
X180975002Y-30884778D01*
X180736906Y-30884778D01*
X180641668Y-30837159D01*
X180594049Y-30789540D01*
X180546430Y-30694302D01*
X180546430Y-30599064D01*
X180594049Y-30503826D01*
X180641668Y-30456207D01*
X180736906Y-30408588D01*
X180927383Y-30360969D01*
X181022621Y-30313350D01*
X181070240Y-30265731D01*
X181117859Y-30170493D01*
X181117859Y-30075255D01*
X181070240Y-29980017D01*
X181022621Y-29932398D01*
X180927383Y-29884778D01*
X180689287Y-29884778D01*
X180546430Y-29932398D01*
X180213097Y-29884778D02*
X179975002Y-30884778D01*
X179784526Y-30170493D01*
X179594049Y-30884778D01*
X179355954Y-29884778D01*
X178927383Y-30884778D02*
X178736906Y-30884778D01*
X178641668Y-30837159D01*
X178594049Y-30789540D01*
X178498811Y-30646683D01*
X178451192Y-30456207D01*
X178451192Y-30075255D01*
X178498811Y-29980017D01*
X178546430Y-29932398D01*
X178641668Y-29884778D01*
X178832145Y-29884778D01*
X178927383Y-29932398D01*
X178975002Y-29980017D01*
X179022621Y-30075255D01*
X179022621Y-30313350D01*
X178975002Y-30408588D01*
X178927383Y-30456207D01*
X178832145Y-30503826D01*
X178641668Y-30503826D01*
X178546430Y-30456207D01*
X178498811Y-30408588D01*
X178451192Y-30313350D01*
%TO.C,SW24*%
X238744097Y-49887175D02*
X238601240Y-49934794D01*
X238363145Y-49934794D01*
X238267907Y-49887175D01*
X238220288Y-49839556D01*
X238172669Y-49744318D01*
X238172669Y-49649080D01*
X238220288Y-49553842D01*
X238267907Y-49506223D01*
X238363145Y-49458604D01*
X238553621Y-49410985D01*
X238648859Y-49363366D01*
X238696478Y-49315747D01*
X238744097Y-49220509D01*
X238744097Y-49125271D01*
X238696478Y-49030033D01*
X238648859Y-48982414D01*
X238553621Y-48934794D01*
X238315526Y-48934794D01*
X238172669Y-48982414D01*
X237839335Y-48934794D02*
X237601240Y-49934794D01*
X237410764Y-49220509D01*
X237220288Y-49934794D01*
X236982193Y-48934794D01*
X236648859Y-49030033D02*
X236601240Y-48982414D01*
X236506002Y-48934794D01*
X236267907Y-48934794D01*
X236172669Y-48982414D01*
X236125050Y-49030033D01*
X236077431Y-49125271D01*
X236077431Y-49220509D01*
X236125050Y-49363366D01*
X236696478Y-49934794D01*
X236077431Y-49934794D01*
X235220288Y-49268128D02*
X235220288Y-49934794D01*
X235458383Y-48887175D02*
X235696478Y-49601461D01*
X235077431Y-49601461D01*
%TO.C,SW48*%
X238744097Y-87987207D02*
X238601240Y-88034826D01*
X238363145Y-88034826D01*
X238267907Y-87987207D01*
X238220288Y-87939588D01*
X238172669Y-87844350D01*
X238172669Y-87749112D01*
X238220288Y-87653874D01*
X238267907Y-87606255D01*
X238363145Y-87558636D01*
X238553621Y-87511017D01*
X238648859Y-87463398D01*
X238696478Y-87415779D01*
X238744097Y-87320541D01*
X238744097Y-87225303D01*
X238696478Y-87130065D01*
X238648859Y-87082446D01*
X238553621Y-87034826D01*
X238315526Y-87034826D01*
X238172669Y-87082446D01*
X237839335Y-87034826D02*
X237601240Y-88034826D01*
X237410764Y-87320541D01*
X237220288Y-88034826D01*
X236982193Y-87034826D01*
X236172669Y-87368160D02*
X236172669Y-88034826D01*
X236410764Y-86987207D02*
X236648859Y-87701493D01*
X236029812Y-87701493D01*
X235506002Y-87463398D02*
X235601240Y-87415779D01*
X235648859Y-87368160D01*
X235696478Y-87272922D01*
X235696478Y-87225303D01*
X235648859Y-87130065D01*
X235601240Y-87082446D01*
X235506002Y-87034826D01*
X235315526Y-87034826D01*
X235220288Y-87082446D01*
X235172669Y-87130065D01*
X235125050Y-87225303D01*
X235125050Y-87272922D01*
X235172669Y-87368160D01*
X235220288Y-87415779D01*
X235315526Y-87463398D01*
X235506002Y-87463398D01*
X235601240Y-87511017D01*
X235648859Y-87558636D01*
X235696478Y-87653874D01*
X235696478Y-87844350D01*
X235648859Y-87939588D01*
X235601240Y-87987207D01*
X235506002Y-88034826D01*
X235315526Y-88034826D01*
X235220288Y-87987207D01*
X235172669Y-87939588D01*
X235125050Y-87844350D01*
X235125050Y-87653874D01*
X235172669Y-87558636D01*
X235220288Y-87511017D01*
X235315526Y-87463398D01*
%TO.C,SW29*%
X105393985Y-68937191D02*
X105251128Y-68984810D01*
X105013033Y-68984810D01*
X104917795Y-68937191D01*
X104870176Y-68889572D01*
X104822557Y-68794334D01*
X104822557Y-68699096D01*
X104870176Y-68603858D01*
X104917795Y-68556239D01*
X105013033Y-68508620D01*
X105203509Y-68461001D01*
X105298747Y-68413382D01*
X105346366Y-68365763D01*
X105393985Y-68270525D01*
X105393985Y-68175287D01*
X105346366Y-68080049D01*
X105298747Y-68032430D01*
X105203509Y-67984810D01*
X104965414Y-67984810D01*
X104822557Y-68032430D01*
X104489223Y-67984810D02*
X104251128Y-68984810D01*
X104060652Y-68270525D01*
X103870176Y-68984810D01*
X103632081Y-67984810D01*
X103298747Y-68080049D02*
X103251128Y-68032430D01*
X103155890Y-67984810D01*
X102917795Y-67984810D01*
X102822557Y-68032430D01*
X102774938Y-68080049D01*
X102727319Y-68175287D01*
X102727319Y-68270525D01*
X102774938Y-68413382D01*
X103346366Y-68984810D01*
X102727319Y-68984810D01*
X102251128Y-68984810D02*
X102060652Y-68984810D01*
X101965414Y-68937191D01*
X101917795Y-68889572D01*
X101822557Y-68746715D01*
X101774938Y-68556239D01*
X101774938Y-68175287D01*
X101822557Y-68080049D01*
X101870176Y-68032430D01*
X101965414Y-67984810D01*
X102155890Y-67984810D01*
X102251128Y-68032430D01*
X102298747Y-68080049D01*
X102346366Y-68175287D01*
X102346366Y-68413382D01*
X102298747Y-68508620D01*
X102251128Y-68556239D01*
X102155890Y-68603858D01*
X101965414Y-68603858D01*
X101870176Y-68556239D01*
X101822557Y-68508620D01*
X101774938Y-68413382D01*
%TO.C,SW18*%
X124444001Y-49887175D02*
X124301144Y-49934794D01*
X124063049Y-49934794D01*
X123967811Y-49887175D01*
X123920192Y-49839556D01*
X123872573Y-49744318D01*
X123872573Y-49649080D01*
X123920192Y-49553842D01*
X123967811Y-49506223D01*
X124063049Y-49458604D01*
X124253525Y-49410985D01*
X124348763Y-49363366D01*
X124396382Y-49315747D01*
X124444001Y-49220509D01*
X124444001Y-49125271D01*
X124396382Y-49030033D01*
X124348763Y-48982414D01*
X124253525Y-48934794D01*
X124015430Y-48934794D01*
X123872573Y-48982414D01*
X123539239Y-48934794D02*
X123301144Y-49934794D01*
X123110668Y-49220509D01*
X122920192Y-49934794D01*
X122682097Y-48934794D01*
X121777335Y-49934794D02*
X122348763Y-49934794D01*
X122063049Y-49934794D02*
X122063049Y-48934794D01*
X122158287Y-49077652D01*
X122253525Y-49172890D01*
X122348763Y-49220509D01*
X121205906Y-49363366D02*
X121301144Y-49315747D01*
X121348763Y-49268128D01*
X121396382Y-49172890D01*
X121396382Y-49125271D01*
X121348763Y-49030033D01*
X121301144Y-48982414D01*
X121205906Y-48934794D01*
X121015430Y-48934794D01*
X120920192Y-48982414D01*
X120872573Y-49030033D01*
X120824954Y-49125271D01*
X120824954Y-49172890D01*
X120872573Y-49268128D01*
X120920192Y-49315747D01*
X121015430Y-49363366D01*
X121205906Y-49363366D01*
X121301144Y-49410985D01*
X121348763Y-49458604D01*
X121396382Y-49553842D01*
X121396382Y-49744318D01*
X121348763Y-49839556D01*
X121301144Y-49887175D01*
X121205906Y-49934794D01*
X121015430Y-49934794D01*
X120920192Y-49887175D01*
X120872573Y-49839556D01*
X120824954Y-49744318D01*
X120824954Y-49553842D01*
X120872573Y-49458604D01*
X120920192Y-49410985D01*
X121015430Y-49363366D01*
%TO.C,SW22*%
X200644065Y-49887175D02*
X200501208Y-49934794D01*
X200263113Y-49934794D01*
X200167875Y-49887175D01*
X200120256Y-49839556D01*
X200072637Y-49744318D01*
X200072637Y-49649080D01*
X200120256Y-49553842D01*
X200167875Y-49506223D01*
X200263113Y-49458604D01*
X200453589Y-49410985D01*
X200548827Y-49363366D01*
X200596446Y-49315747D01*
X200644065Y-49220509D01*
X200644065Y-49125271D01*
X200596446Y-49030033D01*
X200548827Y-48982414D01*
X200453589Y-48934794D01*
X200215494Y-48934794D01*
X200072637Y-48982414D01*
X199739303Y-48934794D02*
X199501208Y-49934794D01*
X199310732Y-49220509D01*
X199120256Y-49934794D01*
X198882161Y-48934794D01*
X198548827Y-49030033D02*
X198501208Y-48982414D01*
X198405970Y-48934794D01*
X198167875Y-48934794D01*
X198072637Y-48982414D01*
X198025018Y-49030033D01*
X197977399Y-49125271D01*
X197977399Y-49220509D01*
X198025018Y-49363366D01*
X198596446Y-49934794D01*
X197977399Y-49934794D01*
X197596446Y-49030033D02*
X197548827Y-48982414D01*
X197453589Y-48934794D01*
X197215494Y-48934794D01*
X197120256Y-48982414D01*
X197072637Y-49030033D01*
X197025018Y-49125271D01*
X197025018Y-49220509D01*
X197072637Y-49363366D01*
X197644065Y-49934794D01*
X197025018Y-49934794D01*
%TO.C,SW37*%
X29193921Y-87987207D02*
X29051064Y-88034826D01*
X28812969Y-88034826D01*
X28717731Y-87987207D01*
X28670112Y-87939588D01*
X28622493Y-87844350D01*
X28622493Y-87749112D01*
X28670112Y-87653874D01*
X28717731Y-87606255D01*
X28812969Y-87558636D01*
X29003445Y-87511017D01*
X29098683Y-87463398D01*
X29146302Y-87415779D01*
X29193921Y-87320541D01*
X29193921Y-87225303D01*
X29146302Y-87130065D01*
X29098683Y-87082446D01*
X29003445Y-87034826D01*
X28765350Y-87034826D01*
X28622493Y-87082446D01*
X28289159Y-87034826D02*
X28051064Y-88034826D01*
X27860588Y-87320541D01*
X27670112Y-88034826D01*
X27432017Y-87034826D01*
X27146302Y-87034826D02*
X26527255Y-87034826D01*
X26860588Y-87415779D01*
X26717731Y-87415779D01*
X26622493Y-87463398D01*
X26574874Y-87511017D01*
X26527255Y-87606255D01*
X26527255Y-87844350D01*
X26574874Y-87939588D01*
X26622493Y-87987207D01*
X26717731Y-88034826D01*
X27003445Y-88034826D01*
X27098683Y-87987207D01*
X27146302Y-87939588D01*
X26193921Y-87034826D02*
X25527255Y-87034826D01*
X25955826Y-88034826D01*
%TO.C,SW11*%
X219694081Y-30837159D02*
X219551224Y-30884778D01*
X219313129Y-30884778D01*
X219217891Y-30837159D01*
X219170272Y-30789540D01*
X219122653Y-30694302D01*
X219122653Y-30599064D01*
X219170272Y-30503826D01*
X219217891Y-30456207D01*
X219313129Y-30408588D01*
X219503605Y-30360969D01*
X219598843Y-30313350D01*
X219646462Y-30265731D01*
X219694081Y-30170493D01*
X219694081Y-30075255D01*
X219646462Y-29980017D01*
X219598843Y-29932398D01*
X219503605Y-29884778D01*
X219265510Y-29884778D01*
X219122653Y-29932398D01*
X218789319Y-29884778D02*
X218551224Y-30884778D01*
X218360748Y-30170493D01*
X218170272Y-30884778D01*
X217932177Y-29884778D01*
X217027415Y-30884778D02*
X217598843Y-30884778D01*
X217313129Y-30884778D02*
X217313129Y-29884778D01*
X217408367Y-30027636D01*
X217503605Y-30122874D01*
X217598843Y-30170493D01*
X216075034Y-30884778D02*
X216646462Y-30884778D01*
X216360748Y-30884778D02*
X216360748Y-29884778D01*
X216455986Y-30027636D01*
X216551224Y-30122874D01*
X216646462Y-30170493D01*
%TO.C,SW30*%
X124444001Y-68937191D02*
X124301144Y-68984810D01*
X124063049Y-68984810D01*
X123967811Y-68937191D01*
X123920192Y-68889572D01*
X123872573Y-68794334D01*
X123872573Y-68699096D01*
X123920192Y-68603858D01*
X123967811Y-68556239D01*
X124063049Y-68508620D01*
X124253525Y-68461001D01*
X124348763Y-68413382D01*
X124396382Y-68365763D01*
X124444001Y-68270525D01*
X124444001Y-68175287D01*
X124396382Y-68080049D01*
X124348763Y-68032430D01*
X124253525Y-67984810D01*
X124015430Y-67984810D01*
X123872573Y-68032430D01*
X123539239Y-67984810D02*
X123301144Y-68984810D01*
X123110668Y-68270525D01*
X122920192Y-68984810D01*
X122682097Y-67984810D01*
X122396382Y-67984810D02*
X121777335Y-67984810D01*
X122110668Y-68365763D01*
X121967811Y-68365763D01*
X121872573Y-68413382D01*
X121824954Y-68461001D01*
X121777335Y-68556239D01*
X121777335Y-68794334D01*
X121824954Y-68889572D01*
X121872573Y-68937191D01*
X121967811Y-68984810D01*
X122253525Y-68984810D01*
X122348763Y-68937191D01*
X122396382Y-68889572D01*
X121158287Y-67984810D02*
X121063049Y-67984810D01*
X120967811Y-68032430D01*
X120920192Y-68080049D01*
X120872573Y-68175287D01*
X120824954Y-68365763D01*
X120824954Y-68603858D01*
X120872573Y-68794334D01*
X120920192Y-68889572D01*
X120967811Y-68937191D01*
X121063049Y-68984810D01*
X121158287Y-68984810D01*
X121253525Y-68937191D01*
X121301144Y-68889572D01*
X121348763Y-68794334D01*
X121396382Y-68603858D01*
X121396382Y-68365763D01*
X121348763Y-68175287D01*
X121301144Y-68080049D01*
X121253525Y-68032430D01*
X121158287Y-67984810D01*
%TO.C,SW31*%
X143484017Y-68937191D02*
X143341160Y-68984810D01*
X143103065Y-68984810D01*
X143007827Y-68937191D01*
X142960208Y-68889572D01*
X142912589Y-68794334D01*
X142912589Y-68699096D01*
X142960208Y-68603858D01*
X143007827Y-68556239D01*
X143103065Y-68508620D01*
X143293541Y-68461001D01*
X143388779Y-68413382D01*
X143436398Y-68365763D01*
X143484017Y-68270525D01*
X143484017Y-68175287D01*
X143436398Y-68080049D01*
X143388779Y-68032430D01*
X143293541Y-67984810D01*
X143055446Y-67984810D01*
X142912589Y-68032430D01*
X142579255Y-67984810D02*
X142341160Y-68984810D01*
X142150684Y-68270525D01*
X141960208Y-68984810D01*
X141722113Y-67984810D01*
X141436398Y-67984810D02*
X140817351Y-67984810D01*
X141150684Y-68365763D01*
X141007827Y-68365763D01*
X140912589Y-68413382D01*
X140864970Y-68461001D01*
X140817351Y-68556239D01*
X140817351Y-68794334D01*
X140864970Y-68889572D01*
X140912589Y-68937191D01*
X141007827Y-68984810D01*
X141293541Y-68984810D01*
X141388779Y-68937191D01*
X141436398Y-68889572D01*
X139864970Y-68984810D02*
X140436398Y-68984810D01*
X140150684Y-68984810D02*
X140150684Y-67984810D01*
X140245922Y-68127668D01*
X140341160Y-68222906D01*
X140436398Y-68270525D01*
%TO.C,SW42_2*%
X134826152Y-87987207D02*
X134683295Y-88034826D01*
X134445200Y-88034826D01*
X134349962Y-87987207D01*
X134302343Y-87939588D01*
X134254724Y-87844350D01*
X134254724Y-87749112D01*
X134302343Y-87653874D01*
X134349962Y-87606255D01*
X134445200Y-87558636D01*
X134635676Y-87511017D01*
X134730914Y-87463398D01*
X134778533Y-87415779D01*
X134826152Y-87320541D01*
X134826152Y-87225303D01*
X134778533Y-87130065D01*
X134730914Y-87082446D01*
X134635676Y-87034826D01*
X134397581Y-87034826D01*
X134254724Y-87082446D01*
X133921390Y-87034826D02*
X133683295Y-88034826D01*
X133492819Y-87320541D01*
X133302343Y-88034826D01*
X133064247Y-87034826D01*
X132254724Y-87368160D02*
X132254724Y-88034826D01*
X132492819Y-86987207D02*
X132730914Y-87701493D01*
X132111866Y-87701493D01*
X131778533Y-87130065D02*
X131730914Y-87082446D01*
X131635676Y-87034826D01*
X131397581Y-87034826D01*
X131302343Y-87082446D01*
X131254724Y-87130065D01*
X131207105Y-87225303D01*
X131207105Y-87320541D01*
X131254724Y-87463398D01*
X131826152Y-88034826D01*
X131207105Y-88034826D01*
X131016628Y-88130065D02*
X130254724Y-88130065D01*
X130064247Y-87130065D02*
X130016628Y-87082446D01*
X129921390Y-87034826D01*
X129683295Y-87034826D01*
X129588057Y-87082446D01*
X129540438Y-87130065D01*
X129492819Y-87225303D01*
X129492819Y-87320541D01*
X129540438Y-87463398D01*
X130111866Y-88034826D01*
X129492819Y-88034826D01*
%TO.C,D35*%
X228521320Y-69271602D02*
X227521320Y-69271602D01*
X227521320Y-69509697D01*
X227568940Y-69652554D01*
X227664178Y-69747792D01*
X227759416Y-69795411D01*
X227949892Y-69843030D01*
X228092749Y-69843030D01*
X228283225Y-69795411D01*
X228378463Y-69747792D01*
X228473701Y-69652554D01*
X228521320Y-69509697D01*
X228521320Y-69271602D01*
X227521320Y-70176364D02*
X227521320Y-70795411D01*
X227902273Y-70462078D01*
X227902273Y-70604935D01*
X227949892Y-70700173D01*
X227997511Y-70747792D01*
X228092749Y-70795411D01*
X228330844Y-70795411D01*
X228426082Y-70747792D01*
X228473701Y-70700173D01*
X228521320Y-70604935D01*
X228521320Y-70319221D01*
X228473701Y-70223983D01*
X228426082Y-70176364D01*
X227521320Y-71700173D02*
X227521320Y-71223983D01*
X227997511Y-71176364D01*
X227949892Y-71223983D01*
X227902273Y-71319221D01*
X227902273Y-71557316D01*
X227949892Y-71652554D01*
X227997511Y-71700173D01*
X228092749Y-71747792D01*
X228330844Y-71747792D01*
X228426082Y-71700173D01*
X228473701Y-71652554D01*
X228521320Y-71557316D01*
X228521320Y-71319221D01*
X228473701Y-71223983D01*
X228426082Y-71176364D01*
%TO.C,D40*%
X95171208Y-88677977D02*
X94171208Y-88677977D01*
X94171208Y-88916072D01*
X94218828Y-89058929D01*
X94314066Y-89154167D01*
X94409304Y-89201786D01*
X94599780Y-89249405D01*
X94742637Y-89249405D01*
X94933113Y-89201786D01*
X95028351Y-89154167D01*
X95123589Y-89058929D01*
X95171208Y-88916072D01*
X95171208Y-88677977D01*
X94504542Y-90106548D02*
X95171208Y-90106548D01*
X94123589Y-89868453D02*
X94837875Y-89630358D01*
X94837875Y-90249405D01*
X94171208Y-90820834D02*
X94171208Y-90916072D01*
X94218828Y-91011310D01*
X94266447Y-91058929D01*
X94361685Y-91106548D01*
X94552161Y-91154167D01*
X94790256Y-91154167D01*
X94980732Y-91106548D01*
X95075970Y-91058929D01*
X95123589Y-91011310D01*
X95171208Y-90916072D01*
X95171208Y-90820834D01*
X95123589Y-90725596D01*
X95075970Y-90677977D01*
X94980732Y-90630358D01*
X94790256Y-90582739D01*
X94552161Y-90582739D01*
X94361685Y-90630358D01*
X94266447Y-90677977D01*
X94218828Y-90725596D01*
X94171208Y-90820834D01*
%TO.C,D21*%
X190421288Y-50577945D02*
X189421288Y-50577945D01*
X189421288Y-50816040D01*
X189468908Y-50958897D01*
X189564146Y-51054135D01*
X189659384Y-51101754D01*
X189849860Y-51149373D01*
X189992717Y-51149373D01*
X190183193Y-51101754D01*
X190278431Y-51054135D01*
X190373669Y-50958897D01*
X190421288Y-50816040D01*
X190421288Y-50577945D01*
X189516527Y-51530326D02*
X189468908Y-51577945D01*
X189421288Y-51673183D01*
X189421288Y-51911278D01*
X189468908Y-52006516D01*
X189516527Y-52054135D01*
X189611765Y-52101754D01*
X189707003Y-52101754D01*
X189849860Y-52054135D01*
X190421288Y-51482707D01*
X190421288Y-52101754D01*
X190421288Y-53054135D02*
X190421288Y-52482707D01*
X190421288Y-52768421D02*
X189421288Y-52768421D01*
X189564146Y-52673183D01*
X189659384Y-52577945D01*
X189707003Y-52482707D01*
%TO.C,C15*%
X32692857Y-40367142D02*
X32740476Y-40414761D01*
X32883333Y-40462380D01*
X32978571Y-40462380D01*
X33121428Y-40414761D01*
X33216666Y-40319523D01*
X33264285Y-40224285D01*
X33311904Y-40033809D01*
X33311904Y-39890952D01*
X33264285Y-39700476D01*
X33216666Y-39605238D01*
X33121428Y-39510000D01*
X32978571Y-39462380D01*
X32883333Y-39462380D01*
X32740476Y-39510000D01*
X32692857Y-39557619D01*
X31740476Y-40462380D02*
X32311904Y-40462380D01*
X32026190Y-40462380D02*
X32026190Y-39462380D01*
X32121428Y-39605238D01*
X32216666Y-39700476D01*
X32311904Y-39748095D01*
X30835714Y-39462380D02*
X31311904Y-39462380D01*
X31359523Y-39938571D01*
X31311904Y-39890952D01*
X31216666Y-39843333D01*
X30978571Y-39843333D01*
X30883333Y-39890952D01*
X30835714Y-39938571D01*
X30788095Y-40033809D01*
X30788095Y-40271904D01*
X30835714Y-40367142D01*
X30883333Y-40414761D01*
X30978571Y-40462380D01*
X31216666Y-40462380D01*
X31311904Y-40414761D01*
X31359523Y-40367142D01*
%TO.C,U2*%
X50591802Y-52816265D02*
X51401326Y-52816265D01*
X51496564Y-52863884D01*
X51544183Y-52911503D01*
X51591802Y-53006741D01*
X51591802Y-53197217D01*
X51544183Y-53292455D01*
X51496564Y-53340074D01*
X51401326Y-53387693D01*
X50591802Y-53387693D01*
X50687041Y-53816265D02*
X50639422Y-53863884D01*
X50591802Y-53959122D01*
X50591802Y-54197217D01*
X50639422Y-54292455D01*
X50687041Y-54340074D01*
X50782279Y-54387693D01*
X50877517Y-54387693D01*
X51020374Y-54340074D01*
X51591802Y-53768646D01*
X51591802Y-54387693D01*
%TO.C,R5*%
X63576184Y-21264601D02*
X63099994Y-20931268D01*
X63576184Y-20693172D02*
X62576184Y-20693172D01*
X62576184Y-21074125D01*
X62623804Y-21169363D01*
X62671423Y-21216982D01*
X62766661Y-21264601D01*
X62909518Y-21264601D01*
X63004756Y-21216982D01*
X63052375Y-21169363D01*
X63099994Y-21074125D01*
X63099994Y-20693172D01*
X62576184Y-22169363D02*
X62576184Y-21693172D01*
X63052375Y-21645553D01*
X63004756Y-21693172D01*
X62957137Y-21788410D01*
X62957137Y-22026506D01*
X63004756Y-22121744D01*
X63052375Y-22169363D01*
X63147613Y-22216982D01*
X63385708Y-22216982D01*
X63480946Y-22169363D01*
X63528565Y-22121744D01*
X63576184Y-22026506D01*
X63576184Y-21788410D01*
X63528565Y-21693172D01*
X63480946Y-21645553D01*
%TO.C,D32*%
X171371272Y-69627961D02*
X170371272Y-69627961D01*
X170371272Y-69866056D01*
X170418892Y-70008913D01*
X170514130Y-70104151D01*
X170609368Y-70151770D01*
X170799844Y-70199389D01*
X170942701Y-70199389D01*
X171133177Y-70151770D01*
X171228415Y-70104151D01*
X171323653Y-70008913D01*
X171371272Y-69866056D01*
X171371272Y-69627961D01*
X170371272Y-70532723D02*
X170371272Y-71151770D01*
X170752225Y-70818437D01*
X170752225Y-70961294D01*
X170799844Y-71056532D01*
X170847463Y-71104151D01*
X170942701Y-71151770D01*
X171180796Y-71151770D01*
X171276034Y-71104151D01*
X171323653Y-71056532D01*
X171371272Y-70961294D01*
X171371272Y-70675580D01*
X171323653Y-70580342D01*
X171276034Y-70532723D01*
X170466511Y-71532723D02*
X170418892Y-71580342D01*
X170371272Y-71675580D01*
X170371272Y-71913675D01*
X170418892Y-72008913D01*
X170466511Y-72056532D01*
X170561749Y-72104151D01*
X170656987Y-72104151D01*
X170799844Y-72056532D01*
X171371272Y-71485104D01*
X171371272Y-72104151D01*
%TO.C,C9*%
X58667190Y-46863060D02*
X58714809Y-46815441D01*
X58762428Y-46672584D01*
X58762428Y-46577346D01*
X58714809Y-46434488D01*
X58619571Y-46339250D01*
X58524333Y-46291631D01*
X58333857Y-46244012D01*
X58191000Y-46244012D01*
X58000524Y-46291631D01*
X57905286Y-46339250D01*
X57810048Y-46434488D01*
X57762428Y-46577346D01*
X57762428Y-46672584D01*
X57810048Y-46815441D01*
X57857667Y-46863060D01*
X58762428Y-47339250D02*
X58762428Y-47529727D01*
X58714809Y-47624965D01*
X58667190Y-47672584D01*
X58524333Y-47767822D01*
X58333857Y-47815441D01*
X57952905Y-47815441D01*
X57857667Y-47767822D01*
X57810048Y-47720203D01*
X57762428Y-47624965D01*
X57762428Y-47434488D01*
X57810048Y-47339250D01*
X57857667Y-47291631D01*
X57952905Y-47244012D01*
X58191000Y-47244012D01*
X58286238Y-47291631D01*
X58333857Y-47339250D01*
X58381476Y-47434488D01*
X58381476Y-47624965D01*
X58333857Y-47720203D01*
X58286238Y-47767822D01*
X58191000Y-47815441D01*
%TO.C,RGB10*%
X114752327Y-71961818D02*
X115085660Y-71485628D01*
X115323755Y-71961818D02*
X115323755Y-70961818D01*
X114942803Y-70961818D01*
X114847565Y-71009438D01*
X114799946Y-71057057D01*
X114752327Y-71152295D01*
X114752327Y-71295152D01*
X114799946Y-71390390D01*
X114847565Y-71438009D01*
X114942803Y-71485628D01*
X115323755Y-71485628D01*
X113799946Y-71009438D02*
X113895184Y-70961818D01*
X114038041Y-70961818D01*
X114180898Y-71009438D01*
X114276136Y-71104676D01*
X114323755Y-71199914D01*
X114371374Y-71390390D01*
X114371374Y-71533247D01*
X114323755Y-71723723D01*
X114276136Y-71818961D01*
X114180898Y-71914199D01*
X114038041Y-71961818D01*
X113942803Y-71961818D01*
X113799946Y-71914199D01*
X113752327Y-71866580D01*
X113752327Y-71533247D01*
X113942803Y-71533247D01*
X112990422Y-71438009D02*
X112847565Y-71485628D01*
X112799946Y-71533247D01*
X112752327Y-71628485D01*
X112752327Y-71771342D01*
X112799946Y-71866580D01*
X112847565Y-71914199D01*
X112942803Y-71961818D01*
X113323755Y-71961818D01*
X113323755Y-70961818D01*
X112990422Y-70961818D01*
X112895184Y-71009438D01*
X112847565Y-71057057D01*
X112799946Y-71152295D01*
X112799946Y-71247533D01*
X112847565Y-71342771D01*
X112895184Y-71390390D01*
X112990422Y-71438009D01*
X113323755Y-71438009D01*
X111799946Y-71961818D02*
X112371374Y-71961818D01*
X112085660Y-71961818D02*
X112085660Y-70961818D01*
X112180898Y-71104676D01*
X112276136Y-71199914D01*
X112371374Y-71247533D01*
X111180898Y-70961818D02*
X111085660Y-70961818D01*
X110990422Y-71009438D01*
X110942803Y-71057057D01*
X110895184Y-71152295D01*
X110847565Y-71342771D01*
X110847565Y-71580866D01*
X110895184Y-71771342D01*
X110942803Y-71866580D01*
X110990422Y-71914199D01*
X111085660Y-71961818D01*
X111180898Y-71961818D01*
X111276136Y-71914199D01*
X111323755Y-71866580D01*
X111371374Y-71771342D01*
X111418993Y-71580866D01*
X111418993Y-71342771D01*
X111371374Y-71152295D01*
X111323755Y-71057057D01*
X111276136Y-71009438D01*
X111180898Y-70961818D01*
X116973755Y-73861818D02*
X117545184Y-73861818D01*
X117259470Y-73861818D02*
X117259470Y-72861818D01*
X117354708Y-73004676D01*
X117449946Y-73099914D01*
X117545184Y-73147533D01*
%TO.C,R3*%
X76036505Y-32575548D02*
X75560315Y-32242215D01*
X76036505Y-32004119D02*
X75036505Y-32004119D01*
X75036505Y-32385072D01*
X75084125Y-32480310D01*
X75131744Y-32527929D01*
X75226982Y-32575548D01*
X75369839Y-32575548D01*
X75465077Y-32527929D01*
X75512696Y-32480310D01*
X75560315Y-32385072D01*
X75560315Y-32004119D01*
X75036505Y-32908881D02*
X75036505Y-33527929D01*
X75417458Y-33194595D01*
X75417458Y-33337453D01*
X75465077Y-33432691D01*
X75512696Y-33480310D01*
X75607934Y-33527929D01*
X75846029Y-33527929D01*
X75941267Y-33480310D01*
X75988886Y-33432691D01*
X76036505Y-33337453D01*
X76036505Y-33051738D01*
X75988886Y-32956500D01*
X75941267Y-32908881D01*
%TO.C,D30*%
X133271240Y-69627961D02*
X132271240Y-69627961D01*
X132271240Y-69866056D01*
X132318860Y-70008913D01*
X132414098Y-70104151D01*
X132509336Y-70151770D01*
X132699812Y-70199389D01*
X132842669Y-70199389D01*
X133033145Y-70151770D01*
X133128383Y-70104151D01*
X133223621Y-70008913D01*
X133271240Y-69866056D01*
X133271240Y-69627961D01*
X132271240Y-70532723D02*
X132271240Y-71151770D01*
X132652193Y-70818437D01*
X132652193Y-70961294D01*
X132699812Y-71056532D01*
X132747431Y-71104151D01*
X132842669Y-71151770D01*
X133080764Y-71151770D01*
X133176002Y-71104151D01*
X133223621Y-71056532D01*
X133271240Y-70961294D01*
X133271240Y-70675580D01*
X133223621Y-70580342D01*
X133176002Y-70532723D01*
X132271240Y-71770818D02*
X132271240Y-71866056D01*
X132318860Y-71961294D01*
X132366479Y-72008913D01*
X132461717Y-72056532D01*
X132652193Y-72104151D01*
X132890288Y-72104151D01*
X133080764Y-72056532D01*
X133176002Y-72008913D01*
X133223621Y-71961294D01*
X133271240Y-71866056D01*
X133271240Y-71770818D01*
X133223621Y-71675580D01*
X133176002Y-71627961D01*
X133080764Y-71580342D01*
X132890288Y-71532723D01*
X132652193Y-71532723D01*
X132461717Y-71580342D01*
X132366479Y-71627961D01*
X132318860Y-71675580D01*
X132271240Y-71770818D01*
%TO.C,Y1*%
X73318804Y-54190666D02*
X73655522Y-54527384D01*
X73184117Y-53584575D02*
X73318804Y-54190666D01*
X72712713Y-54055979D01*
X72813728Y-55369177D02*
X73217789Y-54965116D01*
X73015758Y-55167147D02*
X72308652Y-54460040D01*
X72477010Y-54493712D01*
X72611697Y-54493712D01*
X72712713Y-54460040D01*
%TO.C,D34*%
X209471304Y-69627961D02*
X208471304Y-69627961D01*
X208471304Y-69866056D01*
X208518924Y-70008913D01*
X208614162Y-70104151D01*
X208709400Y-70151770D01*
X208899876Y-70199389D01*
X209042733Y-70199389D01*
X209233209Y-70151770D01*
X209328447Y-70104151D01*
X209423685Y-70008913D01*
X209471304Y-69866056D01*
X209471304Y-69627961D01*
X208471304Y-70532723D02*
X208471304Y-71151770D01*
X208852257Y-70818437D01*
X208852257Y-70961294D01*
X208899876Y-71056532D01*
X208947495Y-71104151D01*
X209042733Y-71151770D01*
X209280828Y-71151770D01*
X209376066Y-71104151D01*
X209423685Y-71056532D01*
X209471304Y-70961294D01*
X209471304Y-70675580D01*
X209423685Y-70580342D01*
X209376066Y-70532723D01*
X208804638Y-72008913D02*
X209471304Y-72008913D01*
X208423685Y-71770818D02*
X209137971Y-71532723D01*
X209137971Y-72151770D01*
%TO.C,D1*%
X37425847Y-26050989D02*
X36425847Y-26050989D01*
X36425847Y-26289085D01*
X36473467Y-26431942D01*
X36568705Y-26527180D01*
X36663943Y-26574799D01*
X36854419Y-26622418D01*
X36997276Y-26622418D01*
X37187752Y-26574799D01*
X37282990Y-26527180D01*
X37378228Y-26431942D01*
X37425847Y-26289085D01*
X37425847Y-26050989D01*
X37425847Y-27574799D02*
X37425847Y-27003370D01*
X37425847Y-27289085D02*
X36425847Y-27289085D01*
X36568705Y-27193846D01*
X36663943Y-27098608D01*
X36711562Y-27003370D01*
%TO.C,RGB6*%
X222268514Y-33861786D02*
X222601848Y-33385596D01*
X222839943Y-33861786D02*
X222839943Y-32861786D01*
X222458990Y-32861786D01*
X222363752Y-32909406D01*
X222316133Y-32957025D01*
X222268514Y-33052263D01*
X222268514Y-33195120D01*
X222316133Y-33290358D01*
X222363752Y-33337977D01*
X222458990Y-33385596D01*
X222839943Y-33385596D01*
X221316133Y-32909406D02*
X221411371Y-32861786D01*
X221554228Y-32861786D01*
X221697086Y-32909406D01*
X221792324Y-33004644D01*
X221839943Y-33099882D01*
X221887562Y-33290358D01*
X221887562Y-33433215D01*
X221839943Y-33623691D01*
X221792324Y-33718929D01*
X221697086Y-33814167D01*
X221554228Y-33861786D01*
X221458990Y-33861786D01*
X221316133Y-33814167D01*
X221268514Y-33766548D01*
X221268514Y-33433215D01*
X221458990Y-33433215D01*
X220506609Y-33337977D02*
X220363752Y-33385596D01*
X220316133Y-33433215D01*
X220268514Y-33528453D01*
X220268514Y-33671310D01*
X220316133Y-33766548D01*
X220363752Y-33814167D01*
X220458990Y-33861786D01*
X220839943Y-33861786D01*
X220839943Y-32861786D01*
X220506609Y-32861786D01*
X220411371Y-32909406D01*
X220363752Y-32957025D01*
X220316133Y-33052263D01*
X220316133Y-33147501D01*
X220363752Y-33242739D01*
X220411371Y-33290358D01*
X220506609Y-33337977D01*
X220839943Y-33337977D01*
X219411371Y-32861786D02*
X219601848Y-32861786D01*
X219697086Y-32909406D01*
X219744705Y-32957025D01*
X219839943Y-33099882D01*
X219887562Y-33290358D01*
X219887562Y-33671310D01*
X219839943Y-33766548D01*
X219792324Y-33814167D01*
X219697086Y-33861786D01*
X219506609Y-33861786D01*
X219411371Y-33814167D01*
X219363752Y-33766548D01*
X219316133Y-33671310D01*
X219316133Y-33433215D01*
X219363752Y-33337977D01*
X219411371Y-33290358D01*
X219506609Y-33242739D01*
X219697086Y-33242739D01*
X219792324Y-33290358D01*
X219839943Y-33337977D01*
X219887562Y-33433215D01*
X224966133Y-35761786D02*
X225537562Y-35761786D01*
X225251848Y-35761786D02*
X225251848Y-34761786D01*
X225347086Y-34904644D01*
X225442324Y-34999882D01*
X225537562Y-35047501D01*
%TO.C,C7*%
X56347190Y-59959946D02*
X56394809Y-59912327D01*
X56442428Y-59769470D01*
X56442428Y-59674232D01*
X56394809Y-59531374D01*
X56299571Y-59436136D01*
X56204333Y-59388517D01*
X56013857Y-59340898D01*
X55871000Y-59340898D01*
X55680524Y-59388517D01*
X55585286Y-59436136D01*
X55490048Y-59531374D01*
X55442428Y-59674232D01*
X55442428Y-59769470D01*
X55490048Y-59912327D01*
X55537667Y-59959946D01*
X55442428Y-60293279D02*
X55442428Y-60959946D01*
X56442428Y-60531374D01*
%TO.C,D4*%
X95171208Y-29027554D02*
X94171208Y-29027554D01*
X94171208Y-29265650D01*
X94218828Y-29408507D01*
X94314066Y-29503745D01*
X94409304Y-29551364D01*
X94599780Y-29598983D01*
X94742637Y-29598983D01*
X94933113Y-29551364D01*
X95028351Y-29503745D01*
X95123589Y-29408507D01*
X95171208Y-29265650D01*
X95171208Y-29027554D01*
X94504542Y-30456126D02*
X95171208Y-30456126D01*
X94123589Y-30218030D02*
X94837875Y-29979935D01*
X94837875Y-30598983D01*
%TO.C,D3*%
X72533687Y-35402172D02*
X72533687Y-34402172D01*
X72295592Y-34402172D01*
X72152734Y-34449792D01*
X72057496Y-34545030D01*
X72009877Y-34640268D01*
X71962258Y-34830744D01*
X71962258Y-34973601D01*
X72009877Y-35164077D01*
X72057496Y-35259315D01*
X72152734Y-35354553D01*
X72295592Y-35402172D01*
X72533687Y-35402172D01*
X71628925Y-34402172D02*
X71009877Y-34402172D01*
X71343211Y-34783125D01*
X71200353Y-34783125D01*
X71105115Y-34830744D01*
X71057496Y-34878363D01*
X71009877Y-34973601D01*
X71009877Y-35211696D01*
X71057496Y-35306934D01*
X71105115Y-35354553D01*
X71200353Y-35402172D01*
X71486068Y-35402172D01*
X71581306Y-35354553D01*
X71628925Y-35306934D01*
%TO.C,C13*%
X75346162Y-54196383D02*
X75413506Y-54196383D01*
X75548193Y-54129039D01*
X75615536Y-54061696D01*
X75682880Y-53927009D01*
X75682880Y-53792322D01*
X75649208Y-53691307D01*
X75548193Y-53522948D01*
X75447178Y-53421933D01*
X75278819Y-53320917D01*
X75177804Y-53287246D01*
X75043117Y-53287246D01*
X74908430Y-53354589D01*
X74841086Y-53421933D01*
X74773743Y-53556620D01*
X74773743Y-53623963D01*
X74740071Y-54937162D02*
X75144132Y-54533101D01*
X74942101Y-54735131D02*
X74234994Y-54028024D01*
X74403353Y-54061696D01*
X74538040Y-54061696D01*
X74639056Y-54028024D01*
X73797262Y-54465757D02*
X73359529Y-54903490D01*
X73864605Y-54937162D01*
X73763590Y-55038177D01*
X73729918Y-55139192D01*
X73729918Y-55206536D01*
X73763590Y-55307551D01*
X73931949Y-55475910D01*
X74032964Y-55509581D01*
X74100307Y-55509581D01*
X74201323Y-55475910D01*
X74403353Y-55273879D01*
X74437025Y-55172864D01*
X74437025Y-55105520D01*
%TO.C,D9*%
X190421288Y-31647312D02*
X189421288Y-31647312D01*
X189421288Y-31885408D01*
X189468908Y-32028265D01*
X189564146Y-32123503D01*
X189659384Y-32171122D01*
X189849860Y-32218741D01*
X189992717Y-32218741D01*
X190183193Y-32171122D01*
X190278431Y-32123503D01*
X190373669Y-32028265D01*
X190421288Y-31885408D01*
X190421288Y-31647312D01*
X190421288Y-32694931D02*
X190421288Y-32885408D01*
X190373669Y-32980646D01*
X190326050Y-33028265D01*
X190183193Y-33123503D01*
X189992717Y-33171122D01*
X189611765Y-33171122D01*
X189516527Y-33123503D01*
X189468908Y-33075884D01*
X189421288Y-32980646D01*
X189421288Y-32790169D01*
X189468908Y-32694931D01*
X189516527Y-32647312D01*
X189611765Y-32599693D01*
X189849860Y-32599693D01*
X189945098Y-32647312D01*
X189992717Y-32694931D01*
X190040336Y-32790169D01*
X190040336Y-32980646D01*
X189992717Y-33075884D01*
X189945098Y-33123503D01*
X189849860Y-33171122D01*
%TO.C,D17*%
X114221224Y-50577945D02*
X113221224Y-50577945D01*
X113221224Y-50816040D01*
X113268844Y-50958897D01*
X113364082Y-51054135D01*
X113459320Y-51101754D01*
X113649796Y-51149373D01*
X113792653Y-51149373D01*
X113983129Y-51101754D01*
X114078367Y-51054135D01*
X114173605Y-50958897D01*
X114221224Y-50816040D01*
X114221224Y-50577945D01*
X114221224Y-52101754D02*
X114221224Y-51530326D01*
X114221224Y-51816040D02*
X113221224Y-51816040D01*
X113364082Y-51720802D01*
X113459320Y-51625564D01*
X113506939Y-51530326D01*
X113221224Y-52435088D02*
X113221224Y-53101754D01*
X114221224Y-52673183D01*
%TO.C,D11*%
X228521320Y-31171122D02*
X227521320Y-31171122D01*
X227521320Y-31409217D01*
X227568940Y-31552074D01*
X227664178Y-31647312D01*
X227759416Y-31694931D01*
X227949892Y-31742550D01*
X228092749Y-31742550D01*
X228283225Y-31694931D01*
X228378463Y-31647312D01*
X228473701Y-31552074D01*
X228521320Y-31409217D01*
X228521320Y-31171122D01*
X228521320Y-32694931D02*
X228521320Y-32123503D01*
X228521320Y-32409217D02*
X227521320Y-32409217D01*
X227664178Y-32313979D01*
X227759416Y-32218741D01*
X227807035Y-32123503D01*
X228521320Y-33647312D02*
X228521320Y-33075884D01*
X228521320Y-33361598D02*
X227521320Y-33361598D01*
X227664178Y-33266360D01*
X227759416Y-33171122D01*
X227807035Y-33075884D01*
%TO.C,C12*%
X68943170Y-48984017D02*
X69010514Y-48984017D01*
X69145201Y-48916673D01*
X69212544Y-48849330D01*
X69279888Y-48714643D01*
X69279888Y-48579956D01*
X69246216Y-48478941D01*
X69145201Y-48310582D01*
X69044186Y-48209567D01*
X68875827Y-48108551D01*
X68774812Y-48074880D01*
X68640125Y-48074880D01*
X68505438Y-48142223D01*
X68438094Y-48209567D01*
X68370751Y-48344254D01*
X68370751Y-48411597D01*
X68337079Y-49724796D02*
X68741140Y-49320735D01*
X68539109Y-49522765D02*
X67832002Y-48815658D01*
X68000361Y-48849330D01*
X68135048Y-48849330D01*
X68236064Y-48815658D01*
X67427941Y-49354406D02*
X67360598Y-49354406D01*
X67259583Y-49388078D01*
X67091224Y-49556437D01*
X67057552Y-49657452D01*
X67057552Y-49724796D01*
X67091224Y-49825811D01*
X67158567Y-49893154D01*
X67293254Y-49960498D01*
X68101376Y-49960498D01*
X67663644Y-50398231D01*
%TO.C,D6*%
X133271240Y-32004119D02*
X132271240Y-32004119D01*
X132271240Y-32242215D01*
X132318860Y-32385072D01*
X132414098Y-32480310D01*
X132509336Y-32527929D01*
X132699812Y-32575548D01*
X132842669Y-32575548D01*
X133033145Y-32527929D01*
X133128383Y-32480310D01*
X133223621Y-32385072D01*
X133271240Y-32242215D01*
X133271240Y-32004119D01*
X132271240Y-33432691D02*
X132271240Y-33242215D01*
X132318860Y-33146976D01*
X132366479Y-33099357D01*
X132509336Y-33004119D01*
X132699812Y-32956500D01*
X133080764Y-32956500D01*
X133176002Y-33004119D01*
X133223621Y-33051738D01*
X133271240Y-33146976D01*
X133271240Y-33337453D01*
X133223621Y-33432691D01*
X133176002Y-33480310D01*
X133080764Y-33527929D01*
X132842669Y-33527929D01*
X132747431Y-33480310D01*
X132699812Y-33432691D01*
X132652193Y-33337453D01*
X132652193Y-33146976D01*
X132699812Y-33051738D01*
X132747431Y-33004119D01*
X132842669Y-32956500D01*
%TO.C,D14*%
X57666489Y-40457624D02*
X56666489Y-40457624D01*
X56666489Y-40695719D01*
X56714109Y-40838576D01*
X56809347Y-40933814D01*
X56904585Y-40981433D01*
X57095061Y-41029052D01*
X57237918Y-41029052D01*
X57428394Y-40981433D01*
X57523632Y-40933814D01*
X57618870Y-40838576D01*
X57666489Y-40695719D01*
X57666489Y-40457624D01*
X57666489Y-41981433D02*
X57666489Y-41410005D01*
X57666489Y-41695719D02*
X56666489Y-41695719D01*
X56809347Y-41600481D01*
X56904585Y-41505243D01*
X56952204Y-41410005D01*
X56999823Y-42838576D02*
X57666489Y-42838576D01*
X56618870Y-42600481D02*
X57333156Y-42362386D01*
X57333156Y-42981433D01*
%TO.C,U3*%
X29813520Y-49470550D02*
X29813520Y-50280074D01*
X29765901Y-50375312D01*
X29718282Y-50422931D01*
X29623044Y-50470550D01*
X29432568Y-50470550D01*
X29337330Y-50422931D01*
X29289711Y-50375312D01*
X29242092Y-50280074D01*
X29242092Y-49470550D01*
X28861139Y-49470550D02*
X28242092Y-49470550D01*
X28575425Y-49851503D01*
X28432568Y-49851503D01*
X28337330Y-49899122D01*
X28289711Y-49946741D01*
X28242092Y-50041979D01*
X28242092Y-50280074D01*
X28289711Y-50375312D01*
X28337330Y-50422931D01*
X28432568Y-50470550D01*
X28718282Y-50470550D01*
X28813520Y-50422931D01*
X28861139Y-50375312D01*
%TO.C,D44*%
X171371272Y-88677977D02*
X170371272Y-88677977D01*
X170371272Y-88916072D01*
X170418892Y-89058929D01*
X170514130Y-89154167D01*
X170609368Y-89201786D01*
X170799844Y-89249405D01*
X170942701Y-89249405D01*
X171133177Y-89201786D01*
X171228415Y-89154167D01*
X171323653Y-89058929D01*
X171371272Y-88916072D01*
X171371272Y-88677977D01*
X170704606Y-90106548D02*
X171371272Y-90106548D01*
X170323653Y-89868453D02*
X171037939Y-89630358D01*
X171037939Y-90249405D01*
X170704606Y-91058929D02*
X171371272Y-91058929D01*
X170323653Y-90820834D02*
X171037939Y-90582739D01*
X171037939Y-91201786D01*
%TO.C,RGB7*%
X222387578Y-71961818D02*
X222720912Y-71485628D01*
X222959007Y-71961818D02*
X222959007Y-70961818D01*
X222578054Y-70961818D01*
X222482816Y-71009438D01*
X222435197Y-71057057D01*
X222387578Y-71152295D01*
X222387578Y-71295152D01*
X222435197Y-71390390D01*
X222482816Y-71438009D01*
X222578054Y-71485628D01*
X222959007Y-71485628D01*
X221435197Y-71009438D02*
X221530435Y-70961818D01*
X221673292Y-70961818D01*
X221816150Y-71009438D01*
X221911388Y-71104676D01*
X221959007Y-71199914D01*
X222006626Y-71390390D01*
X222006626Y-71533247D01*
X221959007Y-71723723D01*
X221911388Y-71818961D01*
X221816150Y-71914199D01*
X221673292Y-71961818D01*
X221578054Y-71961818D01*
X221435197Y-71914199D01*
X221387578Y-71866580D01*
X221387578Y-71533247D01*
X221578054Y-71533247D01*
X220625673Y-71438009D02*
X220482816Y-71485628D01*
X220435197Y-71533247D01*
X220387578Y-71628485D01*
X220387578Y-71771342D01*
X220435197Y-71866580D01*
X220482816Y-71914199D01*
X220578054Y-71961818D01*
X220959007Y-71961818D01*
X220959007Y-70961818D01*
X220625673Y-70961818D01*
X220530435Y-71009438D01*
X220482816Y-71057057D01*
X220435197Y-71152295D01*
X220435197Y-71247533D01*
X220482816Y-71342771D01*
X220530435Y-71390390D01*
X220625673Y-71438009D01*
X220959007Y-71438009D01*
X220054245Y-70961818D02*
X219387578Y-70961818D01*
X219816150Y-71961818D01*
X225085197Y-73861818D02*
X225656626Y-73861818D01*
X225370912Y-73861818D02*
X225370912Y-72861818D01*
X225466150Y-73004676D01*
X225561388Y-73099914D01*
X225656626Y-73147533D01*
%TO.C,D7*%
X152321256Y-31647312D02*
X151321256Y-31647312D01*
X151321256Y-31885408D01*
X151368876Y-32028265D01*
X151464114Y-32123503D01*
X151559352Y-32171122D01*
X151749828Y-32218741D01*
X151892685Y-32218741D01*
X152083161Y-32171122D01*
X152178399Y-32123503D01*
X152273637Y-32028265D01*
X152321256Y-31885408D01*
X152321256Y-31647312D01*
X151321256Y-32552074D02*
X151321256Y-33218741D01*
X152321256Y-32790169D01*
%TO.C,RGB9*%
X152376168Y-71961818D02*
X152709502Y-71485628D01*
X152947597Y-71961818D02*
X152947597Y-70961818D01*
X152566644Y-70961818D01*
X152471406Y-71009438D01*
X152423787Y-71057057D01*
X152376168Y-71152295D01*
X152376168Y-71295152D01*
X152423787Y-71390390D01*
X152471406Y-71438009D01*
X152566644Y-71485628D01*
X152947597Y-71485628D01*
X151423787Y-71009438D02*
X151519025Y-70961818D01*
X151661882Y-70961818D01*
X151804740Y-71009438D01*
X151899978Y-71104676D01*
X151947597Y-71199914D01*
X151995216Y-71390390D01*
X151995216Y-71533247D01*
X151947597Y-71723723D01*
X151899978Y-71818961D01*
X151804740Y-71914199D01*
X151661882Y-71961818D01*
X151566644Y-71961818D01*
X151423787Y-71914199D01*
X151376168Y-71866580D01*
X151376168Y-71533247D01*
X151566644Y-71533247D01*
X150614263Y-71438009D02*
X150471406Y-71485628D01*
X150423787Y-71533247D01*
X150376168Y-71628485D01*
X150376168Y-71771342D01*
X150423787Y-71866580D01*
X150471406Y-71914199D01*
X150566644Y-71961818D01*
X150947597Y-71961818D01*
X150947597Y-70961818D01*
X150614263Y-70961818D01*
X150519025Y-71009438D01*
X150471406Y-71057057D01*
X150423787Y-71152295D01*
X150423787Y-71247533D01*
X150471406Y-71342771D01*
X150519025Y-71390390D01*
X150614263Y-71438009D01*
X150947597Y-71438009D01*
X149899978Y-71961818D02*
X149709502Y-71961818D01*
X149614263Y-71914199D01*
X149566644Y-71866580D01*
X149471406Y-71723723D01*
X149423787Y-71533247D01*
X149423787Y-71152295D01*
X149471406Y-71057057D01*
X149519025Y-71009438D01*
X149614263Y-70961818D01*
X149804740Y-70961818D01*
X149899978Y-71009438D01*
X149947597Y-71057057D01*
X149995216Y-71152295D01*
X149995216Y-71390390D01*
X149947597Y-71485628D01*
X149899978Y-71533247D01*
X149804740Y-71580866D01*
X149614263Y-71580866D01*
X149519025Y-71533247D01*
X149471406Y-71485628D01*
X149423787Y-71390390D01*
X155073787Y-73861818D02*
X155645216Y-73861818D01*
X155359502Y-73861818D02*
X155359502Y-72861818D01*
X155454740Y-73004676D01*
X155549978Y-73099914D01*
X155645216Y-73147533D01*
%TO.C,D45*%
X190421288Y-88677977D02*
X189421288Y-88677977D01*
X189421288Y-88916072D01*
X189468908Y-89058929D01*
X189564146Y-89154167D01*
X189659384Y-89201786D01*
X189849860Y-89249405D01*
X189992717Y-89249405D01*
X190183193Y-89201786D01*
X190278431Y-89154167D01*
X190373669Y-89058929D01*
X190421288Y-88916072D01*
X190421288Y-88677977D01*
X189754622Y-90106548D02*
X190421288Y-90106548D01*
X189373669Y-89868453D02*
X190087955Y-89630358D01*
X190087955Y-90249405D01*
X189421288Y-91106548D02*
X189421288Y-90630358D01*
X189897479Y-90582739D01*
X189849860Y-90630358D01*
X189802241Y-90725596D01*
X189802241Y-90963691D01*
X189849860Y-91058929D01*
X189897479Y-91106548D01*
X189992717Y-91154167D01*
X190230812Y-91154167D01*
X190326050Y-91106548D01*
X190373669Y-91058929D01*
X190421288Y-90963691D01*
X190421288Y-90725596D01*
X190373669Y-90630358D01*
X190326050Y-90582739D01*
%TO.C,D13*%
X37425847Y-44029502D02*
X36425847Y-44029502D01*
X36425847Y-44267597D01*
X36473467Y-44410454D01*
X36568705Y-44505692D01*
X36663943Y-44553311D01*
X36854419Y-44600930D01*
X36997276Y-44600930D01*
X37187752Y-44553311D01*
X37282990Y-44505692D01*
X37378228Y-44410454D01*
X37425847Y-44267597D01*
X37425847Y-44029502D01*
X37425847Y-45553311D02*
X37425847Y-44981883D01*
X37425847Y-45267597D02*
X36425847Y-45267597D01*
X36568705Y-45172359D01*
X36663943Y-45077121D01*
X36711562Y-44981883D01*
X36425847Y-45886645D02*
X36425847Y-46505692D01*
X36806800Y-46172359D01*
X36806800Y-46315216D01*
X36854419Y-46410454D01*
X36902038Y-46458073D01*
X36997276Y-46505692D01*
X37235371Y-46505692D01*
X37330609Y-46458073D01*
X37378228Y-46410454D01*
X37425847Y-46315216D01*
X37425847Y-46029502D01*
X37378228Y-45934264D01*
X37330609Y-45886645D01*
%TO.C,USB1*%
X57349898Y-23699420D02*
X57349898Y-24347039D01*
X57311802Y-24423230D01*
X57273707Y-24461325D01*
X57197517Y-24499420D01*
X57045136Y-24499420D01*
X56968945Y-24461325D01*
X56930850Y-24423230D01*
X56892755Y-24347039D01*
X56892755Y-23699420D01*
X56549898Y-24461325D02*
X56435612Y-24499420D01*
X56245136Y-24499420D01*
X56168945Y-24461325D01*
X56130850Y-24423230D01*
X56092755Y-24347039D01*
X56092755Y-24270849D01*
X56130850Y-24194658D01*
X56168945Y-24156563D01*
X56245136Y-24118468D01*
X56397517Y-24080373D01*
X56473707Y-24042277D01*
X56511802Y-24004182D01*
X56549898Y-23927992D01*
X56549898Y-23851801D01*
X56511802Y-23775611D01*
X56473707Y-23737516D01*
X56397517Y-23699420D01*
X56207041Y-23699420D01*
X56092755Y-23737516D01*
X55483231Y-24080373D02*
X55368945Y-24118468D01*
X55330850Y-24156563D01*
X55292755Y-24232754D01*
X55292755Y-24347039D01*
X55330850Y-24423230D01*
X55368945Y-24461325D01*
X55445136Y-24499420D01*
X55749898Y-24499420D01*
X55749898Y-23699420D01*
X55483231Y-23699420D01*
X55407041Y-23737516D01*
X55368945Y-23775611D01*
X55330850Y-23851801D01*
X55330850Y-23927992D01*
X55368945Y-24004182D01*
X55407041Y-24042277D01*
X55483231Y-24080373D01*
X55749898Y-24080373D01*
X54530850Y-24499420D02*
X54987993Y-24499420D01*
X54759422Y-24499420D02*
X54759422Y-23699420D01*
X54835612Y-23813706D01*
X54911802Y-23889896D01*
X54987993Y-23927992D01*
%TO.C,D27*%
X76121192Y-69033474D02*
X75121192Y-69033474D01*
X75121192Y-69271569D01*
X75168812Y-69414426D01*
X75264050Y-69509664D01*
X75359288Y-69557283D01*
X75549764Y-69604902D01*
X75692621Y-69604902D01*
X75883097Y-69557283D01*
X75978335Y-69509664D01*
X76073573Y-69414426D01*
X76121192Y-69271569D01*
X76121192Y-69033474D01*
X75216431Y-69985855D02*
X75168812Y-70033474D01*
X75121192Y-70128712D01*
X75121192Y-70366807D01*
X75168812Y-70462045D01*
X75216431Y-70509664D01*
X75311669Y-70557283D01*
X75406907Y-70557283D01*
X75549764Y-70509664D01*
X76121192Y-69938236D01*
X76121192Y-70557283D01*
X75121192Y-70890617D02*
X75121192Y-71557283D01*
X76121192Y-71128712D01*
%TO.C,D24*%
X230902572Y-50340426D02*
X229902572Y-50340426D01*
X229902572Y-50578521D01*
X229950192Y-50721378D01*
X230045430Y-50816616D01*
X230140668Y-50864235D01*
X230331144Y-50911854D01*
X230474001Y-50911854D01*
X230664477Y-50864235D01*
X230759715Y-50816616D01*
X230854953Y-50721378D01*
X230902572Y-50578521D01*
X230902572Y-50340426D01*
X229997811Y-51292807D02*
X229950192Y-51340426D01*
X229902572Y-51435664D01*
X229902572Y-51673759D01*
X229950192Y-51768997D01*
X229997811Y-51816616D01*
X230093049Y-51864235D01*
X230188287Y-51864235D01*
X230331144Y-51816616D01*
X230902572Y-51245188D01*
X230902572Y-51864235D01*
X230235906Y-52721378D02*
X230902572Y-52721378D01*
X229854953Y-52483283D02*
X230569239Y-52245188D01*
X230569239Y-52864235D01*
%TO.C,C8*%
X63269844Y-54499999D02*
X63317463Y-54547618D01*
X63460320Y-54595237D01*
X63555558Y-54595237D01*
X63698416Y-54547618D01*
X63793654Y-54452380D01*
X63841273Y-54357142D01*
X63888892Y-54166666D01*
X63888892Y-54023809D01*
X63841273Y-53833333D01*
X63793654Y-53738095D01*
X63698416Y-53642857D01*
X63555558Y-53595237D01*
X63460320Y-53595237D01*
X63317463Y-53642857D01*
X63269844Y-53690476D01*
X62698416Y-54023809D02*
X62793654Y-53976190D01*
X62841273Y-53928571D01*
X62888892Y-53833333D01*
X62888892Y-53785714D01*
X62841273Y-53690476D01*
X62793654Y-53642857D01*
X62698416Y-53595237D01*
X62507939Y-53595237D01*
X62412701Y-53642857D01*
X62365082Y-53690476D01*
X62317463Y-53785714D01*
X62317463Y-53833333D01*
X62365082Y-53928571D01*
X62412701Y-53976190D01*
X62507939Y-54023809D01*
X62698416Y-54023809D01*
X62793654Y-54071428D01*
X62841273Y-54119047D01*
X62888892Y-54214285D01*
X62888892Y-54404761D01*
X62841273Y-54499999D01*
X62793654Y-54547618D01*
X62698416Y-54595237D01*
X62507939Y-54595237D01*
X62412701Y-54547618D01*
X62365082Y-54499999D01*
X62317463Y-54404761D01*
X62317463Y-54214285D01*
X62365082Y-54119047D01*
X62412701Y-54071428D01*
X62507939Y-54023809D01*
%TO.C,D46*%
X209471304Y-88677977D02*
X208471304Y-88677977D01*
X208471304Y-88916072D01*
X208518924Y-89058929D01*
X208614162Y-89154167D01*
X208709400Y-89201786D01*
X208899876Y-89249405D01*
X209042733Y-89249405D01*
X209233209Y-89201786D01*
X209328447Y-89154167D01*
X209423685Y-89058929D01*
X209471304Y-88916072D01*
X209471304Y-88677977D01*
X208804638Y-90106548D02*
X209471304Y-90106548D01*
X208423685Y-89868453D02*
X209137971Y-89630358D01*
X209137971Y-90249405D01*
X208471304Y-91058929D02*
X208471304Y-90868453D01*
X208518924Y-90773215D01*
X208566543Y-90725596D01*
X208709400Y-90630358D01*
X208899876Y-90582739D01*
X209280828Y-90582739D01*
X209376066Y-90630358D01*
X209423685Y-90677977D01*
X209471304Y-90773215D01*
X209471304Y-90963691D01*
X209423685Y-91058929D01*
X209376066Y-91106548D01*
X209280828Y-91154167D01*
X209042733Y-91154167D01*
X208947495Y-91106548D01*
X208899876Y-91058929D01*
X208852257Y-90963691D01*
X208852257Y-90773215D01*
X208899876Y-90677977D01*
X208947495Y-90630358D01*
X209042733Y-90582739D01*
%TO.C,RGB4*%
X152376168Y-33861786D02*
X152709502Y-33385596D01*
X152947597Y-33861786D02*
X152947597Y-32861786D01*
X152566644Y-32861786D01*
X152471406Y-32909406D01*
X152423787Y-32957025D01*
X152376168Y-33052263D01*
X152376168Y-33195120D01*
X152423787Y-33290358D01*
X152471406Y-33337977D01*
X152566644Y-33385596D01*
X152947597Y-33385596D01*
X151423787Y-32909406D02*
X151519025Y-32861786D01*
X151661882Y-32861786D01*
X151804740Y-32909406D01*
X151899978Y-33004644D01*
X151947597Y-33099882D01*
X151995216Y-33290358D01*
X151995216Y-33433215D01*
X151947597Y-33623691D01*
X151899978Y-33718929D01*
X151804740Y-33814167D01*
X151661882Y-33861786D01*
X151566644Y-33861786D01*
X151423787Y-33814167D01*
X151376168Y-33766548D01*
X151376168Y-33433215D01*
X151566644Y-33433215D01*
X150614263Y-33337977D02*
X150471406Y-33385596D01*
X150423787Y-33433215D01*
X150376168Y-33528453D01*
X150376168Y-33671310D01*
X150423787Y-33766548D01*
X150471406Y-33814167D01*
X150566644Y-33861786D01*
X150947597Y-33861786D01*
X150947597Y-32861786D01*
X150614263Y-32861786D01*
X150519025Y-32909406D01*
X150471406Y-32957025D01*
X150423787Y-33052263D01*
X150423787Y-33147501D01*
X150471406Y-33242739D01*
X150519025Y-33290358D01*
X150614263Y-33337977D01*
X150947597Y-33337977D01*
X149519025Y-33195120D02*
X149519025Y-33861786D01*
X149757121Y-32814167D02*
X149995216Y-33528453D01*
X149376168Y-33528453D01*
X155073787Y-35761786D02*
X155645216Y-35761786D01*
X155359502Y-35761786D02*
X155359502Y-34761786D01*
X155454740Y-34904644D01*
X155549978Y-34999882D01*
X155645216Y-35047501D01*
%TO.C,C14*%
X20628410Y-32099357D02*
X20676029Y-32051738D01*
X20723648Y-31908881D01*
X20723648Y-31813643D01*
X20676029Y-31670786D01*
X20580791Y-31575548D01*
X20485553Y-31527929D01*
X20295077Y-31480310D01*
X20152220Y-31480310D01*
X19961744Y-31527929D01*
X19866506Y-31575548D01*
X19771268Y-31670786D01*
X19723648Y-31813643D01*
X19723648Y-31908881D01*
X19771268Y-32051738D01*
X19818887Y-32099357D01*
X20723648Y-33051738D02*
X20723648Y-32480310D01*
X20723648Y-32766024D02*
X19723648Y-32766024D01*
X19866506Y-32670786D01*
X19961744Y-32575548D01*
X20009363Y-32480310D01*
X20056982Y-33908881D02*
X20723648Y-33908881D01*
X19676029Y-33670786D02*
X20390315Y-33432691D01*
X20390315Y-34051738D01*
%TO.C,D42*%
X142796248Y-88677977D02*
X141796248Y-88677977D01*
X141796248Y-88916072D01*
X141843868Y-89058929D01*
X141939106Y-89154167D01*
X142034344Y-89201786D01*
X142224820Y-89249405D01*
X142367677Y-89249405D01*
X142558153Y-89201786D01*
X142653391Y-89154167D01*
X142748629Y-89058929D01*
X142796248Y-88916072D01*
X142796248Y-88677977D01*
X142129582Y-90106548D02*
X142796248Y-90106548D01*
X141748629Y-89868453D02*
X142462915Y-89630358D01*
X142462915Y-90249405D01*
X141891487Y-90582739D02*
X141843868Y-90630358D01*
X141796248Y-90725596D01*
X141796248Y-90963691D01*
X141843868Y-91058929D01*
X141891487Y-91106548D01*
X141986725Y-91154167D01*
X142081963Y-91154167D01*
X142224820Y-91106548D01*
X142796248Y-90535120D01*
X142796248Y-91154167D01*
%TO.C,D8*%
X171371272Y-32004119D02*
X170371272Y-32004119D01*
X170371272Y-32242215D01*
X170418892Y-32385072D01*
X170514130Y-32480310D01*
X170609368Y-32527929D01*
X170799844Y-32575548D01*
X170942701Y-32575548D01*
X171133177Y-32527929D01*
X171228415Y-32480310D01*
X171323653Y-32385072D01*
X171371272Y-32242215D01*
X171371272Y-32004119D01*
X170799844Y-33146976D02*
X170752225Y-33051738D01*
X170704606Y-33004119D01*
X170609368Y-32956500D01*
X170561749Y-32956500D01*
X170466511Y-33004119D01*
X170418892Y-33051738D01*
X170371272Y-33146976D01*
X170371272Y-33337453D01*
X170418892Y-33432691D01*
X170466511Y-33480310D01*
X170561749Y-33527929D01*
X170609368Y-33527929D01*
X170704606Y-33480310D01*
X170752225Y-33432691D01*
X170799844Y-33337453D01*
X170799844Y-33146976D01*
X170847463Y-33051738D01*
X170895082Y-33004119D01*
X170990320Y-32956500D01*
X171180796Y-32956500D01*
X171276034Y-33004119D01*
X171323653Y-33051738D01*
X171371272Y-33146976D01*
X171371272Y-33337453D01*
X171323653Y-33432691D01*
X171276034Y-33480310D01*
X171180796Y-33527929D01*
X170990320Y-33527929D01*
X170895082Y-33480310D01*
X170847463Y-33432691D01*
X170799844Y-33337453D01*
%TO.C,RGB3*%
X114276136Y-33861786D02*
X114609470Y-33385596D01*
X114847565Y-33861786D02*
X114847565Y-32861786D01*
X114466612Y-32861786D01*
X114371374Y-32909406D01*
X114323755Y-32957025D01*
X114276136Y-33052263D01*
X114276136Y-33195120D01*
X114323755Y-33290358D01*
X114371374Y-33337977D01*
X114466612Y-33385596D01*
X114847565Y-33385596D01*
X113323755Y-32909406D02*
X113418993Y-32861786D01*
X113561850Y-32861786D01*
X113704708Y-32909406D01*
X113799946Y-33004644D01*
X113847565Y-33099882D01*
X113895184Y-33290358D01*
X113895184Y-33433215D01*
X113847565Y-33623691D01*
X113799946Y-33718929D01*
X113704708Y-33814167D01*
X113561850Y-33861786D01*
X113466612Y-33861786D01*
X113323755Y-33814167D01*
X113276136Y-33766548D01*
X113276136Y-33433215D01*
X113466612Y-33433215D01*
X112514231Y-33337977D02*
X112371374Y-33385596D01*
X112323755Y-33433215D01*
X112276136Y-33528453D01*
X112276136Y-33671310D01*
X112323755Y-33766548D01*
X112371374Y-33814167D01*
X112466612Y-33861786D01*
X112847565Y-33861786D01*
X112847565Y-32861786D01*
X112514231Y-32861786D01*
X112418993Y-32909406D01*
X112371374Y-32957025D01*
X112323755Y-33052263D01*
X112323755Y-33147501D01*
X112371374Y-33242739D01*
X112418993Y-33290358D01*
X112514231Y-33337977D01*
X112847565Y-33337977D01*
X111942803Y-32861786D02*
X111323755Y-32861786D01*
X111657089Y-33242739D01*
X111514231Y-33242739D01*
X111418993Y-33290358D01*
X111371374Y-33337977D01*
X111323755Y-33433215D01*
X111323755Y-33671310D01*
X111371374Y-33766548D01*
X111418993Y-33814167D01*
X111514231Y-33861786D01*
X111799946Y-33861786D01*
X111895184Y-33814167D01*
X111942803Y-33766548D01*
X116973755Y-35761786D02*
X117545184Y-35761786D01*
X117259470Y-35761786D02*
X117259470Y-34761786D01*
X117354708Y-34904644D01*
X117449946Y-34999882D01*
X117545184Y-35047501D01*
%TO.C,RGB12*%
X44744025Y-72081764D02*
X45077358Y-71605574D01*
X45315453Y-72081764D02*
X45315453Y-71081764D01*
X44934501Y-71081764D01*
X44839263Y-71129384D01*
X44791644Y-71177003D01*
X44744025Y-71272241D01*
X44744025Y-71415098D01*
X44791644Y-71510336D01*
X44839263Y-71557955D01*
X44934501Y-71605574D01*
X45315453Y-71605574D01*
X43791644Y-71129384D02*
X43886882Y-71081764D01*
X44029739Y-71081764D01*
X44172596Y-71129384D01*
X44267834Y-71224622D01*
X44315453Y-71319860D01*
X44363072Y-71510336D01*
X44363072Y-71653193D01*
X44315453Y-71843669D01*
X44267834Y-71938907D01*
X44172596Y-72034145D01*
X44029739Y-72081764D01*
X43934501Y-72081764D01*
X43791644Y-72034145D01*
X43744025Y-71986526D01*
X43744025Y-71653193D01*
X43934501Y-71653193D01*
X42982120Y-71557955D02*
X42839263Y-71605574D01*
X42791644Y-71653193D01*
X42744025Y-71748431D01*
X42744025Y-71891288D01*
X42791644Y-71986526D01*
X42839263Y-72034145D01*
X42934501Y-72081764D01*
X43315453Y-72081764D01*
X43315453Y-71081764D01*
X42982120Y-71081764D01*
X42886882Y-71129384D01*
X42839263Y-71177003D01*
X42791644Y-71272241D01*
X42791644Y-71367479D01*
X42839263Y-71462717D01*
X42886882Y-71510336D01*
X42982120Y-71557955D01*
X43315453Y-71557955D01*
X41791644Y-72081764D02*
X42363072Y-72081764D01*
X42077358Y-72081764D02*
X42077358Y-71081764D01*
X42172596Y-71224622D01*
X42267834Y-71319860D01*
X42363072Y-71367479D01*
X41410691Y-71177003D02*
X41363072Y-71129384D01*
X41267834Y-71081764D01*
X41029739Y-71081764D01*
X40934501Y-71129384D01*
X40886882Y-71177003D01*
X40839263Y-71272241D01*
X40839263Y-71367479D01*
X40886882Y-71510336D01*
X41458310Y-72081764D01*
X40839263Y-72081764D01*
X46965453Y-73981764D02*
X47536882Y-73981764D01*
X47251168Y-73981764D02*
X47251168Y-72981764D01*
X47346406Y-73124622D01*
X47441644Y-73219860D01*
X47536882Y-73267479D01*
%TO.C,C1*%
X48387019Y-54561251D02*
X48434638Y-54608870D01*
X48577495Y-54656489D01*
X48672733Y-54656489D01*
X48815591Y-54608870D01*
X48910829Y-54513632D01*
X48958448Y-54418394D01*
X49006067Y-54227918D01*
X49006067Y-54085061D01*
X48958448Y-53894585D01*
X48910829Y-53799347D01*
X48815591Y-53704109D01*
X48672733Y-53656489D01*
X48577495Y-53656489D01*
X48434638Y-53704109D01*
X48387019Y-53751728D01*
X47434638Y-54656489D02*
X48006067Y-54656489D01*
X47720353Y-54656489D02*
X47720353Y-53656489D01*
X47815591Y-53799347D01*
X47910829Y-53894585D01*
X48006067Y-53942204D01*
%TO.C,D2*%
X57071176Y-33790058D02*
X56071176Y-33790058D01*
X56071176Y-34028154D01*
X56118796Y-34171011D01*
X56214034Y-34266249D01*
X56309272Y-34313868D01*
X56499748Y-34361487D01*
X56642605Y-34361487D01*
X56833081Y-34313868D01*
X56928319Y-34266249D01*
X57023557Y-34171011D01*
X57071176Y-34028154D01*
X57071176Y-33790058D01*
X56166415Y-34742439D02*
X56118796Y-34790058D01*
X56071176Y-34885296D01*
X56071176Y-35123392D01*
X56118796Y-35218630D01*
X56166415Y-35266249D01*
X56261653Y-35313868D01*
X56356891Y-35313868D01*
X56499748Y-35266249D01*
X57071176Y-34694820D01*
X57071176Y-35313868D01*
%TO.C,D12*%
X230902572Y-31171122D02*
X229902572Y-31171122D01*
X229902572Y-31409217D01*
X229950192Y-31552074D01*
X230045430Y-31647312D01*
X230140668Y-31694931D01*
X230331144Y-31742550D01*
X230474001Y-31742550D01*
X230664477Y-31694931D01*
X230759715Y-31647312D01*
X230854953Y-31552074D01*
X230902572Y-31409217D01*
X230902572Y-31171122D01*
X230902572Y-32694931D02*
X230902572Y-32123503D01*
X230902572Y-32409217D02*
X229902572Y-32409217D01*
X230045430Y-32313979D01*
X230140668Y-32218741D01*
X230188287Y-32123503D01*
X229997811Y-33075884D02*
X229950192Y-33123503D01*
X229902572Y-33218741D01*
X229902572Y-33456836D01*
X229950192Y-33552074D01*
X229997811Y-33599693D01*
X230093049Y-33647312D01*
X230188287Y-33647312D01*
X230331144Y-33599693D01*
X230902572Y-33028265D01*
X230902572Y-33647312D01*
%TO.C,C16*%
X23009942Y-51030918D02*
X23057561Y-50983299D01*
X23105180Y-50840442D01*
X23105180Y-50745204D01*
X23057561Y-50602347D01*
X22962323Y-50507109D01*
X22867085Y-50459490D01*
X22676609Y-50411871D01*
X22533752Y-50411871D01*
X22343276Y-50459490D01*
X22248038Y-50507109D01*
X22152800Y-50602347D01*
X22105180Y-50745204D01*
X22105180Y-50840442D01*
X22152800Y-50983299D01*
X22200419Y-51030918D01*
X23105180Y-51983299D02*
X23105180Y-51411871D01*
X23105180Y-51697585D02*
X22105180Y-51697585D01*
X22248038Y-51602347D01*
X22343276Y-51507109D01*
X22390895Y-51411871D01*
X22105180Y-52840442D02*
X22105180Y-52649966D01*
X22152800Y-52554728D01*
X22200419Y-52507109D01*
X22343276Y-52411871D01*
X22533752Y-52364252D01*
X22914704Y-52364252D01*
X23009942Y-52411871D01*
X23057561Y-52459490D01*
X23105180Y-52554728D01*
X23105180Y-52745204D01*
X23057561Y-52840442D01*
X23009942Y-52888061D01*
X22914704Y-52935680D01*
X22676609Y-52935680D01*
X22581371Y-52888061D01*
X22533752Y-52840442D01*
X22486133Y-52745204D01*
X22486133Y-52554728D01*
X22533752Y-52459490D01*
X22581371Y-52411871D01*
X22676609Y-52364252D01*
%TO.C,D15*%
X74930566Y-43434189D02*
X73930566Y-43434189D01*
X73930566Y-43672284D01*
X73978186Y-43815141D01*
X74073424Y-43910379D01*
X74168662Y-43957998D01*
X74359138Y-44005617D01*
X74501995Y-44005617D01*
X74692471Y-43957998D01*
X74787709Y-43910379D01*
X74882947Y-43815141D01*
X74930566Y-43672284D01*
X74930566Y-43434189D01*
X74930566Y-44957998D02*
X74930566Y-44386570D01*
X74930566Y-44672284D02*
X73930566Y-44672284D01*
X74073424Y-44577046D01*
X74168662Y-44481808D01*
X74216281Y-44386570D01*
X73930566Y-45862760D02*
X73930566Y-45386570D01*
X74406757Y-45338951D01*
X74359138Y-45386570D01*
X74311519Y-45481808D01*
X74311519Y-45719903D01*
X74359138Y-45815141D01*
X74406757Y-45862760D01*
X74501995Y-45910379D01*
X74740090Y-45910379D01*
X74835328Y-45862760D01*
X74882947Y-45815141D01*
X74930566Y-45719903D01*
X74930566Y-45481808D01*
X74882947Y-45386570D01*
X74835328Y-45338951D01*
%TO.C,C11*%
X48863210Y-55751877D02*
X48910829Y-55799496D01*
X49053686Y-55847115D01*
X49148924Y-55847115D01*
X49291781Y-55799496D01*
X49387019Y-55704258D01*
X49434638Y-55609020D01*
X49482257Y-55418544D01*
X49482257Y-55275687D01*
X49434638Y-55085211D01*
X49387019Y-54989973D01*
X49291781Y-54894735D01*
X49148924Y-54847115D01*
X49053686Y-54847115D01*
X48910829Y-54894735D01*
X48863210Y-54942354D01*
X47910829Y-55847115D02*
X48482257Y-55847115D01*
X48196543Y-55847115D02*
X48196543Y-54847115D01*
X48291781Y-54989973D01*
X48387019Y-55085211D01*
X48482257Y-55132830D01*
X46958448Y-55847115D02*
X47529876Y-55847115D01*
X47244162Y-55847115D02*
X47244162Y-54847115D01*
X47339400Y-54989973D01*
X47434638Y-55085211D01*
X47529876Y-55132830D01*
%TO.C,C6*%
X48387019Y-56942503D02*
X48434638Y-56990122D01*
X48577495Y-57037741D01*
X48672733Y-57037741D01*
X48815591Y-56990122D01*
X48910829Y-56894884D01*
X48958448Y-56799646D01*
X49006067Y-56609170D01*
X49006067Y-56466313D01*
X48958448Y-56275837D01*
X48910829Y-56180599D01*
X48815591Y-56085361D01*
X48672733Y-56037741D01*
X48577495Y-56037741D01*
X48434638Y-56085361D01*
X48387019Y-56132980D01*
X47529876Y-56037741D02*
X47720353Y-56037741D01*
X47815591Y-56085361D01*
X47863210Y-56132980D01*
X47958448Y-56275837D01*
X48006067Y-56466313D01*
X48006067Y-56847265D01*
X47958448Y-56942503D01*
X47910829Y-56990122D01*
X47815591Y-57037741D01*
X47625114Y-57037741D01*
X47529876Y-56990122D01*
X47482257Y-56942503D01*
X47434638Y-56847265D01*
X47434638Y-56609170D01*
X47482257Y-56513932D01*
X47529876Y-56466313D01*
X47625114Y-56418694D01*
X47815591Y-56418694D01*
X47910829Y-56466313D01*
X47958448Y-56513932D01*
X48006067Y-56609170D01*
%TO.C,D37*%
X38021160Y-88677977D02*
X37021160Y-88677977D01*
X37021160Y-88916072D01*
X37068780Y-89058929D01*
X37164018Y-89154167D01*
X37259256Y-89201786D01*
X37449732Y-89249405D01*
X37592589Y-89249405D01*
X37783065Y-89201786D01*
X37878303Y-89154167D01*
X37973541Y-89058929D01*
X38021160Y-88916072D01*
X38021160Y-88677977D01*
X37021160Y-89582739D02*
X37021160Y-90201786D01*
X37402113Y-89868453D01*
X37402113Y-90011310D01*
X37449732Y-90106548D01*
X37497351Y-90154167D01*
X37592589Y-90201786D01*
X37830684Y-90201786D01*
X37925922Y-90154167D01*
X37973541Y-90106548D01*
X38021160Y-90011310D01*
X38021160Y-89725596D01*
X37973541Y-89630358D01*
X37925922Y-89582739D01*
X37021160Y-90535120D02*
X37021160Y-91201786D01*
X38021160Y-90773215D01*
%TO.C,C2*%
X48387019Y-50989373D02*
X48434638Y-51036992D01*
X48577495Y-51084611D01*
X48672733Y-51084611D01*
X48815591Y-51036992D01*
X48910829Y-50941754D01*
X48958448Y-50846516D01*
X49006067Y-50656040D01*
X49006067Y-50513183D01*
X48958448Y-50322707D01*
X48910829Y-50227469D01*
X48815591Y-50132231D01*
X48672733Y-50084611D01*
X48577495Y-50084611D01*
X48434638Y-50132231D01*
X48387019Y-50179850D01*
X48006067Y-50179850D02*
X47958448Y-50132231D01*
X47863210Y-50084611D01*
X47625114Y-50084611D01*
X47529876Y-50132231D01*
X47482257Y-50179850D01*
X47434638Y-50275088D01*
X47434638Y-50370326D01*
X47482257Y-50513183D01*
X48053686Y-51084611D01*
X47434638Y-51084611D01*
%TO.C,RGB2*%
X69866594Y-33861786D02*
X70199928Y-33385596D01*
X70438023Y-33861786D02*
X70438023Y-32861786D01*
X70057070Y-32861786D01*
X69961832Y-32909406D01*
X69914213Y-32957025D01*
X69866594Y-33052263D01*
X69866594Y-33195120D01*
X69914213Y-33290358D01*
X69961832Y-33337977D01*
X70057070Y-33385596D01*
X70438023Y-33385596D01*
X68914213Y-32909406D02*
X69009451Y-32861786D01*
X69152308Y-32861786D01*
X69295166Y-32909406D01*
X69390404Y-33004644D01*
X69438023Y-33099882D01*
X69485642Y-33290358D01*
X69485642Y-33433215D01*
X69438023Y-33623691D01*
X69390404Y-33718929D01*
X69295166Y-33814167D01*
X69152308Y-33861786D01*
X69057070Y-33861786D01*
X68914213Y-33814167D01*
X68866594Y-33766548D01*
X68866594Y-33433215D01*
X69057070Y-33433215D01*
X68104689Y-33337977D02*
X67961832Y-33385596D01*
X67914213Y-33433215D01*
X67866594Y-33528453D01*
X67866594Y-33671310D01*
X67914213Y-33766548D01*
X67961832Y-33814167D01*
X68057070Y-33861786D01*
X68438023Y-33861786D01*
X68438023Y-32861786D01*
X68104689Y-32861786D01*
X68009451Y-32909406D01*
X67961832Y-32957025D01*
X67914213Y-33052263D01*
X67914213Y-33147501D01*
X67961832Y-33242739D01*
X68009451Y-33290358D01*
X68104689Y-33337977D01*
X68438023Y-33337977D01*
X67485642Y-32957025D02*
X67438023Y-32909406D01*
X67342785Y-32861786D01*
X67104689Y-32861786D01*
X67009451Y-32909406D01*
X66961832Y-32957025D01*
X66914213Y-33052263D01*
X66914213Y-33147501D01*
X66961832Y-33290358D01*
X67533261Y-33861786D01*
X66914213Y-33861786D01*
X72564213Y-35761786D02*
X73135642Y-35761786D01*
X72849928Y-35761786D02*
X72849928Y-34761786D01*
X72945166Y-34904644D01*
X73040404Y-34999882D01*
X73135642Y-35047501D01*
%TO.C,R4*%
X46907420Y-21264601D02*
X46431230Y-20931268D01*
X46907420Y-20693172D02*
X45907420Y-20693172D01*
X45907420Y-21074125D01*
X45955040Y-21169363D01*
X46002659Y-21216982D01*
X46097897Y-21264601D01*
X46240754Y-21264601D01*
X46335992Y-21216982D01*
X46383611Y-21169363D01*
X46431230Y-21074125D01*
X46431230Y-20693172D01*
X46240754Y-22121744D02*
X46907420Y-22121744D01*
X45859801Y-21883648D02*
X46574087Y-21645553D01*
X46574087Y-22264601D01*
%TO.C,D36*%
X230902572Y-69271602D02*
X229902572Y-69271602D01*
X229902572Y-69509697D01*
X229950192Y-69652554D01*
X230045430Y-69747792D01*
X230140668Y-69795411D01*
X230331144Y-69843030D01*
X230474001Y-69843030D01*
X230664477Y-69795411D01*
X230759715Y-69747792D01*
X230854953Y-69652554D01*
X230902572Y-69509697D01*
X230902572Y-69271602D01*
X229902572Y-70176364D02*
X229902572Y-70795411D01*
X230283525Y-70462078D01*
X230283525Y-70604935D01*
X230331144Y-70700173D01*
X230378763Y-70747792D01*
X230474001Y-70795411D01*
X230712096Y-70795411D01*
X230807334Y-70747792D01*
X230854953Y-70700173D01*
X230902572Y-70604935D01*
X230902572Y-70319221D01*
X230854953Y-70223983D01*
X230807334Y-70176364D01*
X229902572Y-71652554D02*
X229902572Y-71462078D01*
X229950192Y-71366840D01*
X229997811Y-71319221D01*
X230140668Y-71223983D01*
X230331144Y-71176364D01*
X230712096Y-71176364D01*
X230807334Y-71223983D01*
X230854953Y-71271602D01*
X230902572Y-71366840D01*
X230902572Y-71557316D01*
X230854953Y-71652554D01*
X230807334Y-71700173D01*
X230712096Y-71747792D01*
X230474001Y-71747792D01*
X230378763Y-71700173D01*
X230331144Y-71652554D01*
X230283525Y-71557316D01*
X230283525Y-71366840D01*
X230331144Y-71271602D01*
X230378763Y-71223983D01*
X230474001Y-71176364D01*
%TO.C,D26*%
X57071176Y-69627961D02*
X56071176Y-69627961D01*
X56071176Y-69866056D01*
X56118796Y-70008913D01*
X56214034Y-70104151D01*
X56309272Y-70151770D01*
X56499748Y-70199389D01*
X56642605Y-70199389D01*
X56833081Y-70151770D01*
X56928319Y-70104151D01*
X57023557Y-70008913D01*
X57071176Y-69866056D01*
X57071176Y-69627961D01*
X56166415Y-70580342D02*
X56118796Y-70627961D01*
X56071176Y-70723199D01*
X56071176Y-70961294D01*
X56118796Y-71056532D01*
X56166415Y-71104151D01*
X56261653Y-71151770D01*
X56356891Y-71151770D01*
X56499748Y-71104151D01*
X57071176Y-70532723D01*
X57071176Y-71151770D01*
X56071176Y-72008913D02*
X56071176Y-71818437D01*
X56118796Y-71723199D01*
X56166415Y-71675580D01*
X56309272Y-71580342D01*
X56499748Y-71532723D01*
X56880700Y-71532723D01*
X56975938Y-71580342D01*
X57023557Y-71627961D01*
X57071176Y-71723199D01*
X57071176Y-71913675D01*
X57023557Y-72008913D01*
X56975938Y-72056532D01*
X56880700Y-72104151D01*
X56642605Y-72104151D01*
X56547367Y-72056532D01*
X56499748Y-72008913D01*
X56452129Y-71913675D01*
X56452129Y-71723199D01*
X56499748Y-71627961D01*
X56547367Y-71580342D01*
X56642605Y-71532723D01*
%TO.C,D28*%
X95171208Y-69627961D02*
X94171208Y-69627961D01*
X94171208Y-69866056D01*
X94218828Y-70008913D01*
X94314066Y-70104151D01*
X94409304Y-70151770D01*
X94599780Y-70199389D01*
X94742637Y-70199389D01*
X94933113Y-70151770D01*
X95028351Y-70104151D01*
X95123589Y-70008913D01*
X95171208Y-69866056D01*
X95171208Y-69627961D01*
X94266447Y-70580342D02*
X94218828Y-70627961D01*
X94171208Y-70723199D01*
X94171208Y-70961294D01*
X94218828Y-71056532D01*
X94266447Y-71104151D01*
X94361685Y-71151770D01*
X94456923Y-71151770D01*
X94599780Y-71104151D01*
X95171208Y-70532723D01*
X95171208Y-71151770D01*
X94599780Y-71723199D02*
X94552161Y-71627961D01*
X94504542Y-71580342D01*
X94409304Y-71532723D01*
X94361685Y-71532723D01*
X94266447Y-71580342D01*
X94218828Y-71627961D01*
X94171208Y-71723199D01*
X94171208Y-71913675D01*
X94218828Y-72008913D01*
X94266447Y-72056532D01*
X94361685Y-72104151D01*
X94409304Y-72104151D01*
X94504542Y-72056532D01*
X94552161Y-72008913D01*
X94599780Y-71913675D01*
X94599780Y-71723199D01*
X94647399Y-71627961D01*
X94695018Y-71580342D01*
X94790256Y-71532723D01*
X94980732Y-71532723D01*
X95075970Y-71580342D01*
X95123589Y-71627961D01*
X95171208Y-71723199D01*
X95171208Y-71913675D01*
X95123589Y-72008913D01*
X95075970Y-72056532D01*
X94980732Y-72104151D01*
X94790256Y-72104151D01*
X94695018Y-72056532D01*
X94647399Y-72008913D01*
X94599780Y-71913675D01*
%TO.C,C10*%
X63746035Y-55690625D02*
X63793654Y-55738244D01*
X63936511Y-55785863D01*
X64031749Y-55785863D01*
X64174606Y-55738244D01*
X64269844Y-55643006D01*
X64317463Y-55547768D01*
X64365082Y-55357292D01*
X64365082Y-55214435D01*
X64317463Y-55023959D01*
X64269844Y-54928721D01*
X64174606Y-54833483D01*
X64031749Y-54785863D01*
X63936511Y-54785863D01*
X63793654Y-54833483D01*
X63746035Y-54881102D01*
X62793654Y-55785863D02*
X63365082Y-55785863D01*
X63079368Y-55785863D02*
X63079368Y-54785863D01*
X63174606Y-54928721D01*
X63269844Y-55023959D01*
X63365082Y-55071578D01*
X62174606Y-54785863D02*
X62079368Y-54785863D01*
X61984130Y-54833483D01*
X61936511Y-54881102D01*
X61888892Y-54976340D01*
X61841273Y-55166816D01*
X61841273Y-55404911D01*
X61888892Y-55595387D01*
X61936511Y-55690625D01*
X61984130Y-55738244D01*
X62079368Y-55785863D01*
X62174606Y-55785863D01*
X62269844Y-55738244D01*
X62317463Y-55690625D01*
X62365082Y-55595387D01*
X62412701Y-55404911D01*
X62412701Y-55166816D01*
X62365082Y-54976340D01*
X62317463Y-54881102D01*
X62269844Y-54833483D01*
X62174606Y-54785863D01*
%TO.C,D20*%
X171371272Y-50577945D02*
X170371272Y-50577945D01*
X170371272Y-50816040D01*
X170418892Y-50958897D01*
X170514130Y-51054135D01*
X170609368Y-51101754D01*
X170799844Y-51149373D01*
X170942701Y-51149373D01*
X171133177Y-51101754D01*
X171228415Y-51054135D01*
X171323653Y-50958897D01*
X171371272Y-50816040D01*
X171371272Y-50577945D01*
X170466511Y-51530326D02*
X170418892Y-51577945D01*
X170371272Y-51673183D01*
X170371272Y-51911278D01*
X170418892Y-52006516D01*
X170466511Y-52054135D01*
X170561749Y-52101754D01*
X170656987Y-52101754D01*
X170799844Y-52054135D01*
X171371272Y-51482707D01*
X171371272Y-52101754D01*
X170371272Y-52720802D02*
X170371272Y-52816040D01*
X170418892Y-52911278D01*
X170466511Y-52958897D01*
X170561749Y-53006516D01*
X170752225Y-53054135D01*
X170990320Y-53054135D01*
X171180796Y-53006516D01*
X171276034Y-52958897D01*
X171323653Y-52911278D01*
X171371272Y-52816040D01*
X171371272Y-52720802D01*
X171323653Y-52625564D01*
X171276034Y-52577945D01*
X171180796Y-52530326D01*
X170990320Y-52482707D01*
X170752225Y-52482707D01*
X170561749Y-52530326D01*
X170466511Y-52577945D01*
X170418892Y-52625564D01*
X170371272Y-52720802D01*
%TO.C,D22*%
X209471304Y-50577945D02*
X208471304Y-50577945D01*
X208471304Y-50816040D01*
X208518924Y-50958897D01*
X208614162Y-51054135D01*
X208709400Y-51101754D01*
X208899876Y-51149373D01*
X209042733Y-51149373D01*
X209233209Y-51101754D01*
X209328447Y-51054135D01*
X209423685Y-50958897D01*
X209471304Y-50816040D01*
X209471304Y-50577945D01*
X208566543Y-51530326D02*
X208518924Y-51577945D01*
X208471304Y-51673183D01*
X208471304Y-51911278D01*
X208518924Y-52006516D01*
X208566543Y-52054135D01*
X208661781Y-52101754D01*
X208757019Y-52101754D01*
X208899876Y-52054135D01*
X209471304Y-51482707D01*
X209471304Y-52101754D01*
X208566543Y-52482707D02*
X208518924Y-52530326D01*
X208471304Y-52625564D01*
X208471304Y-52863659D01*
X208518924Y-52958897D01*
X208566543Y-53006516D01*
X208661781Y-53054135D01*
X208757019Y-53054135D01*
X208899876Y-53006516D01*
X209471304Y-52435088D01*
X209471304Y-53054135D01*
%TO.C,D23*%
X228521320Y-50340426D02*
X227521320Y-50340426D01*
X227521320Y-50578521D01*
X227568940Y-50721378D01*
X227664178Y-50816616D01*
X227759416Y-50864235D01*
X227949892Y-50911854D01*
X228092749Y-50911854D01*
X228283225Y-50864235D01*
X228378463Y-50816616D01*
X228473701Y-50721378D01*
X228521320Y-50578521D01*
X228521320Y-50340426D01*
X227616559Y-51292807D02*
X227568940Y-51340426D01*
X227521320Y-51435664D01*
X227521320Y-51673759D01*
X227568940Y-51768997D01*
X227616559Y-51816616D01*
X227711797Y-51864235D01*
X227807035Y-51864235D01*
X227949892Y-51816616D01*
X228521320Y-51245188D01*
X228521320Y-51864235D01*
X227521320Y-52197569D02*
X227521320Y-52816616D01*
X227902273Y-52483283D01*
X227902273Y-52626140D01*
X227949892Y-52721378D01*
X227997511Y-52768997D01*
X228092749Y-52816616D01*
X228330844Y-52816616D01*
X228426082Y-52768997D01*
X228473701Y-52721378D01*
X228521320Y-52626140D01*
X228521320Y-52340426D01*
X228473701Y-52245188D01*
X228426082Y-52197569D01*
%TO.C,RGB11*%
X70461849Y-71961818D02*
X70795182Y-71485628D01*
X71033277Y-71961818D02*
X71033277Y-70961818D01*
X70652325Y-70961818D01*
X70557087Y-71009438D01*
X70509468Y-71057057D01*
X70461849Y-71152295D01*
X70461849Y-71295152D01*
X70509468Y-71390390D01*
X70557087Y-71438009D01*
X70652325Y-71485628D01*
X71033277Y-71485628D01*
X69509468Y-71009438D02*
X69604706Y-70961818D01*
X69747563Y-70961818D01*
X69890420Y-71009438D01*
X69985658Y-71104676D01*
X70033277Y-71199914D01*
X70080896Y-71390390D01*
X70080896Y-71533247D01*
X70033277Y-71723723D01*
X69985658Y-71818961D01*
X69890420Y-71914199D01*
X69747563Y-71961818D01*
X69652325Y-71961818D01*
X69509468Y-71914199D01*
X69461849Y-71866580D01*
X69461849Y-71533247D01*
X69652325Y-71533247D01*
X68699944Y-71438009D02*
X68557087Y-71485628D01*
X68509468Y-71533247D01*
X68461849Y-71628485D01*
X68461849Y-71771342D01*
X68509468Y-71866580D01*
X68557087Y-71914199D01*
X68652325Y-71961818D01*
X69033277Y-71961818D01*
X69033277Y-70961818D01*
X68699944Y-70961818D01*
X68604706Y-71009438D01*
X68557087Y-71057057D01*
X68509468Y-71152295D01*
X68509468Y-71247533D01*
X68557087Y-71342771D01*
X68604706Y-71390390D01*
X68699944Y-71438009D01*
X69033277Y-71438009D01*
X67509468Y-71961818D02*
X68080896Y-71961818D01*
X67795182Y-71961818D02*
X67795182Y-70961818D01*
X67890420Y-71104676D01*
X67985658Y-71199914D01*
X68080896Y-71247533D01*
X66557087Y-71961818D02*
X67128515Y-71961818D01*
X66842801Y-71961818D02*
X66842801Y-70961818D01*
X66938039Y-71104676D01*
X67033277Y-71199914D01*
X67128515Y-71247533D01*
X72683277Y-73861818D02*
X73254706Y-73861818D01*
X72968992Y-73861818D02*
X72968992Y-72861818D01*
X73064230Y-73004676D01*
X73159468Y-73099914D01*
X73254706Y-73147533D01*
%TO.C,U1*%
X29336928Y-38480534D02*
X29336928Y-39290058D01*
X29289309Y-39385296D01*
X29241690Y-39432915D01*
X29146452Y-39480534D01*
X28955976Y-39480534D01*
X28860738Y-39432915D01*
X28813119Y-39385296D01*
X28765500Y-39290058D01*
X28765500Y-38480534D01*
X27765500Y-39480534D02*
X28336928Y-39480534D01*
X28051214Y-39480534D02*
X28051214Y-38480534D01*
X28146452Y-38623392D01*
X28241690Y-38718630D01*
X28336928Y-38766249D01*
%TO.C,R2*%
X71877979Y-54504135D02*
X71776964Y-53931715D01*
X72282040Y-54100074D02*
X71574934Y-53392967D01*
X71305559Y-53662341D01*
X71271888Y-53763356D01*
X71271888Y-53830700D01*
X71305559Y-53931715D01*
X71406575Y-54032730D01*
X71507590Y-54066402D01*
X71574934Y-54066402D01*
X71675949Y-54032730D01*
X71945323Y-53763356D01*
X70968842Y-54133746D02*
X70901498Y-54133746D01*
X70800483Y-54167417D01*
X70632124Y-54335776D01*
X70598453Y-54436792D01*
X70598453Y-54504135D01*
X70632124Y-54605150D01*
X70699468Y-54672494D01*
X70834155Y-54739837D01*
X71642277Y-54739837D01*
X71204544Y-55177570D01*
%TO.C,J2*%
X85891588Y-38802038D02*
X85748731Y-38849657D01*
X85701112Y-38897276D01*
X85653493Y-38992514D01*
X85653493Y-39135371D01*
X85701112Y-39230609D01*
X85748731Y-39278228D01*
X85843969Y-39325847D01*
X86224922Y-39325847D01*
X86224922Y-38325847D01*
X85891588Y-38325847D01*
X85796350Y-38373467D01*
X85748731Y-38421086D01*
X85701112Y-38516324D01*
X85701112Y-38611562D01*
X85748731Y-38706800D01*
X85796350Y-38754419D01*
X85891588Y-38802038D01*
X86224922Y-38802038D01*
X85034446Y-38325847D02*
X84843969Y-38325847D01*
X84748731Y-38373467D01*
X84653493Y-38468705D01*
X84605874Y-38659181D01*
X84605874Y-38992514D01*
X84653493Y-39182990D01*
X84748731Y-39278228D01*
X84843969Y-39325847D01*
X85034446Y-39325847D01*
X85129684Y-39278228D01*
X85224922Y-39182990D01*
X85272541Y-38992514D01*
X85272541Y-38659181D01*
X85224922Y-38468705D01*
X85129684Y-38373467D01*
X85034446Y-38325847D01*
X83986826Y-38325847D02*
X83796350Y-38325847D01*
X83701112Y-38373467D01*
X83605874Y-38468705D01*
X83558255Y-38659181D01*
X83558255Y-38992514D01*
X83605874Y-39182990D01*
X83701112Y-39278228D01*
X83796350Y-39325847D01*
X83986826Y-39325847D01*
X84082065Y-39278228D01*
X84177303Y-39182990D01*
X84224922Y-38992514D01*
X84224922Y-38659181D01*
X84177303Y-38468705D01*
X84082065Y-38373467D01*
X83986826Y-38325847D01*
X83272541Y-38325847D02*
X82701112Y-38325847D01*
X82986826Y-39325847D02*
X82986826Y-38325847D01*
%TO.C,C3*%
X48387019Y-52179999D02*
X48434638Y-52227618D01*
X48577495Y-52275237D01*
X48672733Y-52275237D01*
X48815591Y-52227618D01*
X48910829Y-52132380D01*
X48958448Y-52037142D01*
X49006067Y-51846666D01*
X49006067Y-51703809D01*
X48958448Y-51513333D01*
X48910829Y-51418095D01*
X48815591Y-51322857D01*
X48672733Y-51275237D01*
X48577495Y-51275237D01*
X48434638Y-51322857D01*
X48387019Y-51370476D01*
X48053686Y-51275237D02*
X47434638Y-51275237D01*
X47767972Y-51656190D01*
X47625114Y-51656190D01*
X47529876Y-51703809D01*
X47482257Y-51751428D01*
X47434638Y-51846666D01*
X47434638Y-52084761D01*
X47482257Y-52179999D01*
X47529876Y-52227618D01*
X47625114Y-52275237D01*
X47910829Y-52275237D01*
X48006067Y-52227618D01*
X48053686Y-52179999D01*
%TO.C,D33*%
X190421288Y-68676282D02*
X189421288Y-68676282D01*
X189421288Y-68914377D01*
X189468908Y-69057234D01*
X189564146Y-69152472D01*
X189659384Y-69200091D01*
X189849860Y-69247710D01*
X189992717Y-69247710D01*
X190183193Y-69200091D01*
X190278431Y-69152472D01*
X190373669Y-69057234D01*
X190421288Y-68914377D01*
X190421288Y-68676282D01*
X189421288Y-69581044D02*
X189421288Y-70200091D01*
X189802241Y-69866758D01*
X189802241Y-70009615D01*
X189849860Y-70104853D01*
X189897479Y-70152472D01*
X189992717Y-70200091D01*
X190230812Y-70200091D01*
X190326050Y-70152472D01*
X190373669Y-70104853D01*
X190421288Y-70009615D01*
X190421288Y-69723901D01*
X190373669Y-69628663D01*
X190326050Y-69581044D01*
X189421288Y-70533425D02*
X189421288Y-71152472D01*
X189802241Y-70819139D01*
X189802241Y-70961996D01*
X189849860Y-71057234D01*
X189897479Y-71104853D01*
X189992717Y-71152472D01*
X190230812Y-71152472D01*
X190326050Y-71104853D01*
X190373669Y-71057234D01*
X190421288Y-70961996D01*
X190421288Y-70676282D01*
X190373669Y-70581044D01*
X190326050Y-70533425D01*
%TO.C,RGB1*%
X44267834Y-33861786D02*
X44601168Y-33385596D01*
X44839263Y-33861786D02*
X44839263Y-32861786D01*
X44458310Y-32861786D01*
X44363072Y-32909406D01*
X44315453Y-32957025D01*
X44267834Y-33052263D01*
X44267834Y-33195120D01*
X44315453Y-33290358D01*
X44363072Y-33337977D01*
X44458310Y-33385596D01*
X44839263Y-33385596D01*
X43315453Y-32909406D02*
X43410691Y-32861786D01*
X43553548Y-32861786D01*
X43696406Y-32909406D01*
X43791644Y-33004644D01*
X43839263Y-33099882D01*
X43886882Y-33290358D01*
X43886882Y-33433215D01*
X43839263Y-33623691D01*
X43791644Y-33718929D01*
X43696406Y-33814167D01*
X43553548Y-33861786D01*
X43458310Y-33861786D01*
X43315453Y-33814167D01*
X43267834Y-33766548D01*
X43267834Y-33433215D01*
X43458310Y-33433215D01*
X42505929Y-33337977D02*
X42363072Y-33385596D01*
X42315453Y-33433215D01*
X42267834Y-33528453D01*
X42267834Y-33671310D01*
X42315453Y-33766548D01*
X42363072Y-33814167D01*
X42458310Y-33861786D01*
X42839263Y-33861786D01*
X42839263Y-32861786D01*
X42505929Y-32861786D01*
X42410691Y-32909406D01*
X42363072Y-32957025D01*
X42315453Y-33052263D01*
X42315453Y-33147501D01*
X42363072Y-33242739D01*
X42410691Y-33290358D01*
X42505929Y-33337977D01*
X42839263Y-33337977D01*
X41315453Y-33861786D02*
X41886882Y-33861786D01*
X41601168Y-33861786D02*
X41601168Y-32861786D01*
X41696406Y-33004644D01*
X41791644Y-33099882D01*
X41886882Y-33147501D01*
X46965453Y-35761786D02*
X47536882Y-35761786D01*
X47251168Y-35761786D02*
X47251168Y-34761786D01*
X47346406Y-34904644D01*
X47441644Y-34999882D01*
X47536882Y-35047501D01*
%TO.C,D48*%
X230902572Y-88677977D02*
X229902572Y-88677977D01*
X229902572Y-88916072D01*
X229950192Y-89058929D01*
X230045430Y-89154167D01*
X230140668Y-89201786D01*
X230331144Y-89249405D01*
X230474001Y-89249405D01*
X230664477Y-89201786D01*
X230759715Y-89154167D01*
X230854953Y-89058929D01*
X230902572Y-88916072D01*
X230902572Y-88677977D01*
X230235906Y-90106548D02*
X230902572Y-90106548D01*
X229854953Y-89868453D02*
X230569239Y-89630358D01*
X230569239Y-90249405D01*
X230331144Y-90773215D02*
X230283525Y-90677977D01*
X230235906Y-90630358D01*
X230140668Y-90582739D01*
X230093049Y-90582739D01*
X229997811Y-90630358D01*
X229950192Y-90677977D01*
X229902572Y-90773215D01*
X229902572Y-90963691D01*
X229950192Y-91058929D01*
X229997811Y-91106548D01*
X230093049Y-91154167D01*
X230140668Y-91154167D01*
X230235906Y-91106548D01*
X230283525Y-91058929D01*
X230331144Y-90963691D01*
X230331144Y-90773215D01*
X230378763Y-90677977D01*
X230426382Y-90630358D01*
X230521620Y-90582739D01*
X230712096Y-90582739D01*
X230807334Y-90630358D01*
X230854953Y-90677977D01*
X230902572Y-90773215D01*
X230902572Y-90963691D01*
X230854953Y-91058929D01*
X230807334Y-91106548D01*
X230712096Y-91154167D01*
X230521620Y-91154167D01*
X230426382Y-91106548D01*
X230378763Y-91058929D01*
X230331144Y-90963691D01*
%TO.C,D16*%
X95171208Y-50577945D02*
X94171208Y-50577945D01*
X94171208Y-50816040D01*
X94218828Y-50958897D01*
X94314066Y-51054135D01*
X94409304Y-51101754D01*
X94599780Y-51149373D01*
X94742637Y-51149373D01*
X94933113Y-51101754D01*
X95028351Y-51054135D01*
X95123589Y-50958897D01*
X95171208Y-50816040D01*
X95171208Y-50577945D01*
X95171208Y-52101754D02*
X95171208Y-51530326D01*
X95171208Y-51816040D02*
X94171208Y-51816040D01*
X94314066Y-51720802D01*
X94409304Y-51625564D01*
X94456923Y-51530326D01*
X94171208Y-52958897D02*
X94171208Y-52768421D01*
X94218828Y-52673183D01*
X94266447Y-52625564D01*
X94409304Y-52530326D01*
X94599780Y-52482707D01*
X94980732Y-52482707D01*
X95075970Y-52530326D01*
X95123589Y-52577945D01*
X95171208Y-52673183D01*
X95171208Y-52863659D01*
X95123589Y-52958897D01*
X95075970Y-53006516D01*
X94980732Y-53054135D01*
X94742637Y-53054135D01*
X94647399Y-53006516D01*
X94599780Y-52958897D01*
X94552161Y-52863659D01*
X94552161Y-52673183D01*
X94599780Y-52577945D01*
X94647399Y-52530326D01*
X94742637Y-52482707D01*
%TO.C,D25*%
X38021160Y-69271602D02*
X37021160Y-69271602D01*
X37021160Y-69509697D01*
X37068780Y-69652554D01*
X37164018Y-69747792D01*
X37259256Y-69795411D01*
X37449732Y-69843030D01*
X37592589Y-69843030D01*
X37783065Y-69795411D01*
X37878303Y-69747792D01*
X37973541Y-69652554D01*
X38021160Y-69509697D01*
X38021160Y-69271602D01*
X37116399Y-70223983D02*
X37068780Y-70271602D01*
X37021160Y-70366840D01*
X37021160Y-70604935D01*
X37068780Y-70700173D01*
X37116399Y-70747792D01*
X37211637Y-70795411D01*
X37306875Y-70795411D01*
X37449732Y-70747792D01*
X38021160Y-70176364D01*
X38021160Y-70795411D01*
X37021160Y-71700173D02*
X37021160Y-71223983D01*
X37497351Y-71176364D01*
X37449732Y-71223983D01*
X37402113Y-71319221D01*
X37402113Y-71557316D01*
X37449732Y-71652554D01*
X37497351Y-71700173D01*
X37592589Y-71747792D01*
X37830684Y-71747792D01*
X37925922Y-71700173D01*
X37973541Y-71652554D01*
X38021160Y-71557316D01*
X38021160Y-71319221D01*
X37973541Y-71223983D01*
X37925922Y-71176364D01*
%TO.C,D19*%
X152321256Y-50577945D02*
X151321256Y-50577945D01*
X151321256Y-50816040D01*
X151368876Y-50958897D01*
X151464114Y-51054135D01*
X151559352Y-51101754D01*
X151749828Y-51149373D01*
X151892685Y-51149373D01*
X152083161Y-51101754D01*
X152178399Y-51054135D01*
X152273637Y-50958897D01*
X152321256Y-50816040D01*
X152321256Y-50577945D01*
X152321256Y-52101754D02*
X152321256Y-51530326D01*
X152321256Y-51816040D02*
X151321256Y-51816040D01*
X151464114Y-51720802D01*
X151559352Y-51625564D01*
X151606971Y-51530326D01*
X152321256Y-52577945D02*
X152321256Y-52768421D01*
X152273637Y-52863659D01*
X152226018Y-52911278D01*
X152083161Y-53006516D01*
X151892685Y-53054135D01*
X151511733Y-53054135D01*
X151416495Y-53006516D01*
X151368876Y-52958897D01*
X151321256Y-52863659D01*
X151321256Y-52673183D01*
X151368876Y-52577945D01*
X151416495Y-52530326D01*
X151511733Y-52482707D01*
X151749828Y-52482707D01*
X151845066Y-52530326D01*
X151892685Y-52577945D01*
X151940304Y-52673183D01*
X151940304Y-52863659D01*
X151892685Y-52958897D01*
X151845066Y-53006516D01*
X151749828Y-53054135D01*
%TO.C,C5*%
X50966666Y-56897142D02*
X51014285Y-56944761D01*
X51157142Y-56992380D01*
X51252380Y-56992380D01*
X51395238Y-56944761D01*
X51490476Y-56849523D01*
X51538095Y-56754285D01*
X51585714Y-56563809D01*
X51585714Y-56420952D01*
X51538095Y-56230476D01*
X51490476Y-56135238D01*
X51395238Y-56040000D01*
X51252380Y-55992380D01*
X51157142Y-55992380D01*
X51014285Y-56040000D01*
X50966666Y-56087619D01*
X50061904Y-55992380D02*
X50538095Y-55992380D01*
X50585714Y-56468571D01*
X50538095Y-56420952D01*
X50442857Y-56373333D01*
X50204761Y-56373333D01*
X50109523Y-56420952D01*
X50061904Y-56468571D01*
X50014285Y-56563809D01*
X50014285Y-56801904D01*
X50061904Y-56897142D01*
X50109523Y-56944761D01*
X50204761Y-56992380D01*
X50442857Y-56992380D01*
X50538095Y-56944761D01*
X50585714Y-56897142D01*
%TO.C,D47*%
X228521320Y-88677977D02*
X227521320Y-88677977D01*
X227521320Y-88916072D01*
X227568940Y-89058929D01*
X227664178Y-89154167D01*
X227759416Y-89201786D01*
X227949892Y-89249405D01*
X228092749Y-89249405D01*
X228283225Y-89201786D01*
X228378463Y-89154167D01*
X228473701Y-89058929D01*
X228521320Y-88916072D01*
X228521320Y-88677977D01*
X227854654Y-90106548D02*
X228521320Y-90106548D01*
X227473701Y-89868453D02*
X228187987Y-89630358D01*
X228187987Y-90249405D01*
X227521320Y-90535120D02*
X227521320Y-91201786D01*
X228521320Y-90773215D01*
%TO.C,RGB8*%
X196669754Y-71961818D02*
X197003088Y-71485628D01*
X197241183Y-71961818D02*
X197241183Y-70961818D01*
X196860230Y-70961818D01*
X196764992Y-71009438D01*
X196717373Y-71057057D01*
X196669754Y-71152295D01*
X196669754Y-71295152D01*
X196717373Y-71390390D01*
X196764992Y-71438009D01*
X196860230Y-71485628D01*
X197241183Y-71485628D01*
X195717373Y-71009438D02*
X195812611Y-70961818D01*
X195955468Y-70961818D01*
X196098326Y-71009438D01*
X196193564Y-71104676D01*
X196241183Y-71199914D01*
X196288802Y-71390390D01*
X196288802Y-71533247D01*
X196241183Y-71723723D01*
X196193564Y-71818961D01*
X196098326Y-71914199D01*
X195955468Y-71961818D01*
X195860230Y-71961818D01*
X195717373Y-71914199D01*
X195669754Y-71866580D01*
X195669754Y-71533247D01*
X195860230Y-71533247D01*
X194907849Y-71438009D02*
X194764992Y-71485628D01*
X194717373Y-71533247D01*
X194669754Y-71628485D01*
X194669754Y-71771342D01*
X194717373Y-71866580D01*
X194764992Y-71914199D01*
X194860230Y-71961818D01*
X195241183Y-71961818D01*
X195241183Y-70961818D01*
X194907849Y-70961818D01*
X194812611Y-71009438D01*
X194764992Y-71057057D01*
X194717373Y-71152295D01*
X194717373Y-71247533D01*
X194764992Y-71342771D01*
X194812611Y-71390390D01*
X194907849Y-71438009D01*
X195241183Y-71438009D01*
X194098326Y-71390390D02*
X194193564Y-71342771D01*
X194241183Y-71295152D01*
X194288802Y-71199914D01*
X194288802Y-71152295D01*
X194241183Y-71057057D01*
X194193564Y-71009438D01*
X194098326Y-70961818D01*
X193907849Y-70961818D01*
X193812611Y-71009438D01*
X193764992Y-71057057D01*
X193717373Y-71152295D01*
X193717373Y-71199914D01*
X193764992Y-71295152D01*
X193812611Y-71342771D01*
X193907849Y-71390390D01*
X194098326Y-71390390D01*
X194193564Y-71438009D01*
X194241183Y-71485628D01*
X194288802Y-71580866D01*
X194288802Y-71771342D01*
X194241183Y-71866580D01*
X194193564Y-71914199D01*
X194098326Y-71961818D01*
X193907849Y-71961818D01*
X193812611Y-71914199D01*
X193764992Y-71866580D01*
X193717373Y-71771342D01*
X193717373Y-71580866D01*
X193764992Y-71485628D01*
X193812611Y-71438009D01*
X193907849Y-71390390D01*
X199367373Y-73861818D02*
X199938802Y-73861818D01*
X199653088Y-73861818D02*
X199653088Y-72861818D01*
X199748326Y-73004676D01*
X199843564Y-73099914D01*
X199938802Y-73147533D01*
%TO.C,D18*%
X133271240Y-50340426D02*
X132271240Y-50340426D01*
X132271240Y-50578521D01*
X132318860Y-50721378D01*
X132414098Y-50816616D01*
X132509336Y-50864235D01*
X132699812Y-50911854D01*
X132842669Y-50911854D01*
X133033145Y-50864235D01*
X133128383Y-50816616D01*
X133223621Y-50721378D01*
X133271240Y-50578521D01*
X133271240Y-50340426D01*
X133271240Y-51864235D02*
X133271240Y-51292807D01*
X133271240Y-51578521D02*
X132271240Y-51578521D01*
X132414098Y-51483283D01*
X132509336Y-51388045D01*
X132556955Y-51292807D01*
X132699812Y-52435664D02*
X132652193Y-52340426D01*
X132604574Y-52292807D01*
X132509336Y-52245188D01*
X132461717Y-52245188D01*
X132366479Y-52292807D01*
X132318860Y-52340426D01*
X132271240Y-52435664D01*
X132271240Y-52626140D01*
X132318860Y-52721378D01*
X132366479Y-52768997D01*
X132461717Y-52816616D01*
X132509336Y-52816616D01*
X132604574Y-52768997D01*
X132652193Y-52721378D01*
X132699812Y-52626140D01*
X132699812Y-52435664D01*
X132747431Y-52340426D01*
X132795050Y-52292807D01*
X132890288Y-52245188D01*
X133080764Y-52245188D01*
X133176002Y-52292807D01*
X133223621Y-52340426D01*
X133271240Y-52435664D01*
X133271240Y-52626140D01*
X133223621Y-52721378D01*
X133176002Y-52768997D01*
X133080764Y-52816616D01*
X132890288Y-52816616D01*
X132795050Y-52768997D01*
X132747431Y-52721378D01*
X132699812Y-52626140D01*
%TO.C,D38*%
X57071176Y-88677977D02*
X56071176Y-88677977D01*
X56071176Y-88916072D01*
X56118796Y-89058929D01*
X56214034Y-89154167D01*
X56309272Y-89201786D01*
X56499748Y-89249405D01*
X56642605Y-89249405D01*
X56833081Y-89201786D01*
X56928319Y-89154167D01*
X57023557Y-89058929D01*
X57071176Y-88916072D01*
X57071176Y-88677977D01*
X56071176Y-89582739D02*
X56071176Y-90201786D01*
X56452129Y-89868453D01*
X56452129Y-90011310D01*
X56499748Y-90106548D01*
X56547367Y-90154167D01*
X56642605Y-90201786D01*
X56880700Y-90201786D01*
X56975938Y-90154167D01*
X57023557Y-90106548D01*
X57071176Y-90011310D01*
X57071176Y-89725596D01*
X57023557Y-89630358D01*
X56975938Y-89582739D01*
X56499748Y-90773215D02*
X56452129Y-90677977D01*
X56404510Y-90630358D01*
X56309272Y-90582739D01*
X56261653Y-90582739D01*
X56166415Y-90630358D01*
X56118796Y-90677977D01*
X56071176Y-90773215D01*
X56071176Y-90963691D01*
X56118796Y-91058929D01*
X56166415Y-91106548D01*
X56261653Y-91154167D01*
X56309272Y-91154167D01*
X56404510Y-91106548D01*
X56452129Y-91058929D01*
X56499748Y-90963691D01*
X56499748Y-90773215D01*
X56547367Y-90677977D01*
X56594986Y-90630358D01*
X56690224Y-90582739D01*
X56880700Y-90582739D01*
X56975938Y-90630358D01*
X57023557Y-90677977D01*
X57071176Y-90773215D01*
X57071176Y-90963691D01*
X57023557Y-91058929D01*
X56975938Y-91106548D01*
X56880700Y-91154167D01*
X56690224Y-91154167D01*
X56594986Y-91106548D01*
X56547367Y-91058929D01*
X56499748Y-90963691D01*
%TO.C,R1*%
X77227131Y-32575548D02*
X76750941Y-32242215D01*
X77227131Y-32004119D02*
X76227131Y-32004119D01*
X76227131Y-32385072D01*
X76274751Y-32480310D01*
X76322370Y-32527929D01*
X76417608Y-32575548D01*
X76560465Y-32575548D01*
X76655703Y-32527929D01*
X76703322Y-32480310D01*
X76750941Y-32385072D01*
X76750941Y-32004119D01*
X77227131Y-33527929D02*
X77227131Y-32956500D01*
X77227131Y-33242215D02*
X76227131Y-33242215D01*
X76369989Y-33146976D01*
X76465227Y-33051738D01*
X76512846Y-32956500D01*
%TO.C,J1*%
X95511834Y-39325847D02*
X95845168Y-38849657D01*
X96083263Y-39325847D02*
X96083263Y-38325847D01*
X95702311Y-38325847D01*
X95607073Y-38373467D01*
X95559454Y-38421086D01*
X95511834Y-38516324D01*
X95511834Y-38659181D01*
X95559454Y-38754419D01*
X95607073Y-38802038D01*
X95702311Y-38849657D01*
X96083263Y-38849657D01*
X95083263Y-38802038D02*
X94749930Y-38802038D01*
X94607073Y-39325847D02*
X95083263Y-39325847D01*
X95083263Y-38325847D01*
X94607073Y-38325847D01*
X94226120Y-39278228D02*
X94083263Y-39325847D01*
X93845168Y-39325847D01*
X93749930Y-39278228D01*
X93702311Y-39230609D01*
X93654692Y-39135371D01*
X93654692Y-39040133D01*
X93702311Y-38944895D01*
X93749930Y-38897276D01*
X93845168Y-38849657D01*
X94035644Y-38802038D01*
X94130882Y-38754419D01*
X94178501Y-38706800D01*
X94226120Y-38611562D01*
X94226120Y-38516324D01*
X94178501Y-38421086D01*
X94130882Y-38373467D01*
X94035644Y-38325847D01*
X93797549Y-38325847D01*
X93654692Y-38373467D01*
X93226120Y-38802038D02*
X92892787Y-38802038D01*
X92749930Y-39325847D02*
X93226120Y-39325847D01*
X93226120Y-38325847D01*
X92749930Y-38325847D01*
X92464215Y-38325847D02*
X91892787Y-38325847D01*
X92178501Y-39325847D02*
X92178501Y-38325847D01*
%TO.C,D5*%
X114221224Y-31647312D02*
X113221224Y-31647312D01*
X113221224Y-31885408D01*
X113268844Y-32028265D01*
X113364082Y-32123503D01*
X113459320Y-32171122D01*
X113649796Y-32218741D01*
X113792653Y-32218741D01*
X113983129Y-32171122D01*
X114078367Y-32123503D01*
X114173605Y-32028265D01*
X114221224Y-31885408D01*
X114221224Y-31647312D01*
X113221224Y-33123503D02*
X113221224Y-32647312D01*
X113697415Y-32599693D01*
X113649796Y-32647312D01*
X113602177Y-32742550D01*
X113602177Y-32980646D01*
X113649796Y-33075884D01*
X113697415Y-33123503D01*
X113792653Y-33171122D01*
X114030748Y-33171122D01*
X114125986Y-33123503D01*
X114173605Y-33075884D01*
X114221224Y-32980646D01*
X114221224Y-32742550D01*
X114173605Y-32647312D01*
X114125986Y-32599693D01*
%TO.C,RGB5*%
X196669754Y-33861786D02*
X197003088Y-33385596D01*
X197241183Y-33861786D02*
X197241183Y-32861786D01*
X196860230Y-32861786D01*
X196764992Y-32909406D01*
X196717373Y-32957025D01*
X196669754Y-33052263D01*
X196669754Y-33195120D01*
X196717373Y-33290358D01*
X196764992Y-33337977D01*
X196860230Y-33385596D01*
X197241183Y-33385596D01*
X195717373Y-32909406D02*
X195812611Y-32861786D01*
X195955468Y-32861786D01*
X196098326Y-32909406D01*
X196193564Y-33004644D01*
X196241183Y-33099882D01*
X196288802Y-33290358D01*
X196288802Y-33433215D01*
X196241183Y-33623691D01*
X196193564Y-33718929D01*
X196098326Y-33814167D01*
X195955468Y-33861786D01*
X195860230Y-33861786D01*
X195717373Y-33814167D01*
X195669754Y-33766548D01*
X195669754Y-33433215D01*
X195860230Y-33433215D01*
X194907849Y-33337977D02*
X194764992Y-33385596D01*
X194717373Y-33433215D01*
X194669754Y-33528453D01*
X194669754Y-33671310D01*
X194717373Y-33766548D01*
X194764992Y-33814167D01*
X194860230Y-33861786D01*
X195241183Y-33861786D01*
X195241183Y-32861786D01*
X194907849Y-32861786D01*
X194812611Y-32909406D01*
X194764992Y-32957025D01*
X194717373Y-33052263D01*
X194717373Y-33147501D01*
X194764992Y-33242739D01*
X194812611Y-33290358D01*
X194907849Y-33337977D01*
X195241183Y-33337977D01*
X193764992Y-32861786D02*
X194241183Y-32861786D01*
X194288802Y-33337977D01*
X194241183Y-33290358D01*
X194145945Y-33242739D01*
X193907849Y-33242739D01*
X193812611Y-33290358D01*
X193764992Y-33337977D01*
X193717373Y-33433215D01*
X193717373Y-33671310D01*
X193764992Y-33766548D01*
X193812611Y-33814167D01*
X193907849Y-33861786D01*
X194145945Y-33861786D01*
X194241183Y-33814167D01*
X194288802Y-33766548D01*
X199367373Y-35761786D02*
X199938802Y-35761786D01*
X199653088Y-35761786D02*
X199653088Y-34761786D01*
X199748326Y-34904644D01*
X199843564Y-34999882D01*
X199938802Y-35047501D01*
%TO.C,D10*%
X209471304Y-31527929D02*
X208471304Y-31527929D01*
X208471304Y-31766024D01*
X208518924Y-31908881D01*
X208614162Y-32004119D01*
X208709400Y-32051738D01*
X208899876Y-32099357D01*
X209042733Y-32099357D01*
X209233209Y-32051738D01*
X209328447Y-32004119D01*
X209423685Y-31908881D01*
X209471304Y-31766024D01*
X209471304Y-31527929D01*
X209471304Y-33051738D02*
X209471304Y-32480310D01*
X209471304Y-32766024D02*
X208471304Y-32766024D01*
X208614162Y-32670786D01*
X208709400Y-32575548D01*
X208757019Y-32480310D01*
X208471304Y-33670786D02*
X208471304Y-33766024D01*
X208518924Y-33861262D01*
X208566543Y-33908881D01*
X208661781Y-33956500D01*
X208852257Y-34004119D01*
X209090352Y-34004119D01*
X209280828Y-33956500D01*
X209376066Y-33908881D01*
X209423685Y-33861262D01*
X209471304Y-33766024D01*
X209471304Y-33670786D01*
X209423685Y-33575548D01*
X209376066Y-33527929D01*
X209280828Y-33480310D01*
X209090352Y-33432691D01*
X208852257Y-33432691D01*
X208661781Y-33480310D01*
X208566543Y-33527929D01*
X208518924Y-33575548D01*
X208471304Y-33670786D01*
%TO.C,D29*%
X114221224Y-69271602D02*
X113221224Y-69271602D01*
X113221224Y-69509697D01*
X113268844Y-69652554D01*
X113364082Y-69747792D01*
X113459320Y-69795411D01*
X113649796Y-69843030D01*
X113792653Y-69843030D01*
X113983129Y-69795411D01*
X114078367Y-69747792D01*
X114173605Y-69652554D01*
X114221224Y-69509697D01*
X114221224Y-69271602D01*
X113316463Y-70223983D02*
X113268844Y-70271602D01*
X113221224Y-70366840D01*
X113221224Y-70604935D01*
X113268844Y-70700173D01*
X113316463Y-70747792D01*
X113411701Y-70795411D01*
X113506939Y-70795411D01*
X113649796Y-70747792D01*
X114221224Y-70176364D01*
X114221224Y-70795411D01*
X114221224Y-71271602D02*
X114221224Y-71462078D01*
X114173605Y-71557316D01*
X114125986Y-71604935D01*
X113983129Y-71700173D01*
X113792653Y-71747792D01*
X113411701Y-71747792D01*
X113316463Y-71700173D01*
X113268844Y-71652554D01*
X113221224Y-71557316D01*
X113221224Y-71366840D01*
X113268844Y-71271602D01*
X113316463Y-71223983D01*
X113411701Y-71176364D01*
X113649796Y-71176364D01*
X113745034Y-71223983D01*
X113792653Y-71271602D01*
X113840272Y-71366840D01*
X113840272Y-71557316D01*
X113792653Y-71652554D01*
X113745034Y-71700173D01*
X113649796Y-71747792D01*
%TO.C,D39*%
X76121192Y-88677977D02*
X75121192Y-88677977D01*
X75121192Y-88916072D01*
X75168812Y-89058929D01*
X75264050Y-89154167D01*
X75359288Y-89201786D01*
X75549764Y-89249405D01*
X75692621Y-89249405D01*
X75883097Y-89201786D01*
X75978335Y-89154167D01*
X76073573Y-89058929D01*
X76121192Y-88916072D01*
X76121192Y-88677977D01*
X75121192Y-89582739D02*
X75121192Y-90201786D01*
X75502145Y-89868453D01*
X75502145Y-90011310D01*
X75549764Y-90106548D01*
X75597383Y-90154167D01*
X75692621Y-90201786D01*
X75930716Y-90201786D01*
X76025954Y-90154167D01*
X76073573Y-90106548D01*
X76121192Y-90011310D01*
X76121192Y-89725596D01*
X76073573Y-89630358D01*
X76025954Y-89582739D01*
X76121192Y-90677977D02*
X76121192Y-90868453D01*
X76073573Y-90963691D01*
X76025954Y-91011310D01*
X75883097Y-91106548D01*
X75692621Y-91154167D01*
X75311669Y-91154167D01*
X75216431Y-91106548D01*
X75168812Y-91058929D01*
X75121192Y-90963691D01*
X75121192Y-90773215D01*
X75168812Y-90677977D01*
X75216431Y-90630358D01*
X75311669Y-90582739D01*
X75549764Y-90582739D01*
X75645002Y-90630358D01*
X75692621Y-90677977D01*
X75740240Y-90773215D01*
X75740240Y-90963691D01*
X75692621Y-91058929D01*
X75645002Y-91106548D01*
X75549764Y-91154167D01*
%TO.C,R6*%
X35409610Y-50241772D02*
X35742944Y-49765582D01*
X35981039Y-50241772D02*
X35981039Y-49241772D01*
X35600086Y-49241772D01*
X35504848Y-49289392D01*
X35457229Y-49337011D01*
X35409610Y-49432249D01*
X35409610Y-49575106D01*
X35457229Y-49670344D01*
X35504848Y-49717963D01*
X35600086Y-49765582D01*
X35981039Y-49765582D01*
X34552467Y-49241772D02*
X34742944Y-49241772D01*
X34838182Y-49289392D01*
X34885801Y-49337011D01*
X34981039Y-49479868D01*
X35028658Y-49670344D01*
X35028658Y-50051296D01*
X34981039Y-50146534D01*
X34933420Y-50194153D01*
X34838182Y-50241772D01*
X34647705Y-50241772D01*
X34552467Y-50194153D01*
X34504848Y-50146534D01*
X34457229Y-50051296D01*
X34457229Y-49813201D01*
X34504848Y-49717963D01*
X34552467Y-49670344D01*
X34647705Y-49622725D01*
X34838182Y-49622725D01*
X34933420Y-49670344D01*
X34981039Y-49717963D01*
X35028658Y-49813201D01*
%TO.C,C4*%
X54499999Y-46863060D02*
X54547618Y-46815441D01*
X54595237Y-46672584D01*
X54595237Y-46577346D01*
X54547618Y-46434488D01*
X54452380Y-46339250D01*
X54357142Y-46291631D01*
X54166666Y-46244012D01*
X54023809Y-46244012D01*
X53833333Y-46291631D01*
X53738095Y-46339250D01*
X53642857Y-46434488D01*
X53595237Y-46577346D01*
X53595237Y-46672584D01*
X53642857Y-46815441D01*
X53690476Y-46863060D01*
X53928571Y-47720203D02*
X54595237Y-47720203D01*
X53547618Y-47482107D02*
X54261904Y-47244012D01*
X54261904Y-47863060D01*
%TO.C,D41*%
X114221224Y-88677977D02*
X113221224Y-88677977D01*
X113221224Y-88916072D01*
X113268844Y-89058929D01*
X113364082Y-89154167D01*
X113459320Y-89201786D01*
X113649796Y-89249405D01*
X113792653Y-89249405D01*
X113983129Y-89201786D01*
X114078367Y-89154167D01*
X114173605Y-89058929D01*
X114221224Y-88916072D01*
X114221224Y-88677977D01*
X113554558Y-90106548D02*
X114221224Y-90106548D01*
X113173605Y-89868453D02*
X113887891Y-89630358D01*
X113887891Y-90249405D01*
X114221224Y-91154167D02*
X114221224Y-90582739D01*
X114221224Y-90868453D02*
X113221224Y-90868453D01*
X113364082Y-90773215D01*
X113459320Y-90677977D01*
X113506939Y-90582739D01*
%TO.C,D31*%
X152321256Y-69271602D02*
X151321256Y-69271602D01*
X151321256Y-69509697D01*
X151368876Y-69652554D01*
X151464114Y-69747792D01*
X151559352Y-69795411D01*
X151749828Y-69843030D01*
X151892685Y-69843030D01*
X152083161Y-69795411D01*
X152178399Y-69747792D01*
X152273637Y-69652554D01*
X152321256Y-69509697D01*
X152321256Y-69271602D01*
X151321256Y-70176364D02*
X151321256Y-70795411D01*
X151702209Y-70462078D01*
X151702209Y-70604935D01*
X151749828Y-70700173D01*
X151797447Y-70747792D01*
X151892685Y-70795411D01*
X152130780Y-70795411D01*
X152226018Y-70747792D01*
X152273637Y-70700173D01*
X152321256Y-70604935D01*
X152321256Y-70319221D01*
X152273637Y-70223983D01*
X152226018Y-70176364D01*
X152321256Y-71747792D02*
X152321256Y-71176364D01*
X152321256Y-71462078D02*
X151321256Y-71462078D01*
X151464114Y-71366840D01*
X151559352Y-71271602D01*
X151606971Y-71176364D01*
D11*
%TO.C,SW1*%
X21634398Y-26134398D02*
X21634398Y-26384398D01*
X21634398Y-26134398D02*
X21634398Y-23384398D01*
X21549133Y-23384398D02*
X21634398Y-23384398D01*
X21548612Y-22384398D02*
X21549133Y-23384398D01*
X31884398Y-24134398D02*
X26134398Y-24134398D01*
X31884398Y-20384398D02*
X23548612Y-20384398D01*
X25384398Y-26384398D02*
X25384398Y-24884398D01*
X31884398Y-20384398D02*
X31884398Y-24134398D01*
X21634398Y-23384398D02*
X21549133Y-23384398D01*
X21634398Y-26384398D02*
X25384398Y-26384398D01*
X23548612Y-20384398D02*
G75*
G03*
X21548612Y-22384398I-1J-1999999D01*
G01*
X26134398Y-24134398D02*
G75*
G03*
X25384398Y-24884398I0J-750000D01*
G01*
%TO.C,SW12*%
X231184574Y-26134398D02*
X231184574Y-26384398D01*
X241434574Y-20384398D02*
X241434574Y-24134398D01*
X241434574Y-24134398D02*
X235684574Y-24134398D01*
X231184574Y-26384398D02*
X234934574Y-26384398D01*
X234934574Y-26384398D02*
X234934574Y-24884398D01*
X241434574Y-20384398D02*
X233098788Y-20384398D01*
X231184574Y-23384398D02*
X231099309Y-23384398D01*
X231098788Y-22384398D02*
X231099309Y-23384398D01*
X231184574Y-26134398D02*
X231184574Y-23384398D01*
X231099309Y-23384398D02*
X231184574Y-23384398D01*
X235684574Y-24134398D02*
G75*
G03*
X234934574Y-24884398I0J-750000D01*
G01*
X233098788Y-20384398D02*
G75*
G03*
X231098788Y-22384398I-1J-1999999D01*
G01*
%TO.C,SW20*%
X154909245Y-42434414D02*
X154994510Y-42434414D01*
X154908724Y-41434414D02*
X154909245Y-42434414D01*
X165244510Y-43184414D02*
X159494510Y-43184414D01*
X154994510Y-45434414D02*
X158744510Y-45434414D01*
X158744510Y-45434414D02*
X158744510Y-43934414D01*
X165244510Y-39434414D02*
X156908724Y-39434414D01*
X165244510Y-39434414D02*
X165244510Y-43184414D01*
X154994510Y-42434414D02*
X154909245Y-42434414D01*
X154994510Y-45184414D02*
X154994510Y-45434414D01*
X154994510Y-45184414D02*
X154994510Y-42434414D01*
X159494510Y-43184414D02*
G75*
G03*
X158744510Y-43934414I0J-750000D01*
G01*
X156908724Y-39434414D02*
G75*
G03*
X154908724Y-41434414I-1J-1999999D01*
G01*
%TO.C,SW16*%
X89044446Y-39434414D02*
X89044446Y-43184414D01*
X78794446Y-42434414D02*
X78709181Y-42434414D01*
X78794446Y-45434414D02*
X82544446Y-45434414D01*
X78708660Y-41434414D02*
X78709181Y-42434414D01*
X78709181Y-42434414D02*
X78794446Y-42434414D01*
X89044446Y-39434414D02*
X80708660Y-39434414D01*
X89044446Y-43184414D02*
X83294446Y-43184414D01*
X82544446Y-45434414D02*
X82544446Y-43934414D01*
X78794446Y-45184414D02*
X78794446Y-45434414D01*
X78794446Y-45184414D02*
X78794446Y-42434414D01*
X80708660Y-39434414D02*
G75*
G03*
X78708660Y-41434414I-1J-1999999D01*
G01*
X83294446Y-43184414D02*
G75*
G03*
X82544446Y-43934414I0J-750000D01*
G01*
%TO.C,SW3*%
X60984430Y-34384398D02*
X69320216Y-34384398D01*
X71320216Y-32384398D02*
X71319695Y-31384398D01*
X71319695Y-31384398D02*
X71234430Y-31384398D01*
X71234430Y-28634398D02*
X71234430Y-28384398D01*
X71234430Y-28634398D02*
X71234430Y-31384398D01*
X71234430Y-31384398D02*
X71319695Y-31384398D01*
X71234430Y-28384398D02*
X67484430Y-28384398D01*
X67484430Y-28384398D02*
X67484430Y-29884398D01*
X60984430Y-30634398D02*
X66734430Y-30634398D01*
X60984430Y-34384398D02*
X60984430Y-30634398D01*
X69320216Y-34384398D02*
G75*
G03*
X71320216Y-32384398I1J1999999D01*
G01*
X66734430Y-30634398D02*
G75*
G03*
X67484430Y-29884398I0J750000D01*
G01*
%TO.C,SW6*%
X116894478Y-26384398D02*
X120644478Y-26384398D01*
X116808692Y-22384398D02*
X116809213Y-23384398D01*
X127144478Y-20384398D02*
X127144478Y-24134398D01*
X116894478Y-26134398D02*
X116894478Y-26384398D01*
X120644478Y-26384398D02*
X120644478Y-24884398D01*
X127144478Y-20384398D02*
X118808692Y-20384398D01*
X116894478Y-23384398D02*
X116809213Y-23384398D01*
X116809213Y-23384398D02*
X116894478Y-23384398D01*
X127144478Y-24134398D02*
X121394478Y-24134398D01*
X116894478Y-26134398D02*
X116894478Y-23384398D01*
X118808692Y-20384398D02*
G75*
G03*
X116808692Y-22384398I-1J-1999999D01*
G01*
X121394478Y-24134398D02*
G75*
G03*
X120644478Y-24884398I0J-750000D01*
G01*
%TO.C,SW4*%
X78708660Y-22384398D02*
X78709181Y-23384398D01*
X78794446Y-23384398D02*
X78709181Y-23384398D01*
X78794446Y-26384398D02*
X82544446Y-26384398D01*
X78794446Y-26134398D02*
X78794446Y-23384398D01*
X89044446Y-24134398D02*
X83294446Y-24134398D01*
X89044446Y-20384398D02*
X89044446Y-24134398D01*
X82544446Y-26384398D02*
X82544446Y-24884398D01*
X78709181Y-23384398D02*
X78794446Y-23384398D01*
X78794446Y-26134398D02*
X78794446Y-26384398D01*
X89044446Y-20384398D02*
X80708660Y-20384398D01*
X83294446Y-24134398D02*
G75*
G03*
X82544446Y-24884398I0J-750000D01*
G01*
X80708660Y-20384398D02*
G75*
G03*
X78708660Y-22384398I-1J-1999999D01*
G01*
%TO.C,SW23*%
X212144558Y-45184414D02*
X212144558Y-42434414D01*
X212144558Y-45434414D02*
X215894558Y-45434414D01*
X222394558Y-39434414D02*
X214058772Y-39434414D01*
X222394558Y-39434414D02*
X222394558Y-43184414D01*
X212144558Y-45184414D02*
X212144558Y-45434414D01*
X222394558Y-43184414D02*
X216644558Y-43184414D01*
X212058772Y-41434414D02*
X212059293Y-42434414D01*
X212144558Y-42434414D02*
X212059293Y-42434414D01*
X212059293Y-42434414D02*
X212144558Y-42434414D01*
X215894558Y-45434414D02*
X215894558Y-43934414D01*
X216644558Y-43184414D02*
G75*
G03*
X215894558Y-43934414I0J-750000D01*
G01*
X214058772Y-39434414D02*
G75*
G03*
X212058772Y-41434414I-1J-1999999D01*
G01*
%TO.C,SW35*%
X215884558Y-64484430D02*
X215884558Y-62984430D01*
X222384558Y-58484430D02*
X222384558Y-62234430D01*
X212134558Y-61484430D02*
X212049293Y-61484430D01*
X212134558Y-64234430D02*
X212134558Y-64484430D01*
X212134558Y-64484430D02*
X215884558Y-64484430D01*
X212134558Y-64234430D02*
X212134558Y-61484430D01*
X222384558Y-62234430D02*
X216634558Y-62234430D01*
X222384558Y-58484430D02*
X214048772Y-58484430D01*
X212049293Y-61484430D02*
X212134558Y-61484430D01*
X212048772Y-60484430D02*
X212049293Y-61484430D01*
X214048772Y-58484430D02*
G75*
G03*
X212048772Y-60484430I-1J-1999999D01*
G01*
X216634558Y-62234430D02*
G75*
G03*
X215884558Y-62984430I0J-750000D01*
G01*
%TO.C,SW46*%
X193094542Y-80534446D02*
X193009277Y-80534446D01*
X203344542Y-77534446D02*
X203344542Y-81284446D01*
X203344542Y-81284446D02*
X197594542Y-81284446D01*
X193094542Y-83284446D02*
X193094542Y-80534446D01*
X193009277Y-80534446D02*
X193094542Y-80534446D01*
X196844542Y-83534446D02*
X196844542Y-82034446D01*
X203344542Y-77534446D02*
X195008756Y-77534446D01*
X193094542Y-83284446D02*
X193094542Y-83534446D01*
X193094542Y-83534446D02*
X196844542Y-83534446D01*
X193008756Y-79534446D02*
X193009277Y-80534446D01*
X195008756Y-77534446D02*
G75*
G03*
X193008756Y-79534446I-1J-1999999D01*
G01*
X197594542Y-81284446D02*
G75*
G03*
X196844542Y-82034446I0J-750000D01*
G01*
%TO.C,SW10*%
X193009277Y-23384398D02*
X193094542Y-23384398D01*
X193094542Y-26134398D02*
X193094542Y-23384398D01*
X193008756Y-22384398D02*
X193009277Y-23384398D01*
X193094542Y-26134398D02*
X193094542Y-26384398D01*
X203344542Y-24134398D02*
X197594542Y-24134398D01*
X203344542Y-20384398D02*
X195008756Y-20384398D01*
X193094542Y-23384398D02*
X193009277Y-23384398D01*
X203344542Y-20384398D02*
X203344542Y-24134398D01*
X196844542Y-26384398D02*
X196844542Y-24884398D01*
X193094542Y-26384398D02*
X196844542Y-26384398D01*
X195008756Y-20384398D02*
G75*
G03*
X193008756Y-22384398I-1J-1999999D01*
G01*
X197594542Y-24134398D02*
G75*
G03*
X196844542Y-24884398I0J-750000D01*
G01*
%TO.C,SW27*%
X69994430Y-58484430D02*
X61658644Y-58484430D01*
X59744430Y-61484430D02*
X59659165Y-61484430D01*
X63494430Y-64484430D02*
X63494430Y-62984430D01*
X59659165Y-61484430D02*
X59744430Y-61484430D01*
X59744430Y-64234430D02*
X59744430Y-61484430D01*
X69994430Y-62234430D02*
X64244430Y-62234430D01*
X59744430Y-64484430D02*
X63494430Y-64484430D01*
X59658644Y-60484430D02*
X59659165Y-61484430D01*
X59744430Y-64234430D02*
X59744430Y-64484430D01*
X69994430Y-58484430D02*
X69994430Y-62234430D01*
X61658644Y-58484430D02*
G75*
G03*
X59658644Y-60484430I-1J-1999999D01*
G01*
X64244430Y-62234430D02*
G75*
G03*
X63494430Y-62984430I0J-750000D01*
G01*
%TO.C,SW40*%
X78699181Y-80534446D02*
X78784446Y-80534446D01*
X78784446Y-83284446D02*
X78784446Y-83534446D01*
X78784446Y-80534446D02*
X78699181Y-80534446D01*
X82534446Y-83534446D02*
X82534446Y-82034446D01*
X89034446Y-77534446D02*
X89034446Y-81284446D01*
X78698660Y-79534446D02*
X78699181Y-80534446D01*
X89034446Y-81284446D02*
X83284446Y-81284446D01*
X78784446Y-83284446D02*
X78784446Y-80534446D01*
X89034446Y-77534446D02*
X80698660Y-77534446D01*
X78784446Y-83534446D02*
X82534446Y-83534446D01*
X83284446Y-81284446D02*
G75*
G03*
X82534446Y-82034446I0J-750000D01*
G01*
X80698660Y-77534446D02*
G75*
G03*
X78698660Y-79534446I-1J-1999999D01*
G01*
%TO.C,SW2*%
X52184414Y-28634398D02*
X52184414Y-28384398D01*
X41934414Y-34384398D02*
X50270200Y-34384398D01*
X52184414Y-31384398D02*
X52269679Y-31384398D01*
X41934414Y-34384398D02*
X41934414Y-30634398D01*
X52270200Y-32384398D02*
X52269679Y-31384398D01*
X52184414Y-28384398D02*
X48434414Y-28384398D01*
X52184414Y-28634398D02*
X52184414Y-31384398D01*
X48434414Y-28384398D02*
X48434414Y-29884398D01*
X41934414Y-30634398D02*
X47684414Y-30634398D01*
X52269679Y-31384398D02*
X52184414Y-31384398D01*
X47684414Y-30634398D02*
G75*
G03*
X48434414Y-29884398I0J750000D01*
G01*
X50270200Y-34384398D02*
G75*
G03*
X52270200Y-32384398I1J1999999D01*
G01*
%TO.C,SW14*%
X44444414Y-45434414D02*
X44444414Y-43934414D01*
X50944414Y-43184414D02*
X45194414Y-43184414D01*
X40694414Y-45184414D02*
X40694414Y-45434414D01*
X40609149Y-42434414D02*
X40694414Y-42434414D01*
X40694414Y-45184414D02*
X40694414Y-42434414D01*
X40608628Y-41434414D02*
X40609149Y-42434414D01*
X50944414Y-39434414D02*
X42608628Y-39434414D01*
X40694414Y-45434414D02*
X44444414Y-45434414D01*
X50944414Y-39434414D02*
X50944414Y-43184414D01*
X40694414Y-42434414D02*
X40609149Y-42434414D01*
X45194414Y-43184414D02*
G75*
G03*
X44444414Y-43934414I0J-750000D01*
G01*
X42608628Y-39434414D02*
G75*
G03*
X40608628Y-41434414I-1J-1999999D01*
G01*
%TO.C,SW8*%
X158744510Y-26384398D02*
X158744510Y-24884398D01*
X154909245Y-23384398D02*
X154994510Y-23384398D01*
X154994510Y-26134398D02*
X154994510Y-26384398D01*
X154994510Y-23384398D02*
X154909245Y-23384398D01*
X165244510Y-20384398D02*
X165244510Y-24134398D01*
X165244510Y-20384398D02*
X156908724Y-20384398D01*
X154994510Y-26384398D02*
X158744510Y-26384398D01*
X165244510Y-24134398D02*
X159494510Y-24134398D01*
X154994510Y-26134398D02*
X154994510Y-23384398D01*
X154908724Y-22384398D02*
X154909245Y-23384398D01*
X156908724Y-20384398D02*
G75*
G03*
X154908724Y-22384398I-1J-1999999D01*
G01*
X159494510Y-24134398D02*
G75*
G03*
X158744510Y-24884398I0J-750000D01*
G01*
%TO.C,SW26*%
X40694414Y-64484430D02*
X44444414Y-64484430D01*
X40609149Y-61484430D02*
X40694414Y-61484430D01*
X40694414Y-64234430D02*
X40694414Y-61484430D01*
X50944414Y-58484430D02*
X50944414Y-62234430D01*
X40608628Y-60484430D02*
X40609149Y-61484430D01*
X40694414Y-61484430D02*
X40609149Y-61484430D01*
X44444414Y-64484430D02*
X44444414Y-62984430D01*
X50944414Y-58484430D02*
X42608628Y-58484430D01*
X50944414Y-62234430D02*
X45194414Y-62234430D01*
X40694414Y-64234430D02*
X40694414Y-64484430D01*
X45194414Y-62234430D02*
G75*
G03*
X44444414Y-62984430I0J-750000D01*
G01*
X42608628Y-58484430D02*
G75*
G03*
X40608628Y-60484430I-1J-1999999D01*
G01*
%TO.C,SW32*%
X154909245Y-61484430D02*
X154994510Y-61484430D01*
X165244510Y-62234430D02*
X159494510Y-62234430D01*
X154994510Y-64234430D02*
X154994510Y-64484430D01*
X154908724Y-60484430D02*
X154909245Y-61484430D01*
X154994510Y-61484430D02*
X154909245Y-61484430D01*
X165244510Y-58484430D02*
X156908724Y-58484430D01*
X165244510Y-58484430D02*
X165244510Y-62234430D01*
X154994510Y-64484430D02*
X158744510Y-64484430D01*
X154994510Y-64234430D02*
X154994510Y-61484430D01*
X158744510Y-64484430D02*
X158744510Y-62984430D01*
X159494510Y-62234430D02*
G75*
G03*
X158744510Y-62984430I0J-750000D01*
G01*
X156908724Y-58484430D02*
G75*
G03*
X154908724Y-60484430I-1J-1999999D01*
G01*
%TO.C,SW47*%
X222394558Y-77534446D02*
X222394558Y-81284446D01*
X212144558Y-83284446D02*
X212144558Y-80534446D01*
X212058772Y-79534446D02*
X212059293Y-80534446D01*
X212059293Y-80534446D02*
X212144558Y-80534446D01*
X212144558Y-83534446D02*
X215894558Y-83534446D01*
X215894558Y-83534446D02*
X215894558Y-82034446D01*
X212144558Y-83284446D02*
X212144558Y-83534446D01*
X222394558Y-77534446D02*
X214058772Y-77534446D01*
X212144558Y-80534446D02*
X212059293Y-80534446D01*
X222394558Y-81284446D02*
X216644558Y-81284446D01*
X214058772Y-77534446D02*
G75*
G03*
X212058772Y-79534446I-1J-1999999D01*
G01*
X216644558Y-81284446D02*
G75*
G03*
X215894558Y-82034446I0J-750000D01*
G01*
%TO.C,SW21*%
X184294526Y-39434414D02*
X175958740Y-39434414D01*
X173958740Y-41434414D02*
X173959261Y-42434414D01*
X174044526Y-42434414D02*
X173959261Y-42434414D01*
X184294526Y-39434414D02*
X184294526Y-43184414D01*
X174044526Y-45184414D02*
X174044526Y-45434414D01*
X174044526Y-45184414D02*
X174044526Y-42434414D01*
X177794526Y-45434414D02*
X177794526Y-43934414D01*
X184294526Y-43184414D02*
X178544526Y-43184414D01*
X174044526Y-45434414D02*
X177794526Y-45434414D01*
X173959261Y-42434414D02*
X174044526Y-42434414D01*
X178544526Y-43184414D02*
G75*
G03*
X177794526Y-43934414I0J-750000D01*
G01*
X175958740Y-39434414D02*
G75*
G03*
X173958740Y-41434414I-1J-1999999D01*
G01*
%TO.C,SW25*%
X21559133Y-61484430D02*
X21644398Y-61484430D01*
X31894398Y-62234430D02*
X26144398Y-62234430D01*
X21644398Y-61484430D02*
X21559133Y-61484430D01*
X21644398Y-64484430D02*
X25394398Y-64484430D01*
X31894398Y-58484430D02*
X23558612Y-58484430D01*
X25394398Y-64484430D02*
X25394398Y-62984430D01*
X31894398Y-58484430D02*
X31894398Y-62234430D01*
X21644398Y-64234430D02*
X21644398Y-64484430D01*
X21558612Y-60484430D02*
X21559133Y-61484430D01*
X21644398Y-64234430D02*
X21644398Y-61484430D01*
X23558612Y-58484430D02*
G75*
G03*
X21558612Y-60484430I-1J-1999999D01*
G01*
X26144398Y-62234430D02*
G75*
G03*
X25394398Y-62984430I0J-750000D01*
G01*
%TO.C,SW13*%
X25394398Y-45434414D02*
X25394398Y-43934414D01*
X21644398Y-45184414D02*
X21644398Y-45434414D01*
X31894398Y-39434414D02*
X31894398Y-43184414D01*
X21644398Y-42434414D02*
X21559133Y-42434414D01*
X21559133Y-42434414D02*
X21644398Y-42434414D01*
X31894398Y-43184414D02*
X26144398Y-43184414D01*
X21644398Y-45434414D02*
X25394398Y-45434414D01*
X21644398Y-45184414D02*
X21644398Y-42434414D01*
X31894398Y-39434414D02*
X23558612Y-39434414D01*
X21558612Y-41434414D02*
X21559133Y-42434414D01*
X26144398Y-43184414D02*
G75*
G03*
X25394398Y-43934414I0J-750000D01*
G01*
X23558612Y-39434414D02*
G75*
G03*
X21558612Y-41434414I-1J-1999999D01*
G01*
%TO.C,SW36*%
X231194574Y-64484430D02*
X234944574Y-64484430D01*
X231194574Y-64234430D02*
X231194574Y-61484430D01*
X231194574Y-61484430D02*
X231109309Y-61484430D01*
X231194574Y-64234430D02*
X231194574Y-64484430D01*
X231108788Y-60484430D02*
X231109309Y-61484430D01*
X241444574Y-62234430D02*
X235694574Y-62234430D01*
X241444574Y-58484430D02*
X241444574Y-62234430D01*
X231109309Y-61484430D02*
X231194574Y-61484430D01*
X241444574Y-58484430D02*
X233108788Y-58484430D01*
X234944574Y-64484430D02*
X234944574Y-62984430D01*
X235694574Y-62234430D02*
G75*
G03*
X234944574Y-62984430I0J-750000D01*
G01*
X233108788Y-58484430D02*
G75*
G03*
X231108788Y-60484430I-1J-1999999D01*
G01*
%TO.C,SW15*%
X69994430Y-43184414D02*
X64244430Y-43184414D01*
X59659165Y-42434414D02*
X59744430Y-42434414D01*
X59744430Y-45434414D02*
X63494430Y-45434414D01*
X63494430Y-45434414D02*
X63494430Y-43934414D01*
X59744430Y-45184414D02*
X59744430Y-45434414D01*
X69994430Y-39434414D02*
X69994430Y-43184414D01*
X59744430Y-42434414D02*
X59659165Y-42434414D01*
X69994430Y-39434414D02*
X61658644Y-39434414D01*
X59658644Y-41434414D02*
X59659165Y-42434414D01*
X59744430Y-45184414D02*
X59744430Y-42434414D01*
X61658644Y-39434414D02*
G75*
G03*
X59658644Y-41434414I-1J-1999999D01*
G01*
X64244430Y-43184414D02*
G75*
G03*
X63494430Y-43934414I0J-750000D01*
G01*
%TO.C,SW33*%
X177784526Y-64484430D02*
X177784526Y-62984430D01*
X173949261Y-61484430D02*
X174034526Y-61484430D01*
X174034526Y-61484430D02*
X173949261Y-61484430D01*
X173948740Y-60484430D02*
X173949261Y-61484430D01*
X184284526Y-62234430D02*
X178534526Y-62234430D01*
X174034526Y-64484430D02*
X177784526Y-64484430D01*
X174034526Y-64234430D02*
X174034526Y-61484430D01*
X184284526Y-58484430D02*
X175948740Y-58484430D01*
X184284526Y-58484430D02*
X184284526Y-62234430D01*
X174034526Y-64234430D02*
X174034526Y-64484430D01*
X175948740Y-58484430D02*
G75*
G03*
X173948740Y-60484430I-1J-1999999D01*
G01*
X178534526Y-62234430D02*
G75*
G03*
X177784526Y-62984430I0J-750000D01*
G01*
%TO.C,SW39*%
X63494430Y-83534446D02*
X63494430Y-82034446D01*
X59659165Y-80534446D02*
X59744430Y-80534446D01*
X59744430Y-83534446D02*
X63494430Y-83534446D01*
X59744430Y-83284446D02*
X59744430Y-80534446D01*
X69994430Y-77534446D02*
X61658644Y-77534446D01*
X59744430Y-80534446D02*
X59659165Y-80534446D01*
X69994430Y-81284446D02*
X64244430Y-81284446D01*
X69994430Y-77534446D02*
X69994430Y-81284446D01*
X59744430Y-83284446D02*
X59744430Y-83534446D01*
X59658644Y-79534446D02*
X59659165Y-80534446D01*
X61658644Y-77534446D02*
G75*
G03*
X59658644Y-79534446I-1J-1999999D01*
G01*
X64244430Y-81284446D02*
G75*
G03*
X63494430Y-82034446I0J-750000D01*
G01*
%TO.C,SW38*%
X50944414Y-77534446D02*
X50944414Y-81284446D01*
X50944414Y-81284446D02*
X45194414Y-81284446D01*
X40694414Y-83284446D02*
X40694414Y-80534446D01*
X40694414Y-83534446D02*
X44444414Y-83534446D01*
X40609149Y-80534446D02*
X40694414Y-80534446D01*
X40694414Y-80534446D02*
X40609149Y-80534446D01*
X44444414Y-83534446D02*
X44444414Y-82034446D01*
X40694414Y-83284446D02*
X40694414Y-83534446D01*
X40608628Y-79534446D02*
X40609149Y-80534446D01*
X50944414Y-77534446D02*
X42608628Y-77534446D01*
X45194414Y-81284446D02*
G75*
G03*
X44444414Y-82034446I0J-750000D01*
G01*
X42608628Y-77534446D02*
G75*
G03*
X40608628Y-79534446I-1J-1999999D01*
G01*
%TO.C,SW17*%
X108094462Y-39434414D02*
X99758676Y-39434414D01*
X97844462Y-45184414D02*
X97844462Y-42434414D01*
X97844462Y-45184414D02*
X97844462Y-45434414D01*
X108094462Y-39434414D02*
X108094462Y-43184414D01*
X97844462Y-42434414D02*
X97759197Y-42434414D01*
X97844462Y-45434414D02*
X101594462Y-45434414D01*
X97758676Y-41434414D02*
X97759197Y-42434414D01*
X108094462Y-43184414D02*
X102344462Y-43184414D01*
X97759197Y-42434414D02*
X97844462Y-42434414D01*
X101594462Y-45434414D02*
X101594462Y-43934414D01*
X102344462Y-43184414D02*
G75*
G03*
X101594462Y-43934414I0J-750000D01*
G01*
X99758676Y-39434414D02*
G75*
G03*
X97758676Y-41434414I-1J-1999999D01*
G01*
%TO.C,SW41*%
X108094462Y-77534446D02*
X99758676Y-77534446D01*
X108094462Y-77534446D02*
X108094462Y-81284446D01*
X97758676Y-79534446D02*
X97759197Y-80534446D01*
X97759197Y-80534446D02*
X97844462Y-80534446D01*
X97844462Y-83284446D02*
X97844462Y-80534446D01*
X108094462Y-81284446D02*
X102344462Y-81284446D01*
X101594462Y-83534446D02*
X101594462Y-82034446D01*
X97844462Y-83534446D02*
X101594462Y-83534446D01*
X97844462Y-80534446D02*
X97759197Y-80534446D01*
X97844462Y-83284446D02*
X97844462Y-83534446D01*
X99758676Y-77534446D02*
G75*
G03*
X97758676Y-79534446I-1J-1999999D01*
G01*
X102344462Y-81284446D02*
G75*
G03*
X101594462Y-82034446I0J-750000D01*
G01*
%TO.C,SW44*%
X154898724Y-79534446D02*
X154899245Y-80534446D01*
X158734510Y-83534446D02*
X158734510Y-82034446D01*
X154984510Y-83284446D02*
X154984510Y-83534446D01*
X165234510Y-77534446D02*
X156898724Y-77534446D01*
X154984510Y-80534446D02*
X154899245Y-80534446D01*
X154984510Y-83284446D02*
X154984510Y-80534446D01*
X154899245Y-80534446D02*
X154984510Y-80534446D01*
X165234510Y-77534446D02*
X165234510Y-81284446D01*
X154984510Y-83534446D02*
X158734510Y-83534446D01*
X165234510Y-81284446D02*
X159484510Y-81284446D01*
X159484510Y-81284446D02*
G75*
G03*
X158734510Y-82034446I0J-750000D01*
G01*
X156898724Y-77534446D02*
G75*
G03*
X154898724Y-79534446I-1J-1999999D01*
G01*
%TO.C,SW19*%
X146184494Y-39434414D02*
X137848708Y-39434414D01*
X135934494Y-45184414D02*
X135934494Y-42434414D01*
X146184494Y-39434414D02*
X146184494Y-43184414D01*
X135934494Y-42434414D02*
X135849229Y-42434414D01*
X139684494Y-45434414D02*
X139684494Y-43934414D01*
X135848708Y-41434414D02*
X135849229Y-42434414D01*
X135934494Y-45434414D02*
X139684494Y-45434414D01*
X135934494Y-45184414D02*
X135934494Y-45434414D01*
X135849229Y-42434414D02*
X135934494Y-42434414D01*
X146184494Y-43184414D02*
X140434494Y-43184414D01*
X137848708Y-39434414D02*
G75*
G03*
X135848708Y-41434414I-1J-1999999D01*
G01*
X140434494Y-43184414D02*
G75*
G03*
X139684494Y-43934414I0J-750000D01*
G01*
%TO.C,SW7*%
X139684494Y-26384398D02*
X139684494Y-24884398D01*
X135848708Y-22384398D02*
X135849229Y-23384398D01*
X146184494Y-20384398D02*
X137848708Y-20384398D01*
X135934494Y-26134398D02*
X135934494Y-23384398D01*
X135934494Y-23384398D02*
X135849229Y-23384398D01*
X135934494Y-26384398D02*
X139684494Y-26384398D01*
X146184494Y-24134398D02*
X140434494Y-24134398D01*
X135934494Y-26134398D02*
X135934494Y-26384398D01*
X135849229Y-23384398D02*
X135934494Y-23384398D01*
X146184494Y-20384398D02*
X146184494Y-24134398D01*
X137848708Y-20384398D02*
G75*
G03*
X135848708Y-22384398I-1J-1999999D01*
G01*
X140434494Y-24134398D02*
G75*
G03*
X139684494Y-24884398I0J-750000D01*
G01*
%TO.C,SW5*%
X108094462Y-24134398D02*
X102344462Y-24134398D01*
X97758676Y-22384398D02*
X97759197Y-23384398D01*
X108094462Y-20384398D02*
X108094462Y-24134398D01*
X97844462Y-23384398D02*
X97759197Y-23384398D01*
X97844462Y-26384398D02*
X101594462Y-26384398D01*
X101594462Y-26384398D02*
X101594462Y-24884398D01*
X97844462Y-26134398D02*
X97844462Y-26384398D01*
X97759197Y-23384398D02*
X97844462Y-23384398D01*
X108094462Y-20384398D02*
X99758676Y-20384398D01*
X97844462Y-26134398D02*
X97844462Y-23384398D01*
X102344462Y-24134398D02*
G75*
G03*
X101594462Y-24884398I0J-750000D01*
G01*
X99758676Y-20384398D02*
G75*
G03*
X97758676Y-22384398I-1J-1999999D01*
G01*
%TO.C,SW45*%
X174044526Y-83284446D02*
X174044526Y-83534446D01*
X174044526Y-80534446D02*
X173959261Y-80534446D01*
X173958740Y-79534446D02*
X173959261Y-80534446D01*
X184294526Y-77534446D02*
X184294526Y-81284446D01*
X173959261Y-80534446D02*
X174044526Y-80534446D01*
X177794526Y-83534446D02*
X177794526Y-82034446D01*
X184294526Y-77534446D02*
X175958740Y-77534446D01*
X174044526Y-83534446D02*
X177794526Y-83534446D01*
X174044526Y-83284446D02*
X174044526Y-80534446D01*
X184294526Y-81284446D02*
X178544526Y-81284446D01*
X178544526Y-81284446D02*
G75*
G03*
X177794526Y-82034446I0J-750000D01*
G01*
X175958740Y-77534446D02*
G75*
G03*
X173958740Y-79534446I-1J-1999999D01*
G01*
%TO.C,SW34*%
X193009277Y-61484430D02*
X193094542Y-61484430D01*
X193094542Y-64484430D02*
X196844542Y-64484430D01*
X193094542Y-64234430D02*
X193094542Y-64484430D01*
X203344542Y-58484430D02*
X195008756Y-58484430D01*
X193008756Y-60484430D02*
X193009277Y-61484430D01*
X203344542Y-62234430D02*
X197594542Y-62234430D01*
X203344542Y-58484430D02*
X203344542Y-62234430D01*
X196844542Y-64484430D02*
X196844542Y-62984430D01*
X193094542Y-64234430D02*
X193094542Y-61484430D01*
X193094542Y-61484430D02*
X193009277Y-61484430D01*
X195008756Y-58484430D02*
G75*
G03*
X193008756Y-60484430I-1J-1999999D01*
G01*
X197594542Y-62234430D02*
G75*
G03*
X196844542Y-62984430I0J-750000D01*
G01*
%TO.C,SW28*%
X78784446Y-64234430D02*
X78784446Y-64484430D01*
X78698660Y-60484430D02*
X78699181Y-61484430D01*
X78784446Y-61484430D02*
X78699181Y-61484430D01*
X89034446Y-62234430D02*
X83284446Y-62234430D01*
X78699181Y-61484430D02*
X78784446Y-61484430D01*
X82534446Y-64484430D02*
X82534446Y-62984430D01*
X78784446Y-64484430D02*
X82534446Y-64484430D01*
X89034446Y-58484430D02*
X89034446Y-62234430D01*
X89034446Y-58484430D02*
X80698660Y-58484430D01*
X78784446Y-64234430D02*
X78784446Y-61484430D01*
X83284446Y-62234430D02*
G75*
G03*
X82534446Y-62984430I0J-750000D01*
G01*
X80698660Y-58484430D02*
G75*
G03*
X78698660Y-60484430I-1J-1999999D01*
G01*
%TO.C,SW9*%
X173958740Y-22384398D02*
X173959261Y-23384398D01*
X174044526Y-26134398D02*
X174044526Y-26384398D01*
X184294526Y-20384398D02*
X175958740Y-20384398D01*
X177794526Y-26384398D02*
X177794526Y-24884398D01*
X184294526Y-24134398D02*
X178544526Y-24134398D01*
X184294526Y-20384398D02*
X184294526Y-24134398D01*
X173959261Y-23384398D02*
X174044526Y-23384398D01*
X174044526Y-26134398D02*
X174044526Y-23384398D01*
X174044526Y-26384398D02*
X177794526Y-26384398D01*
X174044526Y-23384398D02*
X173959261Y-23384398D01*
X175958740Y-20384398D02*
G75*
G03*
X173958740Y-22384398I-1J-1999999D01*
G01*
X178544526Y-24134398D02*
G75*
G03*
X177794526Y-24884398I0J-750000D01*
G01*
%TO.C,SW24*%
X231109309Y-42434414D02*
X231194574Y-42434414D01*
X231108788Y-41434414D02*
X231109309Y-42434414D01*
X241444574Y-39434414D02*
X241444574Y-43184414D01*
X241444574Y-39434414D02*
X233108788Y-39434414D01*
X231194574Y-45184414D02*
X231194574Y-42434414D01*
X231194574Y-45184414D02*
X231194574Y-45434414D01*
X241444574Y-43184414D02*
X235694574Y-43184414D01*
X231194574Y-42434414D02*
X231109309Y-42434414D01*
X234944574Y-45434414D02*
X234944574Y-43934414D01*
X231194574Y-45434414D02*
X234944574Y-45434414D01*
X235694574Y-43184414D02*
G75*
G03*
X234944574Y-43934414I0J-750000D01*
G01*
X233108788Y-39434414D02*
G75*
G03*
X231108788Y-41434414I-1J-1999999D01*
G01*
%TO.C,SW48*%
X231108788Y-79534446D02*
X231109309Y-80534446D01*
X231194574Y-83284446D02*
X231194574Y-83534446D01*
X231109309Y-80534446D02*
X231194574Y-80534446D01*
X231194574Y-80534446D02*
X231109309Y-80534446D01*
X234944574Y-83534446D02*
X234944574Y-82034446D01*
X231194574Y-83284446D02*
X231194574Y-80534446D01*
X241444574Y-77534446D02*
X241444574Y-81284446D01*
X231194574Y-83534446D02*
X234944574Y-83534446D01*
X241444574Y-77534446D02*
X233108788Y-77534446D01*
X241444574Y-81284446D02*
X235694574Y-81284446D01*
X233108788Y-77534446D02*
G75*
G03*
X231108788Y-79534446I-1J-1999999D01*
G01*
X235694574Y-81284446D02*
G75*
G03*
X234944574Y-82034446I0J-750000D01*
G01*
%TO.C,SW29*%
X97844462Y-64234430D02*
X97844462Y-64484430D01*
X97844462Y-64234430D02*
X97844462Y-61484430D01*
X101594462Y-64484430D02*
X101594462Y-62984430D01*
X97759197Y-61484430D02*
X97844462Y-61484430D01*
X97844462Y-64484430D02*
X101594462Y-64484430D01*
X108094462Y-62234430D02*
X102344462Y-62234430D01*
X108094462Y-58484430D02*
X108094462Y-62234430D01*
X108094462Y-58484430D02*
X99758676Y-58484430D01*
X97844462Y-61484430D02*
X97759197Y-61484430D01*
X97758676Y-60484430D02*
X97759197Y-61484430D01*
X99758676Y-58484430D02*
G75*
G03*
X97758676Y-60484430I-1J-1999999D01*
G01*
X102344462Y-62234430D02*
G75*
G03*
X101594462Y-62984430I0J-750000D01*
G01*
%TO.C,SW18*%
X116894478Y-42434414D02*
X116809213Y-42434414D01*
X116808692Y-41434414D02*
X116809213Y-42434414D01*
X116894478Y-45184414D02*
X116894478Y-45434414D01*
X127144478Y-39434414D02*
X127144478Y-43184414D01*
X127144478Y-39434414D02*
X118808692Y-39434414D01*
X116809213Y-42434414D02*
X116894478Y-42434414D01*
X116894478Y-45434414D02*
X120644478Y-45434414D01*
X116894478Y-45184414D02*
X116894478Y-42434414D01*
X127144478Y-43184414D02*
X121394478Y-43184414D01*
X120644478Y-45434414D02*
X120644478Y-43934414D01*
X118808692Y-39434414D02*
G75*
G03*
X116808692Y-41434414I-1J-1999999D01*
G01*
X121394478Y-43184414D02*
G75*
G03*
X120644478Y-43934414I0J-750000D01*
G01*
%TO.C,SW22*%
X193009277Y-42434414D02*
X193094542Y-42434414D01*
X193094542Y-45184414D02*
X193094542Y-42434414D01*
X193094542Y-45434414D02*
X196844542Y-45434414D01*
X193008756Y-41434414D02*
X193009277Y-42434414D01*
X203344542Y-39434414D02*
X195008756Y-39434414D01*
X196844542Y-45434414D02*
X196844542Y-43934414D01*
X203344542Y-43184414D02*
X197594542Y-43184414D01*
X203344542Y-39434414D02*
X203344542Y-43184414D01*
X193094542Y-42434414D02*
X193009277Y-42434414D01*
X193094542Y-45184414D02*
X193094542Y-45434414D01*
X197594542Y-43184414D02*
G75*
G03*
X196844542Y-43934414I0J-750000D01*
G01*
X195008756Y-39434414D02*
G75*
G03*
X193008756Y-41434414I-1J-1999999D01*
G01*
%TO.C,SW37*%
X31894398Y-81284446D02*
X26144398Y-81284446D01*
X21559133Y-80534446D02*
X21644398Y-80534446D01*
X21644398Y-80534446D02*
X21559133Y-80534446D01*
X31894398Y-77534446D02*
X31894398Y-81284446D01*
X31894398Y-77534446D02*
X23558612Y-77534446D01*
X21644398Y-83284446D02*
X21644398Y-83534446D01*
X25394398Y-83534446D02*
X25394398Y-82034446D01*
X21644398Y-83534446D02*
X25394398Y-83534446D01*
X21558612Y-79534446D02*
X21559133Y-80534446D01*
X21644398Y-83284446D02*
X21644398Y-80534446D01*
X26144398Y-81284446D02*
G75*
G03*
X25394398Y-82034446I0J-750000D01*
G01*
X23558612Y-77534446D02*
G75*
G03*
X21558612Y-79534446I-1J-1999999D01*
G01*
%TO.C,SW11*%
X222394558Y-20384398D02*
X214058772Y-20384398D01*
X212144558Y-26134398D02*
X212144558Y-23384398D01*
X222394558Y-24134398D02*
X216644558Y-24134398D01*
X212144558Y-23384398D02*
X212059293Y-23384398D01*
X212059293Y-23384398D02*
X212144558Y-23384398D01*
X212144558Y-26134398D02*
X212144558Y-26384398D01*
X222394558Y-20384398D02*
X222394558Y-24134398D01*
X212144558Y-26384398D02*
X215894558Y-26384398D01*
X212058772Y-22384398D02*
X212059293Y-23384398D01*
X215894558Y-26384398D02*
X215894558Y-24884398D01*
X214058772Y-20384398D02*
G75*
G03*
X212058772Y-22384398I-1J-1999999D01*
G01*
X216644558Y-24134398D02*
G75*
G03*
X215894558Y-24884398I0J-750000D01*
G01*
%TO.C,SW30*%
X127144478Y-62234430D02*
X121394478Y-62234430D01*
X127144478Y-58484430D02*
X118808692Y-58484430D01*
X116894478Y-64234430D02*
X116894478Y-61484430D01*
X116894478Y-61484430D02*
X116809213Y-61484430D01*
X120644478Y-64484430D02*
X120644478Y-62984430D01*
X116809213Y-61484430D02*
X116894478Y-61484430D01*
X127144478Y-58484430D02*
X127144478Y-62234430D01*
X116894478Y-64234430D02*
X116894478Y-64484430D01*
X116808692Y-60484430D02*
X116809213Y-61484430D01*
X116894478Y-64484430D02*
X120644478Y-64484430D01*
X118808692Y-58484430D02*
G75*
G03*
X116808692Y-60484430I-1J-1999999D01*
G01*
X121394478Y-62234430D02*
G75*
G03*
X120644478Y-62984430I0J-750000D01*
G01*
%TO.C,SW31*%
X135849229Y-61484430D02*
X135934494Y-61484430D01*
X146184494Y-62234430D02*
X140434494Y-62234430D01*
X146184494Y-58484430D02*
X146184494Y-62234430D01*
X135934494Y-61484430D02*
X135849229Y-61484430D01*
X135934494Y-64484430D02*
X139684494Y-64484430D01*
X135934494Y-64234430D02*
X135934494Y-64484430D01*
X146184494Y-58484430D02*
X137848708Y-58484430D01*
X135934494Y-64234430D02*
X135934494Y-61484430D01*
X139684494Y-64484430D02*
X139684494Y-62984430D01*
X135848708Y-60484430D02*
X135849229Y-61484430D01*
X140434494Y-62234430D02*
G75*
G03*
X139684494Y-62984430I0J-750000D01*
G01*
X137848708Y-58484430D02*
G75*
G03*
X135848708Y-60484430I-1J-1999999D01*
G01*
%TO.C,D35*%
X227068940Y-71985888D02*
X225368940Y-71985888D01*
X227068940Y-71985888D02*
X227068940Y-69435888D01*
X225368940Y-71985888D02*
X225368940Y-69435888D01*
%TO.C,D40*%
X92018828Y-91392263D02*
X92018828Y-88842263D01*
X93718828Y-91392263D02*
X92018828Y-91392263D01*
X93718828Y-91392263D02*
X93718828Y-88842263D01*
%TO.C,D21*%
X187268908Y-53292231D02*
X187268908Y-50742231D01*
X188968908Y-53292231D02*
X188968908Y-50742231D01*
X188968908Y-53292231D02*
X187268908Y-53292231D01*
%TO.C,C15*%
X31942164Y-38490000D02*
X32157836Y-38490000D01*
X31942164Y-39210000D02*
X32157836Y-39210000D01*
%TO.C,U2*%
X52349422Y-50618170D02*
X52349422Y-49968170D01*
X52349422Y-56538170D02*
X52349422Y-57188170D01*
X59569422Y-49968170D02*
X58919422Y-49968170D01*
X59569422Y-56538170D02*
X59569422Y-57188170D01*
X59569422Y-57188170D02*
X58919422Y-57188170D01*
X52349422Y-57188170D02*
X52999422Y-57188170D01*
X59569422Y-50618170D02*
X59569422Y-49968170D01*
%TO.C,R5*%
X64673804Y-21277627D02*
X64673804Y-21584909D01*
X63913804Y-21277627D02*
X63913804Y-21584909D01*
%TO.C,D32*%
X169918892Y-72342247D02*
X169918892Y-69792247D01*
X169918892Y-72342247D02*
X168218892Y-72342247D01*
X168218892Y-72342247D02*
X168218892Y-69792247D01*
%TO.C,C9*%
X56790048Y-47137563D02*
X56790048Y-46921891D01*
X57510048Y-47137563D02*
X57510048Y-46921891D01*
%TO.C,RGB10*%
X116759470Y-77759438D02*
X109459470Y-77759438D01*
X116759470Y-72259438D02*
X109459470Y-72259438D01*
X109459470Y-77759438D02*
X109459470Y-76609438D01*
%TO.C,R3*%
X74794125Y-32895856D02*
X74794125Y-32588574D01*
X74034125Y-32895856D02*
X74034125Y-32588574D01*
%TO.C,D30*%
X130118860Y-72342247D02*
X130118860Y-69792247D01*
X131818860Y-72342247D02*
X130118860Y-72342247D01*
X131818860Y-72342247D02*
X131818860Y-69792247D01*
%TO.C,Y1*%
X70524049Y-55887723D02*
X67342068Y-52705742D01*
X67342068Y-52705742D02*
X71160445Y-48887365D01*
%TO.C,D34*%
X208018924Y-72342247D02*
X206318924Y-72342247D01*
X208018924Y-72342247D02*
X208018924Y-69792247D01*
X206318924Y-72342247D02*
X206318924Y-69792247D01*
%TO.C,D1*%
X35973467Y-28289085D02*
X35973467Y-25739085D01*
X35973467Y-28289085D02*
X34273467Y-28289085D01*
X34273467Y-28289085D02*
X34273467Y-25739085D01*
%TO.C,RGB6*%
X224751848Y-34159406D02*
X217451848Y-34159406D01*
X217451848Y-39659406D02*
X217451848Y-38509406D01*
X224751848Y-39659406D02*
X217451848Y-39659406D01*
%TO.C,C7*%
X56790048Y-60018777D02*
X56790048Y-60234449D01*
X57510048Y-60018777D02*
X57510048Y-60234449D01*
%TO.C,D4*%
X93718828Y-31265650D02*
X93718828Y-28715650D01*
X92018828Y-31265650D02*
X92018828Y-28715650D01*
X93718828Y-31265650D02*
X92018828Y-31265650D01*
%TO.C,D3*%
X70295592Y-32249792D02*
X72845592Y-32249792D01*
X70295592Y-33949792D02*
X70295592Y-32249792D01*
X70295592Y-33949792D02*
X72845592Y-33949792D01*
%TO.C,C13*%
X73488002Y-53399863D02*
X73640505Y-53247360D01*
X73997119Y-53908980D02*
X74149622Y-53756477D01*
%TO.C,D9*%
X188968908Y-33885408D02*
X188968908Y-31335408D01*
X188968908Y-33885408D02*
X187268908Y-33885408D01*
X187268908Y-33885408D02*
X187268908Y-31335408D01*
%TO.C,D17*%
X112768844Y-53292231D02*
X111068844Y-53292231D01*
X112768844Y-53292231D02*
X112768844Y-50742231D01*
X111068844Y-53292231D02*
X111068844Y-50742231D01*
%TO.C,D11*%
X227068940Y-33885408D02*
X227068940Y-31335408D01*
X225368940Y-33885408D02*
X225368940Y-31335408D01*
X227068940Y-33885408D02*
X225368940Y-33885408D01*
%TO.C,C12*%
X68878001Y-49675482D02*
X68725498Y-49827985D01*
X69387118Y-50184599D02*
X69234615Y-50337102D01*
%TO.C,D6*%
X130118860Y-34242215D02*
X130118860Y-31692215D01*
X131818860Y-34242215D02*
X130118860Y-34242215D01*
X131818860Y-34242215D02*
X131818860Y-31692215D01*
%TO.C,D14*%
X56214109Y-43171910D02*
X54514109Y-43171910D01*
X54514109Y-43171910D02*
X54514109Y-40621910D01*
X56214109Y-43171910D02*
X56214109Y-40621910D01*
%TO.C,U3*%
X29051616Y-56303170D02*
X31776616Y-56303170D01*
X31776616Y-51113170D02*
X33451616Y-51113170D01*
X29051616Y-50853170D02*
X31776616Y-50853170D01*
X29051616Y-56303170D02*
X26326616Y-56303170D01*
X26326616Y-56303170D02*
X26326616Y-56043170D01*
X31776616Y-56303170D02*
X31776616Y-56043170D01*
X31776616Y-50853170D02*
X31776616Y-51113170D01*
X29051616Y-50853170D02*
X26326616Y-50853170D01*
X26326616Y-50853170D02*
X26326616Y-51113170D01*
%TO.C,D44*%
X169918892Y-91392263D02*
X168218892Y-91392263D01*
X169918892Y-91392263D02*
X169918892Y-88842263D01*
X168218892Y-91392263D02*
X168218892Y-88842263D01*
%TO.C,RGB7*%
X224870912Y-77759438D02*
X217570912Y-77759438D01*
X224870912Y-72259438D02*
X217570912Y-72259438D01*
X217570912Y-77759438D02*
X217570912Y-76609438D01*
%TO.C,D7*%
X149168876Y-33885408D02*
X149168876Y-31335408D01*
X150868876Y-33885408D02*
X149168876Y-33885408D01*
X150868876Y-33885408D02*
X150868876Y-31335408D01*
%TO.C,RGB9*%
X154859502Y-72259438D02*
X147559502Y-72259438D01*
X154859502Y-77759438D02*
X147559502Y-77759438D01*
X147559502Y-77759438D02*
X147559502Y-76609438D01*
%TO.C,D45*%
X188968908Y-91392263D02*
X188968908Y-88842263D01*
X188968908Y-91392263D02*
X187268908Y-91392263D01*
X187268908Y-91392263D02*
X187268908Y-88842263D01*
%TO.C,D13*%
X35973467Y-46743788D02*
X35973467Y-44193788D01*
X35973467Y-46743788D02*
X34273467Y-46743788D01*
X34273467Y-46743788D02*
X34273467Y-44193788D01*
%TO.C,D27*%
X74668812Y-71747760D02*
X74668812Y-69197760D01*
X72968812Y-71747760D02*
X72968812Y-69197760D01*
X74668812Y-71747760D02*
X72968812Y-71747760D01*
%TO.C,D24*%
X227750192Y-53054712D02*
X227750192Y-50504712D01*
X229450192Y-53054712D02*
X227750192Y-53054712D01*
X229450192Y-53054712D02*
X229450192Y-50504712D01*
%TO.C,C8*%
X62995342Y-52622857D02*
X63211014Y-52622857D01*
X62995342Y-53342857D02*
X63211014Y-53342857D01*
%TO.C,D46*%
X208018924Y-91392263D02*
X208018924Y-88842263D01*
X208018924Y-91392263D02*
X206318924Y-91392263D01*
X206318924Y-91392263D02*
X206318924Y-88842263D01*
%TO.C,RGB4*%
X154859502Y-39659406D02*
X147559502Y-39659406D01*
X154859502Y-34159406D02*
X147559502Y-34159406D01*
X147559502Y-39659406D02*
X147559502Y-38509406D01*
%TO.C,C14*%
X21791268Y-32634379D02*
X21791268Y-32850051D01*
X21071268Y-32634379D02*
X21071268Y-32850051D01*
%TO.C,D42*%
X141343868Y-91392263D02*
X141343868Y-88842263D01*
X141343868Y-91392263D02*
X139643868Y-91392263D01*
X139643868Y-91392263D02*
X139643868Y-88842263D01*
%TO.C,D8*%
X168218892Y-34242215D02*
X168218892Y-31692215D01*
X169918892Y-34242215D02*
X168218892Y-34242215D01*
X169918892Y-34242215D02*
X169918892Y-31692215D01*
%TO.C,RGB3*%
X109459470Y-39659406D02*
X109459470Y-38509406D01*
X116759470Y-34159406D02*
X109459470Y-34159406D01*
X116759470Y-39659406D02*
X109459470Y-39659406D01*
%TO.C,RGB12*%
X46751168Y-77879384D02*
X39451168Y-77879384D01*
X46751168Y-72379384D02*
X39451168Y-72379384D01*
X39451168Y-77879384D02*
X39451168Y-76729384D01*
%TO.C,C1*%
X48328189Y-55004109D02*
X48112517Y-55004109D01*
X48328189Y-55724109D02*
X48112517Y-55724109D01*
%TO.C,D2*%
X55618796Y-36028154D02*
X55618796Y-33478154D01*
X55618796Y-36028154D02*
X53918796Y-36028154D01*
X53918796Y-36028154D02*
X53918796Y-33478154D01*
%TO.C,D12*%
X227750192Y-33885408D02*
X227750192Y-31335408D01*
X229450192Y-33885408D02*
X229450192Y-31335408D01*
X229450192Y-33885408D02*
X227750192Y-33885408D01*
%TO.C,C16*%
X23452800Y-51565940D02*
X23452800Y-51781612D01*
X24172800Y-51565940D02*
X24172800Y-51781612D01*
%TO.C,D15*%
X73478186Y-46148475D02*
X73478186Y-43598475D01*
X71778186Y-46148475D02*
X71778186Y-43598475D01*
X73478186Y-46148475D02*
X71778186Y-46148475D01*
%TO.C,C11*%
X48328189Y-56914735D02*
X48112517Y-56914735D01*
X48328189Y-56194735D02*
X48112517Y-56194735D01*
%TO.C,C6*%
X48328189Y-58105361D02*
X48112517Y-58105361D01*
X48328189Y-57385361D02*
X48112517Y-57385361D01*
%TO.C,D37*%
X36568780Y-91392263D02*
X36568780Y-88842263D01*
X34868780Y-91392263D02*
X34868780Y-88842263D01*
X36568780Y-91392263D02*
X34868780Y-91392263D01*
%TO.C,C2*%
X48328189Y-51432231D02*
X48112517Y-51432231D01*
X48328189Y-52152231D02*
X48112517Y-52152231D01*
%TO.C,RGB2*%
X65049928Y-39659406D02*
X65049928Y-38509406D01*
X72349928Y-34159406D02*
X65049928Y-34159406D01*
X72349928Y-39659406D02*
X65049928Y-39659406D01*
%TO.C,R4*%
X47245040Y-21277627D02*
X47245040Y-21584909D01*
X48005040Y-21277627D02*
X48005040Y-21584909D01*
%TO.C,D36*%
X229450192Y-71985888D02*
X227750192Y-71985888D01*
X229450192Y-71985888D02*
X229450192Y-69435888D01*
X227750192Y-71985888D02*
X227750192Y-69435888D01*
%TO.C,D26*%
X53918796Y-72342247D02*
X53918796Y-69792247D01*
X55618796Y-72342247D02*
X55618796Y-69792247D01*
X55618796Y-72342247D02*
X53918796Y-72342247D01*
%TO.C,D28*%
X92018828Y-72342247D02*
X92018828Y-69792247D01*
X93718828Y-72342247D02*
X92018828Y-72342247D01*
X93718828Y-72342247D02*
X93718828Y-69792247D01*
%TO.C,C10*%
X62995342Y-54533483D02*
X63211014Y-54533483D01*
X62995342Y-53813483D02*
X63211014Y-53813483D01*
%TO.C,D20*%
X169918892Y-53292231D02*
X169918892Y-50742231D01*
X168218892Y-53292231D02*
X168218892Y-50742231D01*
X169918892Y-53292231D02*
X168218892Y-53292231D01*
%TO.C,D22*%
X206318924Y-53292231D02*
X206318924Y-50742231D01*
X208018924Y-53292231D02*
X206318924Y-53292231D01*
X208018924Y-53292231D02*
X208018924Y-50742231D01*
%TO.C,D23*%
X225368940Y-53054712D02*
X225368940Y-50504712D01*
X227068940Y-53054712D02*
X227068940Y-50504712D01*
X227068940Y-53054712D02*
X225368940Y-53054712D01*
%TO.C,RGB11*%
X72468992Y-77759438D02*
X65168992Y-77759438D01*
X72468992Y-72259438D02*
X65168992Y-72259438D01*
X65168992Y-77759438D02*
X65168992Y-76609438D01*
%TO.C,U1*%
X26725024Y-31118154D02*
X30485024Y-31118154D01*
X30485024Y-37938154D02*
X30485024Y-36678154D01*
X24475024Y-37938154D02*
X30485024Y-37938154D01*
X30485024Y-31118154D02*
X30485024Y-32378154D01*
%TO.C,R2*%
X72107502Y-54752079D02*
X71890221Y-54969360D01*
X72644903Y-55289480D02*
X72427622Y-55506761D01*
%TO.C,J2*%
X85784446Y-37873467D02*
X83284446Y-37873467D01*
X82834446Y-37423467D02*
X83284446Y-37873467D01*
X82834446Y-32823467D02*
X83284446Y-32373467D01*
X87284446Y-34123467D02*
X87284446Y-36123467D01*
X81784446Y-34123467D02*
X81784446Y-36123467D01*
X85784446Y-32373467D02*
X83284446Y-32373467D01*
X86234446Y-37423467D02*
X85784446Y-37873467D01*
X86234446Y-32823467D02*
X85784446Y-32373467D01*
%TO.C,C3*%
X48328189Y-53342857D02*
X48112517Y-53342857D01*
X48328189Y-52622857D02*
X48112517Y-52622857D01*
%TO.C,D33*%
X187268908Y-71390568D02*
X187268908Y-68840568D01*
X188968908Y-71390568D02*
X187268908Y-71390568D01*
X188968908Y-71390568D02*
X188968908Y-68840568D01*
%TO.C,RGB1*%
X46751168Y-34159406D02*
X39451168Y-34159406D01*
X39451168Y-39659406D02*
X39451168Y-38509406D01*
X46751168Y-39659406D02*
X39451168Y-39659406D01*
%TO.C,D48*%
X229450192Y-91392263D02*
X229450192Y-88842263D01*
X227750192Y-91392263D02*
X227750192Y-88842263D01*
X229450192Y-91392263D02*
X227750192Y-91392263D01*
%TO.C,D16*%
X93718828Y-53292231D02*
X92018828Y-53292231D01*
X93718828Y-53292231D02*
X93718828Y-50742231D01*
X92018828Y-53292231D02*
X92018828Y-50742231D01*
%TO.C,D25*%
X34868780Y-71985888D02*
X34868780Y-69435888D01*
X36568780Y-71985888D02*
X34868780Y-71985888D01*
X36568780Y-71985888D02*
X36568780Y-69435888D01*
%TO.C,D19*%
X150868876Y-53292231D02*
X149168876Y-53292231D01*
X149168876Y-53292231D02*
X149168876Y-50742231D01*
X150868876Y-53292231D02*
X150868876Y-50742231D01*
%TO.C,C5*%
X50907836Y-57340000D02*
X50692164Y-57340000D01*
X50907836Y-58060000D02*
X50692164Y-58060000D01*
%TO.C,D47*%
X225368940Y-91392263D02*
X225368940Y-88842263D01*
X227068940Y-91392263D02*
X225368940Y-91392263D01*
X227068940Y-91392263D02*
X227068940Y-88842263D01*
%TO.C,RGB8*%
X199153088Y-77759438D02*
X191853088Y-77759438D01*
X191853088Y-77759438D02*
X191853088Y-76609438D01*
X199153088Y-72259438D02*
X191853088Y-72259438D01*
%TO.C,D18*%
X130118860Y-53054712D02*
X130118860Y-50504712D01*
X131818860Y-53054712D02*
X130118860Y-53054712D01*
X131818860Y-53054712D02*
X131818860Y-50504712D01*
%TO.C,D38*%
X55618796Y-91392263D02*
X53918796Y-91392263D01*
X53918796Y-91392263D02*
X53918796Y-88842263D01*
X55618796Y-91392263D02*
X55618796Y-88842263D01*
%TO.C,R1*%
X75984751Y-32895856D02*
X75984751Y-32588574D01*
X75224751Y-32895856D02*
X75224751Y-32588574D01*
%TO.C,J1*%
X91309454Y-34123467D02*
X91309454Y-36123467D01*
X92359454Y-32823467D02*
X92809454Y-32373467D01*
X95759454Y-37423467D02*
X95309454Y-37873467D01*
X92359454Y-37423467D02*
X92809454Y-37873467D01*
X95309454Y-37873467D02*
X92809454Y-37873467D01*
X95309454Y-32373467D02*
X92809454Y-32373467D01*
X95759454Y-32823467D02*
X95309454Y-32373467D01*
X96809454Y-34123467D02*
X96809454Y-36123467D01*
%TO.C,D5*%
X112768844Y-33885408D02*
X111068844Y-33885408D01*
X112768844Y-33885408D02*
X112768844Y-31335408D01*
X111068844Y-33885408D02*
X111068844Y-31335408D01*
%TO.C,RGB5*%
X191853088Y-39659406D02*
X191853088Y-38509406D01*
X199153088Y-39659406D02*
X191853088Y-39659406D01*
X199153088Y-34159406D02*
X191853088Y-34159406D01*
%TO.C,D10*%
X208018924Y-34242215D02*
X206318924Y-34242215D01*
X206318924Y-34242215D02*
X206318924Y-31692215D01*
X208018924Y-34242215D02*
X208018924Y-31692215D01*
%TO.C,D29*%
X112768844Y-71985888D02*
X112768844Y-69435888D01*
X112768844Y-71985888D02*
X111068844Y-71985888D01*
X111068844Y-71985888D02*
X111068844Y-69435888D01*
%TO.C,D39*%
X74668812Y-91392263D02*
X72968812Y-91392263D01*
X74668812Y-91392263D02*
X74668812Y-88842263D01*
X72968812Y-91392263D02*
X72968812Y-88842263D01*
%TO.C,R6*%
X35396585Y-51339392D02*
X35089303Y-51339392D01*
X35396585Y-50579392D02*
X35089303Y-50579392D01*
%TO.C,C4*%
X52622857Y-47137563D02*
X52622857Y-46921891D01*
X53342857Y-47137563D02*
X53342857Y-46921891D01*
%TO.C,D41*%
X111068844Y-91392263D02*
X111068844Y-88842263D01*
X112768844Y-91392263D02*
X112768844Y-88842263D01*
X112768844Y-91392263D02*
X111068844Y-91392263D01*
%TO.C,D31*%
X150868876Y-71985888D02*
X150868876Y-69435888D01*
X150868876Y-71985888D02*
X149168876Y-71985888D01*
X149168876Y-71985888D02*
X149168876Y-69435888D01*
%TD*%
M02*
