M48
; DRILL file {KiCad (6.0.0)} date Sat Aug 19 11:13:41 2023
; FORMAT={-:-/ absolute / inch / decimal}
; #@! TF.CreationDate,2023-08-19T11:13:41+07:00
; #@! TF.GenerationSoftware,Kicad,Pcbnew,(6.0.0)
; #@! TF.FileFunction,Plated,1,2,PTH
FMAT,2
INCH
; #@! TA.AperFunction,Plated,PTH,ComponentDrill
T1C0.0138
; #@! TA.AperFunction,Plated,PTH,ViaDrill
T2C0.0157
; #@! TA.AperFunction,Plated,PTH,ComponentDrill
T3C0.0236
; #@! TA.AperFunction,Plated,PTH,ComponentDrill
T4C0.0866
%
G90
G05
T1
X2.1529Y-2.0592
X2.1529Y-2.1094
X2.1529Y-2.1596
X2.2031Y-2.0592
X2.2031Y-2.1094
X2.2031Y-2.1596
X2.2533Y-2.0592
X2.2533Y-2.1094
X2.2533Y-2.1596
T2
X0.7734Y-1.4531
X0.7734Y-2.2031
X0.7734Y-2.8125
X0.7992Y-1.878
X0.9281Y-1.9735
X1.1719Y-2.086
X1.188Y-1.5402
X1.3172Y-1.5235
X1.4063Y-1.875
X1.4531Y-1.1016
X1.5Y-1.8984
X1.5117Y-1.6055
X1.5422Y-1.9641
X1.5469Y-2.5781
X1.5492Y-3.1383
X1.6078Y-1.2047
X1.6339Y-1.6142
X1.6594Y-2.2461
X1.6735Y-1.3955
X1.7165Y-2.1299
X1.7343Y-2.0571
X1.7533Y-1.6378
X1.7717Y-2.2402
X1.7717Y-2.3957
X1.8189Y-2.3051
X1.8268Y-2.2067
X1.8495Y-2.052
X1.875Y-0.7734
X1.9134Y-1.7677
X1.9449Y-1.7913
X1.9453Y-0.8672
X1.9728Y-1.8763
X2.0118Y-2.5039
X2.0197Y-1.935
X2.0625Y-2.5078
X2.0859Y-1.4297
X2.0906Y-1.7165
X2.1067Y-0.9582
X2.1358Y-2.2992
X2.1539Y-0.8227
X2.1563Y-1.0078
X2.1563Y-2.7891
X2.2031Y-2.4375
X2.2126Y-1.7165
X2.2243Y-1.8058
X2.2266Y-2.5781
X2.2658Y-0.8226
X2.295Y-1.5564
X2.2982Y-0.9445
X2.3012Y-2.563
X2.3012Y-3.3248
X2.3205Y-1.8047
X2.3438Y-2.3438
X2.3465Y-1.9488
X2.3526Y-1.463
X2.3622Y-1.6575
X2.4094Y-1.5906
X2.49Y-1.6536
X2.5167Y-1.6269
X2.5193Y-1.3577
X2.5313Y-0.7734
X2.5394Y-2.1043
X2.5492Y-2.1555
X2.5827Y-2.0787
X2.6024Y-2.1929
X2.7422Y-1.3735
X2.8125Y-2.4844
X2.8594Y-1.8516
X2.8898Y-1.9469
X2.9063Y-2.6813
X3.0Y-1.8516
X3.0Y-2.0625
X3.0488Y-2.5762
X3.0488Y-3.1387
X3.0492Y-1.8258
X3.0492Y-2.3883
X3.0925Y-1.4831
X3.1929Y-1.6339
X3.2264Y-1.5846
X3.3426Y-1.4595
X3.4183Y-1.5197
X3.4449Y-1.9685
X3.5915Y-1.2132
X3.7402Y-1.3976
X3.7598Y-1.5118
X3.7622Y-1.4299
X3.7992Y-1.0758
X3.7992Y-1.6383
X3.7992Y-1.8258
X3.7992Y-2.3883
X3.7992Y-2.5758
X3.7992Y-3.1383
X3.8583Y-1.3976
X4.5492Y-1.0758
X4.5492Y-1.6383
X4.5492Y-1.8258
X4.5492Y-2.3883
X4.5492Y-2.5758
X4.6457Y-1.4256
X4.7344Y-3.1406
X5.2031Y-3.6094
X5.2988Y-1.0762
X5.2988Y-1.6387
X5.2988Y-1.8262
X5.2988Y-2.3887
X5.3586Y-1.3823
X6.0492Y-1.0758
X6.0492Y-1.6383
X6.0492Y-1.8258
X6.0492Y-2.3883
X6.0492Y-2.5758
X6.0492Y-3.1383
X6.1417Y-1.4173
X6.7988Y-2.5762
X6.7988Y-3.1387
X6.7992Y-1.0758
X6.7992Y-1.6383
X6.7992Y-1.8258
X6.7992Y-2.3883
X7.1457Y-1.4567
X7.5492Y-1.0758
X7.5492Y-1.6383
X7.5492Y-1.8258
X7.5492Y-2.3883
X7.5492Y-2.5758
X7.5492Y-3.1383
X7.6688Y-1.3828
X8.2988Y-2.5762
X8.2988Y-3.1387
X8.2992Y-1.0758
X8.2992Y-1.6383
X8.2992Y-1.8258
X8.2992Y-2.3883
X8.5173Y-1.4016
X8.536Y-2.7797
X8.536Y-3.0235
X8.8642Y-2.8688
X8.9534Y-2.5781
X8.9555Y-1.8281
X8.9574Y-2.3863
X8.9574Y-3.1363
X9.1732Y-2.6772
T3
G00X2.033Y-0.6767
M15
G01X2.033Y-0.7003
M16
G05
G00X2.033Y-0.8314
M15
G01X2.033Y-0.8747
M16
G05
G00X2.3732Y-0.6767
M15
G01X2.3732Y-0.7003
M16
G05
G00X2.3732Y-0.8314
M15
G01X2.3732Y-0.8747
M16
G05
T4
G00X1.4098Y-1.4485
M15
G01X1.4965Y-1.4485
M16
G05
G00X1.4098Y-2.2032
M15
G01X1.4965Y-2.2032
M16
G05
G00X1.4098Y-2.9578
M15
G01X1.4965Y-2.9578
M16
G05
G00X2.9099Y-1.4531
M15
G01X2.9965Y-1.4531
M16
G05
G00X2.9099Y-2.9532
M15
G01X2.9965Y-2.9532
M16
G05
G00X5.1591Y-2.2032
M15
G01X5.2457Y-2.2032
M16
G05
G00X7.4099Y-1.4531
M15
G01X7.4965Y-1.4531
M16
G05
G00X7.4099Y-2.9532
M15
G01X7.4965Y-2.9532
M16
G05
G00X8.9099Y-1.4531
M15
G01X8.9965Y-1.4531
M16
G05
G00X8.9099Y-2.2032
M15
G01X8.9965Y-2.2032
M16
G05
G00X8.9099Y-2.9532
M15
G01X8.9965Y-2.9532
M16
G05
T0
M30
